;TYPE=PLATED
;Layer: PTH_Through
;EasyEDA Pro v3.2.121, 2026-05-20 00:31:31
;Gerber Generator version 0.3
M48
METRIC,LZ,0000.00000
;Hole size 1 = 0.30480 METRIC
T01C0.30480
;Hole size 2 = 0.30500 METRIC
T02C0.30500
;Hole size 3 = 0.30500 METRIC
T03C0.30500
;Hole size 4 = 0.91440 METRIC
T04C0.91440
;Hole size 5 = 2.30002 METRIC
T05C2.30002
%
G05
G90
T01
X10.26367Y19.3718
X10.26367Y20.3718
X8.26393Y19.37205
X8.26393Y20.3718
X10.26367Y18.3718
X8.26367Y18.3718
X9.26367Y19.3718
X9.26418Y18.37231
X9.26367Y20.3718
T02
X0.87171Y30.34456
X1.80618Y30.34456
X2.54Y30.353
X6.35Y30.226
X7.112Y30.226
X7.874Y30.226
X8.636Y30.226
X9.398Y30.226
X10.287Y30.188
X11.049Y30.188
X11.811Y30.188
X12.573Y30.188
X13.335Y30.188
X14.224Y30.188
X14.986Y30.188
X15.748Y30.188
X16.51Y30.188
X17.272Y30.188
X8.89Y30.9055
X9.652Y30.9055
X10.414Y30.9055
X11.176Y30.9055
X11.938Y30.9055
X12.827Y30.8675
X13.589Y30.8675
X14.351Y30.8675
X15.113Y30.8675
X15.875Y30.8675
X16.637Y30.988
X6.604Y30.861
X7.366Y30.861
X8.128Y30.861
X0.762Y31.115
X1.524Y31.115
X2.286Y31.115
X17.399Y30.988
X4.94436Y28.15914
X1.524Y28.194
X3.302Y30.353
X3.81Y30.988
X3.048Y31.115
T03
X12.59268Y16.12897
X16.92507Y11.62298
X16.88237Y13.48027
X8.28069Y14.35097
X8.92388Y16.77217
X14.05757Y15.03397
X15.21107Y17.39896
X13.61387Y17.57196
X14.93377Y14.98597
X7.50168Y21.84896
X8.66378Y23.65025
X11.79127Y20.19296
X11.79127Y21.97096
X16.73507Y16.01116
X11.79968Y17.50067
X11.79968Y18.80857
X5.05409Y18.24697
X6.76819Y20.40476
X16.18997Y25.44295
X13.46277Y27.03375
X16.93167Y4.33719
X13.70987Y11.11498
X15.61497Y8.32098
X14.34497Y5.78099
X7.97158Y24.81145
X11.98908Y26.03495
X9.89568Y24.81145
X13.70567Y25.57345
X12.79287Y12.57297
X14.95897Y8.88288
X3.80999Y13.26997
X2.03199Y13.52397
X1.0882Y22.41705
X1.9754Y26.35225
X6.85799Y19.61996
X7.32628Y9.80308
X8.88998Y15.17797
X13.64237Y18.40636
X3.92619Y22.13786
X9.76818Y23.66185
T04
X5.53996Y4.556
X8.03995Y4.556
X10.03995Y4.556
X12.53994Y4.556
T05
X3.04001Y2.556
X15.03999Y2.556
M30