G04 Layer: TopLayer*
G04 EasyEDA Pro v3.2.121, 2026-05-20 00:31:31*
G04 Gerber Generator version 0.3*
G04 Scale: 100 percent, Rotated: No, Reflected: No*
G04 Dimensions in millimeters*
G04 Leading zeros omitted, absolute positions, 4 integers and 5 decimals*
G04 Generated by one-click*
%FSLAX45Y45*%
%MOMM*%
%ADD10C,0.2032*%
%ADD11C,0.254*%
%ADD12R,1.5X2.3*%
%ADD13R,0.8X0.9*%
%ADD14R,0.9X0.8*%
%ADD15R,1.2X1.2*%
%ADD16R,1.07201X0.532*%
%ADD17R,1.72799X1.19009*%
%ADD18R,0.8617X0.8*%
%ADD19R,0.86401X0.8*%
%ADD20R,0.8X0.86401*%
%ADD21R,1.39954X1.0*%
%ADD22R,0.86401X0.80648*%
%ADD23R,0.67201X1.575*%
%ADD24R,0.665X0.2*%
%ADD25R,0.2X0.665*%
%ADD26R,3.99999X3.99999*%
%ADD27C,1.524*%
%ADD28C,2.99999*%
%ADD29R,1.2X1.4*%
%ADD30R,1.25001X1.0*%
%ADD31C,0.61*%
%ADD32C,0.6096*%
%ADD33C,0.18*%
G75*


G04 Copper Start*
G36*
G01X39814Y263900D02*
G01X39814Y455600D01*
G01X441999Y455600D01*
G01X443907Y435017D01*
G01X449563Y415136D01*
G01X458777Y396632D01*
G01X471234Y380136D01*
G01X486510Y366211D01*
G01X504084Y355329D01*
G01X523359Y347862D01*
G01X543678Y344064D01*
G01X564349Y344064D01*
G01X584667Y347862D01*
G01X603942Y355329D01*
G01X621517Y366211D01*
G01X636793Y380136D01*
G01X649250Y396632D01*
G01X658463Y415136D01*
G01X664120Y435017D01*
G01X666027Y455600D01*
G01X664120Y476182D01*
G01X658463Y496064D01*
G01X649250Y514568D01*
G01X636793Y531063D01*
G01X621517Y544989D01*
G01X603942Y555871D01*
G01X584667Y563338D01*
G01X564349Y567136D01*
G01X543678Y567136D01*
G01X523359Y563338D01*
G01X504084Y555871D01*
G01X486510Y544989D01*
G01X471234Y531063D01*
G01X458777Y514568D01*
G01X449563Y496064D01*
G01X443907Y476182D01*
G01X441999Y455600D01*
G01X441999Y455600D01*
G01X39814Y455600D01*
G01X39814Y2988035D01*
G01X51382Y2978628D01*
G01X64759Y2972044D01*
G01X79270Y2968614D01*
G01X94179Y2968513D01*
G01X108735Y2971746D01*
G01X122200Y2978148D01*
G01X133895Y2987398D01*
G01X145850Y2977987D01*
G01X159636Y2971549D01*
G01X174527Y2968422D01*
G01X189738Y2968772D01*
G01X204469Y2972579D01*
G01X217945Y2979644D01*
G01X232043Y2972726D01*
G01X247374Y2969318D01*
G01X263075Y2969610D01*
G01X278268Y2973586D01*
G01X292100Y2981023D01*
G01X306549Y2973347D01*
G01X322437Y2969442D01*
G01X338798Y2969546D01*
G01X354635Y2973652D01*
G01X368985Y2981511D01*
G01X368985Y2789104D01*
G01X370524Y2776983D01*
G01X375043Y2765630D01*
G01X368143Y2767789D01*
G01X360951Y2768519D01*
G01X270951Y2768519D01*
G01X259884Y2766766D01*
G01X249900Y2761679D01*
G01X241977Y2753756D01*
G01X236890Y2743772D01*
G01X235137Y2732705D01*
G01X235137Y2652705D01*
G01X237081Y2641064D01*
G01X242704Y2630688D01*
G01X251393Y2622702D01*
G01X244555Y2616905D01*
G01X239370Y2609591D01*
G01X236165Y2601219D01*
G01X206786Y2601219D01*
G01X203580Y2609591D01*
G01X198396Y2616905D01*
G01X191557Y2622702D01*
G01X200247Y2630688D01*
G01X205869Y2641064D01*
G01X207814Y2652705D01*
G01X207814Y2732705D01*
G01X206061Y2743772D01*
G01X200974Y2753756D01*
G01X193051Y2761679D01*
G01X183067Y2766766D01*
G01X172000Y2768519D01*
G01X82000Y2768519D01*
G01X70933Y2766766D01*
G01X60949Y2761679D01*
G01X53026Y2753756D01*
G01X47939Y2743772D01*
G01X46186Y2732705D01*
G01X46186Y2652705D01*
G01X48131Y2641064D01*
G01X53753Y2630688D01*
G01X62443Y2622702D01*
G01X53753Y2614717D01*
G01X48131Y2604340D01*
G01X46186Y2592700D01*
G01X46186Y2512700D01*
G01X47939Y2501633D01*
G01X53026Y2491649D01*
G01X60949Y2483726D01*
G01X70933Y2478639D01*
G01X82000Y2476886D01*
G01X172000Y2476886D01*
G01X183698Y2478850D01*
G01X194112Y2484527D01*
G01X202101Y2493295D01*
G01X206788Y2504191D01*
G01X236162Y2504191D01*
G01X240849Y2493295D01*
G01X248839Y2484527D01*
G01X259253Y2478850D01*
G01X270951Y2476886D01*
G01X360951Y2476886D01*
G01X371093Y2478352D01*
G01X380404Y2482630D01*
G01X388124Y2489370D01*
G01X393618Y2498021D01*
G01X396438Y2507873D01*
G01X404840Y2512359D01*
G01X412204Y2518400D01*
G01X425222Y2531418D01*
G01X425222Y2511362D01*
G01X426975Y2500295D01*
G01X432062Y2490311D01*
G01X439985Y2482388D01*
G01X449969Y2477301D01*
G01X461036Y2475548D01*
G01X517000Y2475548D01*
G01X540795Y2451753D01*
G01X540795Y2241098D01*
G01X534753Y2238392D01*
G01X529312Y2234619D01*
G01X422648Y2341284D01*
G01X413366Y2348405D01*
G01X402558Y2352882D01*
G01X390959Y2354409D01*
G01X342514Y2354409D01*
G01X342514Y2362902D01*
G01X340761Y2373969D01*
G01X335674Y2383953D01*
G01X327751Y2391876D01*
G01X317767Y2396963D01*
G01X306700Y2398716D01*
G01X226700Y2398716D01*
G01X215060Y2396772D01*
G01X204683Y2391149D01*
G01X196698Y2382460D01*
G01X188712Y2391149D01*
G01X178336Y2396772D01*
G01X166695Y2398716D01*
G01X86695Y2398716D01*
G01X75628Y2396963D01*
G01X65644Y2391876D01*
G01X57721Y2383953D01*
G01X52634Y2373969D01*
G01X50881Y2362902D01*
G01X50881Y2272902D01*
G01X52634Y2261835D01*
G01X57721Y2251852D01*
G01X65644Y2243928D01*
G01X75628Y2238841D01*
G01X86695Y2237088D01*
G01X142413Y2237088D01*
G01X137129Y2231804D01*
G01X86721Y2231804D01*
G01X75654Y2230051D01*
G01X65670Y2224964D01*
G01X57747Y2217041D01*
G01X52660Y2207057D01*
G01X50907Y2195990D01*
G01X50907Y2109589D01*
G01X52660Y2098522D01*
G01X57747Y2088538D01*
G01X65670Y2080615D01*
G01X75654Y2075528D01*
G01X86721Y2073775D01*
G01X166721Y2073775D01*
G01X178354Y2075717D01*
G01X188725Y2081333D01*
G01X196710Y2090012D01*
G01X204695Y2081333D01*
G01X215067Y2075717D01*
G01X226700Y2073775D01*
G01X306700Y2073775D01*
G01X317767Y2075528D01*
G01X327751Y2080615D01*
G01X335674Y2088538D01*
G01X340761Y2098522D01*
G01X342514Y2109589D01*
G01X342514Y2165224D01*
G01X344963Y2167673D01*
G01X355694Y2158703D01*
G01X368069Y2152184D01*
G01X381535Y2148405D01*
G01X395494Y2147534D01*
G01X398605Y2144423D01*
G01X398605Y1903211D01*
G01X325963Y1903211D01*
G01X314189Y1901220D01*
G01X303724Y1895469D01*
G01X295731Y1886597D01*
G01X291099Y1875590D01*
G01X287349Y1875590D01*
G01X276306Y1874317D01*
G01X265842Y1870562D01*
G01X256507Y1864525D01*
G01X256687Y1868108D01*
G01X256687Y1968108D01*
G01X254934Y1979175D01*
G01X249847Y1989159D01*
G01X241924Y1997082D01*
G01X231940Y2002169D01*
G01X220873Y2003922D01*
G01X95872Y2003922D01*
G01X84805Y2002169D01*
G01X74821Y1997082D01*
G01X66898Y1989159D01*
G01X61811Y1979175D01*
G01X60058Y1968108D01*
G01X60058Y1868108D01*
G01X61811Y1857041D01*
G01X66898Y1847057D01*
G01X74821Y1839134D01*
G01X84805Y1834047D01*
G01X95872Y1832294D01*
G01X220873Y1832294D01*
G01X224104Y1832440D01*
G01X175571Y1783907D01*
G01X95872Y1783907D01*
G01X84805Y1782154D01*
G01X74821Y1777067D01*
G01X66898Y1769144D01*
G01X61811Y1759160D01*
G01X60058Y1748093D01*
G01X60058Y1648093D01*
G01X61811Y1637026D01*
G01X66898Y1627042D01*
G01X74821Y1619119D01*
G01X84805Y1614032D01*
G01X95872Y1612279D01*
G01X220873Y1612279D01*
G01X232685Y1614283D01*
G01X232685Y1542983D01*
G01X222866Y1540182D01*
G01X214236Y1534724D01*
G01X207497Y1527052D01*
G01X199512Y1535741D01*
G01X189135Y1541364D01*
G01X177495Y1543308D01*
G01X97495Y1543308D01*
G01X86428Y1541555D01*
G01X76444Y1536468D01*
G01X68521Y1528545D01*
G01X63434Y1518561D01*
G01X61681Y1507494D01*
G01X61681Y1417494D01*
G01X63434Y1406427D01*
G01X68521Y1396444D01*
G01X76444Y1388520D01*
G01X86428Y1383433D01*
G01X97495Y1381680D01*
G01X177495Y1381680D01*
G01X189135Y1383625D01*
G01X199512Y1389247D01*
G01X207497Y1397937D01*
G01X213296Y1391097D01*
G01X220611Y1385913D01*
G01X228985Y1382707D01*
G01X228985Y1350527D01*
G01X219053Y1347768D01*
G01X210318Y1342293D01*
G01X203505Y1334557D01*
G01X195519Y1343247D01*
G01X185143Y1348869D01*
G01X173502Y1350814D01*
G01X93502Y1350814D01*
G01X82435Y1349061D01*
G01X72452Y1343974D01*
G01X64528Y1336051D01*
G01X59441Y1326067D01*
G01X57688Y1315000D01*
G01X57688Y1225000D01*
G01X59441Y1213933D01*
G01X64528Y1203949D01*
G01X72452Y1196026D01*
G01X82435Y1190939D01*
G01X93502Y1189186D01*
G01X173502Y1189186D01*
G01X185143Y1191131D01*
G01X195519Y1196753D01*
G01X203505Y1205443D01*
G01X211490Y1196753D01*
G01X221867Y1191131D01*
G01X233507Y1189186D01*
G01X285712Y1189186D01*
G01X338729Y1136169D01*
G01X336951Y1132856D01*
G01X336183Y1131340D01*
G01X334266Y1127319D01*
G01X333588Y1125810D01*
G01X331858Y1121705D01*
G01X331240Y1120135D01*
G01X329706Y1115954D01*
G01X329162Y1114358D01*
G01X327826Y1110109D01*
G01X327361Y1108500D01*
G01X326226Y1104194D01*
G01X325839Y1102576D01*
G01X324904Y1098220D01*
G01X324587Y1096547D01*
G01X323860Y1092153D01*
G01X323626Y1090497D01*
G01X323106Y1086073D01*
G01X322948Y1084399D01*
G01X322636Y1079957D01*
G01X322558Y1078302D01*
G01X322451Y1073850D01*
G01X322441Y1072992D01*
G01X322441Y887572D01*
G01X322451Y886714D01*
G01X322558Y882261D01*
G01X322636Y880607D01*
G01X322948Y876164D01*
G01X323106Y874491D01*
G01X323626Y870066D01*
G01X323860Y868411D01*
G01X324587Y864016D01*
G01X324904Y862344D01*
G01X325839Y857988D01*
G01X326226Y856369D01*
G01X327361Y852064D01*
G01X327826Y850455D01*
G01X329162Y846205D01*
G01X329706Y844609D01*
G01X331240Y840429D01*
G01X331858Y838858D01*
G01X333588Y834754D01*
G01X334266Y833244D01*
G01X336183Y829223D01*
G01X336951Y827708D01*
G01X339057Y823783D01*
G01X339200Y823518D01*
G01X336870Y823594D01*
G01X269669Y823594D01*
G01X258602Y821841D01*
G01X248618Y816754D01*
G01X240695Y808831D01*
G01X235608Y798847D01*
G01X233855Y787780D01*
G01X233855Y630280D01*
G01X235608Y619213D01*
G01X240695Y609229D01*
G01X248618Y601306D01*
G01X258602Y596219D01*
G01X269669Y594466D01*
G01X336870Y594466D01*
G01X347937Y596219D01*
G01X357920Y601306D01*
G01X365844Y609229D01*
G01X370931Y619213D01*
G01X372684Y630280D01*
G01X372684Y784545D01*
G01X375200Y782606D01*
G01X376554Y781613D01*
G01X380206Y779063D01*
G01X381608Y778133D01*
G01X384445Y776344D01*
G01X384445Y630285D01*
G01X386198Y619218D01*
G01X391285Y609234D01*
G01X399208Y601311D01*
G01X409192Y596224D01*
G01X420259Y594471D01*
G01X486258Y594471D01*
G01X497325Y596224D01*
G01X507309Y601311D01*
G01X515232Y609234D01*
G01X520320Y619218D01*
G01X522072Y630285D01*
G01X522072Y776347D01*
G01X524904Y778133D01*
G01X526306Y779063D01*
G01X529959Y781613D01*
G01X531312Y782606D01*
G01X533854Y784564D01*
G01X533854Y630280D01*
G01X535607Y619213D01*
G01X540694Y609229D01*
G01X548617Y601306D01*
G01X558601Y596219D01*
G01X569668Y594466D01*
G01X636869Y594466D01*
G01X647936Y596219D01*
G01X657920Y601306D01*
G01X665843Y609229D01*
G01X670930Y619213D01*
G01X672683Y630280D01*
G01X672683Y660538D01*
G01X684834Y662379D01*
G01X696132Y667215D01*
G01X705853Y674734D01*
G01X779175Y748056D01*
G01X779175Y631908D01*
G01X780828Y619352D01*
G01X785674Y607651D01*
G01X793384Y597604D01*
G01X825446Y565542D01*
G01X804868Y567610D01*
G01X784260Y565861D01*
G01X764325Y560352D01*
G01X745743Y551272D01*
G01X729146Y538931D01*
G01X715102Y523748D01*
G01X704088Y506243D01*
G01X696480Y487011D01*
G01X692538Y466708D01*
G01X692396Y446026D01*
G01X696058Y425671D01*
G01X703401Y406336D01*
G01X714173Y388681D01*
G01X728007Y373307D01*
G01X744432Y360738D01*
G01X762888Y351403D01*
G01X782745Y345621D01*
G01X803327Y343588D01*
G01X823932Y345373D01*
G01X843857Y350917D01*
G01X862424Y360029D01*
G01X878999Y372399D01*
G01X893017Y387606D01*
G01X904000Y405130D01*
G01X914031Y388871D01*
G01X926678Y374554D01*
G01X941575Y362593D01*
G01X958287Y353338D01*
G01X976329Y347057D01*
G01X995176Y343934D01*
G01X1014279Y344058D01*
G01X1033084Y347427D01*
G01X1051042Y353943D01*
G01X1067633Y363415D01*
G01X1082372Y375569D01*
G01X1094832Y390050D01*
G01X1104649Y406439D01*
G01X1111539Y424257D01*
G01X1115301Y442987D01*
G01X1115826Y462083D01*
G01X1113098Y480992D01*
G01X1107196Y499161D01*
G01X1142316Y464041D01*
G01X1142531Y444680D01*
G01X1146077Y425646D01*
G01X1152848Y407507D01*
G01X1162641Y390804D01*
G01X1175164Y376038D01*
G01X1190043Y363648D01*
G01X1206833Y354006D01*
G01X1225033Y347399D01*
G01X1244098Y344025D01*
G01X1263460Y343985D01*
G01X1282540Y347279D01*
G01X1300767Y353810D01*
G01X1317597Y363382D01*
G01X1332527Y375709D01*
G01X1345112Y390424D01*
G01X1354975Y407085D01*
G01X1396393Y407085D01*
G01X1375932Y390231D01*
G01X1358077Y370637D01*
G01X1343192Y348702D01*
G01X1331580Y324872D01*
G01X1323477Y299631D01*
G01X1319049Y273495D01*
G01X1318384Y246995D01*
G01X1321498Y220669D01*
G01X1328326Y195055D01*
G01X1338729Y170673D01*
G01X1352496Y148019D01*
G01X1369347Y127555D01*
G01X1388938Y109697D01*
G01X1410871Y94809D01*
G01X1434699Y83193D01*
G01X1459938Y75086D01*
G01X1486073Y70653D01*
G01X1512574Y69984D01*
G01X1538900Y73094D01*
G01X1564515Y79917D01*
G01X1588899Y90317D01*
G01X1611555Y104080D01*
G01X1632022Y120927D01*
G01X1649883Y140515D01*
G01X1664775Y162446D01*
G01X1676395Y186272D01*
G01X1684506Y211509D01*
G01X1688943Y237644D01*
G01X1689616Y264145D01*
G01X1686511Y290471D01*
G01X1679692Y316088D01*
G01X1669296Y340473D01*
G01X1655537Y363131D01*
G01X1638693Y383601D01*
G01X1619108Y401465D01*
G01X1597180Y416361D01*
G01X1573355Y427985D01*
G01X1548119Y436100D01*
G01X1521985Y440541D01*
G01X1495485Y441219D01*
G01X1469158Y438118D01*
G01X1443540Y431303D01*
G01X1550243Y538006D01*
G01X1550243Y528129D01*
G01X1551896Y515573D01*
G01X1556742Y503872D01*
G01X1564452Y493824D01*
G01X1626894Y431383D01*
G01X1629208Y416202D01*
G01X1634953Y401960D01*
G01X1643819Y389421D01*
G01X1655331Y379258D01*
G01X1668873Y372015D01*
G01X1683717Y368082D01*
G01X1699068Y367668D01*
G01X1714103Y370797D01*
G01X1728015Y377300D01*
G01X1740058Y386828D01*
G01X1749586Y398871D01*
G01X1756089Y412783D01*
G01X1759217Y427818D01*
G01X1758804Y443169D01*
G01X1754870Y458013D01*
G01X1747628Y471555D01*
G01X1737465Y483067D01*
G01X1724926Y491933D01*
G01X1710684Y497677D01*
G01X1695503Y499992D01*
G01X1647271Y548224D01*
G01X1647271Y559319D01*
G01X1658758Y559319D01*
G01X1669825Y561072D01*
G01X1679809Y566159D01*
G01X1687732Y574082D01*
G01X1692819Y584066D01*
G01X1694572Y595133D01*
G01X1694572Y682335D01*
G01X1721211Y708973D01*
G01X1728921Y719021D01*
G01X1733767Y730722D01*
G01X1735420Y743278D01*
G01X1735420Y1054098D01*
G01X1733767Y1066654D01*
G01X1728921Y1078355D01*
G01X1721211Y1088402D01*
G01X1710999Y1098614D01*
G01X1725457Y1104749D01*
G01X1738067Y1114112D01*
G01X1748121Y1126179D01*
G01X1755056Y1140271D01*
G01X1758482Y1155599D01*
G01X1758207Y1171302D01*
G01X1754246Y1186501D01*
G01X1746823Y1200342D01*
G01X1736352Y1212048D01*
G01X1723423Y1220964D01*
G01X1708758Y1226589D01*
G01X1693183Y1228608D01*
G01X1685110Y1232748D01*
G01X1683495Y1235202D01*
G01X1688500Y1245123D01*
G01X1690224Y1256100D01*
G01X1690224Y1281743D01*
G01X1704637Y1283773D01*
G01X1718259Y1288898D01*
G01X1730435Y1296872D01*
G01X1740579Y1307310D01*
G01X1748201Y1319710D01*
G01X1752934Y1333474D01*
G01X1754551Y1347938D01*
G01X1752973Y1362407D01*
G01X1748276Y1376184D01*
G01X1740687Y1388604D01*
G01X1730572Y1399069D01*
G01X1718417Y1407075D01*
G01X1704808Y1412237D01*
G01X1690401Y1414305D01*
G01X1688227Y1416088D01*
G01X1683043Y1425808D01*
G01X1675150Y1433493D01*
G01X1665295Y1438416D01*
G01X1654410Y1440110D01*
G01X1547209Y1440110D01*
G01X1536142Y1438357D01*
G01X1526158Y1433270D01*
G01X1518235Y1425347D01*
G01X1513148Y1415363D01*
G01X1511395Y1404296D01*
G01X1511395Y1351096D01*
G01X1513119Y1340119D01*
G01X1518125Y1330198D01*
G01X1513119Y1320277D01*
G01X1511395Y1309300D01*
G01X1511395Y1302795D01*
G01X1511202Y1302602D01*
G01X1511202Y1326897D01*
G01X1509548Y1339454D01*
G01X1504702Y1351154D01*
G01X1496992Y1361202D01*
G01X1460405Y1397789D01*
G01X1460405Y1404296D01*
G01X1460327Y1406648D01*
G01X1467745Y1410718D01*
G01X1474265Y1416109D01*
G01X1490502Y1432345D01*
G01X1504526Y1433227D01*
G01X1518050Y1437044D01*
G01X1530466Y1443625D01*
G01X1541216Y1452674D01*
G01X1549819Y1463785D01*
G01X1555887Y1476459D01*
G01X1559148Y1490128D01*
G01X1559456Y1504176D01*
G01X1556797Y1517975D01*
G01X1551290Y1530903D01*
G01X1648107Y1530903D01*
G01X1657822Y1531968D01*
G01X1667076Y1535115D01*
G01X1683097Y1535500D01*
G01X1698559Y1539717D01*
G01X1712558Y1547520D01*
G01X1724275Y1558454D01*
G01X1733028Y1571880D01*
G01X1738303Y1587013D01*
G01X1739795Y1602970D01*
G01X1737414Y1618819D01*
G01X1747612Y1623821D01*
G01X1755730Y1631765D01*
G01X1760952Y1641852D01*
G01X1762753Y1653067D01*
G01X1762753Y1753066D01*
G01X1761001Y1764133D01*
G01X1755914Y1774117D01*
G01X1747990Y1782040D01*
G01X1738007Y1787127D01*
G01X1726939Y1788880D01*
G01X1586985Y1788880D01*
G01X1578260Y1787801D01*
G01X1570061Y1784629D01*
G01X1565921Y1788776D01*
G01X1565921Y1834160D01*
G01X1575910Y1829066D01*
G01X1586985Y1827311D01*
G01X1726939Y1827311D01*
G01X1738007Y1829063D01*
G01X1747990Y1834150D01*
G01X1755914Y1842074D01*
G01X1761001Y1852057D01*
G01X1762753Y1863125D01*
G01X1762753Y1963124D01*
G01X1761001Y1974191D01*
G01X1755914Y1984175D01*
G01X1747990Y1992098D01*
G01X1738007Y1997185D01*
G01X1726939Y1998938D01*
G01X1586985Y1998938D01*
G01X1575918Y1997185D01*
G01X1565934Y1992098D01*
G01X1558011Y1984175D01*
G01X1552924Y1974191D01*
G01X1551171Y1963124D01*
G01X1551171Y1900208D01*
G01X1466275Y1985104D01*
G01X1456994Y1992226D01*
G01X1446186Y1996703D01*
G01X1434587Y1998230D01*
G01X1383787Y1998230D01*
G01X1372189Y1996703D01*
G01X1361380Y1992226D01*
G01X1352099Y1985104D01*
G01X1336120Y1969125D01*
G01X1334747Y1977197D01*
G01X1336172Y1987200D01*
G01X1336172Y2007200D01*
G01X1334747Y2017202D01*
G01X1336172Y2027205D01*
G01X1336172Y2047205D01*
G01X1334747Y2057207D01*
G01X1336172Y2067210D01*
G01X1336172Y2087210D01*
G01X1334751Y2097200D01*
G01X1336172Y2107190D01*
G01X1336172Y2127190D01*
G01X1334747Y2137192D01*
G01X1336172Y2147195D01*
G01X1336172Y2167195D01*
G01X1334747Y2177197D01*
G01X1336172Y2187200D01*
G01X1336172Y2207200D01*
G01X1334419Y2218267D01*
G01X1329332Y2228250D01*
G01X1321409Y2236174D01*
G01X1311425Y2241261D01*
G01X1300358Y2243014D01*
G01X1233858Y2243014D01*
G01X1232134Y2242972D01*
G01X1232176Y2244696D01*
G01X1232176Y2311196D01*
G01X1230423Y2322263D01*
G01X1225336Y2332247D01*
G01X1217413Y2340170D01*
G01X1207429Y2345257D01*
G01X1196362Y2347010D01*
G01X1176362Y2347010D01*
G01X1166359Y2345585D01*
G01X1156357Y2347010D01*
G01X1136357Y2347010D01*
G01X1126354Y2345585D01*
G01X1116352Y2347010D01*
G01X1106686Y2347010D01*
G01X1102881Y2353422D01*
G01X1098066Y2359114D01*
G01X1097832Y2359346D01*
G01X1097832Y2476886D01*
G01X1131002Y2476886D01*
G01X1142069Y2478639D01*
G01X1152053Y2483726D01*
G01X1159976Y2491649D01*
G01X1165063Y2501633D01*
G01X1166816Y2512700D01*
G01X1166816Y2545463D01*
G01X1178938Y2540259D01*
G01X1191849Y2537558D01*
G01X1191849Y2512376D01*
G01X1193602Y2501309D01*
G01X1198689Y2491325D01*
G01X1206612Y2483402D01*
G01X1216596Y2478315D01*
G01X1227663Y2476562D01*
G01X1314064Y2476562D01*
G01X1323705Y2477884D01*
G01X1332634Y2481753D01*
G01X1340193Y2487883D01*
G01X1345822Y2495821D01*
G01X1358588Y2492122D01*
G01X1358588Y2372693D01*
G01X1360340Y2361626D01*
G01X1365427Y2351642D01*
G01X1373351Y2343719D01*
G01X1383334Y2338632D01*
G01X1394402Y2336879D01*
G01X1514401Y2336879D01*
G01X1524002Y2338190D01*
G01X1532901Y2342026D01*
G01X1540445Y2348108D01*
G01X1546082Y2355990D01*
G01X1549400Y2365094D01*
G01X1552718Y2355990D01*
G01X1558355Y2348108D01*
G01X1565899Y2342026D01*
G01X1574798Y2338190D01*
G01X1584399Y2336879D01*
G01X1595983Y2336879D01*
G01X1595983Y2314987D01*
G01X1587609Y2311782D01*
G01X1580293Y2306597D01*
G01X1574495Y2299757D01*
G01X1566510Y2308447D01*
G01X1556133Y2314069D01*
G01X1544493Y2316014D01*
G01X1464493Y2316014D01*
G01X1453426Y2314261D01*
G01X1443442Y2309174D01*
G01X1435519Y2301251D01*
G01X1430432Y2291267D01*
G01X1428679Y2280200D01*
G01X1428679Y2190200D01*
G01X1430432Y2179133D01*
G01X1435519Y2169149D01*
G01X1443442Y2161226D01*
G01X1453426Y2156139D01*
G01X1464493Y2154386D01*
G01X1544493Y2154386D01*
G01X1556133Y2156331D01*
G01X1566510Y2161953D01*
G01X1574495Y2170643D01*
G01X1582481Y2161953D01*
G01X1592857Y2156331D01*
G01X1604498Y2154386D01*
G01X1684498Y2154386D01*
G01X1695565Y2156139D01*
G01X1705548Y2161226D01*
G01X1713472Y2169149D01*
G01X1718559Y2179133D01*
G01X1720312Y2190200D01*
G01X1720312Y2280200D01*
G01X1718348Y2291897D01*
G01X1712671Y2302310D01*
G01X1703905Y2310299D01*
G01X1693011Y2314987D01*
G01X1693011Y2336879D01*
G01X1704398Y2336879D01*
G01X1715466Y2338632D01*
G01X1725449Y2343719D01*
G01X1733373Y2351642D01*
G01X1738460Y2361626D01*
G01X1740212Y2372693D01*
G01X1740212Y2512692D01*
G01X1738460Y2523760D01*
G01X1733373Y2533743D01*
G01X1725449Y2541667D01*
G01X1715466Y2546754D01*
G01X1704398Y2548506D01*
G01X1685177Y2548506D01*
G01X1684103Y2556894D01*
G01X1704398Y2556894D01*
G01X1715466Y2558646D01*
G01X1725449Y2563733D01*
G01X1733373Y2571657D01*
G01X1738460Y2581640D01*
G01X1740212Y2592708D01*
G01X1740212Y2732707D01*
G01X1738460Y2743774D01*
G01X1733373Y2753758D01*
G01X1725449Y2761681D01*
G01X1715466Y2766768D01*
G01X1704398Y2768521D01*
G01X1584399Y2768521D01*
G01X1574798Y2767210D01*
G01X1565899Y2763374D01*
G01X1558355Y2757292D01*
G01X1552718Y2749410D01*
G01X1549400Y2740306D01*
G01X1546082Y2749410D01*
G01X1540445Y2757292D01*
G01X1532901Y2763374D01*
G01X1524002Y2767210D01*
G01X1514401Y2768521D01*
G01X1502911Y2768521D01*
G01X1502911Y2789386D01*
G01X1532098Y2789386D01*
G01X1543738Y2791331D01*
G01X1554114Y2796953D01*
G01X1562100Y2805643D01*
G01X1570086Y2796953D01*
G01X1580462Y2791331D01*
G01X1592102Y2789386D01*
G01X1672102Y2789386D01*
G01X1683169Y2791139D01*
G01X1693153Y2796226D01*
G01X1701076Y2804149D01*
G01X1706163Y2814133D01*
G01X1707916Y2825200D01*
G01X1707916Y2915200D01*
G01X1706163Y2926267D01*
G01X1701076Y2936251D01*
G01X1693153Y2944174D01*
G01X1683169Y2949261D01*
G01X1672102Y2951014D01*
G01X1592102Y2951014D01*
G01X1580462Y2949069D01*
G01X1570086Y2943447D01*
G01X1562100Y2934757D01*
G01X1554114Y2943447D01*
G01X1543738Y2949069D01*
G01X1532098Y2951014D01*
G01X1452098Y2951014D01*
G01X1441031Y2949261D01*
G01X1431047Y2944174D01*
G01X1423124Y2936251D01*
G01X1418037Y2926267D01*
G01X1416284Y2915200D01*
G01X1416284Y2862521D01*
G01X1410602Y2853376D01*
G01X1407078Y2843204D01*
G01X1405883Y2832504D01*
G01X1405883Y2768521D01*
G01X1394402Y2768521D01*
G01X1384459Y2767114D01*
G01X1375298Y2763001D01*
G01X1363701Y2767359D01*
G01X1351495Y2769483D01*
G01X1339106Y2769300D01*
G01X1331742Y2774844D01*
G01X1323206Y2778324D01*
G01X1314064Y2779511D01*
G01X1227663Y2779511D01*
G01X1216596Y2777758D01*
G01X1206612Y2772671D01*
G01X1198689Y2764748D01*
G01X1193602Y2754764D01*
G01X1191849Y2743697D01*
G01X1191849Y2669432D01*
G01X1178938Y2666730D01*
G01X1166816Y2661527D01*
G01X1166816Y2732705D01*
G01X1165063Y2743772D01*
G01X1159976Y2753756D01*
G01X1152053Y2761679D01*
G01X1142069Y2766766D01*
G01X1131002Y2768519D01*
G01X1041002Y2768519D01*
G01X1029935Y2766766D01*
G01X1019952Y2761679D01*
G01X1012028Y2753756D01*
G01X1006941Y2743772D01*
G01X1005188Y2732705D01*
G01X1005188Y2652705D01*
G01X1007133Y2641064D01*
G01X1012755Y2630688D01*
G01X1021445Y2622702D01*
G01X1012755Y2614717D01*
G01X1007133Y2604340D01*
G01X1005188Y2592700D01*
G01X1005188Y2588799D01*
G01X977866Y2588799D01*
G01X977866Y2592700D01*
G01X975921Y2604340D01*
G01X970299Y2614717D01*
G01X961609Y2622702D01*
G01X970299Y2630688D01*
G01X975921Y2641064D01*
G01X977866Y2652705D01*
G01X977866Y2732705D01*
G01X976113Y2743772D01*
G01X971026Y2753756D01*
G01X963103Y2761679D01*
G01X953119Y2766766D01*
G01X942052Y2768519D01*
G01X852052Y2768519D01*
G01X840985Y2766766D01*
G01X831001Y2761679D01*
G01X823078Y2753756D01*
G01X817991Y2743772D01*
G01X816238Y2732705D01*
G01X816238Y2652705D01*
G01X818182Y2641064D01*
G01X823805Y2630688D01*
G01X832494Y2622702D01*
G01X823805Y2614717D01*
G01X818182Y2604340D01*
G01X816238Y2592700D01*
G01X816238Y2588799D01*
G01X788915Y2588799D01*
G01X788915Y2592700D01*
G01X786971Y2604340D01*
G01X781348Y2614717D01*
G01X772659Y2622702D01*
G01X781348Y2630688D01*
G01X786971Y2641064D01*
G01X788915Y2652705D01*
G01X788915Y2732705D01*
G01X787162Y2743772D01*
G01X782075Y2753756D01*
G01X774152Y2761679D01*
G01X764168Y2766766D01*
G01X753101Y2768519D01*
G01X663101Y2768519D01*
G01X652034Y2766766D01*
G01X642050Y2761679D01*
G01X634127Y2753756D01*
G01X629040Y2743772D01*
G01X627287Y2732705D01*
G01X627287Y2677419D01*
G01X583251Y2677419D01*
G01X583251Y2742682D01*
G01X581498Y2753749D01*
G01X576411Y2763733D01*
G01X568487Y2771656D01*
G01X558504Y2776743D01*
G01X547437Y2778496D01*
G01X496717Y2778496D01*
G01X466013Y2809200D01*
G01X466013Y2862249D01*
G01X536898Y2862249D01*
G01X547965Y2864002D01*
G01X557949Y2869089D01*
G01X565872Y2877012D01*
G01X570959Y2886996D01*
G01X572712Y2898063D01*
G01X572712Y2978063D01*
G01X570770Y2989696D01*
G01X565155Y3000067D01*
G01X556475Y3008052D01*
G01X563458Y3014016D01*
G01X568694Y3021560D01*
G01X570469Y3007327D01*
G01X575262Y2993809D01*
G01X582850Y2981637D01*
G01X592878Y2971382D01*
G01X604876Y2963523D01*
G01X618284Y2958427D01*
G01X632474Y2956334D01*
G01X646781Y2957341D01*
G01X660538Y2961401D01*
G01X673100Y2968323D01*
G01X687392Y2960707D01*
G01X703103Y2956782D01*
G01X719297Y2956782D01*
G01X735008Y2960707D01*
G01X749300Y2968323D01*
G01X763592Y2960707D01*
G01X779303Y2956782D01*
G01X795497Y2956782D01*
G01X811208Y2960707D01*
G01X825500Y2968323D01*
G01X837287Y2961730D01*
G01X850165Y2957661D01*
G01X863600Y2956286D01*
G01X877035Y2957661D01*
G01X889913Y2961730D01*
G01X901700Y2968323D01*
G01X914307Y2961382D01*
G01X928116Y2957323D01*
G01X942474Y2956340D01*
G01X956707Y2958477D01*
G01X970143Y2963635D01*
G01X982150Y2971570D01*
G01X994239Y2962143D01*
G01X1008170Y2955744D01*
G01X1023199Y2952715D01*
G01X1038521Y2953217D01*
G01X1053318Y2957225D01*
G01X1066800Y2964523D01*
G01X1081092Y2956907D01*
G01X1096803Y2952982D01*
G01X1112997Y2952982D01*
G01X1128708Y2956907D01*
G01X1143000Y2964523D01*
G01X1157292Y2956907D01*
G01X1173003Y2952982D01*
G01X1189197Y2952982D01*
G01X1204908Y2956907D01*
G01X1219200Y2964523D01*
G01X1233492Y2956907D01*
G01X1249203Y2952982D01*
G01X1265397Y2952982D01*
G01X1281108Y2956907D01*
G01X1295400Y2964523D01*
G01X1308435Y2957405D01*
G01X1322728Y2953367D01*
G01X1337561Y2952610D01*
G01X1352191Y2955174D01*
G01X1365883Y2960930D01*
G01X1377950Y2969589D01*
G01X1390017Y2960930D01*
G01X1403709Y2955174D01*
G01X1418339Y2952610D01*
G01X1433172Y2953367D01*
G01X1447465Y2957405D01*
G01X1460500Y2964523D01*
G01X1474792Y2956907D01*
G01X1490503Y2952982D01*
G01X1506697Y2952982D01*
G01X1522408Y2956907D01*
G01X1536700Y2964523D01*
G01X1550992Y2956907D01*
G01X1566703Y2952982D01*
G01X1582897Y2952982D01*
G01X1598608Y2956907D01*
G01X1612900Y2964523D01*
G01X1627192Y2956907D01*
G01X1642903Y2952982D01*
G01X1659097Y2952982D01*
G01X1674808Y2956907D01*
G01X1689100Y2964523D01*
G01X1701438Y2957695D01*
G01X1714941Y2953629D01*
G01X1728998Y2952510D01*
G01X1742974Y2954389D01*
G01X1756236Y2959181D01*
G01X1768186Y2966668D01*
G01X1768186Y263900D01*
G01X1766354Y235943D01*
G01X1760888Y208464D01*
G01X1751882Y181934D01*
G01X1739490Y156807D01*
G01X1723925Y133512D01*
G01X1705452Y112448D01*
G01X1684388Y93975D01*
G01X1661093Y78409D01*
G01X1635965Y66018D01*
G01X1609435Y57012D01*
G01X1581957Y51546D01*
G01X1554000Y49714D01*
G01X254000Y49714D01*
G01X226043Y51546D01*
G01X198565Y57012D01*
G01X172035Y66018D01*
G01X146907Y78409D01*
G01X123612Y93975D01*
G01X102548Y112448D01*
G01X84075Y133512D01*
G01X68509Y156807D01*
G01X56118Y181934D01*
G01X47112Y208464D01*
G01X41646Y235943D01*
G01X40358Y255600D01*
G01X118187Y255600D01*
G01X120079Y229156D01*
G01X125714Y203250D01*
G01X134979Y178410D01*
G01X147685Y155142D01*
G01X163573Y133918D01*
G01X182319Y115172D01*
G01X203543Y99284D01*
G01X226811Y86578D01*
G01X251651Y77313D01*
G01X277557Y71678D01*
G01X304001Y69787D01*
G01X330445Y71678D01*
G01X356351Y77313D01*
G01X381191Y86578D01*
G01X404460Y99284D01*
G01X425683Y115172D01*
G01X444430Y133918D01*
G01X460318Y155142D01*
G01X473023Y178410D01*
G01X482288Y203250D01*
G01X487924Y229156D01*
G01X489815Y255600D01*
G01X568192Y255600D01*
G01X570078Y235238D01*
G01X575675Y215569D01*
G01X584790Y197264D01*
G01X597113Y180945D01*
G01X612226Y167168D01*
G01X629612Y156403D01*
G01X648681Y149015D01*
G01X668782Y145258D01*
G01X689231Y145258D01*
G01X709333Y149015D01*
G01X728401Y156403D01*
G01X745788Y167168D01*
G01X760900Y180945D01*
G01X773224Y197264D01*
G01X782339Y215569D01*
G01X787935Y235238D01*
G01X789822Y255600D01*
G01X789822Y255600D01*
G01X1018178Y255600D01*
G01X1020065Y235238D01*
G01X1025661Y215569D01*
G01X1034776Y197264D01*
G01X1047100Y180945D01*
G01X1062212Y167168D01*
G01X1079599Y156403D01*
G01X1098667Y149015D01*
G01X1118768Y145258D01*
G01X1139218Y145258D01*
G01X1159319Y149015D01*
G01X1178388Y156403D01*
G01X1195774Y167168D01*
G01X1210887Y180945D01*
G01X1223210Y197264D01*
G01X1232325Y215569D01*
G01X1237921Y235238D01*
G01X1239808Y255600D01*
G01X1237921Y275962D01*
G01X1232325Y295631D01*
G01X1223210Y313937D01*
G01X1210887Y330256D01*
G01X1195774Y344033D01*
G01X1178388Y354798D01*
G01X1159319Y362185D01*
G01X1139218Y365943D01*
G01X1118768Y365943D01*
G01X1098667Y362185D01*
G01X1079599Y354798D01*
G01X1062212Y344033D01*
G01X1047100Y330256D01*
G01X1034776Y313937D01*
G01X1025661Y295631D01*
G01X1020065Y275962D01*
G01X1018178Y255600D01*
G01X1018178Y255600D01*
G01X789822Y255600D01*
G01X787935Y275962D01*
G01X782339Y295631D01*
G01X773224Y313937D01*
G01X760900Y330256D01*
G01X745788Y344033D01*
G01X728401Y354798D01*
G01X709333Y362185D01*
G01X689231Y365943D01*
G01X668782Y365943D01*
G01X648681Y362185D01*
G01X629612Y354798D01*
G01X612226Y344033D01*
G01X597113Y330256D01*
G01X584790Y313937D01*
G01X575675Y295631D01*
G01X570078Y275962D01*
G01X568192Y255600D01*
G01X568192Y255600D01*
G01X489815Y255600D01*
G01X489815Y255600D01*
G01X487924Y282044D01*
G01X482288Y307950D01*
G01X473023Y332790D01*
G01X460318Y356059D01*
G01X444430Y377282D01*
G01X425683Y396029D01*
G01X404460Y411917D01*
G01X381191Y424622D01*
G01X356351Y433887D01*
G01X330445Y439523D01*
G01X304001Y441414D01*
G01X277557Y439523D01*
G01X251651Y433887D01*
G01X226811Y424622D01*
G01X203543Y411917D01*
G01X182319Y396029D01*
G01X163573Y377282D01*
G01X147685Y356059D01*
G01X134979Y332790D01*
G01X125714Y307950D01*
G01X120079Y282044D01*
G01X118187Y255600D01*
G01X118187Y255600D01*
G01X40358Y255600D01*
G01X39814Y263900D01*
G37*
G36*
G01X567456Y823783D02*
G01X569561Y827708D01*
G01X570329Y829223D01*
G01X572247Y833244D01*
G01X572924Y834754D01*
G01X574654Y838858D01*
G01X575273Y840429D01*
G01X576807Y844609D01*
G01X577350Y846205D01*
G01X578686Y850455D01*
G01X579151Y852064D01*
G01X580286Y856369D01*
G01X580673Y857988D01*
G01X581608Y862344D01*
G01X581925Y864016D01*
G01X582652Y868411D01*
G01X582886Y870066D01*
G01X583407Y874491D01*
G01X583564Y876164D01*
G01X583876Y880607D01*
G01X583954Y882261D01*
G01X584061Y886714D01*
G01X584071Y887572D01*
G01X584071Y931794D01*
G01X687419Y931794D01*
G01X699790Y922696D01*
G01X713922Y916687D01*
G01X729058Y914090D01*
G01X744385Y915044D01*
G01X759081Y919499D01*
G01X772359Y927214D01*
G01X783507Y937776D01*
G01X791925Y950619D01*
G01X797164Y965055D01*
G01X798942Y980308D01*
G01X797164Y995561D01*
G01X791925Y1009997D01*
G01X783507Y1022840D01*
G01X772359Y1033402D01*
G01X759081Y1041118D01*
G01X744385Y1045572D01*
G01X729058Y1046526D01*
G01X713922Y1043929D01*
G01X699790Y1037920D01*
G01X687419Y1028822D01*
G01X584071Y1028822D01*
G01X584071Y1072992D01*
G01X584061Y1073850D01*
G01X583954Y1078302D01*
G01X583876Y1079957D01*
G01X583564Y1084399D01*
G01X583407Y1086073D01*
G01X582886Y1090497D01*
G01X582652Y1092153D01*
G01X581925Y1096547D01*
G01X581608Y1098220D01*
G01X580673Y1102576D01*
G01X580286Y1104194D01*
G01X579151Y1108500D01*
G01X578686Y1110109D01*
G01X577350Y1114358D01*
G01X576807Y1115954D01*
G01X575273Y1120135D01*
G01X574654Y1121705D01*
G01X572924Y1125810D01*
G01X572247Y1127319D01*
G01X570329Y1131340D01*
G01X569561Y1132856D01*
G01X567456Y1136780D01*
G01X566626Y1138243D01*
G01X564337Y1142066D01*
G01X563446Y1143479D01*
G01X560982Y1147190D01*
G01X560025Y1148561D01*
G01X557391Y1152152D01*
G01X556361Y1153489D01*
G01X553562Y1156951D01*
G01X552473Y1158235D01*
G01X549512Y1161565D01*
G01X548369Y1162791D01*
G01X545258Y1165976D01*
G01X544060Y1167146D01*
G01X540801Y1170184D01*
G01X539546Y1171300D01*
G01X536150Y1174180D01*
G01X534840Y1175239D01*
G01X531312Y1177957D01*
G01X529959Y1178950D01*
G01X526306Y1181501D01*
G01X524904Y1182431D01*
G01X521137Y1184806D01*
G01X519698Y1185667D01*
G01X515822Y1187864D01*
G01X514357Y1188650D01*
G01X510384Y1190664D01*
G01X508851Y1191397D01*
G01X504787Y1193220D01*
G01X503260Y1193864D01*
G01X499117Y1195497D01*
G01X497521Y1196083D01*
G01X493305Y1197518D01*
G01X491709Y1198020D01*
G01X487429Y1199257D01*
G01X485796Y1199687D01*
G01X481463Y1200721D01*
G01X479833Y1201070D01*
G01X475460Y1201900D01*
G01X473800Y1202175D01*
G01X469388Y1202800D01*
G01X467715Y1202997D01*
G01X463280Y1203414D01*
G01X461607Y1203531D01*
G01X457159Y1203740D01*
G01X455484Y1203779D01*
G01X451029Y1203779D01*
G01X449353Y1203740D01*
G01X444906Y1203531D01*
G01X443232Y1203414D01*
G01X438797Y1202997D01*
G01X437124Y1202800D01*
G01X432712Y1202175D01*
G01X431053Y1201900D01*
G01X426679Y1201070D01*
G01X425049Y1200721D01*
G01X420716Y1199687D01*
G01X419083Y1199257D01*
G01X414803Y1198020D01*
G01X414258Y1197858D01*
G01X349321Y1262795D01*
G01X349321Y1315000D01*
G01X347684Y1325704D01*
G01X342923Y1335430D01*
G01X335472Y1343287D01*
G01X326013Y1348559D01*
G01X326013Y1382707D01*
G01X336163Y1386928D01*
G01X344555Y1394028D01*
G01X350397Y1403339D01*
G01X353141Y1413983D01*
G01X378836Y1413983D01*
G01X384410Y1404411D01*
G01X392643Y1397000D01*
G01X383953Y1389014D01*
G01X378331Y1378638D01*
G01X376386Y1366998D01*
G01X376386Y1286998D01*
G01X378139Y1275931D01*
G01X383226Y1265947D01*
G01X391149Y1258024D01*
G01X401133Y1252937D01*
G01X412200Y1251184D01*
G01X502200Y1251184D01*
G01X513267Y1252937D01*
G01X523251Y1258024D01*
G01X531174Y1265947D01*
G01X536261Y1275931D01*
G01X538014Y1286998D01*
G01X538014Y1342973D01*
G01X549894Y1331093D01*
G01X559942Y1323383D01*
G01X571642Y1318536D01*
G01X584199Y1316883D01*
G01X604986Y1316883D01*
G01X604986Y1312702D01*
G01X606931Y1301062D01*
G01X612553Y1290686D01*
G01X621243Y1282700D01*
G01X612553Y1274714D01*
G01X606931Y1264338D01*
G01X604986Y1252698D01*
G01X604986Y1172698D01*
G01X606739Y1161631D01*
G01X611826Y1151647D01*
G01X619749Y1143724D01*
G01X629733Y1138637D01*
G01X640800Y1136884D01*
G01X730800Y1136884D01*
G01X741867Y1138637D01*
G01X751851Y1143724D01*
G01X759774Y1151647D01*
G01X764861Y1161631D01*
G01X766614Y1172698D01*
G01X766614Y1252698D01*
G01X764669Y1264338D01*
G01X759047Y1274714D01*
G01X750357Y1282700D01*
G01X759047Y1290686D01*
G01X764669Y1301062D01*
G01X766614Y1312702D01*
G01X766614Y1392702D01*
G01X765991Y1399351D01*
G01X764146Y1405768D01*
G01X767188Y1408810D01*
G01X774608Y1395860D01*
G01X784737Y1384898D01*
G01X797061Y1376479D01*
G01X810955Y1371030D01*
G01X825716Y1368825D01*
G01X829614Y1364926D01*
G01X829614Y1312702D01*
G01X831558Y1301062D01*
G01X837180Y1290686D01*
G01X845870Y1282700D01*
G01X837180Y1274714D01*
G01X831558Y1264338D01*
G01X829614Y1252698D01*
G01X829614Y1172698D01*
G01X831366Y1161631D01*
G01X836453Y1151647D01*
G01X844377Y1143724D01*
G01X854360Y1138637D01*
G01X865428Y1136884D01*
G01X955427Y1136884D01*
G01X966494Y1138637D01*
G01X976478Y1143724D01*
G01X984401Y1151647D01*
G01X989488Y1161631D01*
G01X991241Y1172698D01*
G01X991241Y1252698D01*
G01X989297Y1264338D01*
G01X983674Y1274714D01*
G01X974985Y1282700D01*
G01X981823Y1288497D01*
G01X987008Y1295811D01*
G01X990213Y1304183D01*
G01X1054975Y1304183D01*
G01X1058063Y1295297D01*
G01X1063359Y1287522D01*
G01X1070497Y1281394D01*
G01X1061808Y1273408D01*
G01X1056185Y1263032D01*
G01X1054241Y1251391D01*
G01X1054241Y1171391D01*
G01X1055994Y1160324D01*
G01X1061081Y1150340D01*
G01X1069004Y1142417D01*
G01X1078988Y1137330D01*
G01X1090055Y1135577D01*
G01X1180055Y1135577D01*
G01X1191122Y1137330D01*
G01X1201105Y1142417D01*
G01X1209029Y1150340D01*
G01X1214116Y1160324D01*
G01X1215869Y1171391D01*
G01X1215869Y1251391D01*
G01X1213924Y1263032D01*
G01X1208302Y1273408D01*
G01X1199612Y1281394D01*
G01X1208302Y1289379D01*
G01X1213924Y1299756D01*
G01X1215869Y1311396D01*
G01X1215869Y1391396D01*
G01X1213942Y1402983D01*
G01X1281576Y1402983D01*
G01X1281576Y1351096D01*
G01X1283300Y1340119D01*
G01X1288305Y1330198D01*
G01X1283300Y1320277D01*
G01X1281576Y1309300D01*
G01X1281576Y1256100D01*
G01X1283300Y1245123D01*
G01X1288305Y1235202D01*
G01X1283300Y1225281D01*
G01X1281576Y1214304D01*
G01X1281576Y1161104D01*
G01X1283344Y1149991D01*
G01X1288473Y1139975D01*
G01X1296456Y1132045D01*
G01X1306507Y1126984D01*
G01X1304675Y1111006D01*
G01X1306743Y1095058D01*
G01X1312590Y1080076D01*
G01X1304856Y1076766D01*
G01X1298107Y1071742D01*
G01X1292717Y1065282D01*
G01X1284732Y1073972D01*
G01X1274355Y1079594D01*
G01X1262715Y1081539D01*
G01X1182715Y1081539D01*
G01X1172320Y1079997D01*
G01X1162820Y1075505D01*
G01X1155033Y1068448D01*
G01X1149629Y1059435D01*
G01X1147074Y1049242D01*
G01X1085455Y1049242D01*
G01X1085455Y1060230D01*
G01X1083702Y1071297D01*
G01X1078615Y1081280D01*
G01X1070691Y1089204D01*
G01X1060708Y1094291D01*
G01X1049641Y1096044D01*
G01X876842Y1096044D01*
G01X865775Y1094291D01*
G01X855791Y1089204D01*
G01X847868Y1081280D01*
G01X842781Y1071297D01*
G01X841028Y1060230D01*
G01X841028Y947127D01*
G01X672683Y778782D01*
G01X672683Y787780D01*
G01X670930Y798847D01*
G01X665843Y808831D01*
G01X657920Y816754D01*
G01X647936Y821841D01*
G01X636869Y823594D01*
G01X569668Y823594D01*
G01X567311Y823517D01*
G01X567456Y823783D01*
G37*
G36*
G01X392680Y2636094D02*
G01X395728Y2644152D01*
G01X396765Y2652705D01*
G01X396765Y2732705D01*
G01X395361Y2742634D01*
G01X425222Y2712773D01*
G01X425222Y2667888D01*
G01X419795Y2663209D01*
G01X392680Y2636094D01*
G37*
G36*
G01X654665Y1707190D02*
G01X654665Y1727190D01*
G01X653240Y1737193D01*
G01X654665Y1747195D01*
G01X654665Y1767195D01*
G01X653240Y1777198D01*
G01X654665Y1787200D01*
G01X654665Y1807200D01*
G01X653240Y1817203D01*
G01X654665Y1827205D01*
G01X654665Y1847205D01*
G01X653240Y1857208D01*
G01X654665Y1867210D01*
G01X654665Y1887210D01*
G01X653243Y1897200D01*
G01X654665Y1907190D01*
G01X654665Y1927190D01*
G01X653240Y1937192D01*
G01X654665Y1947195D01*
G01X654665Y1967195D01*
G01X653240Y1977197D01*
G01X653560Y1978375D01*
G01X665641Y1975111D01*
G01X678121Y1974175D01*
G01X690554Y1975600D01*
G01X690554Y1737206D01*
G01X692306Y1726138D01*
G01X697393Y1716155D01*
G01X705317Y1708231D01*
G01X715300Y1703144D01*
G01X726368Y1701392D01*
G01X830638Y1701392D01*
G01X827263Y1689713D01*
G01X826076Y1677615D01*
G01X827117Y1665503D01*
G01X816367Y1665503D01*
G01X806365Y1664077D01*
G01X796362Y1665503D01*
G01X776362Y1665503D01*
G01X766360Y1664077D01*
G01X756357Y1665503D01*
G01X736357Y1665503D01*
G01X726355Y1664077D01*
G01X716352Y1665503D01*
G01X696352Y1665503D01*
G01X686363Y1664081D01*
G01X676373Y1665503D01*
G01X656373Y1665503D01*
G01X654622Y1665460D01*
G01X654665Y1667211D01*
G01X654665Y1687211D01*
G01X653243Y1697201D01*
G01X654665Y1707190D01*
G37*
G36*
G01X858057Y2204007D02*
G01X862276Y2208882D01*
G01X876372Y2208882D01*
G01X886362Y2210304D01*
G01X896352Y2208882D01*
G01X916352Y2208882D01*
G01X926355Y2210307D01*
G01X936357Y2208882D01*
G01X956357Y2208882D01*
G01X966360Y2210307D01*
G01X976362Y2208882D01*
G01X996362Y2208882D01*
G01X1006365Y2210307D01*
G01X1016367Y2208882D01*
G01X1036367Y2208882D01*
G01X1046370Y2210307D01*
G01X1056372Y2208882D01*
G01X1076372Y2208882D01*
G01X1086362Y2210304D01*
G01X1096352Y2208882D01*
G01X1113869Y2208882D01*
G01X1112814Y2196782D01*
G01X1113984Y2184692D01*
G01X1117339Y2173019D01*
G01X827068Y2173019D01*
G01X858057Y2204007D01*
G37*
G36*
G01X1292717Y936168D02*
G01X1300703Y927478D01*
G01X1311079Y921856D01*
G01X1322720Y919911D01*
G01X1388774Y919911D01*
G01X1388774Y789439D01*
G01X1320512Y789439D01*
G01X1308872Y787494D01*
G01X1298496Y781872D01*
G01X1290510Y773182D01*
G01X1285270Y779499D01*
G01X1278729Y784457D01*
G01X1271232Y787796D01*
G01X1271232Y920938D01*
G01X1279605Y924144D01*
G01X1286920Y929329D01*
G01X1292717Y936168D01*
G37*
G36*
G01X1436880Y2556894D02*
G01X1514401Y2556894D01*
G01X1524002Y2558204D01*
G01X1532901Y2562041D01*
G01X1540445Y2568123D01*
G01X1546082Y2576005D01*
G01X1549400Y2585109D01*
G01X1552423Y2576578D01*
G01X1557487Y2569077D01*
G01X1553885Y2556862D01*
G01X1552683Y2544184D01*
G01X1553927Y2531510D01*
G01X1551186Y2526093D01*
G01X1549400Y2520291D01*
G01X1546082Y2529395D01*
G01X1540445Y2537277D01*
G01X1532901Y2543359D01*
G01X1524002Y2547196D01*
G01X1514401Y2548506D01*
G01X1436290Y2548506D01*
G01X1436880Y2556894D01*
G37*
G36*
G01X1496992Y911594D02*
G01X1503079Y919026D01*
G01X1505380Y909151D01*
G01X1510356Y900316D01*
G01X1517609Y893230D01*
G01X1526557Y888461D01*
G01X1513922Y878295D01*
G01X1504132Y865367D01*
G01X1497773Y850450D01*
G01X1495224Y834435D01*
G01X1485802Y825012D01*
G01X1485802Y900403D01*
G01X1496992Y911594D01*
G37*
G54D10*
G01X39814Y263900D02*
G01X39814Y2988035D01*
G03X133895Y2987398I47357J46421D01*
G03X217945Y2979644I46724J47058D01*
G03X292100Y2981023I36055J55656D01*
G03X368985Y2981511I38100J54277D01*
G01X368985Y2789104D01*
G03X375043Y2765630I48514J0D01*
G03X360951Y2768519I-14092J-32925D01*
G01X270951Y2768519D01*
G03X235137Y2732705I0J-35814D01*
G01X235137Y2652705D01*
G03X251393Y2622702I35814J0D01*
G03X236165Y2601219I19557J-30002D01*
G01X206786Y2601219D01*
G03X191557Y2622702I-34786J-8519D01*
G03X207814Y2652705I-19557J30002D01*
G01X207814Y2732705D01*
G03X172000Y2768519I-35814J0D01*
G01X82000Y2768519D01*
G03X46186Y2732705I0J-35814D01*
G01X46186Y2652705D01*
G03X62443Y2622702I35814J0D01*
G03X46186Y2592700I19557J-30002D01*
G01X46186Y2512700D01*
G03X82000Y2476886I35814J0D01*
G01X172000Y2476886D01*
G03X206788Y2504191I0J35814D01*
G01X236162Y2504191D01*
G03X270951Y2476886I34788J8509D01*
G01X360951Y2476886D01*
G03X396438Y2507873I0J35814D01*
G03X412204Y2518400I-18538J44832D01*
G01X425222Y2531418D01*
G01X425222Y2511362D01*
G03X461036Y2475548I35814J0D01*
G01X517000Y2475548D01*
G01X540795Y2451753D01*
G01X540795Y2241098D01*
G03X529312Y2234619I11556J-33898D01*
G01X422648Y2341284D01*
G03X390959Y2354409I-31688J-31688D01*
G01X342514Y2354409D01*
G01X342514Y2362902D01*
G03X306700Y2398716I-35814J0D01*
G01X226700Y2398716D01*
G03X196698Y2382460I0J-35814D01*
G03X166695Y2398716I-30002J-19557D01*
G01X86695Y2398716D01*
G03X50881Y2362902I0J-35814D01*
G01X50881Y2272902D01*
G03X86695Y2237088I35814J0D01*
G01X142413Y2237088D01*
G01X137129Y2231804D01*
G01X86721Y2231804D01*
G03X50907Y2195990I0J-35814D01*
G01X50907Y2109589D01*
G03X86721Y2073775I35814J0D01*
G01X166721Y2073775D01*
G03X196710Y2090012I0J35814D01*
G03X226700Y2073775I29990J19577D01*
G01X306700Y2073775D01*
G03X342514Y2109589I0J35814D01*
G01X342514Y2165224D01*
G01X344963Y2167673D01*
G03X368069Y2152184I47656J46113D01*
G03X395494Y2147534I24551J61602D01*
G01X398605Y2144423D01*
G01X398605Y1903211D01*
G01X325963Y1903211D01*
G03X291099Y1875590I0J-35814D01*
G01X287349Y1875590D01*
G03X256507Y1864525I0J-48514D01*
G03X256687Y1868108I-35634J3583D01*
G01X256687Y1968108D01*
G03X220873Y2003922I-35814J0D01*
G01X95872Y2003922D01*
G03X60058Y1968108I0J-35814D01*
G01X60058Y1868108D01*
G03X95872Y1832294I35814J0D01*
G01X220873Y1832294D01*
G03X224104Y1832440I0J35814D01*
G01X175571Y1783907D01*
G01X95872Y1783907D01*
G03X60058Y1748093I0J-35814D01*
G01X60058Y1648093D01*
G03X95872Y1612279I35814J0D01*
G01X220873Y1612279D01*
G03X232685Y1614283I0J35814D01*
G01X232685Y1542983D01*
G03X207497Y1527052I4814J-35489D01*
G03X177495Y1543308I-30002J-19557D01*
G01X97495Y1543308D01*
G03X61681Y1507494I0J-35814D01*
G01X61681Y1417494D01*
G03X97495Y1381680I35814J0D01*
G01X177495Y1381680D01*
G03X207497Y1397937I0J35814D01*
G03X228985Y1382707I30002J19557D01*
G01X228985Y1350527D01*
G03X203505Y1334557I4522J-35527D01*
G03X173502Y1350814I-30002J-19557D01*
G01X93502Y1350814D01*
G03X57688Y1315000I0J-35814D01*
G01X57688Y1225000D01*
G03X93502Y1189186I35814J0D01*
G01X173502Y1189186D01*
G03X203505Y1205443I0J35814D01*
G03X233507Y1189186I30002J19557D01*
G01X285712Y1189186D01*
G01X338729Y1136169D01*
G01X336951Y1132856D01*
G01X336183Y1131340D01*
G01X334266Y1127319D01*
G01X333588Y1125810D01*
G01X331858Y1121705D01*
G01X331240Y1120135D01*
G01X329706Y1115954D01*
G01X329162Y1114358D01*
G01X327826Y1110109D01*
G01X327361Y1108500D01*
G01X326226Y1104194D01*
G01X325839Y1102576D01*
G01X324904Y1098220D01*
G01X324587Y1096547D01*
G01X323860Y1092153D01*
G01X323626Y1090497D01*
G01X323106Y1086073D01*
G01X322948Y1084399D01*
G01X322636Y1079957D01*
G01X322558Y1078302D01*
G01X322451Y1073850D01*
G01X322441Y1072992D01*
G01X322441Y887572D01*
G01X322451Y886714D01*
G01X322558Y882261D01*
G01X322636Y880607D01*
G01X322948Y876164D01*
G01X323106Y874491D01*
G01X323626Y870066D01*
G01X323860Y868411D01*
G01X324587Y864016D01*
G01X324904Y862344D01*
G01X325839Y857988D01*
G01X326226Y856369D01*
G01X327361Y852064D01*
G01X327826Y850455D01*
G01X329162Y846205D01*
G01X329706Y844609D01*
G01X331240Y840429D01*
G01X331858Y838858D01*
G01X333588Y834754D01*
G01X334266Y833244D01*
G01X336183Y829223D01*
G01X336951Y827708D01*
G01X339057Y823783D01*
G01X339200Y823518D01*
G01X336870Y823594D01*
G01X269669Y823594D01*
G03X233855Y787780I0J-35814D01*
G01X233855Y630280D01*
G03X269669Y594466I35814J0D01*
G01X336870Y594466D01*
G03X372684Y630280I0J35814D01*
G01X372684Y784545D01*
G01X375200Y782606D01*
G01X376554Y781613D01*
G01X380206Y779063D01*
G01X381608Y778133D01*
G01X384445Y776344D01*
G01X384445Y630285D01*
G03X420259Y594471I35814J0D01*
G01X486258Y594471D01*
G03X522072Y630285I0J35814D01*
G01X522072Y776347D01*
G01X524904Y778133D01*
G01X526306Y779063D01*
G01X529959Y781613D01*
G01X531312Y782606D01*
G01X533854Y784564D01*
G01X533854Y630280D01*
G03X569668Y594466I35814J0D01*
G01X636869Y594466D01*
G03X672683Y630280I0J35814D01*
G01X672683Y660538D01*
G03X705853Y674734I-1134J48501D01*
G01X779175Y748056D01*
G01X779175Y631908D01*
G03X793384Y597604I48514J0D01*
G01X825446Y565542D01*
G03X703401Y406336I-21446J-109942D01*
G03X904000Y405130I100599J49264D01*
G03X1051042Y353943I100000J50470D01*
G03X1107196Y499161I-47043J101657D01*
G01X1142316Y464041D01*
G03X1225033Y347399I111695J-8441D01*
G03X1354975Y407085I28979J108200D01*
G01X1396393Y407085D01*
G03X1588899Y90317I107606J-151485D01*
G03X1443540Y431303I-84900J165284D01*
G01X1550243Y538006D01*
G01X1550243Y528129D01*
G03X1564452Y493824I48514J0D01*
G01X1626894Y431383D01*
G03X1740058Y386828I66273J2336D01*
G03X1695503Y499992I-46891J46891D01*
G01X1647271Y548224D01*
G01X1647271Y559319D01*
G01X1658758Y559319D01*
G03X1694572Y595133I0J35814D01*
G01X1694572Y682335D01*
G01X1721211Y708973D01*
G03X1735420Y743278I-34305J34305D01*
G01X1735420Y1054098D01*
G03X1721211Y1088402I-48514J0D01*
G01X1710999Y1098614D01*
G03X1758207Y1171302I-18492J63683D01*
G03X1693183Y1228608I-65700J-9004D01*
G03X1685110Y1232748I-26076J-40911D01*
G03X1683495Y1235202I-30700J-18444D01*
G03X1690224Y1256100I-29085J20898D01*
G01X1690224Y1281743D01*
G03X1754551Y1347938I-1987J66284D01*
G03X1690401Y1414305I-66314J89D01*
G03X1688227Y1416088I-31835J-36608D01*
G03X1654410Y1440110I-33817J-11792D01*
G01X1547209Y1440110D01*
G03X1511395Y1404296I0J-35814D01*
G01X1511395Y1351096D01*
G03X1518125Y1330198I35814J0D01*
G03X1511395Y1309300I29085J-20898D01*
G01X1511395Y1302795D01*
G01X1511202Y1302602D01*
G01X1511202Y1326897D01*
G03X1496992Y1361202I-48514J0D01*
G01X1460405Y1397789D01*
G01X1460405Y1404296D01*
G01X1460327Y1406648D01*
G03X1474265Y1416109I-17750J41149D01*
G01X1490502Y1432345D01*
G03X1549819Y1463785I2875J66252D01*
G03X1551290Y1530903I-56442J34812D01*
G01X1648107Y1530903D01*
G03X1667076Y1535115I0J44814D01*
G03X1724275Y1558454I6431J66001D01*
G03X1737414Y1618819I-50769J42662D01*
G03X1762753Y1653067I-10475J34248D01*
G01X1762753Y1753066D01*
G03X1726939Y1788880I-35814J0D01*
G01X1586985Y1788880D01*
G03X1570061Y1784629I0J-35814D01*
G03X1565921Y1788776I-48954J-44733D01*
G01X1565921Y1834160D01*
G03X1586985Y1827311I21064J28964D01*
G01X1726939Y1827311D01*
G03X1762753Y1863125I0J35814D01*
G01X1762753Y1963124D01*
G03X1726939Y1998938I-35814J0D01*
G01X1586985Y1998938D01*
G03X1551171Y1963124I0J-35814D01*
G01X1551171Y1900208D01*
G01X1466275Y1985104D01*
G03X1434587Y1998230I-31688J-31688D01*
G01X1383787Y1998230D01*
G03X1352099Y1985104I0J-44814D01*
G01X1336120Y1969125D01*
G03X1334747Y1977197I-35762J-1930D01*
G03X1336172Y1987200I-34389J10003D01*
G01X1336172Y2007200D01*
G03X1334747Y2017202I-35814J0D01*
G03X1336172Y2027205I-34389J10003D01*
G01X1336172Y2047205D01*
G03X1334747Y2057207I-35814J0D01*
G03X1336172Y2067210I-34389J10003D01*
G01X1336172Y2087210D01*
G03X1334751Y2097200I-35814J0D01*
G03X1336172Y2107190I-34393J9990D01*
G01X1336172Y2127190D01*
G03X1334747Y2137192I-35814J0D01*
G03X1336172Y2147195I-34389J10003D01*
G01X1336172Y2167195D01*
G03X1334747Y2177197I-35814J0D01*
G03X1336172Y2187200I-34389J10003D01*
G01X1336172Y2207200D01*
G03X1300358Y2243014I-35814J0D01*
G01X1233858Y2243014D01*
G01X1232134Y2242972D01*
G01X1232176Y2244696D01*
G01X1232176Y2311196D01*
G03X1196362Y2347010I-35814J0D01*
G01X1176362Y2347010D01*
G03X1166359Y2345585I0J-35814D01*
G03X1156357Y2347010I-10003J-34389D01*
G01X1136357Y2347010D01*
G03X1126354Y2345585I0J-35814D01*
G03X1116352Y2347010I-10003J-34389D01*
G01X1106686Y2347010D01*
G03X1098066Y2359114I-40308J-19585D01*
G01X1097832Y2359346D01*
G01X1097832Y2476886D01*
G01X1131002Y2476886D01*
G03X1166816Y2512700I0J35814D01*
G01X1166816Y2545463D01*
G03X1191849Y2537558I32091J58032D01*
G01X1191849Y2512376D01*
G03X1227663Y2476562I35814J0D01*
G01X1314064Y2476562D01*
G03X1345822Y2495821I0J35814D01*
G03X1358588Y2492122I24745J61524D01*
G01X1358588Y2372693D01*
G03X1394402Y2336879I35814J0D01*
G01X1514401Y2336879D01*
G03X1549400Y2365094I0J35814D01*
G03X1584399Y2336879I34999J7598D01*
G01X1595983Y2336879D01*
G01X1595983Y2314987D01*
G03X1574495Y2299757I8515J-34787D01*
G03X1544493Y2316014I-30002J-19557D01*
G01X1464493Y2316014D01*
G03X1428679Y2280200I0J-35814D01*
G01X1428679Y2190200D01*
G03X1464493Y2154386I35814J0D01*
G01X1544493Y2154386D01*
G03X1574495Y2170643I0J35814D01*
G03X1604498Y2154386I30002J19557D01*
G01X1684498Y2154386D01*
G03X1720312Y2190200I0J35814D01*
G01X1720312Y2280200D01*
G03X1693011Y2314987I-35814J0D01*
G01X1693011Y2336879D01*
G01X1704398Y2336879D01*
G03X1740212Y2372693I0J35814D01*
G01X1740212Y2512692D01*
G03X1704398Y2548506I-35814J0D01*
G01X1685177Y2548506D01*
G03X1684103Y2556894I-66180J-4212D01*
G01X1704398Y2556894D01*
G03X1740212Y2592708I0J35814D01*
G01X1740212Y2732707D01*
G03X1704398Y2768521I-35814J0D01*
G01X1584399Y2768521D01*
G03X1549400Y2740306I0J-35814D01*
G03X1514401Y2768521I-34999J-7598D01*
G01X1502911Y2768521D01*
G01X1502911Y2789386D01*
G01X1532098Y2789386D01*
G03X1562100Y2805643I0J35814D01*
G03X1592102Y2789386I30002J19557D01*
G01X1672102Y2789386D01*
G03X1707916Y2825200I0J35814D01*
G01X1707916Y2915200D01*
G03X1672102Y2951014I-35814J0D01*
G01X1592102Y2951014D01*
G03X1562100Y2934757I0J-35814D01*
G03X1532098Y2951014I-30002J-19557D01*
G01X1452098Y2951014D01*
G03X1416284Y2915200I0J-35814D01*
G01X1416284Y2862521D01*
G03X1405883Y2832504I38113J-30016D01*
G01X1405883Y2768521D01*
G01X1394402Y2768521D01*
G03X1375298Y2763001I0J-35814D01*
G03X1339106Y2769300I-29021J-59626D01*
G03X1314064Y2779511I-25042J-25603D01*
G01X1227663Y2779511D01*
G03X1191849Y2743697I0J-35814D01*
G01X1191849Y2669432D01*
G03X1166816Y2661527I7058J-65937D01*
G01X1166816Y2732705D01*
G03X1131002Y2768519I-35814J0D01*
G01X1041002Y2768519D01*
G03X1005188Y2732705I0J-35814D01*
G01X1005188Y2652705D01*
G03X1021445Y2622702I35814J0D01*
G03X1005188Y2592700I19557J-30002D01*
G01X1005188Y2588799D01*
G01X977866Y2588799D01*
G01X977866Y2592700D01*
G03X961609Y2622702I-35814J0D01*
G03X977866Y2652705I-19557J30002D01*
G01X977866Y2732705D01*
G03X942052Y2768519I-35814J0D01*
G01X852052Y2768519D01*
G03X816238Y2732705I0J-35814D01*
G01X816238Y2652705D01*
G03X832494Y2622702I35814J0D01*
G03X816238Y2592700I19557J-30002D01*
G01X816238Y2588799D01*
G01X788915Y2588799D01*
G01X788915Y2592700D01*
G03X772659Y2622702I-35814J0D01*
G03X788915Y2652705I-19557J30002D01*
G01X788915Y2732705D01*
G03X753101Y2768519I-35814J0D01*
G01X663101Y2768519D01*
G03X627287Y2732705I0J-35814D01*
G01X627287Y2677419D01*
G01X583251Y2677419D01*
G01X583251Y2742682D01*
G03X547437Y2778496I-35814J0D01*
G01X496717Y2778496D01*
G01X466013Y2809200D01*
G01X466013Y2862249D01*
G01X536898Y2862249D01*
G03X572712Y2898063I0J35814D01*
G01X572712Y2978063D01*
G03X556475Y3008052I-35814J0D01*
G03X568694Y3021560I-19577J29990D01*
G03X604876Y2963523I66306J1040D01*
G03X673100Y2968323I30124J59077D01*
G03X749300Y2968323I38100J54277D01*
G03X825500Y2968323I38100J54277D01*
G03X863600Y2956286I38100J54277D01*
G03X901700Y2968323I0J66314D01*
G03X982150Y2971570I38100J54277D01*
G03X1066800Y2964523I46550J47230D01*
G03X1143000Y2964523I38100J54277D01*
G03X1219200Y2964523I38100J54277D01*
G03X1295400Y2964523I38100J54277D01*
G03X1337561Y2952610I38100J54277D01*
G03X1377950Y2969589I-4061J66190D01*
G03X1460500Y2964523I44450J49211D01*
G03X1536700Y2964523I38100J54277D01*
G03X1612900Y2964523I38100J54277D01*
G03X1689100Y2964523I38100J54277D01*
G03X1768186Y2966668I38100J54277D01*
G01X1768186Y263900D01*
G02X1554000Y49714I-214186J0D01*
G01X254000Y49714D01*
G02X39814Y263900I0J214186D01*
G01X118187Y255600D02*
G03X489815Y255600I185814J0D01*
G03X118187Y255600I-185814J0D01*
G01X441999Y455600D02*
G03X666027Y455600I112014J0D01*
G03X441999Y455600I-112014J0D01*
G01X568192Y255600D02*
G03X789822Y255600I110815J0D01*
G03X568192Y255600I-110815J0D01*
G01X1018178Y255600D02*
G03X1239808Y255600I110815J0D01*
G03X1018178Y255600I-110815J0D01*
G01X567456Y823783D02*
G01X569561Y827708D01*
G01X570329Y829223D01*
G01X572247Y833244D01*
G01X572924Y834754D01*
G01X574654Y838858D01*
G01X575273Y840429D01*
G01X576807Y844609D01*
G01X577350Y846205D01*
G01X578686Y850455D01*
G01X579151Y852064D01*
G01X580286Y856369D01*
G01X580673Y857988D01*
G01X581608Y862344D01*
G01X581925Y864016D01*
G01X582652Y868411D01*
G01X582886Y870066D01*
G01X583407Y874491D01*
G01X583564Y876164D01*
G01X583876Y880607D01*
G01X583954Y882261D01*
G01X584061Y886714D01*
G01X584071Y887572D01*
G01X584071Y931794D01*
G01X687419Y931794D01*
G03X798942Y980308I45210J48514D01*
G03X687419Y1028822I-66314J0D01*
G01X584071Y1028822D01*
G01X584071Y1072992D01*
G01X584061Y1073850D01*
G01X583954Y1078302D01*
G01X583876Y1079957D01*
G01X583564Y1084399D01*
G01X583407Y1086073D01*
G01X582886Y1090497D01*
G01X582652Y1092153D01*
G01X581925Y1096547D01*
G01X581608Y1098220D01*
G01X580673Y1102576D01*
G01X580286Y1104194D01*
G01X579151Y1108500D01*
G01X578686Y1110109D01*
G01X577350Y1114358D01*
G01X576807Y1115954D01*
G01X575273Y1120135D01*
G01X574654Y1121705D01*
G01X572924Y1125810D01*
G01X572247Y1127319D01*
G01X570329Y1131340D01*
G01X569561Y1132856D01*
G01X567456Y1136780D01*
G01X566626Y1138243D01*
G01X564337Y1142066D01*
G01X563446Y1143479D01*
G01X560982Y1147190D01*
G01X560025Y1148561D01*
G01X557391Y1152152D01*
G01X556361Y1153489D01*
G01X553562Y1156951D01*
G01X552473Y1158235D01*
G01X549512Y1161565D01*
G01X548369Y1162791D01*
G01X545258Y1165976D01*
G01X544060Y1167146D01*
G01X540801Y1170184D01*
G01X539546Y1171300D01*
G01X536150Y1174180D01*
G01X534840Y1175239D01*
G01X531312Y1177957D01*
G01X529959Y1178950D01*
G01X526306Y1181501D01*
G01X524904Y1182431D01*
G01X521137Y1184806D01*
G01X519698Y1185667D01*
G01X515822Y1187864D01*
G01X514357Y1188650D01*
G01X510384Y1190664D01*
G01X508851Y1191397D01*
G01X504787Y1193220D01*
G01X503260Y1193864D01*
G01X499117Y1195497D01*
G01X497521Y1196083D01*
G01X493305Y1197518D01*
G01X491709Y1198020D01*
G01X487429Y1199257D01*
G01X485796Y1199687D01*
G01X481463Y1200721D01*
G01X479833Y1201070D01*
G01X475460Y1201900D01*
G01X473800Y1202175D01*
G01X469388Y1202800D01*
G01X467715Y1202997D01*
G01X463280Y1203414D01*
G01X461607Y1203531D01*
G01X457159Y1203740D01*
G01X455484Y1203779D01*
G01X451029Y1203779D01*
G01X449353Y1203740D01*
G01X444906Y1203531D01*
G01X443232Y1203414D01*
G01X438797Y1202997D01*
G01X437124Y1202800D01*
G01X432712Y1202175D01*
G01X431053Y1201900D01*
G01X426679Y1201070D01*
G01X425049Y1200721D01*
G01X420716Y1199687D01*
G01X419083Y1199257D01*
G01X414803Y1198020D01*
G01X414258Y1197858D01*
G01X349321Y1262795D01*
G01X349321Y1315000D01*
G03X326013Y1348559I-35814J0D01*
G01X326013Y1382707D01*
G03X353141Y1413983I-8514J34787D01*
G01X378836Y1413983D01*
G03X392643Y1397000I33364J13019D01*
G03X376386Y1366998I19557J-30002D01*
G01X376386Y1286998D01*
G03X412200Y1251184I35814J0D01*
G01X502200Y1251184D01*
G03X538014Y1286998I0J35814D01*
G01X538014Y1342973D01*
G01X549894Y1331093D01*
G03X584199Y1316883I34305J34305D01*
G01X604986Y1316883D01*
G01X604986Y1312702D01*
G03X621243Y1282700I35814J0D01*
G03X604986Y1252698I19557J-30002D01*
G01X604986Y1172698D01*
G03X640800Y1136884I35814J0D01*
G01X730800Y1136884D01*
G03X766614Y1172698I0J35814D01*
G01X766614Y1252698D01*
G03X750357Y1282700I-35814J0D01*
G03X766614Y1312702I-19557J30002D01*
G01X766614Y1392702D01*
G03X764146Y1405768I-35814J0D01*
G01X767188Y1408810D01*
G03X825716Y1368825I60881J26288D01*
G01X829614Y1364926D01*
G01X829614Y1312702D01*
G03X845870Y1282700I35814J0D01*
G03X829614Y1252698I19557J-30002D01*
G01X829614Y1172698D01*
G03X865428Y1136884I35814J0D01*
G01X955427Y1136884D01*
G03X991241Y1172698I0J35814D01*
G01X991241Y1252698D01*
G03X974985Y1282700I-35814J0D01*
G03X990213Y1304183I-19557J30002D01*
G01X1054975Y1304183D01*
G03X1070497Y1281394I35080J7213D01*
G03X1054241Y1251391I19557J-30002D01*
G01X1054241Y1171391D01*
G03X1090055Y1135577I35814J0D01*
G01X1180055Y1135577D01*
G03X1215869Y1171391I0J35814D01*
G01X1215869Y1251391D01*
G03X1199612Y1281394I-35814J0D01*
G03X1215869Y1311396I-19557J30002D01*
G01X1215869Y1391396D01*
G03X1213942Y1402983I-35814J0D01*
G01X1281576Y1402983D01*
G01X1281576Y1351096D01*
G03X1288305Y1330198I35814J0D01*
G03X1281576Y1309300I29085J-20898D01*
G01X1281576Y1256100D01*
G03X1288305Y1235202I35814J0D01*
G03X1281576Y1214304I29085J-20898D01*
G01X1281576Y1161104D01*
G03X1306507Y1126984I35814J0D01*
G03X1312590Y1080076I64480J-15486D01*
G03X1292717Y1065282I10130J-34352D01*
G03X1262715Y1081539I-30002J-19557D01*
G01X1182715Y1081539D01*
G03X1147074Y1049242I0J-35814D01*
G01X1085455Y1049242D01*
G01X1085455Y1060230D01*
G03X1049641Y1096044I-35814J0D01*
G01X876842Y1096044D01*
G03X841028Y1060230I0J-35814D01*
G01X841028Y947127D01*
G01X672683Y778782D01*
G01X672683Y787780D01*
G03X636869Y823594I-35814J0D01*
G01X569668Y823594D01*
G01X567311Y823517D01*
G01X567456Y823783D01*
G01X392680Y2636094D02*
G03X396765Y2652705I-31729J16611D01*
G01X396765Y2732705D01*
G03X395361Y2742634I-35814J0D01*
G01X425222Y2712773D01*
G01X425222Y2667888D01*
G03X419795Y2663209I28877J-38984D01*
G01X392680Y2636094D01*
G01X654665Y1707190D02*
G01X654665Y1727190D01*
G03X653240Y1737193I-35814J0D01*
G03X654665Y1747195I-34389J10003D01*
G01X654665Y1767195D01*
G03X653240Y1777198I-35814J0D01*
G03X654665Y1787200I-34389J10003D01*
G01X654665Y1807200D01*
G03X653240Y1817203I-35814J0D01*
G03X654665Y1827205I-34389J10003D01*
G01X654665Y1847205D01*
G03X653240Y1857208I-35814J0D01*
G03X654665Y1867210I-34389J10003D01*
G01X654665Y1887210D01*
G03X653243Y1897200I-35814J0D01*
G03X654665Y1907190I-34393J9990D01*
G01X654665Y1927190D01*
G03X653240Y1937192I-35814J0D01*
G03X654665Y1947195I-34389J10003D01*
G01X654665Y1967195D01*
G03X653240Y1977197I-35814J0D01*
G01X653560Y1978375D01*
G03X690554Y1975600I23258J62101D01*
G01X690554Y1737206D01*
G03X726368Y1701392I35814J0D01*
G01X830638Y1701392D01*
G03X827117Y1665503I61750J-24175D01*
G01X816367Y1665503D01*
G03X806365Y1664077I0J-35814D01*
G03X796362Y1665503I-10003J-34389D01*
G01X776362Y1665503D01*
G03X766360Y1664077I0J-35814D01*
G03X756357Y1665503I-10003J-34389D01*
G01X736357Y1665503D01*
G03X726355Y1664077I0J-35814D01*
G03X716352Y1665503I-10003J-34389D01*
G01X696352Y1665503D01*
G03X686363Y1664081I0J-35814D01*
G03X676373Y1665503I-9990J-34393D01*
G01X656373Y1665503D01*
G01X654622Y1665460D01*
G01X654665Y1667211D01*
G01X654665Y1687211D01*
G03X653243Y1697201I-35814J0D01*
G03X654665Y1707190I-34393J9990D01*
G01X858057Y2204007D02*
G03X862276Y2208882I-31688J31688D01*
G01X876372Y2208882D01*
G03X886362Y2210304I0J35814D01*
G03X896352Y2208882I9990J34393D01*
G01X916352Y2208882D01*
G03X926355Y2210307I0J35814D01*
G03X936357Y2208882I10003J34389D01*
G01X956357Y2208882D01*
G03X966360Y2210307I0J35814D01*
G03X976362Y2208882I10003J34389D01*
G01X996362Y2208882D01*
G03X1006365Y2210307I0J35814D01*
G03X1016367Y2208882I10003J34389D01*
G01X1036367Y2208882D01*
G03X1046370Y2210307I0J35814D01*
G03X1056372Y2208882I10003J34389D01*
G01X1076372Y2208882D01*
G03X1086362Y2210304I0J35814D01*
G03X1096352Y2208882I9990J34393D01*
G01X1113869Y2208882D01*
G03X1117339Y2173019I65258J-11787D01*
G01X827068Y2173019D01*
G01X858057Y2204007D01*
G01X1292717Y936168D02*
G03X1322720Y919911I30002J19557D01*
G01X1388774Y919911D01*
G01X1388774Y789439D01*
G01X1320512Y789439D01*
G03X1290510Y773182I0J-35814D01*
G03X1271232Y787796I-30002J-19557D01*
G01X1271232Y920938D01*
G03X1292717Y936168I-8517J34787D01*
G01X1436880Y2556894D02*
G01X1514401Y2556894D01*
G03X1549400Y2585109I0J35814D01*
G03X1557487Y2569077I34999J7598D01*
G03X1553927Y2531510I61509J-24782D01*
G03X1549400Y2520291I30472J-18818D01*
G03X1514401Y2548506I-34999J-7598D01*
G01X1436290Y2548506D01*
G03X1436880Y2556894I-65722J8838D01*
G01X1496992Y911594D02*
G03X1503079Y919026I-34305J34305D01*
G03X1526557Y888461I35679J3107D01*
G03X1495224Y834435I34940J-56362D01*
G01X1485802Y825012D01*
G01X1485802Y900403D01*
G01X1496992Y911594D01*
G54D11*
G01X126695Y2317902D02*
G01X61041Y2317902D01*
G01X126695Y2317902D02*
G01X126695Y2388556D01*
G01X126695Y2317902D02*
G01X126695Y2247248D01*
G01X127000Y2692705D02*
G01X127000Y2758359D01*
G01X127000Y2692705D02*
G01X197654Y2692705D01*
G01X127000Y2692705D02*
G01X56346Y2692705D01*
G01X133502Y1270000D02*
G01X67848Y1270000D01*
G01X133502Y1270000D02*
G01X133502Y1340654D01*
G01X133502Y1270000D02*
G01X133502Y1199346D01*
G01X137495Y1462494D02*
G01X71841Y1462494D01*
G01X137495Y1462494D02*
G01X137495Y1533148D01*
G01X137495Y1462494D02*
G01X137495Y1391840D01*
G01X158373Y1918108D02*
G01X158373Y1842454D01*
G01X158373Y1918108D02*
G01X158373Y1993762D01*
G01X158373Y1918108D02*
G01X70218Y1918108D01*
G01X158373Y1918108D02*
G01X246527Y1918108D01*
G01X303269Y709030D02*
G01X303269Y813434D01*
G01X303269Y709030D02*
G01X303269Y604626D01*
G01X303269Y709030D02*
G01X362524Y709030D01*
G01X303269Y709030D02*
G01X244015Y709030D01*
G01X315951Y2692705D02*
G01X315951Y2758359D01*
G01X315951Y2692705D02*
G01X386605Y2692705D01*
G01X315951Y2692705D02*
G01X245297Y2692705D01*
G01X457200Y1326998D02*
G01X457200Y1261344D01*
G01X457200Y1326998D02*
G01X386546Y1326998D01*
G01X457200Y1326998D02*
G01X527854Y1326998D01*
G01X493698Y2938063D02*
G01X493698Y2872409D01*
G01X493698Y2938063D02*
G01X562552Y2938063D01*
G01X685800Y1212698D02*
G01X685800Y1147044D01*
G01X685800Y1212698D02*
G01X615146Y1212698D01*
G01X685800Y1212698D02*
G01X756454Y1212698D01*
G01X708101Y2692705D02*
G01X708101Y2758359D01*
G01X708101Y2692705D02*
G01X778755Y2692705D01*
G01X708101Y2692705D02*
G01X637447Y2692705D01*
G01X897052Y2692705D02*
G01X897052Y2758359D01*
G01X897052Y2692705D02*
G01X967706Y2692705D01*
G01X897052Y2692705D02*
G01X826398Y2692705D01*
G01X910427Y1212698D02*
G01X910427Y1147044D01*
G01X910427Y1212698D02*
G01X839774Y1212698D01*
G01X910427Y1212698D02*
G01X981081Y1212698D01*
G01X926367Y1937205D02*
G01X700714Y1937205D01*
G01X926367Y1937205D02*
G01X926367Y2162859D01*
G01X1086002Y2692705D02*
G01X1086002Y2758359D01*
G01X1086002Y2692705D02*
G01X1156656Y2692705D01*
G01X1086002Y2692705D02*
G01X1015348Y2692705D01*
G01X1135055Y1211391D02*
G01X1135055Y1145737D01*
G01X1135055Y1211391D02*
G01X1064401Y1211391D01*
G01X1135055Y1211391D02*
G01X1205709Y1211391D01*
G01X1360512Y708625D02*
G01X1360512Y779279D01*
G01X1362720Y1000725D02*
G01X1362720Y930071D01*
G01X1370990Y1282700D02*
G01X1291736Y1282700D01*
G01X1454401Y2442693D02*
G01X1454401Y2347039D01*
G01X1454401Y2442693D02*
G01X1454401Y2538346D01*
G01X1454401Y2442693D02*
G01X1368748Y2442693D01*
G01X1504493Y2235200D02*
G01X1438839Y2235200D01*
G01X1504493Y2235200D02*
G01X1504493Y2164546D01*
G01X1504493Y2235200D02*
G01X1504493Y2305854D01*
G01X1632102Y2870200D02*
G01X1697756Y2870200D01*
G01X1632102Y2870200D02*
G01X1632102Y2799546D01*
G01X1632102Y2870200D02*
G01X1632102Y2940854D01*
G01X1644399Y2662707D02*
G01X1644399Y2758361D01*
G01X1644399Y2662707D02*
G01X1730052Y2662707D01*
G01X1656962Y1913124D02*
G01X1656962Y1837471D01*
G01X1656962Y1913124D02*
G01X1656962Y1988778D01*
G01X1656962Y1913124D02*
G01X1561331Y1913124D01*
G01X1656962Y1913124D02*
G01X1752593Y1913124D01*
G01X304001Y255600D02*
G01X128347Y255600D01*
G01X304001Y255600D02*
G01X479655Y255600D01*
G01X304001Y255600D02*
G01X304001Y431254D01*
G01X304001Y255600D02*
G01X304001Y79947D01*
G01X554013Y455600D02*
G01X452159Y455600D01*
G01X554013Y455600D02*
G01X655867Y455600D01*
G01X554013Y455600D02*
G01X554013Y557454D01*
G01X554013Y455600D02*
G01X554013Y353746D01*
G01X1503999Y255600D02*
G01X1328345Y255600D01*
G01X1503999Y255600D02*
G01X1679652Y255600D01*
G01X1503999Y255600D02*
G01X1503999Y431254D01*
G01X1503999Y255600D02*
G01X1503999Y79947D01*
G04 Copper End*

G04 Pad Start*
G54D12*
G01X1239495Y3327400D03*
G01X709498Y3327400D03*
G54D13*
G01X1504493Y2235200D03*
G01X1644498Y2235200D03*
G01X1492098Y2870200D03*
G01X1632102Y2870200D03*
G01X1220508Y708625D03*
G01X1360512Y708625D03*
G01X1222715Y1000725D03*
G01X1362720Y1000725D03*
G54D14*
G01X685800Y1352702D03*
G01X685800Y1212698D03*
G54D13*
G01X273507Y1270000D03*
G01X133502Y1270000D03*
G01X277500Y1462494D03*
G01X137495Y1462494D03*
G54D14*
G01X897052Y2552700D03*
G01X897052Y2692705D03*
G01X315951Y2552700D03*
G01X315951Y2692705D03*
G01X1086002Y2552700D03*
G01X1086002Y2692705D03*
G01X127000Y2552700D03*
G01X127000Y2692705D03*
G01X457200Y1467002D03*
G01X457200Y1326998D03*
G01X708101Y2552700D03*
G01X708101Y2692705D03*
G54D13*
G01X266700Y2317902D03*
G01X126695Y2317902D03*
G54D14*
G01X910427Y1352702D03*
G01X910427Y1212698D03*
G01X1135055Y1351396D03*
G01X1135055Y1211391D03*
G54D15*
G01X1598758Y655133D03*
G01X1598758Y982132D03*
G54D16*
G01X1370990Y1377696D03*
G01X1370990Y1282700D03*
G01X1370990Y1187704D03*
G01X1600810Y1187704D03*
G01X1600810Y1282700D03*
G01X1600810Y1377696D03*
G54D17*
G01X963241Y711724D03*
G01X963241Y1000725D03*
G54D19*
G01X493698Y2938063D03*
G01X493698Y3078042D03*
G54D20*
G01X266700Y2152790D03*
G01X126721Y2152790D03*
G54D21*
G01X1656962Y1913124D03*
G01X1656962Y1703066D03*
G54D22*
G01X494436Y3403600D03*
G01X494436Y3252927D03*
G01X504236Y2702358D03*
G01X504236Y2551686D03*
G01X1447800Y1664564D03*
G01X1447800Y1815236D03*
G01X369164Y1827073D03*
G01X369164Y1676400D03*
G01X1270864Y2703373D03*
G01X1270864Y2552700D03*
G36*
G01X548257Y1072992D02*
G01X548257Y887572D01*
G01X548151Y883119D01*
G01X547838Y878677D01*
G01X547317Y874252D01*
G01X546591Y869858D01*
G01X545656Y865502D01*
G01X544521Y861196D01*
G01X543185Y856947D01*
G01X541651Y852766D01*
G01X539921Y848661D01*
G01X538003Y844641D01*
G01X535898Y840716D01*
G01X533609Y836894D01*
G01X531145Y833183D01*
G01X528511Y829591D01*
G01X525712Y826129D01*
G01X522751Y822799D01*
G01X519639Y819614D01*
G01X516380Y816576D01*
G01X512984Y813696D01*
G01X509456Y810978D01*
G01X505804Y808428D01*
G01X502037Y806053D01*
G01X498161Y803856D01*
G01X494188Y801842D01*
G01X486258Y800018D01*
G01X486258Y630285D01*
G01X420259Y630285D01*
G01X420259Y800018D01*
G01X412324Y801842D01*
G01X408351Y803856D01*
G01X404475Y806053D01*
G01X400709Y808428D01*
G01X397056Y810978D01*
G01X393528Y813696D01*
G01X390132Y816576D01*
G01X386873Y819614D01*
G01X383762Y822799D01*
G01X380800Y826129D01*
G01X378001Y829591D01*
G01X375367Y833183D01*
G01X372903Y836894D01*
G01X370615Y840716D01*
G01X368509Y844641D01*
G01X366591Y848661D01*
G01X364862Y852766D01*
G01X363327Y856947D01*
G01X361991Y861196D01*
G01X360856Y865502D01*
G01X359921Y869858D01*
G01X359195Y874252D01*
G01X358674Y878677D01*
G01X358362Y883119D01*
G01X358255Y887572D01*
G01X358255Y1072992D01*
G01X358362Y1077444D01*
G01X358674Y1081887D01*
G01X359195Y1086312D01*
G01X359921Y1090706D01*
G01X360856Y1095062D01*
G01X361991Y1099367D01*
G01X363327Y1103617D01*
G01X364862Y1107797D01*
G01X366591Y1111902D01*
G01X368509Y1115923D01*
G01X370615Y1119847D01*
G01X372903Y1123670D01*
G01X375367Y1127381D01*
G01X378001Y1130972D01*
G01X380800Y1134434D01*
G01X383762Y1137764D01*
G01X386873Y1140949D01*
G01X390132Y1143987D01*
G01X393528Y1146868D01*
G01X397056Y1149585D01*
G01X400709Y1152136D01*
G01X404475Y1154511D01*
G01X408351Y1156708D01*
G01X412324Y1158722D01*
G01X416388Y1160546D01*
G01X420531Y1162179D01*
G01X424747Y1163614D01*
G01X429027Y1164851D01*
G01X433360Y1165885D01*
G01X437734Y1166715D01*
G01X442146Y1167340D01*
G01X446581Y1167757D01*
G01X451029Y1167965D01*
G01X455484Y1167965D01*
G01X459931Y1167757D01*
G01X464366Y1167340D01*
G01X468778Y1166715D01*
G01X473152Y1165885D01*
G01X477485Y1164851D01*
G01X481765Y1163614D01*
G01X485982Y1162179D01*
G01X490124Y1160546D01*
G01X494188Y1158722D01*
G01X498161Y1156708D01*
G01X502037Y1154511D01*
G01X505804Y1152136D01*
G01X509456Y1149585D01*
G01X512984Y1146868D01*
G01X516380Y1143987D01*
G01X519639Y1140949D01*
G01X522751Y1137764D01*
G01X525712Y1134434D01*
G01X528511Y1130972D01*
G01X531145Y1127381D01*
G01X533609Y1123670D01*
G01X535898Y1119847D01*
G01X538003Y1115923D01*
G01X539921Y1111902D01*
G01X541651Y1107797D01*
G01X543185Y1103617D01*
G01X544521Y1099367D01*
G01X545656Y1095062D01*
G01X546591Y1090706D01*
G01X547317Y1086312D01*
G01X547838Y1081887D01*
G01X548151Y1077444D01*
G01X548257Y1072992D01*
G37*
G54D23*
G01X603269Y709030D03*
G01X303269Y709030D03*
G54D24*
G01X585601Y2197200D03*
G01X585601Y2157195D03*
G01X585601Y2117190D03*
G01X585601Y2077210D03*
G01X585601Y2037205D03*
G01X585601Y1997200D03*
G01X585601Y1957195D03*
G01X585601Y1917190D03*
G01X585601Y1877210D03*
G01X585601Y1837205D03*
G01X585601Y1797200D03*
G01X585601Y1757195D03*
G01X585601Y1717190D03*
G01X585601Y1677211D03*
G54D25*
G01X666373Y1596439D03*
G01X706352Y1596439D03*
G01X746357Y1596439D03*
G01X786362Y1596439D03*
G01X826367Y1596439D03*
G01X866372Y1596439D03*
G01X906352Y1596439D03*
G01X946357Y1596439D03*
G01X986362Y1596439D03*
G01X1026367Y1596439D03*
G01X1066372Y1596439D03*
G01X1106352Y1596439D03*
G01X1146357Y1596439D03*
G01X1186362Y1596439D03*
G54D24*
G01X1267108Y1677211D03*
G01X1267108Y1717190D03*
G01X1267108Y1757195D03*
G01X1267108Y1797200D03*
G01X1267108Y1837205D03*
G01X1267108Y1877210D03*
G01X1267108Y1917190D03*
G01X1267108Y1957195D03*
G01X1267108Y1997200D03*
G01X1267108Y2037205D03*
G01X1267108Y2077210D03*
G01X1267108Y2117190D03*
G01X1267108Y2157195D03*
G01X1267108Y2197200D03*
G54D25*
G01X1186362Y2277946D03*
G01X1146357Y2277946D03*
G01X1106352Y2277946D03*
G01X1066372Y2277946D03*
G01X1026367Y2277946D03*
G01X986362Y2277946D03*
G01X946357Y2277946D03*
G01X906352Y2277946D03*
G01X866372Y2277946D03*
G01X826367Y2277946D03*
G01X786362Y2277946D03*
G01X746357Y2277946D03*
G01X706352Y2277946D03*
G01X666373Y2277946D03*
G54D26*
G01X926367Y1937205D03*
G54D27*
G01X554013Y455600D03*
G01X804000Y455600D03*
G01X1004000Y455600D03*
G01X1254012Y455600D03*
G54D28*
G01X304001Y255600D03*
G01X1503999Y255600D03*
G54D29*
G01X1454401Y2662707D03*
G01X1644399Y2442693D03*
G01X1454401Y2442693D03*
G01X1644399Y2662707D03*
G54D30*
G01X158373Y1698093D03*
G01X158373Y1918108D03*
G04 Pad End*

G04 Via Start*
G54D31*
G01X1259268Y1612897D03*
G01X1692507Y1162298D03*
G01X1688237Y1348027D03*
G01X828069Y1435097D03*
G01X892388Y1677217D03*
G01X1405757Y1503397D03*
G01X1521107Y1739896D03*
G01X1361387Y1757196D03*
G01X1493377Y1498597D03*
G01X750168Y2184896D03*
G01X866378Y2365025D03*
G01X1179127Y2019296D03*
G01X1179127Y2197096D03*
G01X1673507Y1601116D03*
G01X1179968Y1750067D03*
G01X1179968Y1880857D03*
G01X505409Y1824697D03*
G01X676819Y2040476D03*
G01X1618997Y2544295D03*
G01X1346277Y2703375D03*
G01X1693167Y433719D03*
G01X1370987Y1111498D03*
G01X1561497Y832098D03*
G01X1434497Y578099D03*
G01X797158Y2481145D03*
G01X1198908Y2603495D03*
G01X989568Y2481145D03*
G01X1370567Y2557345D03*
G01X1279287Y1257297D03*
G01X1495897Y888288D03*
G01X380999Y1326997D03*
G01X203199Y1352397D03*
G01X108820Y2241705D03*
G01X197540Y2635225D03*
G01X685799Y1961996D03*
G01X732628Y980308D03*
G01X888998Y1517797D03*
G01X1364237Y1840636D03*
G01X392619Y2213786D03*
G01X976818Y2366185D03*
G01X87171Y3034456D03*
G01X180618Y3034456D03*
G01X254000Y3035300D03*
G01X635000Y3022600D03*
G01X711200Y3022600D03*
G01X787400Y3022600D03*
G01X863600Y3022600D03*
G01X939800Y3022600D03*
G01X1028700Y3018800D03*
G01X1104900Y3018800D03*
G01X1181100Y3018800D03*
G01X1257300Y3018800D03*
G01X1333500Y3018800D03*
G01X1422400Y3018800D03*
G01X1498600Y3018800D03*
G01X1574800Y3018800D03*
G01X1651000Y3018800D03*
G01X1727200Y3018800D03*
G01X889000Y3090550D03*
G01X965200Y3090550D03*
G01X1041400Y3090550D03*
G01X1117600Y3090550D03*
G01X1193800Y3090550D03*
G01X1282700Y3086750D03*
G01X1358900Y3086750D03*
G01X1435100Y3086750D03*
G01X1511300Y3086750D03*
G01X1587500Y3086750D03*
G01X1663700Y3098800D03*
G01X660400Y3086100D03*
G01X736600Y3086100D03*
G01X812800Y3086100D03*
G01X76200Y3111500D03*
G01X152400Y3111500D03*
G01X228600Y3111500D03*
G01X1739900Y3098800D03*
G01X494436Y2815914D03*
G01X152400Y2819400D03*
G01X330200Y3035300D03*
G01X381000Y3098800D03*
G01X304800Y3111500D03*
G54D32*
G01X1026367Y1937180D03*
G01X1026367Y2037180D03*
G01X826393Y1937205D03*
G01X826393Y2037180D03*
G01X1026367Y1837180D03*
G01X826367Y1837180D03*
G01X926367Y1937180D03*
G01X926418Y1837231D03*
G01X926367Y2037180D03*
G04 Via End*

G04 Track Start*
G54D33*
G01X1259268Y1612897D02*
G01X1202818Y1612897D01*
G01X1186368Y1596447D01*
G54D11*
G01X1600807Y1187698D02*
G01X1667107Y1187698D01*
G01X1692507Y1162298D01*
G01X1600807Y1377697D02*
G01X1658566Y1377697D01*
G01X1688237Y1348027D01*
G01X1656967Y1703067D02*
G01X1618457Y1664557D01*
G01X1447797Y1664557D01*
G01X158370Y1698097D02*
G01X287349Y1827076D01*
G01X369159Y1827076D01*
G01X709498Y3327403D02*
G01X633299Y3403603D01*
G01X494439Y3403603D01*
G01X828069Y1435097D02*
G01X910428Y1352697D01*
G01X1133758Y1352697D01*
G01X1135058Y1351397D01*
G54D33*
G01X892388Y1677217D02*
G01X1267107Y1677217D01*
G01X666379Y1596447D02*
G01X449109Y1596447D01*
G01X369159Y1676397D01*
G01X1106358Y1596447D02*
G01X1106358Y1554197D01*
G01X1157158Y1503397D01*
G01X1405757Y1503397D01*
G01X1521107Y1739896D02*
G01X1521107Y1866896D01*
G01X1434587Y1953416D01*
G01X1383787Y1953416D01*
G01X1307587Y1877216D01*
G01X1267107Y1877216D01*
G01X1361387Y1757196D02*
G01X1267107Y1757196D01*
G01X1066378Y1596447D02*
G01X1066378Y1528797D01*
G01X1147378Y1447797D01*
G01X1442577Y1447797D01*
G01X1493377Y1498597D01*
G01X826368Y2277945D02*
G01X826368Y2235696D01*
G01X775568Y2184896D01*
G01X750168Y2184896D01*
G01X866378Y2277945D02*
G01X866378Y2365025D01*
G01X1179127Y2019296D02*
G01X1179127Y2197096D01*
G01X1673507Y1601116D02*
G01X1648107Y1575717D01*
G01X1408587Y1575717D01*
G01X1332387Y1651916D01*
G01X1332387Y1702716D01*
G01X1317907Y1717196D01*
G01X1267107Y1717196D01*
G01X1179968Y1750067D02*
G01X1179968Y1800867D01*
G01X1216307Y1837206D01*
G01X1267107Y1837206D01*
G01X1179968Y1880857D02*
G01X1216307Y1917196D01*
G01X1267107Y1917196D01*
G01X505409Y1824697D02*
G01X505409Y2047816D01*
G01X530809Y2073216D01*
G01X581609Y2073216D01*
G01X585609Y2077216D01*
G01X585609Y2157196D02*
G01X585609Y2117196D01*
G01X585609Y2157196D02*
G01X543359Y2157196D01*
G01X390959Y2309595D01*
G01X275009Y2309595D01*
G01X266699Y2317905D01*
G54D11*
G01X275009Y2309595D02*
G01X275009Y2301075D01*
G01X126720Y2152786D01*
G01X493699Y3078044D02*
G01X493699Y3252183D01*
G01X494439Y3252923D01*
G01X493699Y3078044D02*
G01X417499Y3001844D01*
G01X417499Y2789104D01*
G01X504239Y2702365D01*
G54D33*
G01X676819Y2040476D02*
G01X588879Y2040476D01*
G01X585609Y2037206D01*
G54D11*
G01X1644497Y2235195D02*
G01X1644497Y2442595D01*
G01X1644397Y2442695D02*
G01X1644397Y2518895D01*
G01X1618997Y2544295D01*
G01X1346277Y2703375D02*
G01X1270867Y2703375D01*
G01X603269Y709038D02*
G01X671549Y709038D01*
G01X963238Y1000728D01*
G01X1222718Y1000728D01*
G01X1222718Y710839D01*
G01X1220508Y708629D01*
G54D33*
G01X585609Y2197206D02*
G01X585609Y2470315D01*
G01X504239Y2551685D01*
G54D11*
G01X1600807Y1282697D02*
G01X1559906Y1282697D01*
G01X1509106Y1231897D01*
G01X1509106Y1155698D01*
G01X1534506Y1130298D01*
G01X1610706Y1130298D01*
G01X1686906Y1054098D01*
G01X1686906Y743278D01*
G01X1598757Y655129D01*
G01X1598757Y528129D01*
G01X1693167Y433719D01*
G01X1598757Y655129D02*
G01X1399227Y455599D01*
G01X1254007Y455599D01*
G01X1219368Y455599D01*
G01X963238Y711729D01*
G01X1370987Y1187698D02*
G01X1370987Y1111498D01*
G01X1561497Y832098D02*
G01X1485297Y755898D01*
G01X1485297Y628899D01*
G01X1434497Y578099D01*
G01X1370987Y1377697D02*
G01X1411888Y1377697D01*
G01X1462687Y1326897D01*
G01X1462687Y945898D01*
G01X1437288Y920498D01*
G01X1437288Y660289D01*
G01X1411888Y634889D01*
G01X1157888Y634889D01*
G01X1081688Y711089D01*
G01X1081688Y787289D01*
G01X1056288Y812689D01*
G01X878489Y812689D01*
G01X827689Y761889D01*
G01X827689Y631908D01*
G01X1003998Y455599D01*
G54D33*
G01X746358Y2277945D02*
G01X746358Y2430345D01*
G01X797158Y2481145D01*
G01X1198908Y2603495D02*
G01X1220068Y2603495D01*
G01X1270867Y2552695D01*
G01X786369Y2277945D02*
G01X786369Y2379545D01*
G01X887968Y2481145D01*
G01X989568Y2481145D01*
G01X1370567Y2557345D02*
G01X1370567Y2578885D01*
G01X1454397Y2662715D01*
G54D11*
G01X1454397Y2662715D02*
G01X1454397Y2832504D01*
G01X1492097Y2870204D01*
G01X1370987Y1282697D02*
G01X1304687Y1282697D01*
G01X1279287Y1257297D01*
G01X1233387Y1211398D01*
G01X1135058Y1211398D01*
G01X911728Y1211398D01*
G01X910428Y1212698D01*
G01X685799Y1212698D01*
G01X1233387Y1211398D02*
G01X1233387Y1130058D01*
G01X1362717Y1000728D01*
G01X1362717Y710839D01*
G01X1360507Y708629D01*
G01X1495897Y888288D02*
G01X1504916Y888288D01*
G01X1598757Y982128D01*
G01X685799Y1212698D02*
G01X571499Y1212698D01*
G01X457199Y1326997D01*
G01X380999Y1326997D01*
G01X203199Y1352397D02*
G01X203199Y1339687D01*
G01X133510Y1269997D01*
G01X203199Y1352397D02*
G01X203199Y1396797D01*
G01X137500Y1462497D01*
G01X133510Y1269997D02*
G01X133510Y878798D01*
G01X303269Y709038D01*
G01X303269Y617589D01*
G01X455669Y465189D01*
G01X544419Y465189D01*
G01X554009Y455599D01*
G01X455669Y465189D02*
G01X455669Y407269D01*
G01X303999Y255599D01*
G01X137500Y1462497D02*
G01X61300Y1538697D01*
G01X61300Y1821036D01*
G01X158370Y1918106D01*
G01X108820Y2241705D02*
G01X108820Y2300025D01*
G01X126700Y2317905D01*
G01X197540Y2635225D02*
G01X184480Y2635225D01*
G01X197540Y2635225D02*
G01X258469Y2635225D01*
G01X315949Y2692705D01*
G01X708099Y2692705D02*
G01X897048Y2692705D01*
G01X1085998Y2692705D01*
G01X1339997Y2946704D01*
G01X1543197Y2946704D01*
G01X1568597Y2921304D01*
G01X1568597Y2819704D02*
G01X1543197Y2794304D01*
G01X1543197Y2531495D02*
G01X1454397Y2442695D01*
G01X1568597Y2870504D02*
G01X1631797Y2870504D01*
G01X1543197Y2667305D02*
G01X1639807Y2667305D01*
G01X1644397Y2662715D01*
G01X1454397Y2442695D02*
G01X1454397Y2285295D01*
G01X1504497Y2235195D01*
G01X1504497Y2065596D01*
G01X1656967Y1913126D01*
G01X901578Y1961996D02*
G01X926368Y1937206D01*
G01X453229Y980308D02*
G01X453229Y1090278D01*
G01X273509Y1269997D01*
G01X273509Y1295397D01*
G01X277499Y1299387D01*
G01X277499Y1462497D01*
G01X452699Y1462497D01*
G01X457199Y1466997D01*
G01X482599Y1466997D01*
G01X584199Y1365397D01*
G01X673099Y1365397D01*
G01X685799Y1352697D01*
G54D33*
G01X660399Y1365397D02*
G01X812798Y1517797D01*
G01X838198Y1517797D01*
G01X863598Y1543197D01*
G01X863598Y1593667D01*
G01X866378Y1596447D01*
G54D11*
G01X453229Y980308D02*
G01X732628Y980308D01*
G54D33*
G01X863598Y1543197D02*
G01X888998Y1517797D01*
G01X1364237Y1840636D02*
G01X1422397Y1840636D01*
G01X1447797Y1815236D01*
G01X277499Y1451787D02*
G01X277499Y1717667D01*
G01X316419Y1756587D01*
G01X418019Y1756587D01*
G01X443419Y1781987D01*
G01X443419Y2162986D01*
G01X392619Y2213786D01*
G01X976818Y2366185D02*
G01X1002218Y2340785D01*
G01X1053018Y2340785D01*
G01X1066378Y2327425D01*
G01X1066378Y2277945D01*
G01X1053018Y2340785D02*
G01X1053018Y2518585D01*
G01X1027618Y2543985D01*
G01X780019Y2543985D01*
G01X678419Y2442385D01*
G01X678419Y2289986D01*
G01X666379Y2277945D01*
G01X907018Y2543985D02*
G01X897048Y2552705D01*
G01X678419Y2289986D02*
G01X694319Y2289986D01*
G01X706359Y2277945D01*
G54D11*
G01X1053018Y2518585D02*
G01X1053018Y2519725D01*
G01X1085998Y2552705D01*
G01X729219Y2493185D02*
G01X729219Y2531585D01*
G01X708099Y2552705D01*
G54D33*
G01X392619Y2213786D02*
G01X327699Y2213786D01*
G01X266699Y2152786D01*
G54D11*
G01X708099Y2552705D02*
G01X631899Y2628905D01*
G01X454099Y2628905D01*
G01X377899Y2552705D01*
G01X315949Y2552705D01*
G01X327099Y2552705D02*
G01X127000Y2552705D01*
G01X493698Y2938063D02*
G01X494436Y2937324D01*
G01X494436Y2906367D02*
G01X708099Y2692705D01*
G01X494436Y2937324D02*
G01X494436Y2906367D01*
G01X494436Y2815914D01*
G01X1568597Y2921304D02*
G01X1568597Y2870504D01*
G01X1568597Y2819704D01*
G01X1543197Y2794304D02*
G01X1543197Y2667305D01*
G01X1543197Y2531495D01*
G01X152400Y2819400D02*
G01X127000Y2794000D01*
G01X127000Y2692705D01*
G01X184480Y2635225D02*
G01X127000Y2692705D01*
G01X685799Y1961996D02*
G01X901578Y1961996D01*
G04 Track End*

M02*

