G04 Layer: TopSilkscreenLayer*
G04 EasyEDA Pro v3.2.121, 2026-05-20 00:31:31*
G04 Gerber Generator version 0.3*
G04 Scale: 100 percent, Rotated: No, Reflected: No*
G04 Dimensions in millimeters*
G04 Leading zeros omitted, absolute positions, 4 integers and 5 decimals*
G04 Generated by one-click*
%FSLAX45Y45*%
%MOMM*%
%ADD10C,0.152*%
%ADD11C,0.254*%
%ADD12C,0.1524*%
%ADD13C,0.0762*%
%ADD14C,0.2032*%
%ADD15C,0.3*%
%ADD16C,0.1551*%
%ADD17C,0.15001*%
G75*


G04 Text Start*
G54D10*
G01X1060958Y3129534D02*
G01X1036320Y3064510D01*
G01X1060958Y3129534D02*
G01X1085850Y3064510D01*
G01X1045464Y3086354D02*
G01X1076452Y3086354D01*
G01X1115822Y3129534D02*
G01X1115822Y3064510D01*
G01X1115822Y3129534D02*
G01X1159256Y3064510D01*
G01X1159256Y3129534D02*
G01X1159256Y3064510D01*
G01X1211072Y3129534D02*
G01X1211072Y3064510D01*
G01X1189228Y3129534D02*
G01X1232662Y3129534D01*
G01X1262634Y3117342D02*
G01X1268984Y3120390D01*
G01X1278128Y3129534D01*
G01X1278128Y3064510D01*
G01X1400302Y2110740D02*
G01X1397254Y2117090D01*
G01X1390904Y2123186D01*
G01X1384808Y2126234D01*
G01X1372362Y2126234D01*
G01X1366266Y2123186D01*
G01X1359916Y2117090D01*
G01X1356868Y2110740D01*
G01X1353820Y2101596D01*
G01X1353820Y2086102D01*
G01X1356868Y2076704D01*
G01X1359916Y2070608D01*
G01X1366266Y2064258D01*
G01X1372362Y2061210D01*
G01X1384808Y2061210D01*
G01X1390904Y2064258D01*
G01X1397254Y2070608D01*
G01X1400302Y2076704D01*
G01X1430274Y2114042D02*
G01X1436624Y2117090D01*
G01X1445768Y2126234D01*
G01X1445768Y2061210D01*
G01X1475740Y2114042D02*
G01X1482090Y2117090D01*
G01X1491234Y2126234D01*
G01X1491234Y2061210D01*
G01X1514602Y3037840D02*
G01X1511554Y3044190D01*
G01X1505204Y3050286D01*
G01X1499108Y3053334D01*
G01X1486662Y3053334D01*
G01X1480566Y3050286D01*
G01X1474216Y3044190D01*
G01X1471168Y3037840D01*
G01X1468120Y3028696D01*
G01X1468120Y3013202D01*
G01X1471168Y3003804D01*
G01X1474216Y2997708D01*
G01X1480566Y2991358D01*
G01X1486662Y2988310D01*
G01X1499108Y2988310D01*
G01X1505204Y2991358D01*
G01X1511554Y2997708D01*
G01X1514602Y3003804D01*
G01X1544574Y3041142D02*
G01X1550924Y3044190D01*
G01X1560068Y3053334D01*
G01X1560068Y2988310D01*
G01X1593342Y3037840D02*
G01X1593342Y3041142D01*
G01X1596390Y3047238D01*
G01X1599438Y3050286D01*
G01X1605534Y3053334D01*
G01X1617980Y3053334D01*
G01X1624076Y3050286D01*
G01X1627378Y3047238D01*
G01X1630426Y3041142D01*
G01X1630426Y3034792D01*
G01X1627378Y3028696D01*
G01X1621028Y3019298D01*
G01X1590040Y2988310D01*
G01X1633474Y2988310D01*
G01X1286002Y574040D02*
G01X1282954Y580390D01*
G01X1276604Y586486D01*
G01X1270508Y589534D01*
G01X1258062Y589534D01*
G01X1251966Y586486D01*
G01X1245616Y580390D01*
G01X1242568Y574040D01*
G01X1239520Y564896D01*
G01X1239520Y549402D01*
G01X1242568Y540004D01*
G01X1245616Y533908D01*
G01X1251966Y527558D01*
G01X1258062Y524510D01*
G01X1270508Y524510D01*
G01X1276604Y527558D01*
G01X1282954Y533908D01*
G01X1286002Y540004D01*
G01X1319276Y574040D02*
G01X1319276Y577342D01*
G01X1322324Y583438D01*
G01X1325372Y586486D01*
G01X1331468Y589534D01*
G01X1343914Y589534D01*
G01X1350010Y586486D01*
G01X1353312Y583438D01*
G01X1356360Y577342D01*
G01X1356360Y570992D01*
G01X1353312Y564896D01*
G01X1346962Y555498D01*
G01X1315974Y524510D01*
G01X1359408Y524510D01*
G01X1429766Y567944D02*
G01X1426718Y558546D01*
G01X1420368Y552450D01*
G01X1411224Y549402D01*
G01X1408176Y549402D01*
G01X1398778Y552450D01*
G01X1392682Y558546D01*
G01X1389380Y567944D01*
G01X1389380Y570992D01*
G01X1392682Y580390D01*
G01X1398778Y586486D01*
G01X1408176Y589534D01*
G01X1411224Y589534D01*
G01X1420368Y586486D01*
G01X1426718Y580390D01*
G01X1429766Y567944D01*
G01X1429766Y552450D01*
G01X1426718Y536956D01*
G01X1420368Y527558D01*
G01X1411224Y524510D01*
G01X1404874Y524510D01*
G01X1395730Y527558D01*
G01X1392682Y533908D01*
G01X1286002Y878840D02*
G01X1282954Y885190D01*
G01X1276604Y891286D01*
G01X1270508Y894334D01*
G01X1258062Y894334D01*
G01X1251966Y891286D01*
G01X1245616Y885190D01*
G01X1242568Y878840D01*
G01X1239520Y869696D01*
G01X1239520Y854202D01*
G01X1242568Y844804D01*
G01X1245616Y838708D01*
G01X1251966Y832358D01*
G01X1258062Y829310D01*
G01X1270508Y829310D01*
G01X1276604Y832358D01*
G01X1282954Y838708D01*
G01X1286002Y844804D01*
G01X1322324Y894334D02*
G01X1356360Y894334D01*
G01X1337818Y869696D01*
G01X1346962Y869696D01*
G01X1353312Y866648D01*
G01X1356360Y863346D01*
G01X1359408Y854202D01*
G01X1359408Y847852D01*
G01X1356360Y838708D01*
G01X1350010Y832358D01*
G01X1340866Y829310D01*
G01X1331468Y829310D01*
G01X1322324Y832358D01*
G01X1319276Y835660D01*
G01X1315974Y841756D01*
G01X1408176Y894334D02*
G01X1398778Y891286D01*
G01X1392682Y882142D01*
G01X1389380Y866648D01*
G01X1389380Y857250D01*
G01X1392682Y841756D01*
G01X1398778Y832358D01*
G01X1408176Y829310D01*
G01X1414272Y829310D01*
G01X1423416Y832358D01*
G01X1429766Y841756D01*
G01X1432814Y857250D01*
G01X1432814Y866648D01*
G01X1429766Y882142D01*
G01X1423416Y891286D01*
G01X1414272Y894334D01*
G01X1408176Y894334D01*
G01X651002Y1513840D02*
G01X647954Y1520190D01*
G01X641604Y1526286D01*
G01X635508Y1529334D01*
G01X623062Y1529334D01*
G01X616966Y1526286D01*
G01X610616Y1520190D01*
G01X607568Y1513840D01*
G01X604520Y1504696D01*
G01X604520Y1489202D01*
G01X607568Y1479804D01*
G01X610616Y1473708D01*
G01X616966Y1467358D01*
G01X623062Y1464310D01*
G01X635508Y1464310D01*
G01X641604Y1467358D01*
G01X647954Y1473708D01*
G01X651002Y1479804D01*
G01X687324Y1529334D02*
G01X721360Y1529334D01*
G01X702818Y1504696D01*
G01X711962Y1504696D01*
G01X718312Y1501648D01*
G01X721360Y1498346D01*
G01X724408Y1489202D01*
G01X724408Y1482852D01*
G01X721360Y1473708D01*
G01X715010Y1467358D01*
G01X705866Y1464310D01*
G01X696468Y1464310D01*
G01X687324Y1467358D01*
G01X684276Y1470660D01*
G01X680974Y1476756D01*
G01X754380Y1517142D02*
G01X760730Y1520190D01*
G01X769874Y1529334D01*
G01X769874Y1464310D01*
G01X130302Y1145540D02*
G01X127254Y1151890D01*
G01X120904Y1157986D01*
G01X114808Y1161034D01*
G01X102362Y1161034D01*
G01X96266Y1157986D01*
G01X89916Y1151890D01*
G01X86868Y1145540D01*
G01X83820Y1136396D01*
G01X83820Y1120902D01*
G01X86868Y1111504D01*
G01X89916Y1105408D01*
G01X96266Y1099058D01*
G01X102362Y1096010D01*
G01X114808Y1096010D01*
G01X120904Y1099058D01*
G01X127254Y1105408D01*
G01X130302Y1111504D01*
G01X166624Y1161034D02*
G01X200660Y1161034D01*
G01X182118Y1136396D01*
G01X191262Y1136396D01*
G01X197612Y1133348D01*
G01X200660Y1130046D01*
G01X203708Y1120902D01*
G01X203708Y1114552D01*
G01X200660Y1105408D01*
G01X194310Y1099058D01*
G01X185166Y1096010D01*
G01X175768Y1096010D01*
G01X166624Y1099058D01*
G01X163576Y1102360D01*
G01X160274Y1108456D01*
G01X236982Y1145540D02*
G01X236982Y1148842D01*
G01X240030Y1154938D01*
G01X243078Y1157986D01*
G01X249174Y1161034D01*
G01X261620Y1161034D01*
G01X267716Y1157986D01*
G01X271018Y1154938D01*
G01X274066Y1148842D01*
G01X274066Y1142492D01*
G01X271018Y1136396D01*
G01X264668Y1126998D01*
G01X233680Y1096010D01*
G01X277114Y1096010D01*
G01X181102Y1602740D02*
G01X178054Y1609090D01*
G01X171704Y1615186D01*
G01X165608Y1618234D01*
G01X153162Y1618234D01*
G01X147066Y1615186D01*
G01X140716Y1609090D01*
G01X137668Y1602740D01*
G01X134620Y1593596D01*
G01X134620Y1578102D01*
G01X137668Y1568704D01*
G01X140716Y1562608D01*
G01X147066Y1556258D01*
G01X153162Y1553210D01*
G01X165608Y1553210D01*
G01X171704Y1556258D01*
G01X178054Y1562608D01*
G01X181102Y1568704D01*
G01X248412Y1609090D02*
G01X245110Y1615186D01*
G01X235966Y1618234D01*
G01X229870Y1618234D01*
G01X220472Y1615186D01*
G01X214376Y1606042D01*
G01X211074Y1590548D01*
G01X211074Y1575054D01*
G01X214376Y1562608D01*
G01X220472Y1556258D01*
G01X229870Y1553210D01*
G01X232918Y1553210D01*
G01X242062Y1556258D01*
G01X248412Y1562608D01*
G01X251460Y1571752D01*
G01X251460Y1575054D01*
G01X248412Y1584198D01*
G01X242062Y1590548D01*
G01X232918Y1593596D01*
G01X229870Y1593596D01*
G01X220472Y1590548D01*
G01X214376Y1584198D01*
G01X211074Y1575054D01*
G01X281432Y1606042D02*
G01X287782Y1609090D01*
G01X296926Y1618234D01*
G01X296926Y1553210D01*
G01X892302Y2860040D02*
G01X889254Y2866390D01*
G01X882904Y2872486D01*
G01X876808Y2875534D01*
G01X864362Y2875534D01*
G01X858266Y2872486D01*
G01X851916Y2866390D01*
G01X848868Y2860040D01*
G01X845820Y2850896D01*
G01X845820Y2835402D01*
G01X848868Y2826004D01*
G01X851916Y2819908D01*
G01X858266Y2813558D01*
G01X864362Y2810510D01*
G01X876808Y2810510D01*
G01X882904Y2813558D01*
G01X889254Y2819908D01*
G01X892302Y2826004D01*
G01X959612Y2866390D02*
G01X956310Y2872486D01*
G01X947166Y2875534D01*
G01X941070Y2875534D01*
G01X931672Y2872486D01*
G01X925576Y2863342D01*
G01X922274Y2847848D01*
G01X922274Y2832354D01*
G01X925576Y2819908D01*
G01X931672Y2813558D01*
G01X941070Y2810510D01*
G01X944118Y2810510D01*
G01X953262Y2813558D01*
G01X959612Y2819908D01*
G01X962660Y2829052D01*
G01X962660Y2832354D01*
G01X959612Y2841498D01*
G01X953262Y2847848D01*
G01X944118Y2850896D01*
G01X941070Y2850896D01*
G01X931672Y2847848D01*
G01X925576Y2841498D01*
G01X922274Y2832354D01*
G01X995934Y2860040D02*
G01X995934Y2863342D01*
G01X998982Y2869438D01*
G01X1002030Y2872486D01*
G01X1008126Y2875534D01*
G01X1020572Y2875534D01*
G01X1026668Y2872486D01*
G01X1029970Y2869438D01*
G01X1033018Y2863342D01*
G01X1033018Y2856992D01*
G01X1029970Y2850896D01*
G01X1023620Y2841498D01*
G01X992632Y2810510D01*
G01X1036066Y2810510D01*
G01X270002Y2860040D02*
G01X266954Y2866390D01*
G01X260604Y2872486D01*
G01X254508Y2875534D01*
G01X242062Y2875534D01*
G01X235966Y2872486D01*
G01X229616Y2866390D01*
G01X226568Y2860040D01*
G01X223520Y2850896D01*
G01X223520Y2835402D01*
G01X226568Y2826004D01*
G01X229616Y2819908D01*
G01X235966Y2813558D01*
G01X242062Y2810510D01*
G01X254508Y2810510D01*
G01X260604Y2813558D01*
G01X266954Y2819908D01*
G01X270002Y2826004D01*
G01X337312Y2866390D02*
G01X334010Y2872486D01*
G01X324866Y2875534D01*
G01X318770Y2875534D01*
G01X309372Y2872486D01*
G01X303276Y2863342D01*
G01X299974Y2847848D01*
G01X299974Y2832354D01*
G01X303276Y2819908D01*
G01X309372Y2813558D01*
G01X318770Y2810510D01*
G01X321818Y2810510D01*
G01X330962Y2813558D01*
G01X337312Y2819908D01*
G01X340360Y2829052D01*
G01X340360Y2832354D01*
G01X337312Y2841498D01*
G01X330962Y2847848D01*
G01X321818Y2850896D01*
G01X318770Y2850896D01*
G01X309372Y2847848D01*
G01X303276Y2841498D01*
G01X299974Y2832354D01*
G01X401320Y2875534D02*
G01X370332Y2832354D01*
G01X416814Y2832354D01*
G01X401320Y2875534D02*
G01X401320Y2810510D01*
G01X1070102Y2428240D02*
G01X1067054Y2434590D01*
G01X1060704Y2440686D01*
G01X1054608Y2443734D01*
G01X1042162Y2443734D01*
G01X1036066Y2440686D01*
G01X1029716Y2434590D01*
G01X1026668Y2428240D01*
G01X1023620Y2419096D01*
G01X1023620Y2403602D01*
G01X1026668Y2394204D01*
G01X1029716Y2388108D01*
G01X1036066Y2381758D01*
G01X1042162Y2378710D01*
G01X1054608Y2378710D01*
G01X1060704Y2381758D01*
G01X1067054Y2388108D01*
G01X1070102Y2394204D01*
G01X1137412Y2434590D02*
G01X1134110Y2440686D01*
G01X1124966Y2443734D01*
G01X1118870Y2443734D01*
G01X1109472Y2440686D01*
G01X1103376Y2431542D01*
G01X1100074Y2416048D01*
G01X1100074Y2400554D01*
G01X1103376Y2388108D01*
G01X1109472Y2381758D01*
G01X1118870Y2378710D01*
G01X1121918Y2378710D01*
G01X1131062Y2381758D01*
G01X1137412Y2388108D01*
G01X1140460Y2397252D01*
G01X1140460Y2400554D01*
G01X1137412Y2409698D01*
G01X1131062Y2416048D01*
G01X1121918Y2419096D01*
G01X1118870Y2419096D01*
G01X1109472Y2416048D01*
G01X1103376Y2409698D01*
G01X1100074Y2400554D01*
G01X1207770Y2443734D02*
G01X1176782Y2443734D01*
G01X1173734Y2416048D01*
G01X1176782Y2419096D01*
G01X1185926Y2422144D01*
G01X1195324Y2422144D01*
G01X1204468Y2419096D01*
G01X1210818Y2412746D01*
G01X1213866Y2403602D01*
G01X1213866Y2397252D01*
G01X1210818Y2388108D01*
G01X1204468Y2381758D01*
G01X1195324Y2378710D01*
G01X1185926Y2378710D01*
G01X1176782Y2381758D01*
G01X1173734Y2385060D01*
G01X1170432Y2391156D01*
G01X117602Y2961640D02*
G01X114554Y2967990D01*
G01X108204Y2974086D01*
G01X102108Y2977134D01*
G01X89662Y2977134D01*
G01X83566Y2974086D01*
G01X77216Y2967990D01*
G01X74168Y2961640D01*
G01X71120Y2952496D01*
G01X71120Y2937002D01*
G01X74168Y2927604D01*
G01X77216Y2921508D01*
G01X83566Y2915158D01*
G01X89662Y2912110D01*
G01X102108Y2912110D01*
G01X108204Y2915158D01*
G01X114554Y2921508D01*
G01X117602Y2927604D01*
G01X184912Y2967990D02*
G01X181610Y2974086D01*
G01X172466Y2977134D01*
G01X166370Y2977134D01*
G01X156972Y2974086D01*
G01X150876Y2964942D01*
G01X147574Y2949448D01*
G01X147574Y2933954D01*
G01X150876Y2921508D01*
G01X156972Y2915158D01*
G01X166370Y2912110D01*
G01X169418Y2912110D01*
G01X178562Y2915158D01*
G01X184912Y2921508D01*
G01X187960Y2930652D01*
G01X187960Y2933954D01*
G01X184912Y2943098D01*
G01X178562Y2949448D01*
G01X169418Y2952496D01*
G01X166370Y2952496D01*
G01X156972Y2949448D01*
G01X150876Y2943098D01*
G01X147574Y2933954D01*
G01X255270Y2967990D02*
G01X251968Y2974086D01*
G01X242824Y2977134D01*
G01X236728Y2977134D01*
G01X227330Y2974086D01*
G01X221234Y2964942D01*
G01X217932Y2949448D01*
G01X217932Y2933954D01*
G01X221234Y2921508D01*
G01X227330Y2915158D01*
G01X236728Y2912110D01*
G01X239776Y2912110D01*
G01X248920Y2915158D01*
G01X255270Y2921508D01*
G01X258318Y2930652D01*
G01X258318Y2933954D01*
G01X255270Y2943098D01*
G01X248920Y2949448D01*
G01X239776Y2952496D01*
G01X236728Y2952496D01*
G01X227330Y2949448D01*
G01X221234Y2943098D01*
G01X217932Y2933954D01*
G01X422402Y1209040D02*
G01X419354Y1215390D01*
G01X413004Y1221486D01*
G01X406908Y1224534D01*
G01X394462Y1224534D01*
G01X388366Y1221486D01*
G01X382016Y1215390D01*
G01X378968Y1209040D01*
G01X375920Y1199896D01*
G01X375920Y1184402D01*
G01X378968Y1175004D01*
G01X382016Y1168908D01*
G01X388366Y1162558D01*
G01X394462Y1159510D01*
G01X406908Y1159510D01*
G01X413004Y1162558D01*
G01X419354Y1168908D01*
G01X422402Y1175004D01*
G01X489712Y1215390D02*
G01X486410Y1221486D01*
G01X477266Y1224534D01*
G01X471170Y1224534D01*
G01X461772Y1221486D01*
G01X455676Y1212342D01*
G01X452374Y1196848D01*
G01X452374Y1181354D01*
G01X455676Y1168908D01*
G01X461772Y1162558D01*
G01X471170Y1159510D01*
G01X474218Y1159510D01*
G01X483362Y1162558D01*
G01X489712Y1168908D01*
G01X492760Y1178052D01*
G01X492760Y1181354D01*
G01X489712Y1190498D01*
G01X483362Y1196848D01*
G01X474218Y1199896D01*
G01X471170Y1199896D01*
G01X461772Y1196848D01*
G01X455676Y1190498D01*
G01X452374Y1181354D01*
G01X566166Y1224534D02*
G01X535178Y1159510D01*
G01X522732Y1224534D02*
G01X566166Y1224534D01*
G01X676402Y2872740D02*
G01X673354Y2879090D01*
G01X667004Y2885186D01*
G01X660908Y2888234D01*
G01X648462Y2888234D01*
G01X642366Y2885186D01*
G01X636016Y2879090D01*
G01X632968Y2872740D01*
G01X629920Y2863596D01*
G01X629920Y2848102D01*
G01X632968Y2838704D01*
G01X636016Y2832608D01*
G01X642366Y2826258D01*
G01X648462Y2823210D01*
G01X660908Y2823210D01*
G01X667004Y2826258D01*
G01X673354Y2832608D01*
G01X676402Y2838704D01*
G01X743712Y2879090D02*
G01X740410Y2885186D01*
G01X731266Y2888234D01*
G01X725170Y2888234D01*
G01X715772Y2885186D01*
G01X709676Y2876042D01*
G01X706374Y2860548D01*
G01X706374Y2845054D01*
G01X709676Y2832608D01*
G01X715772Y2826258D01*
G01X725170Y2823210D01*
G01X728218Y2823210D01*
G01X737362Y2826258D01*
G01X743712Y2832608D01*
G01X746760Y2841752D01*
G01X746760Y2845054D01*
G01X743712Y2854198D01*
G01X737362Y2860548D01*
G01X728218Y2863596D01*
G01X725170Y2863596D01*
G01X715772Y2860548D01*
G01X709676Y2854198D01*
G01X706374Y2845054D01*
G01X792226Y2888234D02*
G01X783082Y2885186D01*
G01X780034Y2879090D01*
G01X780034Y2872740D01*
G01X783082Y2866644D01*
G01X789178Y2863596D01*
G01X801624Y2860548D01*
G01X810768Y2857246D01*
G01X817118Y2851150D01*
G01X820166Y2845054D01*
G01X820166Y2835656D01*
G01X817118Y2829560D01*
G01X814070Y2826258D01*
G01X804672Y2823210D01*
G01X792226Y2823210D01*
G01X783082Y2826258D01*
G01X780034Y2829560D01*
G01X776732Y2835656D01*
G01X776732Y2845054D01*
G01X780034Y2851150D01*
G01X786130Y2857246D01*
G01X795528Y2860548D01*
G01X807720Y2863596D01*
G01X814070Y2866644D01*
G01X817118Y2872740D01*
G01X817118Y2879090D01*
G01X814070Y2885186D01*
G01X804672Y2888234D01*
G01X792226Y2888234D01*
G01X409702Y2352040D02*
G01X406654Y2358390D01*
G01X400304Y2364486D01*
G01X394208Y2367534D01*
G01X381762Y2367534D01*
G01X375666Y2364486D01*
G01X369316Y2358390D01*
G01X366268Y2352040D01*
G01X363220Y2342896D01*
G01X363220Y2327402D01*
G01X366268Y2318004D01*
G01X369316Y2311908D01*
G01X375666Y2305558D01*
G01X381762Y2302510D01*
G01X394208Y2302510D01*
G01X400304Y2305558D01*
G01X406654Y2311908D01*
G01X409702Y2318004D01*
G01X477012Y2358390D02*
G01X473710Y2364486D01*
G01X464566Y2367534D01*
G01X458470Y2367534D01*
G01X449072Y2364486D01*
G01X442976Y2355342D01*
G01X439674Y2339848D01*
G01X439674Y2324354D01*
G01X442976Y2311908D01*
G01X449072Y2305558D01*
G01X458470Y2302510D01*
G01X461518Y2302510D01*
G01X470662Y2305558D01*
G01X477012Y2311908D01*
G01X480060Y2321052D01*
G01X480060Y2324354D01*
G01X477012Y2333498D01*
G01X470662Y2339848D01*
G01X461518Y2342896D01*
G01X458470Y2342896D01*
G01X449072Y2339848D01*
G01X442976Y2333498D01*
G01X439674Y2324354D01*
G01X550418Y2345944D02*
G01X547370Y2336546D01*
G01X541020Y2330450D01*
G01X531876Y2327402D01*
G01X528828Y2327402D01*
G01X519430Y2330450D01*
G01X513334Y2336546D01*
G01X510032Y2345944D01*
G01X510032Y2348992D01*
G01X513334Y2358390D01*
G01X519430Y2364486D01*
G01X528828Y2367534D01*
G01X531876Y2367534D01*
G01X541020Y2364486D01*
G01X547370Y2358390D01*
G01X550418Y2345944D01*
G01X550418Y2330450D01*
G01X547370Y2314956D01*
G01X541020Y2305558D01*
G01X531876Y2302510D01*
G01X525526Y2302510D01*
G01X516382Y2305558D01*
G01X513334Y2311908D01*
G01X879602Y1501140D02*
G01X876554Y1507490D01*
G01X870204Y1513586D01*
G01X864108Y1516634D01*
G01X851662Y1516634D01*
G01X845566Y1513586D01*
G01X839216Y1507490D01*
G01X836168Y1501140D01*
G01X833120Y1491996D01*
G01X833120Y1476502D01*
G01X836168Y1467104D01*
G01X839216Y1461008D01*
G01X845566Y1454658D01*
G01X851662Y1451610D01*
G01X864108Y1451610D01*
G01X870204Y1454658D01*
G01X876554Y1461008D01*
G01X879602Y1467104D01*
G01X953008Y1516634D02*
G01X922020Y1451610D01*
G01X909574Y1516634D02*
G01X953008Y1516634D01*
G01X1001776Y1516634D02*
G01X992378Y1513586D01*
G01X986282Y1504442D01*
G01X982980Y1488948D01*
G01X982980Y1479550D01*
G01X986282Y1464056D01*
G01X992378Y1454658D01*
G01X1001776Y1451610D01*
G01X1007872Y1451610D01*
G01X1017016Y1454658D01*
G01X1023366Y1464056D01*
G01X1026414Y1479550D01*
G01X1026414Y1488948D01*
G01X1023366Y1504442D01*
G01X1017016Y1513586D01*
G01X1007872Y1516634D01*
G01X1001776Y1516634D01*
G01X1171702Y1513840D02*
G01X1168654Y1520190D01*
G01X1162304Y1526286D01*
G01X1156208Y1529334D01*
G01X1143762Y1529334D01*
G01X1137666Y1526286D01*
G01X1131316Y1520190D01*
G01X1128268Y1513840D01*
G01X1125220Y1504696D01*
G01X1125220Y1489202D01*
G01X1128268Y1479804D01*
G01X1131316Y1473708D01*
G01X1137666Y1467358D01*
G01X1143762Y1464310D01*
G01X1156208Y1464310D01*
G01X1162304Y1467358D01*
G01X1168654Y1473708D01*
G01X1171702Y1479804D01*
G01X1245108Y1529334D02*
G01X1214120Y1464310D01*
G01X1201674Y1529334D02*
G01X1245108Y1529334D01*
G01X1275080Y1517142D02*
G01X1281430Y1520190D01*
G01X1290574Y1529334D01*
G01X1290574Y1464310D01*
G01X1595120Y538734D02*
G01X1595120Y473710D01*
G01X1595120Y538734D02*
G01X1616710Y538734D01*
G01X1626108Y535686D01*
G01X1632204Y529590D01*
G01X1635252Y523240D01*
G01X1638554Y514096D01*
G01X1638554Y498602D01*
G01X1635252Y489204D01*
G01X1632204Y483108D01*
G01X1626108Y476758D01*
G01X1616710Y473710D01*
G01X1595120Y473710D01*
G01X1699514Y538734D02*
G01X1668526Y495554D01*
G01X1715008Y495554D01*
G01X1699514Y538734D02*
G01X1699514Y473710D01*
G01X1620520Y1554734D02*
G01X1620520Y1489710D01*
G01X1620520Y1554734D02*
G01X1642110Y1554734D01*
G01X1651508Y1551686D01*
G01X1657604Y1545590D01*
G01X1660652Y1539240D01*
G01X1663954Y1530096D01*
G01X1663954Y1514602D01*
G01X1660652Y1505204D01*
G01X1657604Y1499108D01*
G01X1651508Y1492758D01*
G01X1642110Y1489710D01*
G01X1620520Y1489710D01*
G01X1737360Y1554734D02*
G01X1706372Y1489710D01*
G01X1693926Y1554734D02*
G01X1737360Y1554734D01*
G01X693420Y716534D02*
G01X693420Y651510D01*
G01X693420Y716534D02*
G01X733552Y716534D01*
G01X693420Y685546D02*
G01X718058Y685546D01*
G01X766826Y701040D02*
G01X766826Y704342D01*
G01X769874Y710438D01*
G01X772922Y713486D01*
G01X779018Y716534D01*
G01X791464Y716534D01*
G01X797560Y713486D01*
G01X800862Y710438D01*
G01X803910Y704342D01*
G01X803910Y697992D01*
G01X800862Y691896D01*
G01X794512Y682498D01*
G01X763524Y651510D01*
G01X806958Y651510D01*
G01X248920Y3231134D02*
G01X248920Y3166110D01*
G01X248920Y3166110D02*
G01X286004Y3166110D01*
G01X319278Y3215640D02*
G01X319278Y3218942D01*
G01X322326Y3225038D01*
G01X325374Y3228086D01*
G01X331470Y3231134D01*
G01X343916Y3231134D01*
G01X350012Y3228086D01*
G01X353314Y3225038D01*
G01X356362Y3218942D01*
G01X356362Y3212592D01*
G01X353314Y3206496D01*
G01X346964Y3197098D01*
G01X315976Y3166110D01*
G01X359410Y3166110D01*
G01X363220Y2177034D02*
G01X363220Y2112010D01*
G01X363220Y2112010D02*
G01X400304Y2112010D01*
G01X467614Y2167890D02*
G01X464312Y2173986D01*
G01X455168Y2177034D01*
G01X449072Y2177034D01*
G01X439674Y2173986D01*
G01X433578Y2164842D01*
G01X430276Y2149348D01*
G01X430276Y2133854D01*
G01X433578Y2121408D01*
G01X439674Y2115058D01*
G01X449072Y2112010D01*
G01X452120Y2112010D01*
G01X461264Y2115058D01*
G01X467614Y2121408D01*
G01X470662Y2130552D01*
G01X470662Y2133854D01*
G01X467614Y2142998D01*
G01X461264Y2149348D01*
G01X452120Y2152396D01*
G01X449072Y2152396D01*
G01X439674Y2149348D01*
G01X433578Y2142998D01*
G01X430276Y2133854D01*
G01X1557020Y2126234D02*
G01X1557020Y2061210D01*
G01X1557020Y2061210D02*
G01X1594104Y2061210D01*
G01X1624076Y2126234D02*
G01X1624076Y2061210D01*
G01X1624076Y2126234D02*
G01X1664462Y2126234D01*
G01X1624076Y2095246D02*
G01X1648968Y2095246D01*
G01X1624076Y2061210D02*
G01X1664462Y2061210D01*
G01X1694434Y2126234D02*
G01X1694434Y2061210D01*
G01X1694434Y2126234D02*
G01X1716278Y2126234D01*
G01X1725422Y2123186D01*
G01X1731772Y2117090D01*
G01X1734820Y2110740D01*
G01X1737868Y2101596D01*
G01X1737868Y2086102D01*
G01X1734820Y2076704D01*
G01X1731772Y2070608D01*
G01X1725422Y2064258D01*
G01X1716278Y2061210D01*
G01X1694434Y2061210D01*
G01X1767840Y2114042D02*
G01X1774190Y2117090D01*
G01X1783334Y2126234D01*
G01X1783334Y2061210D01*
G01X274320Y3408934D02*
G01X274320Y3343910D01*
G01X274320Y3408934D02*
G01X302260Y3408934D01*
G01X311404Y3405886D01*
G01X314452Y3402838D01*
G01X317754Y3396742D01*
G01X317754Y3390392D01*
G01X314452Y3384296D01*
G01X311404Y3381248D01*
G01X302260Y3377946D01*
G01X274320Y3377946D01*
G01X295910Y3377946D02*
G01X317754Y3343910D01*
G01X388112Y3387344D02*
G01X385064Y3377946D01*
G01X378714Y3371850D01*
G01X369570Y3368802D01*
G01X366522Y3368802D01*
G01X357124Y3371850D01*
G01X351028Y3377946D01*
G01X347726Y3387344D01*
G01X347726Y3390392D01*
G01X351028Y3399790D01*
G01X357124Y3405886D01*
G01X366522Y3408934D01*
G01X369570Y3408934D01*
G01X378714Y3405886D01*
G01X385064Y3399790D01*
G01X388112Y3387344D01*
G01X388112Y3371850D01*
G01X385064Y3356356D01*
G01X378714Y3346958D01*
G01X369570Y3343910D01*
G01X363220Y3343910D01*
G01X354076Y3346958D01*
G01X351028Y3353308D01*
G01X759552Y2643483D02*
G01X759552Y2708507D01*
G01X759552Y2643483D02*
G01X731612Y2643483D01*
G01X722468Y2646531D01*
G01X719420Y2649579D01*
G01X716118Y2655675D01*
G01X716118Y2662025D01*
G01X719420Y2668121D01*
G01X722468Y2671169D01*
G01X731612Y2674471D01*
G01X759552Y2674471D01*
G01X737962Y2674471D02*
G01X716118Y2708507D01*
G01X686146Y2655675D02*
G01X679796Y2652627D01*
G01X670652Y2643483D01*
G01X670652Y2708507D01*
G01X621884Y2643483D02*
G01X631282Y2646531D01*
G01X637378Y2655675D01*
G01X640680Y2671169D01*
G01X640680Y2680567D01*
G01X637378Y2696061D01*
G01X631282Y2705459D01*
G01X621884Y2708507D01*
G01X615788Y2708507D01*
G01X606644Y2705459D01*
G01X600294Y2696061D01*
G01X597246Y2680567D01*
G01X597246Y2671169D01*
G01X600294Y2655675D01*
G01X606644Y2646531D01*
G01X615788Y2643483D01*
G01X621884Y2643483D01*
G01X1353820Y1986534D02*
G01X1353820Y1921510D01*
G01X1353820Y1986534D02*
G01X1381760Y1986534D01*
G01X1390904Y1983486D01*
G01X1393952Y1980438D01*
G01X1397254Y1974342D01*
G01X1397254Y1967992D01*
G01X1393952Y1961896D01*
G01X1390904Y1958848D01*
G01X1381760Y1955546D01*
G01X1353820Y1955546D01*
G01X1375410Y1955546D02*
G01X1397254Y1921510D01*
G01X1427226Y1974342D02*
G01X1433576Y1977390D01*
G01X1442720Y1986534D01*
G01X1442720Y1921510D01*
G01X1475994Y1971040D02*
G01X1475994Y1974342D01*
G01X1479042Y1980438D01*
G01X1482090Y1983486D01*
G01X1488186Y1986534D01*
G01X1500632Y1986534D01*
G01X1506728Y1983486D01*
G01X1510030Y1980438D01*
G01X1513078Y1974342D01*
G01X1513078Y1967992D01*
G01X1510030Y1961896D01*
G01X1503680Y1952498D01*
G01X1472692Y1921510D01*
G01X1516126Y1921510D01*
G01X337820Y1973834D02*
G01X337820Y1908810D01*
G01X337820Y1973834D02*
G01X365760Y1973834D01*
G01X374904Y1970786D01*
G01X377952Y1967738D01*
G01X381254Y1961642D01*
G01X381254Y1955292D01*
G01X377952Y1949196D01*
G01X374904Y1946148D01*
G01X365760Y1942846D01*
G01X337820Y1942846D01*
G01X359410Y1942846D02*
G01X381254Y1908810D01*
G01X411226Y1961642D02*
G01X417576Y1964690D01*
G01X426720Y1973834D01*
G01X426720Y1908810D01*
G01X463042Y1973834D02*
G01X497078Y1973834D01*
G01X478536Y1949196D01*
G01X487680Y1949196D01*
G01X494030Y1946148D01*
G01X497078Y1942846D01*
G01X500126Y1933702D01*
G01X500126Y1927352D01*
G01X497078Y1918208D01*
G01X490728Y1911858D01*
G01X481584Y1908810D01*
G01X472186Y1908810D01*
G01X463042Y1911858D01*
G01X459994Y1915160D01*
G01X456692Y1921256D01*
G01X1188720Y2875534D02*
G01X1188720Y2810510D01*
G01X1188720Y2875534D02*
G01X1216660Y2875534D01*
G01X1225804Y2872486D01*
G01X1228852Y2869438D01*
G01X1232154Y2863342D01*
G01X1232154Y2856992D01*
G01X1228852Y2850896D01*
G01X1225804Y2847848D01*
G01X1216660Y2844546D01*
G01X1188720Y2844546D01*
G01X1210310Y2844546D02*
G01X1232154Y2810510D01*
G01X1262126Y2863342D02*
G01X1268476Y2866390D01*
G01X1277620Y2875534D01*
G01X1277620Y2810510D01*
G01X1344930Y2875534D02*
G01X1313942Y2875534D01*
G01X1310894Y2847848D01*
G01X1313942Y2850896D01*
G01X1323086Y2853944D01*
G01X1332484Y2853944D01*
G01X1341628Y2850896D01*
G01X1347978Y2844546D01*
G01X1351026Y2835402D01*
G01X1351026Y2829052D01*
G01X1347978Y2819908D01*
G01X1341628Y2813558D01*
G01X1332484Y2810510D01*
G01X1323086Y2810510D01*
G01X1313942Y2813558D01*
G01X1310894Y2816860D01*
G01X1307592Y2822956D01*
G01X45720Y780034D02*
G01X45720Y733552D01*
G01X48768Y724408D01*
G01X54864Y718058D01*
G01X64262Y715010D01*
G01X70358Y715010D01*
G01X79756Y718058D01*
G01X85852Y724408D01*
G01X89154Y733552D01*
G01X89154Y780034D01*
G01X150114Y780034D02*
G01X119126Y736854D01*
G01X165608Y736854D01*
G01X150114Y780034D02*
G01X150114Y715010D01*
G01X629920Y2431034D02*
G01X629920Y2384552D01*
G01X632968Y2375408D01*
G01X639064Y2369058D01*
G01X648462Y2366010D01*
G01X654558Y2366010D01*
G01X663956Y2369058D01*
G01X670052Y2375408D01*
G01X673354Y2384552D01*
G01X673354Y2431034D01*
G01X718820Y2431034D02*
G01X709676Y2427986D01*
G01X706628Y2421890D01*
G01X706628Y2415540D01*
G01X709676Y2409444D01*
G01X715772Y2406396D01*
G01X728218Y2403348D01*
G01X737362Y2400046D01*
G01X743712Y2393950D01*
G01X746760Y2387854D01*
G01X746760Y2378456D01*
G01X743712Y2372360D01*
G01X740664Y2369058D01*
G01X731266Y2366010D01*
G01X718820Y2366010D01*
G01X709676Y2369058D01*
G01X706628Y2372360D01*
G01X703326Y2378456D01*
G01X703326Y2387854D01*
G01X706628Y2393950D01*
G01X712724Y2400046D01*
G01X722122Y2403348D01*
G01X734314Y2406396D01*
G01X740664Y2409444D01*
G01X743712Y2415540D01*
G01X743712Y2421890D01*
G01X740664Y2427986D01*
G01X731266Y2431034D01*
G01X718820Y2431034D01*
G01X121920Y538734D02*
G01X121920Y492252D01*
G01X124968Y483108D01*
G01X131064Y476758D01*
G01X140462Y473710D01*
G01X146558Y473710D01*
G01X155956Y476758D01*
G01X162052Y483108D01*
G01X165354Y492252D01*
G01X165354Y538734D01*
G01X238760Y529590D02*
G01X232664Y535686D01*
G01X223266Y538734D01*
G01X210820Y538734D01*
G01X201676Y535686D01*
G01X195326Y529590D01*
G01X195326Y523240D01*
G01X198628Y517144D01*
G01X201676Y514096D01*
G01X207772Y511048D01*
G01X226314Y504698D01*
G01X232664Y501650D01*
G01X235712Y498602D01*
G01X238760Y492252D01*
G01X238760Y483108D01*
G01X232664Y476758D01*
G01X223266Y473710D01*
G01X210820Y473710D01*
G01X201676Y476758D01*
G01X195326Y483108D01*
G01X268732Y538734D02*
G01X268732Y473710D01*
G01X268732Y538734D02*
G01X296672Y538734D01*
G01X306070Y535686D01*
G01X309118Y532638D01*
G01X312166Y526542D01*
G01X312166Y520192D01*
G01X309118Y514096D01*
G01X306070Y511048D01*
G01X296672Y507746D01*
G01X268732Y507746D02*
G01X296672Y507746D01*
G01X306070Y504698D01*
G01X309118Y501650D01*
G01X312166Y495554D01*
G01X312166Y486156D01*
G01X309118Y480060D01*
G01X306070Y476758D01*
G01X296672Y473710D01*
G01X268732Y473710D01*
G01X345440Y523240D02*
G01X345440Y526542D01*
G01X348488Y532638D01*
G01X351536Y535686D01*
G01X357632Y538734D01*
G01X370078Y538734D01*
G01X376174Y535686D01*
G01X379476Y532638D01*
G01X382524Y526542D01*
G01X382524Y520192D01*
G01X379476Y514096D01*
G01X373126Y504698D01*
G01X342138Y473710D01*
G01X385572Y473710D01*
G01X1264920Y2443734D02*
G01X1308354Y2378710D01*
G01X1308354Y2443734D02*
G01X1264920Y2378710D01*
G01X1338326Y2431542D02*
G01X1344676Y2434590D01*
G01X1353820Y2443734D01*
G01X1353820Y2378710D01*
G01X248920Y2062734D02*
G01X248920Y1997710D01*
G01X248920Y1997710D02*
G01X286004Y1997710D01*
G01X315976Y2062734D02*
G01X315976Y1997710D01*
G01X315976Y2062734D02*
G01X356362Y2062734D01*
G01X315976Y2031746D02*
G01X340868Y2031746D01*
G01X315976Y1997710D02*
G01X356362Y1997710D01*
G01X386334Y2062734D02*
G01X386334Y1997710D01*
G01X386334Y2062734D02*
G01X408178Y2062734D01*
G01X417322Y2059686D01*
G01X423672Y2053590D01*
G01X426720Y2047240D01*
G01X429768Y2038096D01*
G01X429768Y2022602D01*
G01X426720Y2013204D01*
G01X423672Y2007108D01*
G01X417322Y2000758D01*
G01X408178Y1997710D01*
G01X386334Y1997710D01*
G01X463042Y2047240D02*
G01X463042Y2050542D01*
G01X466090Y2056638D01*
G01X469138Y2059686D01*
G01X475234Y2062734D01*
G01X487680Y2062734D01*
G01X493776Y2059686D01*
G01X497078Y2056638D01*
G01X500126Y2050542D01*
G01X500126Y2044192D01*
G01X497078Y2038096D01*
G01X490728Y2028698D01*
G01X459740Y1997710D01*
G01X503174Y1997710D01*
G04 Text End*

G04 PolygonModel Start*
G54D11*
G01X1304696Y3467400D02*
G01X631596Y3467400D01*
G01X637946Y3187400D02*
G01X1311046Y3187400D01*
G36*
G01X860196Y3187400D02*
G01X809396Y3187400D01*
G01X809396Y3467400D01*
G01X860196Y3467400D01*
G01X860196Y3187400D01*
G37*
G01X1602514Y2306157D02*
G01X1682511Y2306157D01*
G01X1546469Y2306203D02*
G01X1466472Y2306203D01*
G01X1602514Y2164189D02*
G01X1682511Y2164189D01*
G01X1546469Y2164237D02*
G01X1466472Y2164237D01*
G01X1713487Y2275175D02*
G01X1713487Y2195170D01*
G01X1435494Y2195223D02*
G01X1435494Y2275225D01*
G01X1466477Y2164237D02*
G02X1435494Y2195223I0J30983D01*
G01X1435494Y2275220D02*
G02X1466477Y2306203I30983J0D01*
G01X1682506Y2306157D02*
G02X1713487Y2275175I-3J-30983D01*
G01X1713487Y2195177D02*
G02X1682506Y2164189I-30983J-5D01*
G01X1590119Y2941157D02*
G01X1670116Y2941157D01*
G01X1534074Y2941203D02*
G01X1454076Y2941203D01*
G01X1590119Y2799189D02*
G01X1670116Y2799189D01*
G01X1534074Y2799237D02*
G01X1454076Y2799237D01*
G01X1701091Y2910175D02*
G01X1701091Y2830170D01*
G01X1423099Y2830223D02*
G01X1423099Y2910225D01*
G01X1454081Y2799237D02*
G02X1423099Y2830223I0J30983D01*
G01X1423099Y2910220D02*
G02X1454081Y2941203I30983J0D01*
G01X1670111Y2941157D02*
G02X1701091Y2910175I-3J-30983D01*
G01X1701091Y2830177D02*
G02X1670111Y2799189I-30983J-5D01*
G01X1318529Y779582D02*
G01X1398526Y779582D01*
G01X1262484Y779628D02*
G01X1182486Y779628D01*
G01X1318529Y637614D02*
G01X1398526Y637614D01*
G01X1262484Y637662D02*
G01X1182486Y637662D01*
G01X1429501Y748599D02*
G01X1429501Y668595D01*
G01X1151508Y668648D02*
G01X1151508Y748650D01*
G01X1182491Y637662D02*
G02X1151508Y668648I0J30983D01*
G01X1151508Y748645D02*
G02X1182491Y779628I30983J0D01*
G01X1398521Y779582D02*
G02X1429501Y748599I-3J-30983D01*
G01X1429501Y668602D02*
G02X1398521Y637614I-30983J-5D01*
G01X1320736Y1071682D02*
G01X1400733Y1071682D01*
G01X1264691Y1071728D02*
G01X1184694Y1071728D01*
G01X1320736Y929714D02*
G01X1400733Y929714D01*
G01X1264691Y929762D02*
G01X1184694Y929762D01*
G01X1431709Y1040699D02*
G01X1431709Y960695D01*
G01X1153716Y960748D02*
G01X1153716Y1040750D01*
G01X1184699Y929762D02*
G02X1153716Y960748I0J30983D01*
G01X1153716Y1040745D02*
G02X1184699Y1071728I30983J0D01*
G01X1400728Y1071682D02*
G02X1431709Y1040699I-3J-30983D01*
G01X1431709Y960702D02*
G02X1400728Y929714I-30983J-5D01*
G01X756757Y1254681D02*
G01X756757Y1174684D01*
G01X756803Y1310726D02*
G01X756803Y1390724D01*
G01X614789Y1254681D02*
G01X614789Y1174684D01*
G01X614837Y1310726D02*
G01X614837Y1390724D01*
G01X725775Y1143709D02*
G01X645770Y1143709D01*
G01X645823Y1421702D02*
G01X725825Y1421702D01*
G01X614837Y1390719D02*
G02X645823Y1421702I30983J0D01*
G01X725820Y1421702D02*
G02X756803Y1390719I0J-30983D01*
G01X756757Y1174689D02*
G02X725775Y1143709I-30983J3D01*
G01X645777Y1143709D02*
G02X614789Y1174689I-5J30983D01*
G01X175486Y1199043D02*
G01X95489Y1199043D01*
G01X231531Y1198997D02*
G01X311528Y1198997D01*
G01X175486Y1341011D02*
G01X95489Y1341011D01*
G01X231531Y1340963D02*
G01X311528Y1340963D01*
G01X64513Y1230025D02*
G01X64513Y1310030D01*
G01X342506Y1309977D02*
G01X342506Y1229975D01*
G01X311523Y1340963D02*
G02X342506Y1309977I0J-30983D01*
G01X342506Y1229980D02*
G02X311523Y1198997I-30983J0D01*
G01X95494Y1199043D02*
G02X64513Y1230025I3J30983D01*
G01X64513Y1310023D02*
G02X95494Y1341011I30983J5D01*
G01X179479Y1391537D02*
G01X99481Y1391537D01*
G01X235524Y1391491D02*
G01X315521Y1391491D01*
G01X179479Y1533505D02*
G01X99481Y1533505D01*
G01X235524Y1533457D02*
G01X315521Y1533457D01*
G01X68506Y1422520D02*
G01X68506Y1502525D01*
G01X346499Y1502471D02*
G01X346499Y1422469D01*
G01X315516Y1533457D02*
G02X346499Y1502471I0J-30983D01*
G01X346499Y1422474D02*
G02X315516Y1391491I-30983J0D01*
G01X99486Y1391537D02*
G02X68506Y1422520I3J30983D01*
G01X68506Y1502517D02*
G02X99486Y1533505I30983J5D01*
G01X826094Y2650721D02*
G01X826094Y2730718D01*
G01X826049Y2594676D02*
G01X826049Y2514679D01*
G01X968063Y2650721D02*
G01X968063Y2730718D01*
G01X968014Y2594676D02*
G01X968014Y2514679D01*
G01X857077Y2761694D02*
G01X937082Y2761694D01*
G01X937029Y2483701D02*
G01X857026Y2483701D01*
G01X968014Y2514684D02*
G02X937029Y2483701I-30983J0D01*
G01X857032Y2483701D02*
G02X826049Y2514684I0J30983D01*
G01X826094Y2730713D02*
G02X857077Y2761694I30983J-3D01*
G01X937075Y2761694D02*
G02X968063Y2730713I5J-30983D01*
G01X244993Y2650721D02*
G01X244993Y2730718D01*
G01X244947Y2594676D02*
G01X244947Y2514679D01*
G01X386961Y2650721D02*
G01X386961Y2730718D01*
G01X386913Y2594676D02*
G01X386913Y2514679D01*
G01X275976Y2761694D02*
G01X355981Y2761694D01*
G01X355928Y2483701D02*
G01X275925Y2483701D01*
G01X386913Y2514684D02*
G02X355928Y2483701I-30983J0D01*
G01X275930Y2483701D02*
G02X244947Y2514684I0J30983D01*
G01X244993Y2730713D02*
G02X275976Y2761694I30983J-3D01*
G01X355973Y2761694D02*
G02X386961Y2730713I5J-30983D01*
G01X1015045Y2650721D02*
G01X1015045Y2730718D01*
G01X1014999Y2594676D02*
G01X1014999Y2514679D01*
G01X1157013Y2650721D02*
G01X1157013Y2730718D01*
G01X1156965Y2594676D02*
G01X1156965Y2514679D01*
G01X1046028Y2761694D02*
G01X1126033Y2761694D01*
G01X1125979Y2483701D02*
G01X1045977Y2483701D01*
G01X1156965Y2514684D02*
G02X1125979Y2483701I-30983J0D01*
G01X1045982Y2483701D02*
G02X1014999Y2514684I0J30983D01*
G01X1015045Y2730713D02*
G02X1046028Y2761694I30983J-3D01*
G01X1126025Y2761694D02*
G02X1157013Y2730713I5J-30983D01*
G01X56043Y2650721D02*
G01X56043Y2730718D01*
G01X55997Y2594676D02*
G01X55997Y2514679D01*
G01X198011Y2650721D02*
G01X198011Y2730718D01*
G01X197963Y2594676D02*
G01X197963Y2514679D01*
G01X87025Y2761694D02*
G01X167030Y2761694D01*
G01X166977Y2483701D02*
G01X86975Y2483701D01*
G01X197963Y2514684D02*
G02X166977Y2483701I-30983J0D01*
G01X86980Y2483701D02*
G02X55997Y2514684I0J30983D01*
G01X56043Y2730713D02*
G02X87025Y2761694I30983J-3D01*
G01X167023Y2761694D02*
G02X198011Y2730713I5J-30983D01*
G01X528157Y1368981D02*
G01X528157Y1288984D01*
G01X528203Y1425026D02*
G01X528203Y1505024D01*
G01X386189Y1368981D02*
G01X386189Y1288984D01*
G01X386237Y1425026D02*
G01X386237Y1505024D01*
G01X497175Y1258009D02*
G01X417170Y1258009D01*
G01X417223Y1536002D02*
G01X497225Y1536002D01*
G01X386237Y1505019D02*
G02X417223Y1536002I30983J0D01*
G01X497220Y1536002D02*
G02X528203Y1505019I0J-30983D01*
G01X528157Y1288989D02*
G02X497175Y1258009I-30983J3D01*
G01X417177Y1258009D02*
G02X386189Y1288989I-5J30983D01*
G01X637144Y2650721D02*
G01X637144Y2730718D01*
G01X637098Y2594676D02*
G01X637098Y2514679D01*
G01X779112Y2650721D02*
G01X779112Y2730718D01*
G01X779064Y2594676D02*
G01X779064Y2514679D01*
G01X668127Y2761694D02*
G01X748132Y2761694D01*
G01X748078Y2483701D02*
G01X668076Y2483701D01*
G01X779064Y2514684D02*
G02X748078Y2483701I-30983J0D01*
G01X668081Y2483701D02*
G02X637098Y2514684I0J30983D01*
G01X637144Y2730713D02*
G02X668127Y2761694I30983J-3D01*
G01X748124Y2761694D02*
G02X779112Y2730713I5J-30983D01*
G01X168679Y2246945D02*
G01X88682Y2246945D01*
G01X224724Y2246899D02*
G01X304721Y2246899D01*
G01X168679Y2388913D02*
G01X88682Y2388913D01*
G01X224724Y2388865D02*
G01X304721Y2388865D01*
G01X57706Y2277928D02*
G01X57706Y2357933D01*
G01X335699Y2357879D02*
G01X335699Y2277877D01*
G01X304716Y2388865D02*
G02X335699Y2357879I0J-30983D01*
G01X335699Y2277882D02*
G02X304716Y2246899I-30983J0D01*
G01X88687Y2246945D02*
G02X57706Y2277928I3J30983D01*
G01X57706Y2357925D02*
G02X88687Y2388913I30983J5D01*
G01X981385Y1254681D02*
G01X981385Y1174684D01*
G01X981431Y1310726D02*
G01X981431Y1390724D01*
G01X839417Y1254681D02*
G01X839417Y1174684D01*
G01X839465Y1310726D02*
G01X839465Y1390724D01*
G01X950402Y1143709D02*
G01X870397Y1143709D01*
G01X870450Y1421702D02*
G01X950453Y1421702D01*
G01X839465Y1390719D02*
G02X870450Y1421702I30983J0D01*
G01X950448Y1421702D02*
G02X981431Y1390719I0J-30983D01*
G01X981385Y1174689D02*
G02X950402Y1143709I-30983J3D01*
G01X870405Y1143709D02*
G02X839417Y1174689I-5J30983D01*
G01X1206012Y1253375D02*
G01X1206012Y1173378D01*
G01X1206058Y1309420D02*
G01X1206058Y1389417D01*
G01X1064044Y1253375D02*
G01X1064044Y1173378D01*
G01X1064092Y1309420D02*
G01X1064092Y1389417D01*
G01X1175029Y1142402D02*
G01X1095024Y1142402D01*
G01X1095078Y1420395D02*
G01X1175080Y1420395D01*
G01X1064092Y1389412D02*
G02X1095078Y1420395I30983J0D01*
G01X1175075Y1420395D02*
G02X1206058Y1389412I0J-30983D01*
G01X1206012Y1173383D02*
G02X1175029Y1142402I-30983J3D01*
G01X1095032Y1142402D02*
G02X1064044Y1173383I-5J30983D01*
G54D12*
G01X1686380Y890309D02*
G01X1511136Y890309D01*
G01X1506134Y956255D02*
G01X1506134Y681010D01*
G01X1691382Y956255D02*
G01X1691382Y681010D01*
G01X1691382Y681010D02*
G01X1672078Y681010D01*
G01X1506134Y681010D02*
G01X1525438Y681010D01*
G36*
G01X1698999Y948632D02*
G01X1667000Y948632D01*
G01X1667000Y979112D01*
G01X1698999Y979112D01*
G01X1698999Y948632D01*
G37*
G36*
G01X1498517Y948632D02*
G01X1498517Y979112D01*
G01X1530516Y979112D01*
G01X1530516Y948632D01*
G01X1498517Y948632D01*
G37*
G01X1396980Y1128781D02*
G01X1574820Y1128781D01*
G01X1396980Y1436619D02*
G01X1574820Y1436619D01*
G01X853981Y763606D02*
G01X853981Y644594D01*
G01X853981Y948845D02*
G01X853981Y1067855D01*
G01X869221Y629354D02*
G01X1057262Y629354D01*
G01X869221Y1083095D02*
G01X1057262Y1083095D01*
G01X1072502Y644594D02*
G01X1072502Y763606D01*
G01X1072502Y1067855D02*
G01X1072502Y948845D01*
G54D13*
G01X963241Y856224D02*
G02X878746Y856224I-42247J73175D01*
G01X963241Y856224D02*
G02X1047736Y856224I42247J-73175D01*
G54D12*
G01X558834Y2881052D02*
G01X543599Y2865642D01*
G01X543599Y2865642D02*
G01X441955Y2865642D01*
G01X441955Y2865642D02*
G01X428699Y2881052D01*
G01X428699Y3135052D02*
G01X443799Y3150468D01*
G01X443799Y3150468D02*
G01X545443Y3150468D01*
G01X545443Y3150468D02*
G01X558699Y3135052D01*
G54D10*
G01X428699Y2880852D02*
G01X428699Y2957052D01*
G01X558699Y3135258D02*
G01X558699Y3059058D01*
G01X558699Y2880852D02*
G01X558699Y2957052D01*
G01X428699Y3135258D02*
G01X428699Y3059058D01*
G54D12*
G01X323710Y2217925D02*
G01X339120Y2202691D01*
G01X339120Y2202691D02*
G01X339120Y2101047D01*
G01X339120Y2101047D02*
G01X323710Y2087791D01*
G01X69710Y2087791D02*
G01X54295Y2102891D01*
G01X54295Y2102891D02*
G01X54295Y2204535D01*
G01X54295Y2204535D02*
G01X69710Y2217791D01*
G54D10*
G01X323911Y2087791D02*
G01X247711Y2087791D01*
G01X69505Y2217791D02*
G01X145705Y2217791D01*
G01X323911Y2217791D02*
G01X247711Y2217791D01*
G01X69505Y2087791D02*
G01X145705Y2087791D01*
G54D11*
G01X1706962Y1788095D02*
G01X1666962Y1828095D01*
G01X1666962Y1828095D02*
G01X1656962Y1838095D01*
G01X1656962Y1838095D02*
G01X1646937Y1828095D01*
G01X1646937Y1828095D02*
G01X1606937Y1788095D01*
G01X1706962Y1788095D02*
G01X1606937Y1788095D01*
G01X1555235Y1763772D02*
G01X1555235Y1608832D01*
G01X1555235Y1608832D02*
G01X1758435Y1608832D01*
G01X1758435Y1608832D02*
G01X1758435Y1763772D01*
G01X1552695Y1842512D02*
G01X1552695Y1989832D01*
G01X1552695Y1989832D02*
G01X1593335Y2030472D01*
G01X1593335Y2030472D02*
G01X1720335Y2030472D01*
G01X1720335Y2030472D02*
G01X1758435Y1992372D01*
G01X1758435Y1992372D02*
G01X1758435Y1839972D01*
G54D12*
G01X560497Y3370885D02*
G01X560497Y3466772D01*
G01X560497Y3466772D02*
G01X428376Y3466772D01*
G01X428376Y3466772D02*
G01X428376Y3370885D01*
G01X560497Y3285642D02*
G01X560497Y3189755D01*
G01X560497Y3189755D02*
G01X428376Y3189755D01*
G01X428376Y3189755D02*
G01X428376Y3285642D01*
G01X570297Y2669643D02*
G01X570297Y2765531D01*
G01X570297Y2765531D02*
G01X438176Y2765531D01*
G01X438176Y2765531D02*
G01X438176Y2669643D01*
G01X570297Y2584401D02*
G01X570297Y2488513D01*
G01X570297Y2488513D02*
G01X438176Y2488513D01*
G01X438176Y2488513D02*
G01X438176Y2584401D01*
G01X1381740Y1697279D02*
G01X1381740Y1601391D01*
G01X1381740Y1601391D02*
G01X1513860Y1601391D01*
G01X1513860Y1601391D02*
G01X1513860Y1697279D01*
G01X1381740Y1782521D02*
G01X1381740Y1878409D01*
G01X1381740Y1878409D02*
G01X1513860Y1878409D01*
G01X1513860Y1878409D02*
G01X1513860Y1782521D01*
G01X435224Y1794358D02*
G01X435224Y1890245D01*
G01X435224Y1890245D02*
G01X303103Y1890245D01*
G01X303103Y1890245D02*
G01X303103Y1794358D01*
G01X435224Y1709115D02*
G01X435224Y1613228D01*
G01X435224Y1613228D02*
G01X303103Y1613228D01*
G01X303103Y1613228D02*
G01X303103Y1709115D01*
G01X1336924Y2670658D02*
G01X1336924Y2766545D01*
G01X1336924Y2766545D02*
G01X1204803Y2766545D01*
G01X1204803Y2766545D02*
G01X1204803Y2670658D01*
G01X1336924Y2585415D02*
G01X1336924Y2489528D01*
G01X1336924Y2489528D02*
G01X1204803Y2489528D01*
G01X1204803Y2489528D02*
G01X1204803Y2585415D01*
G01X685882Y744420D02*
G01X685882Y1009657D01*
G01X685882Y1009657D02*
G01X571000Y1009657D01*
G01X220645Y744420D02*
G01X220645Y1009657D01*
G01X220645Y1009657D02*
G01X335527Y1009657D01*
G01X1216613Y2294822D02*
G01X1283984Y2294822D01*
G01X1283984Y2294822D02*
G01X1283984Y2227451D01*
G01X1216613Y1579578D02*
G01X1283984Y1579578D01*
G01X1283984Y1579578D02*
G01X1283984Y1646947D01*
G01X636109Y2294822D02*
G01X568740Y2294822D01*
G01X568740Y2294822D02*
G01X568740Y2227451D01*
G01X636109Y1579578D02*
G01X568740Y1579578D01*
G01X568740Y1579578D02*
G01X568740Y1646947D01*
G54D11*
G01X472200Y-1422400D02*
G01X472200Y-406400D01*
G01X472200Y-406400D02*
G01X1373900Y-406400D01*
G01X1373900Y-406400D02*
G01X1373900Y-1422400D01*
G01X304001Y70599D02*
G01X304001Y-1544396D01*
G01X304001Y-1544396D02*
G01X1503999Y-1544396D01*
G01X1503999Y-1544396D02*
G01X1503999Y75601D01*
G01X1329000Y335600D02*
G01X1178709Y335600D01*
G01X1079293Y335600D02*
G01X728707Y335600D01*
G01X629291Y335600D02*
G01X459002Y335600D01*
G01X1676413Y2298725D02*
G01X1778013Y2298725D01*
G01X1778013Y2298725D02*
G01X1778013Y2400325D01*
G54D14*
G01X1719390Y2342667D02*
G01X1719390Y2762783D01*
G01X1719390Y2762783D02*
G01X1379385Y2762783D01*
G01X1379385Y2762783D02*
G01X1379385Y2342667D01*
G01X1379385Y2342667D02*
G01X1719390Y2342667D01*
G54D15*
G01X1727200Y2451100D02*
G03X1757202Y2451227I15001J127D01*
G03X1727200Y2451354I-15001J0D01*
G54D11*
G01X253363Y1758103D02*
G01X254362Y1610095D01*
G01X64362Y1744095D02*
G01X64362Y1610095D01*
G01X254362Y1610095D02*
G01X64360Y1610095D01*
G01X63361Y1983107D02*
G01X63366Y1983107D01*
G01X63366Y1983107D02*
G01X98360Y2018100D01*
G01X253363Y1983107D02*
G01X253358Y1983107D01*
G01X253358Y1983107D02*
G01X218365Y2018100D01*
G01X253363Y1858103D02*
G01X253363Y1983107D01*
G01X63361Y1858103D02*
G01X63361Y1983107D01*
G01X218365Y2018100D02*
G01X98360Y2018100D01*
G01X208362Y1778096D02*
G01X108362Y1778096D01*
G01X157857Y1778096D02*
G01X157857Y1828095D01*

G04 Circle Start*
G54D15*
G01X1340739Y1449527D02*
G03X1370762Y1449527I15011J0D01*
G03X1340739Y1449527I-15011J0D01*
G54D17*
G01X514887Y2197200D02*
G03X529873Y2197200I7493J0D01*
G03X514887Y2197200I-7493J0D01*
G04 Circle End*

M02*

