G04 Layer: BottomPasteMaskLayer*
G04 EasyEDA Pro v3.2.121, 2026-05-20 00:31:31*
G04 Gerber Generator version 0.3*
G04 Scale: 100 percent, Rotated: No, Reflected: No*
G04 Dimensions in millimeters*
G04 Leading zeros omitted, absolute positions, 4 integers and 5 decimals*
G04 Generated by one-click*
%FSLAX45Y45*%
%MOMM*%
%ADD10R,1.23X1.85999*%
%ADD11O,1.865X0.63*%
%ADD12C,0.3046*%
G75*


G04 PolygonModel Start*
G36*
G01X1012819Y802515D02*
G01X1012819Y882514D01*
G01X1017820Y887516D01*
G01X1040617Y887516D01*
G01X1040617Y850515D01*
G01X1073616Y850515D01*
G01X1073616Y887516D01*
G01X1097820Y887516D01*
G01X1102819Y882514D01*
G01X1102819Y802515D01*
G01X1097820Y797516D01*
G01X1017820Y797516D01*
G01X1012819Y802515D01*
G37*
G36*
G01X1102816Y1041518D02*
G01X1102816Y961519D01*
G01X1097815Y956517D01*
G01X1075018Y956517D01*
G01X1075018Y993517D01*
G01X1042019Y993517D01*
G01X1042019Y956517D01*
G01X1017815Y956517D01*
G01X1012816Y961519D01*
G01X1012816Y1041518D01*
G01X1017815Y1046517D01*
G01X1097815Y1046517D01*
G01X1102816Y1041518D01*
G37*
G36*
G01X784219Y802253D02*
G01X784219Y882253D01*
G01X789220Y887254D01*
G01X812017Y887254D01*
G01X812017Y850254D01*
G01X845016Y850254D01*
G01X845016Y887254D01*
G01X869220Y887254D01*
G01X874219Y882253D01*
G01X874219Y802253D01*
G01X869220Y797254D01*
G01X789220Y797254D01*
G01X784219Y802253D01*
G37*
G36*
G01X874216Y1041257D02*
G01X874216Y961257D01*
G01X869215Y956256D01*
G01X846418Y956256D01*
G01X846418Y993256D01*
G01X813419Y993256D01*
G01X813419Y956256D01*
G01X789215Y956256D01*
G01X784216Y961257D01*
G01X784216Y1041257D01*
G01X789215Y1046255D01*
G01X869215Y1046255D01*
G01X874216Y1041257D01*
G37*
G36*
G01X1493398Y1467399D02*
G01X1573398Y1467399D01*
G01X1578399Y1462397D01*
G01X1578399Y1439601D01*
G01X1541399Y1439601D01*
G01X1541399Y1406601D01*
G01X1578399Y1406601D01*
G01X1578399Y1382398D01*
G01X1573398Y1377399D01*
G01X1493398Y1377399D01*
G01X1488399Y1382398D01*
G01X1488399Y1462397D01*
G01X1493398Y1467399D01*
G37*
G36*
G01X1732402Y1377401D02*
G01X1652402Y1377401D01*
G01X1647401Y1382403D01*
G01X1647401Y1405199D01*
G01X1684401Y1405199D01*
G01X1684401Y1438199D01*
G01X1647401Y1438199D01*
G01X1647401Y1462402D01*
G01X1652402Y1467401D01*
G01X1732402Y1467401D01*
G01X1737401Y1462402D01*
G01X1737401Y1382403D01*
G01X1732402Y1377401D01*
G37*
G36*
G01X1493398Y1289599D02*
G01X1573398Y1289599D01*
G01X1578399Y1284597D01*
G01X1578399Y1261801D01*
G01X1541399Y1261801D01*
G01X1541399Y1228801D01*
G01X1578399Y1228801D01*
G01X1578399Y1204598D01*
G01X1573398Y1199599D01*
G01X1493398Y1199599D01*
G01X1488399Y1204598D01*
G01X1488399Y1284597D01*
G01X1493398Y1289599D01*
G37*
G36*
G01X1732402Y1199601D02*
G01X1652402Y1199601D01*
G01X1647401Y1204603D01*
G01X1647401Y1227399D01*
G01X1684401Y1227399D01*
G01X1684401Y1260399D01*
G01X1647401Y1260399D01*
G01X1647401Y1284602D01*
G01X1652402Y1289601D01*
G01X1732402Y1289601D01*
G01X1737401Y1284602D01*
G01X1737401Y1204603D01*
G01X1732402Y1199601D01*
G37*
G36*
G01X316177Y2097264D02*
G01X236177Y2097264D01*
G01X231176Y2102266D01*
G01X231176Y2125062D01*
G01X268176Y2125062D01*
G01X268176Y2158062D01*
G01X231176Y2158062D01*
G01X231176Y2182265D01*
G01X236177Y2187264D01*
G01X316177Y2187264D01*
G01X321175Y2182265D01*
G01X321175Y2102266D01*
G01X316177Y2097264D01*
G37*
G36*
G01X77173Y2187262D02*
G01X157173Y2187262D01*
G01X162174Y2182260D01*
G01X162174Y2159464D01*
G01X125174Y2159464D01*
G01X125174Y2126464D01*
G01X162174Y2126464D01*
G01X162174Y2102260D01*
G01X157173Y2097262D01*
G01X77173Y2097262D01*
G01X72174Y2102260D01*
G01X72174Y2182260D01*
G01X77173Y2187262D01*
G37*
G36*
G01X316177Y2294625D02*
G01X236177Y2294625D01*
G01X231176Y2299626D01*
G01X231176Y2322423D01*
G01X268176Y2322423D01*
G01X268176Y2355422D01*
G01X231176Y2355422D01*
G01X231176Y2379626D01*
G01X236177Y2384625D01*
G01X316177Y2384625D01*
G01X321175Y2379626D01*
G01X321175Y2299626D01*
G01X316177Y2294625D01*
G37*
G36*
G01X77173Y2384622D02*
G01X157173Y2384622D01*
G01X162174Y2379621D01*
G01X162174Y2356824D01*
G01X125174Y2356824D01*
G01X125174Y2323825D01*
G01X162174Y2323825D01*
G01X162174Y2299621D01*
G01X157173Y2294622D01*
G01X77173Y2294622D01*
G01X72174Y2299621D01*
G01X72174Y2379621D01*
G01X77173Y2384622D01*
G37*

G04 Pad Start*
G54D10*
G01X1241891Y892726D03*
G01X1678873Y892726D03*
G01X612191Y889000D03*
G01X175209Y889000D03*
G54D11*
G01X1157249Y1562100D03*
G01X1157249Y1435100D03*
G01X1157249Y1308100D03*
G01X1157249Y1181100D03*
G01X620751Y1562100D03*
G01X620751Y1435100D03*
G01X620751Y1308100D03*
G01X620751Y1181100D03*
G04 Pad End*

M02*

