G04 Layer: TopSolderMaskLayer*
G04 EasyEDA Pro v3.2.121, 2026-05-20 00:31:31*
G04 Gerber Generator version 0.3*
G04 Scale: 100 percent, Rotated: No, Reflected: No*
G04 Dimensions in millimeters*
G04 Leading zeros omitted, absolute positions, 4 integers and 5 decimals*
G04 Generated by one-click*
%FSLAX45Y45*%
%MOMM*%
%AMRoundRect*1,1,$1,$2,$3*1,1,$1,$4,$5*1,1,$1,0-$2,0-$3*1,1,$1,0-$4,0-$5*20,1,$1,$2,$3,$4,$5,0*20,1,$1,$4,$5,0-$2,0-$3,0*20,1,$1,0-$2,0-$3,0-$4,0-$5,0*20,1,$1,0-$4,0-$5,$2,$3,0*4,1,4,$2,$3,$4,$5,0-$2,0-$3,0-$4,0-$5,$2,$3,0*%
%ADD10RoundRect,0.10003X-0.75X1.15X0.75X1.15*%
%ADD11RoundRect,0.1016X-0.4X0.45X0.4X0.45*%
%ADD12RoundRect,0.1016X-0.45X-0.4X-0.45X0.4*%
%ADD13RoundRect,0.1016X-0.6X-0.6X-0.6X0.6*%
%ADD14RoundRect,0.1016X-0.536X-0.266X-0.536X0.266*%
%ADD15RoundRect,0.1016X-0.86399X-0.59505X-0.86399X0.59505*%
%ADD16RoundRect,0.1002X-0.432X-0.4X-0.432X0.4*%
%ADD17RoundRect,0.1016X-0.432X-0.4X-0.432X0.4*%
%ADD18RoundRect,0.1016X-0.4X0.432X0.4X0.432*%
%ADD19RoundRect,0.1016X-0.69977X-0.5X-0.69977X0.5*%
%ADD20RoundRect,0.1016X-0.432X-0.40324X-0.432X0.40324*%
%ADD21RoundRect,0.1016X-0.336X-0.7875X-0.336X0.7875*%
%ADD22RoundRect,0.1016X-0.3325X0.1X0.3325X0.1*%
%ADD23RoundRect,0.1016X-0.1X0.3325X0.1X0.3325*%
%ADD24RoundRect,0.1016X-2.0X2.0X2.0X2.0*%
%ADD25C,1.6256*%
%ADD26C,3.10159*%
%ADD27RoundRect,0.1016X-0.6X-0.7X-0.6X0.7*%
%ADD28RoundRect,0.1016X-0.62501X-0.5X-0.62501X0.5*%
G75*


G04 Pad Start*
G54D10*
G01X1239495Y3327400D03*
G01X709498Y3327400D03*
G54D11*
G01X1504493Y2235200D03*
G01X1644498Y2235200D03*
G01X1492098Y2870200D03*
G01X1632102Y2870200D03*
G01X1220508Y708625D03*
G01X1360512Y708625D03*
G01X1222715Y1000725D03*
G01X1362720Y1000725D03*
G54D12*
G01X685800Y1352702D03*
G01X685800Y1212698D03*
G54D11*
G01X273507Y1270000D03*
G01X133502Y1270000D03*
G01X277500Y1462494D03*
G01X137495Y1462494D03*
G54D12*
G01X897052Y2552700D03*
G01X897052Y2692705D03*
G01X315951Y2552700D03*
G01X315951Y2692705D03*
G01X1086002Y2552700D03*
G01X1086002Y2692705D03*
G01X127000Y2552700D03*
G01X127000Y2692705D03*
G01X457200Y1467002D03*
G01X457200Y1326998D03*
G01X708101Y2552700D03*
G01X708101Y2692705D03*
G54D11*
G01X266700Y2317902D03*
G01X126695Y2317902D03*
G54D12*
G01X910427Y1352702D03*
G01X910427Y1212698D03*
G01X1135055Y1351396D03*
G01X1135055Y1211391D03*
G54D13*
G01X1598758Y655133D03*
G01X1598758Y982132D03*
G54D14*
G01X1370990Y1377696D03*
G01X1370990Y1282700D03*
G01X1370990Y1187704D03*
G01X1600810Y1187704D03*
G01X1600810Y1282700D03*
G01X1600810Y1377696D03*
G54D15*
G01X963241Y711724D03*
G01X963241Y1000725D03*
G54D17*
G01X493698Y2938063D03*
G01X493698Y3078042D03*
G54D18*
G01X266700Y2152790D03*
G01X126721Y2152790D03*
G54D19*
G01X1656962Y1913124D03*
G01X1656962Y1703066D03*
G54D20*
G01X494436Y3403600D03*
G01X494436Y3252927D03*
G01X504236Y2702358D03*
G01X504236Y2551686D03*
G01X1447800Y1664564D03*
G01X1447800Y1815236D03*
G01X369164Y1827073D03*
G01X369164Y1676400D03*
G01X1270864Y2703373D03*
G01X1270864Y2552700D03*
G36*
G01X553150Y1077564D02*
G01X553257Y1073112D01*
G01X553258Y1072992D01*
G01X553258Y887572D01*
G01X553257Y887452D01*
G01X553150Y882999D01*
G01X553139Y882768D01*
G01X552827Y878326D01*
G01X552805Y878092D01*
G01X552284Y873667D01*
G01X552252Y873436D01*
G01X551525Y869042D01*
G01X551481Y868809D01*
G01X550546Y864452D01*
G01X550492Y864226D01*
G01X549357Y859921D01*
G01X549292Y859696D01*
G01X547956Y855447D01*
G01X547880Y855224D01*
G01X546346Y851043D01*
G01X546259Y850824D01*
G01X544530Y846719D01*
G01X544435Y846509D01*
G01X542517Y842488D01*
G01X542410Y842276D01*
G01X540305Y838352D01*
G01X540189Y838147D01*
G01X537900Y834325D01*
G01X537776Y834127D01*
G01X535312Y830416D01*
G01X535178Y830225D01*
G01X532544Y826633D01*
G01X532400Y826447D01*
G01X529601Y822985D01*
G01X529449Y822805D01*
G01X526488Y819476D01*
G01X526328Y819304D01*
G01X523217Y816119D01*
G01X523049Y815956D01*
G01X519790Y812918D01*
G01X519615Y812762D01*
G01X516219Y809882D01*
G01X516036Y809734D01*
G01X512508Y807016D01*
G01X512319Y806877D01*
G01X508667Y804327D01*
G01X508471Y804197D01*
G01X504704Y801822D01*
G01X504503Y801702D01*
G01X500627Y799505D01*
G01X500422Y799395D01*
G01X496450Y797381D01*
G01X495309Y796968D01*
G01X491260Y796036D01*
G01X491260Y630285D01*
G02X486258Y625284I-5001J0D01*
G01X420259Y625284D01*
G02X415258Y630285I0J5001D01*
G01X415258Y796036D01*
G01X411204Y796967D01*
G01X410062Y797381D01*
G01X406090Y799395D01*
G01X405885Y799505D01*
G01X402009Y801702D01*
G01X401808Y801822D01*
G01X398041Y804197D01*
G01X397846Y804327D01*
G01X394193Y806877D01*
G01X394004Y807016D01*
G01X390476Y809734D01*
G01X390293Y809882D01*
G01X386897Y812762D01*
G01X386722Y812918D01*
G01X383463Y815956D01*
G01X383296Y816119D01*
G01X380184Y819304D01*
G01X380025Y819476D01*
G01X377063Y822805D01*
G01X376911Y822985D01*
G01X374112Y826447D01*
G01X373968Y826633D01*
G01X371334Y830225D01*
G01X371200Y830416D01*
G01X368737Y834127D01*
G01X368612Y834325D01*
G01X366324Y838147D01*
G01X366208Y838352D01*
G01X364102Y842276D01*
G01X363995Y842488D01*
G01X362077Y846509D01*
G01X361983Y846719D01*
G01X360253Y850824D01*
G01X360166Y851043D01*
G01X358632Y855224D01*
G01X358556Y855447D01*
G01X357220Y859696D01*
G01X357155Y859921D01*
G01X356020Y864226D01*
G01X355966Y864452D01*
G01X355031Y868809D01*
G01X354987Y869042D01*
G01X354261Y873436D01*
G01X354228Y873667D01*
G01X353707Y878092D01*
G01X353685Y878326D01*
G01X353373Y882768D01*
G01X353362Y882999D01*
G01X353255Y887452D01*
G01X353254Y887572D01*
G01X353254Y1072992D01*
G01X353255Y1073112D01*
G01X353362Y1077564D01*
G01X353373Y1077795D01*
G01X353685Y1082238D01*
G01X353707Y1082471D01*
G01X354228Y1086896D01*
G01X354261Y1087127D01*
G01X354987Y1091521D01*
G01X355031Y1091755D01*
G01X355966Y1096111D01*
G01X356020Y1096337D01*
G01X357155Y1100642D01*
G01X357220Y1100867D01*
G01X358556Y1105117D01*
G01X358632Y1105339D01*
G01X360166Y1109520D01*
G01X360253Y1109740D01*
G01X361983Y1113844D01*
G01X362077Y1114055D01*
G01X363995Y1118076D01*
G01X364102Y1118287D01*
G01X366208Y1122212D01*
G01X366324Y1122416D01*
G01X368612Y1126239D01*
G01X368737Y1126436D01*
G01X371200Y1130147D01*
G01X371334Y1130338D01*
G01X373968Y1133930D01*
G01X374112Y1134117D01*
G01X376911Y1137579D01*
G01X377063Y1137758D01*
G01X380025Y1141088D01*
G01X380184Y1141259D01*
G01X383296Y1144444D01*
G01X383463Y1144608D01*
G01X386722Y1147646D01*
G01X386897Y1147801D01*
G01X390293Y1150682D01*
G01X390476Y1150830D01*
G01X394004Y1153547D01*
G01X394193Y1153686D01*
G01X397846Y1156236D01*
G01X398041Y1156366D01*
G01X401808Y1158741D01*
G01X402009Y1158861D01*
G01X405885Y1161058D01*
G01X406090Y1161168D01*
G01X410062Y1163182D01*
G01X410276Y1163285D01*
G01X414340Y1165108D01*
G01X414554Y1165198D01*
G01X418697Y1166832D01*
G01X418919Y1166913D01*
G01X423136Y1168348D01*
G01X423359Y1168418D01*
G01X427638Y1169655D01*
G01X427867Y1169716D01*
G01X432200Y1170749D01*
G01X432427Y1170798D01*
G01X436801Y1171629D01*
G01X437033Y1171667D01*
G01X441445Y1172292D01*
G01X441678Y1172319D01*
G01X446113Y1172736D01*
G01X446347Y1172752D01*
G01X450795Y1172961D01*
G01X451029Y1172966D01*
G01X455484Y1172966D01*
G01X455718Y1172961D01*
G01X460165Y1172752D01*
G01X460399Y1172736D01*
G01X464834Y1172319D01*
G01X465067Y1172292D01*
G01X469479Y1171667D01*
G01X469711Y1171629D01*
G01X474085Y1170798D01*
G01X474313Y1170749D01*
G01X478646Y1169716D01*
G01X478874Y1169655D01*
G01X483154Y1168418D01*
G01X483377Y1168348D01*
G01X487593Y1166913D01*
G01X487816Y1166832D01*
G01X491959Y1165198D01*
G01X492172Y1165108D01*
G01X496236Y1163285D01*
G01X496450Y1163182D01*
G01X500422Y1161168D01*
G01X500627Y1161058D01*
G01X504503Y1158861D01*
G01X504704Y1158741D01*
G01X508471Y1156366D01*
G01X508667Y1156236D01*
G01X512319Y1153686D01*
G01X512508Y1153547D01*
G01X516036Y1150830D01*
G01X516219Y1150682D01*
G01X519615Y1147801D01*
G01X519790Y1147646D01*
G01X523049Y1144608D01*
G01X523217Y1144444D01*
G01X526328Y1141259D01*
G01X526488Y1141088D01*
G01X529449Y1137758D01*
G01X529601Y1137579D01*
G01X532400Y1134117D01*
G01X532544Y1133930D01*
G01X535178Y1130338D01*
G01X535312Y1130147D01*
G01X537776Y1126436D01*
G01X537900Y1126239D01*
G01X540189Y1122416D01*
G01X540305Y1122212D01*
G01X542410Y1118287D01*
G01X542517Y1118076D01*
G01X544435Y1114055D01*
G01X544530Y1113844D01*
G01X546259Y1109740D01*
G01X546346Y1109520D01*
G01X547880Y1105339D01*
G01X547956Y1105117D01*
G01X549292Y1100867D01*
G01X549357Y1100642D01*
G01X550492Y1096337D01*
G01X550546Y1096111D01*
G01X551481Y1091755D01*
G01X551525Y1091521D01*
G01X552252Y1087127D01*
G01X552284Y1086896D01*
G01X552805Y1082471D01*
G01X552827Y1082238D01*
G01X553139Y1077795D01*
G01X553150Y1077564D01*
G37*
G54D21*
G01X603269Y709030D03*
G01X303269Y709030D03*
G54D22*
G01X585601Y2197200D03*
G01X585601Y2157195D03*
G01X585601Y2117190D03*
G01X585601Y2077210D03*
G01X585601Y2037205D03*
G01X585601Y1997200D03*
G01X585601Y1957195D03*
G01X585601Y1917190D03*
G01X585601Y1877210D03*
G01X585601Y1837205D03*
G01X585601Y1797200D03*
G01X585601Y1757195D03*
G01X585601Y1717190D03*
G01X585601Y1677211D03*
G54D23*
G01X666373Y1596439D03*
G01X706352Y1596439D03*
G01X746357Y1596439D03*
G01X786362Y1596439D03*
G01X826367Y1596439D03*
G01X866372Y1596439D03*
G01X906352Y1596439D03*
G01X946357Y1596439D03*
G01X986362Y1596439D03*
G01X1026367Y1596439D03*
G01X1066372Y1596439D03*
G01X1106352Y1596439D03*
G01X1146357Y1596439D03*
G01X1186362Y1596439D03*
G54D22*
G01X1267108Y1677211D03*
G01X1267108Y1717190D03*
G01X1267108Y1757195D03*
G01X1267108Y1797200D03*
G01X1267108Y1837205D03*
G01X1267108Y1877210D03*
G01X1267108Y1917190D03*
G01X1267108Y1957195D03*
G01X1267108Y1997200D03*
G01X1267108Y2037205D03*
G01X1267108Y2077210D03*
G01X1267108Y2117190D03*
G01X1267108Y2157195D03*
G01X1267108Y2197200D03*
G54D23*
G01X1186362Y2277946D03*
G01X1146357Y2277946D03*
G01X1106352Y2277946D03*
G01X1066372Y2277946D03*
G01X1026367Y2277946D03*
G01X986362Y2277946D03*
G01X946357Y2277946D03*
G01X906352Y2277946D03*
G01X866372Y2277946D03*
G01X826367Y2277946D03*
G01X786362Y2277946D03*
G01X746357Y2277946D03*
G01X706352Y2277946D03*
G01X666373Y2277946D03*
G54D24*
G01X926367Y1937205D03*
G54D25*
G01X554013Y455600D03*
G01X804000Y455600D03*
G01X1004000Y455600D03*
G01X1254012Y455600D03*
G54D26*
G01X304001Y255600D03*
G01X1503999Y255600D03*
G54D27*
G01X1454401Y2662707D03*
G01X1644399Y2442693D03*
G01X1454401Y2442693D03*
G01X1644399Y2662707D03*
G54D28*
G01X158373Y1698093D03*
G01X158373Y1918108D03*
G04 Pad End*

M02*

