G04 Layer: BottomLayer*
G04 EasyEDA Pro v3.2.121, 2026-05-20 00:31:31*
G04 Gerber Generator version 0.3*
G04 Scale: 100 percent, Rotated: No, Reflected: No*
G04 Dimensions in millimeters*
G04 Leading zeros omitted, absolute positions, 4 integers and 5 decimals*
G04 Generated by one-click*
%FSLAX45Y45*%
%MOMM*%
%ADD10C,0.2032*%
%ADD11C,0.254*%
%ADD12R,0.86401X0.80648*%
%ADD13R,1.23X1.85999*%
%ADD14C,0.5*%
%ADD15C,1.524*%
%ADD16C,3.0001*%
%ADD17C,2.99999*%
%ADD18R,0.80648X0.86401*%
%ADD19O,1.865X0.63*%
%ADD20C,0.61*%
%ADD21C,0.6096*%
%ADD22C,0.18*%
G75*


G04 Copper Start*
G36*
G01X39814Y263900D02*
G01X39814Y2476803D01*
G01X730987Y2476803D01*
G01X733915Y2461201D01*
G01X740467Y2446742D01*
G01X750267Y2434254D01*
G01X762755Y2424453D01*
G01X777214Y2417901D01*
G01X792816Y2414973D01*
G01X808667Y2415837D01*
G01X823858Y2420444D01*
G01X837519Y2428528D01*
G01X848868Y2439628D01*
G01X857253Y2453107D01*
G01X862195Y2468192D01*
G01X863410Y2484020D01*
G01X938071Y2558681D01*
G01X1150028Y2558681D01*
G01X1162079Y2548348D01*
G01X1176240Y2541175D01*
G01X1191700Y2537574D01*
G01X1207574Y2537750D01*
G01X1222950Y2541693D01*
G01X1236949Y2549178D01*
G01X1248769Y2559775D01*
G01X1257730Y2572878D01*
G01X1263322Y2587735D01*
G01X1265222Y2603495D01*
G01X1263322Y2619255D01*
G01X1257730Y2634112D01*
G01X1248769Y2647215D01*
G01X1236949Y2657812D01*
G01X1222950Y2665297D01*
G01X1207574Y2669240D01*
G01X1191700Y2669416D01*
G01X1176240Y2665814D01*
G01X1162079Y2658642D01*
G01X1150028Y2648309D01*
G01X919508Y2648309D01*
G01X907909Y2646782D01*
G01X897101Y2642305D01*
G01X887820Y2635183D01*
G01X800033Y2547397D01*
G01X800033Y2547397D01*
G01X784206Y2546182D01*
G01X769120Y2541240D01*
G01X755641Y2532855D01*
G01X744542Y2521506D01*
G01X736457Y2507845D01*
G01X731851Y2492653D01*
G01X730987Y2476803D01*
G01X39814Y2476803D01*
G01X39814Y2988035D01*
G01X51382Y2978628D01*
G01X64759Y2972044D01*
G01X79270Y2968614D01*
G01X94179Y2968513D01*
G01X108735Y2971746D01*
G01X122200Y2978148D01*
G01X133895Y2987398D01*
G01X145850Y2977987D01*
G01X159636Y2971549D01*
G01X174527Y2968422D01*
G01X189738Y2968772D01*
G01X204469Y2972579D01*
G01X217945Y2979644D01*
G01X232043Y2972726D01*
G01X247374Y2969318D01*
G01X263075Y2969610D01*
G01X278268Y2973586D01*
G01X292100Y2981023D01*
G01X306149Y2973501D01*
G01X321588Y2969548D01*
G01X337524Y2969392D01*
G01X353037Y2973042D01*
G01X367231Y2980288D01*
G01X379286Y2990712D01*
G01X388506Y3003710D01*
G01X394359Y3018533D01*
G01X396507Y3034324D01*
G01X407104Y3037840D01*
G01X570461Y3037840D01*
G01X568689Y3021964D01*
G01X570765Y3006126D01*
G01X576568Y2991243D01*
G01X585762Y2978180D01*
G01X597813Y2967694D01*
G01X612021Y2960394D01*
G01X627563Y2956704D01*
G01X643537Y2956838D01*
G01X659015Y2960787D01*
G01X673100Y2968323D01*
G01X687392Y2960707D01*
G01X703103Y2956782D01*
G01X719297Y2956782D01*
G01X735008Y2960707D01*
G01X749300Y2968323D01*
G01X763592Y2960707D01*
G01X779303Y2956782D01*
G01X795497Y2956782D01*
G01X811208Y2960707D01*
G01X825500Y2968323D01*
G01X837287Y2961730D01*
G01X850165Y2957661D01*
G01X863600Y2956286D01*
G01X877035Y2957661D01*
G01X889913Y2961730D01*
G01X901700Y2968323D01*
G01X914307Y2961382D01*
G01X928116Y2957323D01*
G01X942474Y2956340D01*
G01X956707Y2958477D01*
G01X970143Y2963635D01*
G01X982150Y2971570D01*
G01X994239Y2962143D01*
G01X1008170Y2955744D01*
G01X1023199Y2952715D01*
G01X1038521Y2953217D01*
G01X1053318Y2957225D01*
G01X1066800Y2964523D01*
G01X1081092Y2956907D01*
G01X1096803Y2952982D01*
G01X1112997Y2952982D01*
G01X1128708Y2956907D01*
G01X1143000Y2964523D01*
G01X1157292Y2956907D01*
G01X1173003Y2952982D01*
G01X1189197Y2952982D01*
G01X1204908Y2956907D01*
G01X1219200Y2964523D01*
G01X1233492Y2956907D01*
G01X1249203Y2952982D01*
G01X1265397Y2952982D01*
G01X1281108Y2956907D01*
G01X1295400Y2964523D01*
G01X1308435Y2957405D01*
G01X1322728Y2953367D01*
G01X1337561Y2952610D01*
G01X1352191Y2955174D01*
G01X1365883Y2960930D01*
G01X1377950Y2969589D01*
G01X1390017Y2960930D01*
G01X1403709Y2955174D01*
G01X1418339Y2952610D01*
G01X1433172Y2953367D01*
G01X1447465Y2957405D01*
G01X1460500Y2964523D01*
G01X1474792Y2956907D01*
G01X1490503Y2952982D01*
G01X1506697Y2952982D01*
G01X1522408Y2956907D01*
G01X1536700Y2964523D01*
G01X1550992Y2956907D01*
G01X1566703Y2952982D01*
G01X1582897Y2952982D01*
G01X1598608Y2956907D01*
G01X1612900Y2964523D01*
G01X1624687Y2957930D01*
G01X1637565Y2953861D01*
G01X1651000Y2952486D01*
G01X1664435Y2953861D01*
G01X1677313Y2957930D01*
G01X1689100Y2964523D01*
G01X1701438Y2957695D01*
G01X1714941Y2953629D01*
G01X1728998Y2952510D01*
G01X1742974Y2954389D01*
G01X1756236Y2959181D01*
G01X1768186Y2966668D01*
G01X1768186Y1008288D01*
G01X1760383Y1015429D01*
G01X1750834Y1019978D01*
G01X1740373Y1021540D01*
G01X1661431Y1021540D01*
G01X1661431Y1103716D01*
G01X1675706Y1098147D01*
G01X1690877Y1096004D01*
G01X1706136Y1097399D01*
G01X1720667Y1102260D01*
G01X1733695Y1110326D01*
G01X1744524Y1121166D01*
G01X1752575Y1134203D01*
G01X1757420Y1148739D01*
G01X1758799Y1163999D01*
G01X1756639Y1179169D01*
G01X1762385Y1189631D01*
G01X1764374Y1201400D01*
G01X1764374Y1287800D01*
G01X1763228Y1296787D01*
G01X1759865Y1305198D01*
G01X1754498Y1312496D01*
G01X1747471Y1318214D01*
G01X1751977Y1329732D01*
G01X1754266Y1341886D01*
G01X1754258Y1354254D01*
G01X1759752Y1361600D01*
G01X1763199Y1370102D01*
G01X1764374Y1379200D01*
G01X1764374Y1465600D01*
G01X1762621Y1476667D01*
G01X1757534Y1486651D01*
G01X1749611Y1494574D01*
G01X1739627Y1499661D01*
G01X1728560Y1501414D01*
G01X1661431Y1501414D01*
G01X1661431Y1535911D01*
G01X1675703Y1534839D01*
G01X1689874Y1536854D01*
G01X1703282Y1541863D01*
G01X1715303Y1549632D01*
G01X1725376Y1559800D01*
G01X1733034Y1571892D01*
G01X1737918Y1585346D01*
G01X1739802Y1599534D01*
G01X1738597Y1613797D01*
G01X1734360Y1627468D01*
G01X1727288Y1639912D01*
G01X1717711Y1650548D01*
G01X1706074Y1658882D01*
G01X1692921Y1664525D01*
G01X1692921Y1804316D01*
G01X1691394Y1815915D01*
G01X1686917Y1826723D01*
G01X1679795Y1836004D01*
G01X1287015Y2228784D01*
G01X1277734Y2235906D01*
G01X1266926Y2240383D01*
G01X1255327Y2241910D01*
G01X1228007Y2241910D01*
G01X1217438Y2251224D01*
G01X1205140Y2258095D01*
G01X1191667Y2262213D01*
G01X1177629Y2263393D01*
G01X1163659Y2261580D01*
G01X1150386Y2256858D01*
G01X1138411Y2249438D01*
G01X1128273Y2239656D01*
G01X1120430Y2227953D01*
G01X1115237Y2214858D01*
G01X1112926Y2200961D01*
G01X1113604Y2186890D01*
G01X816452Y2186890D01*
G01X815099Y2198372D01*
G01X811771Y2209445D01*
G01X806571Y2219771D01*
G01X875218Y2219771D01*
G01X886817Y2221298D01*
G01X897625Y2225775D01*
G01X906907Y2232897D01*
G01X973943Y2299934D01*
G01X988052Y2300830D01*
G01X1001651Y2304696D01*
G01X1014121Y2311358D01*
G01X1024895Y2320511D01*
G01X1033485Y2331741D01*
G01X1039498Y2344535D01*
G01X1042663Y2358314D01*
G01X1042835Y2372451D01*
G01X1040007Y2386303D01*
G01X1034306Y2399240D01*
G01X1025993Y2410675D01*
G01X1015445Y2420088D01*
G01X1027818Y2426975D01*
G01X1038448Y2436331D01*
G01X1294367Y2436331D01*
G01X1305966Y2437858D01*
G01X1316774Y2442335D01*
G01X1326056Y2449457D01*
G01X1367692Y2491093D01*
G01X1383426Y2492290D01*
G01X1398431Y2497169D01*
G01X1411860Y2505456D01*
G01X1422950Y2516680D01*
G01X1431074Y2530207D01*
G01X1435773Y2545270D01*
G01X1471052Y2509990D01*
G01X1481100Y2502281D01*
G01X1492801Y2497434D01*
G01X1505357Y2495781D01*
G01X1573787Y2495781D01*
G01X1586158Y2486683D01*
G01X1600291Y2480674D01*
G01X1615426Y2478077D01*
G01X1630753Y2479031D01*
G01X1645449Y2483485D01*
G01X1658727Y2491201D01*
G01X1669875Y2501763D01*
G01X1678294Y2514606D01*
G01X1683533Y2529042D01*
G01X1685311Y2544295D01*
G01X1683533Y2559548D01*
G01X1678294Y2573984D01*
G01X1669875Y2586827D01*
G01X1658727Y2597389D01*
G01X1645449Y2605104D01*
G01X1630753Y2609558D01*
G01X1615426Y2610513D01*
G01X1600291Y2607916D01*
G01X1586158Y2601907D01*
G01X1573787Y2592809D01*
G01X1525452Y2592809D01*
G01X1412550Y2705711D01*
G01X1410236Y2720892D01*
G01X1404491Y2735134D01*
G01X1395625Y2747673D01*
G01X1384113Y2757836D01*
G01X1370571Y2765078D01*
G01X1355727Y2769012D01*
G01X1340376Y2769425D01*
G01X1325341Y2766297D01*
G01X1311429Y2759794D01*
G01X1299386Y2750266D01*
G01X1289858Y2738223D01*
G01X1283355Y2724311D01*
G01X1280226Y2709276D01*
G01X1280640Y2693925D01*
G01X1284574Y2679081D01*
G01X1291816Y2665539D01*
G01X1301979Y2654027D01*
G01X1314518Y2645161D01*
G01X1328760Y2639416D01*
G01X1343941Y2637102D01*
G01X1358493Y2622550D01*
G01X1343429Y2617852D01*
G01X1329902Y2609727D01*
G01X1318678Y2598637D01*
G01X1310391Y2585209D01*
G01X1305512Y2570203D01*
G01X1304316Y2554470D01*
G01X1275805Y2525959D01*
G01X1038448Y2525959D01*
G01X1026439Y2536263D01*
G01X1012332Y2543429D01*
G01X996928Y2547049D01*
G01X981105Y2546917D01*
G01X965764Y2543039D01*
G01X951778Y2535638D01*
G01X939944Y2525134D01*
G01X930935Y2512125D01*
G01X925265Y2497352D01*
G01X923256Y2481657D01*
G01X925023Y2465932D01*
G01X930464Y2451074D01*
G01X939271Y2437928D01*
G01X950941Y2427242D01*
G01X939442Y2420963D01*
G01X929402Y2412545D01*
G01X921213Y2402318D01*
G01X911496Y2413625D01*
G01X899499Y2422476D01*
G01X885829Y2428423D01*
G01X871175Y2431166D01*
G01X856279Y2430566D01*
G01X841893Y2426653D01*
G01X828745Y2419626D01*
G01X817498Y2409839D01*
G01X335847Y2409839D01*
G01X328792Y2414633D01*
G01X320804Y2417622D01*
G01X312335Y2418638D01*
G01X231687Y2418638D01*
G01X222074Y2417323D01*
G01X213165Y2413476D01*
G01X205617Y2407379D01*
G01X199982Y2399480D01*
G01X196675Y2390358D01*
G01X193367Y2399480D01*
G01X187733Y2407379D01*
G01X180184Y2413476D01*
G01X171276Y2417323D01*
G01X161662Y2418638D01*
G01X81015Y2418638D01*
G01X69947Y2416885D01*
G01X59964Y2411798D01*
G01X52040Y2403875D01*
G01X46953Y2393891D01*
G01X45201Y2382824D01*
G01X45201Y2296423D01*
G01X46953Y2285356D01*
G01X52040Y2275372D01*
G01X59964Y2267449D01*
G01X69947Y2262362D01*
G01X81015Y2260609D01*
G01X161662Y2260609D01*
G01X171276Y2261924D01*
G01X180184Y2265771D01*
G01X187733Y2271868D01*
G01X193367Y2279767D01*
G01X196675Y2288889D01*
G01X199982Y2279767D01*
G01X205617Y2271868D01*
G01X213165Y2265771D01*
G01X222074Y2261924D01*
G01X231687Y2260609D01*
G01X312335Y2260609D01*
G01X323402Y2262362D01*
G01X333386Y2267449D01*
G01X341309Y2275372D01*
G01X346396Y2285356D01*
G01X348149Y2296423D01*
G01X348149Y2320211D01*
G01X817498Y2320211D01*
G01X823545Y2314401D01*
G01X830277Y2309399D01*
G01X443419Y2309399D01*
G01X431820Y2307872D01*
G01X421012Y2303396D01*
G01X411731Y2296274D01*
G01X395494Y2280037D01*
G01X380921Y2279060D01*
G01X366915Y2274915D01*
G01X354156Y2267805D01*
G01X343263Y2258075D01*
G01X334765Y2246195D01*
G01X329073Y2232744D01*
G01X326464Y2218372D01*
G01X319547Y2220544D01*
G01X312335Y2221277D01*
G01X231687Y2221277D01*
G01X222074Y2219963D01*
G01X213165Y2216116D01*
G01X205617Y2210019D01*
G01X199982Y2202119D01*
G01X196675Y2192997D01*
G01X193367Y2202119D01*
G01X187733Y2210019D01*
G01X180184Y2216116D01*
G01X171276Y2219963D01*
G01X161662Y2221277D01*
G01X81015Y2221277D01*
G01X69947Y2219524D01*
G01X59964Y2214437D01*
G01X52040Y2206514D01*
G01X46953Y2196530D01*
G01X45201Y2185463D01*
G01X45201Y2099063D01*
G01X46953Y2087995D01*
G01X52040Y2078012D01*
G01X59964Y2070088D01*
G01X69947Y2065001D01*
G01X81015Y2063249D01*
G01X161662Y2063249D01*
G01X171276Y2064563D01*
G01X180184Y2068410D01*
G01X187733Y2074507D01*
G01X193367Y2082407D01*
G01X196675Y2091529D01*
G01X199982Y2082407D01*
G01X205617Y2074507D01*
G01X213165Y2068410D01*
G01X222074Y2064563D01*
G01X231687Y2063249D01*
G01X312335Y2063249D01*
G01X323095Y2064903D01*
G01X332861Y2069714D01*
G01X340730Y2077237D01*
G01X345976Y2086777D01*
G01X348113Y2097452D01*
G01X642888Y2097452D01*
G01X631540Y2088926D01*
G01X622266Y2078180D01*
G01X615492Y2065706D01*
G01X611527Y2052077D01*
G01X610554Y2037917D01*
G01X612617Y2023873D01*
G01X617621Y2010590D01*
G01X625337Y1998677D01*
G01X635412Y1988678D01*
G01X647384Y1981053D01*
G01X660704Y1976150D01*
G01X674763Y1974194D01*
G01X688916Y1975275D01*
G01X702514Y1979343D01*
G01X702514Y1860059D01*
G01X499423Y1656968D01*
G01X499423Y1755334D01*
G01X502534Y1758445D01*
G01X518362Y1759660D01*
G01X533447Y1764602D01*
G01X546926Y1772987D01*
G01X558026Y1784336D01*
G01X566110Y1797997D01*
G01X570717Y1813188D01*
G01X571581Y1829039D01*
G01X568653Y1844641D01*
G01X562101Y1859100D01*
G01X552300Y1871588D01*
G01X539812Y1881388D01*
G01X525353Y1887940D01*
G01X509751Y1890868D01*
G01X493901Y1890004D01*
G01X478709Y1885398D01*
G01X465048Y1877313D01*
G01X453699Y1866214D01*
G01X445314Y1852735D01*
G01X440372Y1837649D01*
G01X439157Y1821822D01*
G01X422921Y1805585D01*
G01X415799Y1796304D01*
G01X411322Y1785495D01*
G01X409795Y1773897D01*
G01X409795Y808699D01*
G01X409853Y806413D01*
G01X347704Y806413D01*
G01X272523Y881594D01*
G01X272523Y982000D01*
G01X270770Y993067D01*
G01X265683Y1003051D01*
G01X257760Y1010974D01*
G01X247776Y1016061D01*
G01X236709Y1017814D01*
G01X113709Y1017814D01*
G01X102642Y1016061D01*
G01X92659Y1010974D01*
G01X84735Y1003051D01*
G01X79648Y993067D01*
G01X77895Y982000D01*
G01X77895Y796000D01*
G01X79648Y784933D01*
G01X84735Y774949D01*
G01X92659Y767026D01*
G01X102642Y761939D01*
G01X113709Y760186D01*
G01X236709Y760186D01*
G01X245012Y761162D01*
G01X252863Y764036D01*
G01X293305Y723594D01*
G01X303352Y715884D01*
G01X315053Y711038D01*
G01X327609Y709385D01*
G01X740699Y709385D01*
G01X753255Y711038D01*
G01X764956Y715884D01*
G01X775003Y723594D01*
G01X821690Y770281D01*
G01X872418Y770281D01*
G01X883485Y772034D01*
G01X893469Y777121D01*
G01X901392Y785044D01*
G01X906479Y795028D01*
G01X908232Y806095D01*
G01X908232Y886742D01*
G01X906917Y896356D01*
G01X903070Y905264D01*
G01X896973Y912813D01*
G01X889074Y918447D01*
G01X879952Y921755D01*
G01X889074Y925062D01*
G01X896973Y930697D01*
G01X903070Y938246D01*
G01X906917Y947154D01*
G01X908232Y956767D01*
G01X908232Y973984D01*
G01X933104Y973984D01*
G01X933104Y768498D01*
G01X934757Y755942D01*
G01X939604Y744241D01*
G01X947313Y734194D01*
G01X1029495Y652013D01*
G01X549999Y652013D01*
G01X537443Y650360D01*
G01X525742Y645513D01*
G01X515694Y637803D01*
G01X414095Y536204D01*
G01X406385Y526156D01*
G01X401538Y514455D01*
G01X399885Y501899D01*
G01X399885Y414764D01*
G01X375940Y426923D01*
G01X350491Y435504D01*
G01X324072Y440327D01*
G01X297233Y441291D01*
G01X270535Y438375D01*
G01X244537Y431642D01*
G01X219781Y421231D01*
G01X196784Y407361D01*
G01X176027Y390320D01*
G01X157943Y370464D01*
G01X142911Y348210D01*
G01X131243Y324021D01*
G01X123184Y298402D01*
G01X118903Y271889D01*
G01X118488Y245036D01*
G01X121948Y218404D01*
G01X129212Y192549D01*
G01X140127Y168011D01*
G01X154465Y145302D01*
G01X171927Y124898D01*
G01X192147Y107224D01*
G01X214705Y92650D01*
G01X239127Y81479D01*
G01X264905Y73946D01*
G01X291500Y70208D01*
G01X318356Y70342D01*
G01X344912Y74346D01*
G01X370613Y82137D01*
G01X394923Y93551D01*
G01X417333Y108350D01*
G01X437376Y126226D01*
G01X454633Y146804D01*
G01X468743Y169654D01*
G01X479412Y194300D01*
G01X486417Y220227D01*
G01X489611Y246892D01*
G01X488927Y273740D01*
G01X484381Y300208D01*
G01X490294Y294295D01*
G01X500342Y286585D01*
G01X512043Y281738D01*
G01X524599Y280085D01*
G01X570931Y280085D01*
G01X568255Y259361D01*
G01X569519Y238503D01*
G01X574675Y218253D01*
G01X583541Y199331D01*
G01X595801Y182410D01*
G01X611021Y168091D01*
G01X628657Y156884D01*
G01X648084Y149187D01*
G01X668611Y145274D01*
G01X689507Y145284D01*
G01X710030Y149216D01*
G01X729450Y156932D01*
G01X747076Y168155D01*
G01X762282Y182489D01*
G01X774526Y199422D01*
G01X783374Y218352D01*
G01X788511Y238607D01*
G01X789524Y255600D01*
G01X1018178Y255600D01*
G01X1020065Y235238D01*
G01X1025661Y215569D01*
G01X1034776Y197264D01*
G01X1047100Y180945D01*
G01X1062212Y167168D01*
G01X1079599Y156403D01*
G01X1098667Y149015D01*
G01X1118768Y145258D01*
G01X1139218Y145258D01*
G01X1159319Y149015D01*
G01X1178388Y156403D01*
G01X1195774Y167168D01*
G01X1210887Y180945D01*
G01X1223210Y197264D01*
G01X1232325Y215569D01*
G01X1237921Y235238D01*
G01X1239808Y255600D01*
G01X1239808Y255600D01*
G01X1318185Y255600D01*
G01X1320076Y229156D01*
G01X1325712Y203250D01*
G01X1334977Y178410D01*
G01X1347682Y155142D01*
G01X1363570Y133918D01*
G01X1382317Y115172D01*
G01X1403540Y99284D01*
G01X1426809Y86578D01*
G01X1451649Y77313D01*
G01X1477555Y71678D01*
G01X1503999Y69787D01*
G01X1530443Y71678D01*
G01X1556349Y77313D01*
G01X1581189Y86578D01*
G01X1604457Y99284D01*
G01X1625681Y115172D01*
G01X1644427Y133918D01*
G01X1660315Y155142D01*
G01X1673021Y178410D01*
G01X1682286Y203250D01*
G01X1687921Y229156D01*
G01X1689812Y255600D01*
G01X1687921Y282044D01*
G01X1682286Y307950D01*
G01X1673021Y332790D01*
G01X1660315Y356059D01*
G01X1644427Y377282D01*
G01X1625681Y396029D01*
G01X1604457Y411917D01*
G01X1581189Y424622D01*
G01X1556349Y433887D01*
G01X1530443Y439523D01*
G01X1503999Y441414D01*
G01X1477555Y439523D01*
G01X1451649Y433887D01*
G01X1426809Y424622D01*
G01X1403540Y411917D01*
G01X1382317Y396029D01*
G01X1363570Y377282D01*
G01X1347682Y356059D01*
G01X1334977Y332790D01*
G01X1325712Y307950D01*
G01X1320076Y282044D01*
G01X1318185Y255600D01*
G01X1318185Y255600D01*
G01X1239808Y255600D01*
G01X1237921Y275962D01*
G01X1232325Y295631D01*
G01X1223210Y313937D01*
G01X1210887Y330256D01*
G01X1195774Y344033D01*
G01X1178388Y354798D01*
G01X1159319Y362185D01*
G01X1139218Y365943D01*
G01X1118768Y365943D01*
G01X1098667Y362185D01*
G01X1079599Y354798D01*
G01X1062212Y344033D01*
G01X1047100Y330256D01*
G01X1034776Y313937D01*
G01X1025661Y295631D01*
G01X1020065Y275962D01*
G01X1018178Y255600D01*
G01X1018178Y255600D01*
G01X789524Y255600D01*
G01X789754Y259466D01*
G01X787060Y280188D01*
G01X780523Y300036D01*
G01X770376Y318303D01*
G01X756981Y334341D01*
G01X740812Y347579D01*
G01X722447Y357546D01*
G01X702536Y363889D01*
G01X681789Y366380D01*
G01X710035Y394627D01*
G01X722077Y379207D01*
G01X736619Y366119D01*
G01X753216Y355760D01*
G01X771362Y348446D01*
G01X790504Y344402D01*
G01X810057Y343750D01*
G01X829426Y346510D01*
G01X848019Y352597D01*
G01X865269Y361828D01*
G01X880650Y373918D01*
G01X893693Y388501D01*
G01X904000Y405130D01*
G01X915213Y387305D01*
G01X929565Y371894D01*
G01X946547Y359442D01*
G01X965560Y350388D01*
G01X985932Y345053D01*
G01X1006942Y343624D01*
G01X1027848Y346154D01*
G01X1047911Y352552D01*
G01X1066422Y362592D01*
G01X1082727Y375919D01*
G01X1096250Y392062D01*
G01X1106512Y410451D01*
G01X1113151Y430436D01*
G01X1115932Y451310D01*
G01X1114756Y472336D01*
G01X1109667Y492770D01*
G01X1100842Y511891D01*
G01X1088595Y529022D01*
G01X1073358Y543558D01*
G01X1055669Y554985D01*
G01X1202342Y554985D01*
G01X1184489Y543427D01*
G01X1169142Y528704D01*
G01X1156854Y511345D01*
G01X1148069Y491976D01*
G01X1143103Y471296D01*
G01X1142136Y450050D01*
G01X1145201Y429004D01*
G01X1152189Y408917D01*
G01X1162848Y390513D01*
G01X1176793Y374456D01*
G01X1193522Y361323D01*
G01X1212432Y351589D01*
G01X1232840Y345605D01*
G01X1254012Y343586D01*
G01X1275184Y345605D01*
G01X1295592Y351589D01*
G01X1314502Y361323D01*
G01X1331231Y374456D01*
G01X1345176Y390513D01*
G01X1355835Y408917D01*
G01X1362823Y429004D01*
G01X1365888Y450050D01*
G01X1364921Y471296D01*
G01X1359955Y491976D01*
G01X1351170Y511345D01*
G01X1338882Y528704D01*
G01X1323535Y543427D01*
G01X1305682Y554985D01*
G01X1372342Y554985D01*
G01X1378709Y542248D01*
G01X1387649Y531165D01*
G01X1398749Y522246D01*
G01X1411496Y515902D01*
G01X1425305Y512425D01*
G01X1439537Y511977D01*
G01X1453537Y514577D01*
G01X1466659Y520106D01*
G01X1478298Y528309D01*
G01X1487918Y538808D01*
G01X1495074Y551118D01*
G01X1499438Y564672D01*
G01X1500807Y578846D01*
G01X1499119Y592985D01*
G01X1680044Y592985D01*
G01X1692023Y585326D01*
G01X1705452Y580657D01*
G01X1719599Y579235D01*
G01X1733689Y581136D01*
G01X1746953Y586256D01*
G01X1758665Y594317D01*
G01X1768186Y604877D01*
G01X1768186Y546985D01*
G01X1758479Y557707D01*
G01X1746515Y565834D01*
G01X1732970Y570906D01*
G01X1718611Y572636D01*
G01X1704249Y570926D01*
G01X1690697Y565873D01*
G01X1678722Y557763D01*
G01X1669000Y547054D01*
G01X1662082Y534353D01*
G01X1658359Y520377D01*
G01X1658042Y505917D01*
G01X1661148Y491791D01*
G01X1649077Y483254D01*
G01X1639198Y472254D01*
G01X1632002Y459339D01*
G01X1627845Y445151D01*
G01X1626936Y430394D01*
G01X1629319Y415802D01*
G01X1634875Y402101D01*
G01X1643330Y389972D01*
G01X1654261Y380017D01*
G01X1658334Y375231D01*
G01X1662021Y361227D01*
G01X1668915Y348492D01*
G01X1678625Y337747D01*
G01X1690599Y329604D01*
G01X1704160Y324522D01*
G01X1718537Y322790D01*
G01X1732917Y324507D01*
G01X1746482Y329575D01*
G01X1758465Y337707D01*
G01X1768186Y348441D01*
G01X1768186Y263900D01*
G01X1766354Y235943D01*
G01X1760888Y208464D01*
G01X1751882Y181934D01*
G01X1739490Y156807D01*
G01X1723925Y133512D01*
G01X1705452Y112448D01*
G01X1684388Y93975D01*
G01X1661093Y78409D01*
G01X1635965Y66018D01*
G01X1609435Y57012D01*
G01X1581957Y51546D01*
G01X1554000Y49714D01*
G01X254000Y49714D01*
G01X226043Y51546D01*
G01X198565Y57012D01*
G01X172035Y66018D01*
G01X146907Y78409D01*
G01X123612Y93975D01*
G01X102548Y112448D01*
G01X84075Y133512D01*
G01X68509Y156807D01*
G01X56118Y181934D01*
G01X47112Y208464D01*
G01X41646Y235943D01*
G01X39814Y263900D01*
G37*
G36*
G01X499423Y1097238D02*
G01X513281Y1083380D01*
G01X522562Y1076258D01*
G01X533370Y1071781D01*
G01X544969Y1070254D01*
G01X697369Y1070254D01*
G01X708968Y1071781D01*
G01X719776Y1076258D01*
G01X729057Y1083380D01*
G01X1041113Y1395436D01*
G01X1050118Y1385384D01*
G01X1060946Y1377331D01*
G01X1073163Y1371600D01*
G01X1059610Y1365048D01*
G01X1047852Y1355649D01*
G01X1038477Y1343871D01*
G01X1031953Y1330304D01*
G01X1028608Y1315627D01*
G01X1028608Y1300573D01*
G01X1031953Y1285896D01*
G01X1038477Y1272329D01*
G01X1047852Y1260551D01*
G01X1059610Y1251152D01*
G01X1073163Y1244600D01*
G01X1059070Y1237704D01*
G01X1046956Y1227734D01*
G01X1037479Y1215229D01*
G01X1031155Y1200871D01*
G01X1028326Y1185439D01*
G01X1029146Y1169770D01*
G01X1033571Y1154718D01*
G01X1041361Y1141098D01*
G01X1052091Y1129652D01*
G01X1065181Y1121001D01*
G01X1079917Y1115615D01*
G01X1095499Y1113786D01*
G01X1218999Y1113786D01*
G01X1234582Y1115615D01*
G01X1249318Y1121001D01*
G01X1262407Y1129652D01*
G01X1273138Y1141098D01*
G01X1280928Y1154718D01*
G01X1285353Y1169770D01*
G01X1286173Y1185439D01*
G01X1283344Y1200871D01*
G01X1277019Y1215229D01*
G01X1267543Y1227734D01*
G01X1255429Y1237704D01*
G01X1241335Y1244600D01*
G01X1254441Y1250872D01*
G01X1265895Y1259810D01*
G01X1275165Y1270998D01*
G01X1281818Y1283914D01*
G01X1285545Y1297957D01*
G01X1286171Y1312473D01*
G01X1283668Y1326784D01*
G01X1278152Y1340226D01*
G01X1324196Y1386269D01*
G01X1331317Y1395550D01*
G01X1335794Y1406358D01*
G01X1337321Y1417957D01*
G01X1337321Y1450195D01*
G01X1351872Y1464745D01*
G01X1360943Y1454517D01*
G01X1360943Y1376397D01*
G01X1362470Y1364799D01*
G01X1366947Y1353990D01*
G01X1374069Y1344709D01*
G01X1461426Y1257352D01*
G01X1461426Y1201400D01*
G01X1463179Y1190333D01*
G01X1468266Y1180349D01*
G01X1476189Y1172426D01*
G01X1486173Y1167339D01*
G01X1497240Y1165586D01*
G01X1571803Y1165586D01*
G01X1571803Y979291D01*
G01X1437260Y1113834D01*
G01X1434946Y1129015D01*
G01X1429201Y1143257D01*
G01X1420335Y1155796D01*
G01X1408823Y1165959D01*
G01X1395281Y1173201D01*
G01X1380437Y1177135D01*
G01X1365086Y1177549D01*
G01X1350051Y1174420D01*
G01X1336139Y1167917D01*
G01X1324096Y1158389D01*
G01X1314568Y1146346D01*
G01X1308065Y1132434D01*
G01X1304936Y1117399D01*
G01X1305350Y1102048D01*
G01X1309284Y1087204D01*
G01X1316526Y1073662D01*
G01X1326689Y1062150D01*
G01X1339228Y1053284D01*
G01X1353470Y1047539D01*
G01X1368651Y1045225D01*
G01X1512983Y900893D01*
G01X1512983Y877308D01*
G01X1504924Y866697D01*
G01X1499149Y854688D01*
G01X1495892Y841767D01*
G01X1495283Y828456D01*
G01X1497348Y815292D01*
G01X1339205Y815292D01*
G01X1339205Y985726D01*
G01X1337452Y996793D01*
G01X1332365Y1006777D01*
G01X1324442Y1014700D01*
G01X1314458Y1019787D01*
G01X1303391Y1021540D01*
G01X1180392Y1021540D01*
G01X1169324Y1019787D01*
G01X1159341Y1014700D01*
G01X1151417Y1006777D01*
G01X1146330Y996793D01*
G01X1144578Y985726D01*
G01X1144578Y828528D01*
G01X1136832Y836273D01*
G01X1136832Y887004D01*
G01X1135517Y896618D01*
G01X1131670Y905526D01*
G01X1125573Y913074D01*
G01X1117674Y918709D01*
G01X1108552Y922016D01*
G01X1117674Y925324D01*
G01X1125573Y930959D01*
G01X1131670Y938507D01*
G01X1135517Y947415D01*
G01X1136832Y957029D01*
G01X1136832Y1037677D01*
G01X1135079Y1048744D01*
G01X1129992Y1058728D01*
G01X1122069Y1066651D01*
G01X1112085Y1071738D01*
G01X1101018Y1073491D01*
G01X1014617Y1073491D01*
G01X1004135Y1071922D01*
G01X994572Y1067355D01*
G01X986763Y1060189D01*
G01X977496Y1066097D01*
G01X967137Y1069767D01*
G01X956218Y1071012D01*
G01X884823Y1071012D01*
G01X878719Y1072670D01*
G01X872418Y1073229D01*
G01X786017Y1073229D01*
G01X776232Y1071866D01*
G01X767191Y1067882D01*
G01X759583Y1061579D01*
G01X753987Y1053437D01*
G01X750828Y1044076D01*
G01X737224Y1046463D01*
G01X723420Y1045980D01*
G01X710016Y1042648D01*
G01X697593Y1036611D01*
G01X686690Y1028133D01*
G01X677780Y1017579D01*
G01X673691Y1017814D01*
G01X550691Y1017814D01*
G01X539624Y1016061D01*
G01X529640Y1010974D01*
G01X521717Y1003051D01*
G01X516630Y993067D01*
G01X514877Y982000D01*
G01X514877Y811807D01*
G01X499423Y827261D01*
G01X499423Y1097238D01*
G37*
G36*
G01X779017Y1809808D02*
G01X786138Y1819089D01*
G01X790615Y1829898D01*
G01X792142Y1841496D01*
G01X792142Y2026133D01*
G01X816691Y2050682D01*
G01X1084365Y2050682D01*
G01X1112876Y2022171D01*
G01X1113579Y2009247D01*
G01X1116780Y1996706D01*
G01X1122355Y1985026D01*
G01X1130093Y1974651D01*
G01X1129349Y1973924D01*
G01X1078550Y1923124D01*
G01X1071428Y1913843D01*
G01X1066951Y1903035D01*
G01X1065424Y1891436D01*
G01X1065424Y1833799D01*
G01X946779Y1715154D01*
G01X937449Y1725869D01*
G01X926051Y1734351D01*
G01X913108Y1740211D01*
G01X899214Y1743178D01*
G01X885007Y1743118D01*
G01X871138Y1740033D01*
G01X858245Y1734065D01*
G01X846919Y1725487D01*
G01X837680Y1714694D01*
G01X830953Y1702180D01*
G01X827045Y1688520D01*
G01X826137Y1674342D01*
G01X753904Y1602108D01*
G01X742153Y1608006D01*
G01X729251Y1610531D01*
G01X719154Y1618560D01*
G01X707710Y1624515D01*
G01X695341Y1628178D01*
G01X682501Y1629414D01*
G01X598622Y1629414D01*
G01X779017Y1809808D01*
G37*
G36*
G01X752331Y554985D02*
G01X737080Y545426D01*
G01X723556Y533548D01*
G01X712110Y519658D01*
G01X703037Y504113D01*
G01X702399Y504113D01*
G01X689842Y502460D01*
G01X678142Y497613D01*
G01X668094Y489904D01*
G01X662330Y484140D01*
G01X656091Y501722D01*
G01X647020Y518025D01*
G01X635369Y532595D01*
G01X621462Y545031D01*
G01X605683Y554985D01*
G01X752331Y554985D01*
G37*
G36*
G01X709505Y918156D02*
G01X724657Y914475D01*
G01X740249Y914433D01*
G01X755421Y918034D01*
G01X769332Y925078D01*
G01X778483Y921755D01*
G01X769361Y918447D01*
G01X761462Y912813D01*
G01X755365Y905264D01*
G01X751518Y896356D01*
G01X750203Y886742D01*
G01X750203Y836012D01*
G01X720604Y806413D01*
G01X709505Y806413D01*
G01X709505Y918156D01*
G37*
G36*
G01X855670Y554985D02*
G01X952330Y554985D01*
G01X937517Y545751D01*
G01X924319Y534327D01*
G01X913055Y520992D01*
G01X904000Y506069D01*
G01X894945Y520992D01*
G01X883681Y534327D01*
G01X870483Y545751D01*
G01X855670Y554985D01*
G37*
G54D10*
G01X39814Y263900D02*
G01X39814Y2988035D01*
G03X133895Y2987398I47357J46421D01*
G03X217945Y2979644I46724J47058D01*
G03X292100Y2981023I36055J55656D01*
G03X396507Y3034324I38100J54277D01*
G03X407104Y3037840I-15507J64476D01*
G01X570461Y3037840D01*
G03X597813Y2967694I64539J-15240D01*
G03X673100Y2968323I37187J54906D01*
G03X749300Y2968323I38100J54277D01*
G03X825500Y2968323I38100J54277D01*
G03X863600Y2956286I38100J54277D01*
G03X901700Y2968323I0J66314D01*
G03X982150Y2971570I38100J54277D01*
G03X1066800Y2964523I46550J47230D01*
G03X1143000Y2964523I38100J54277D01*
G03X1219200Y2964523I38100J54277D01*
G03X1295400Y2964523I38100J54277D01*
G03X1337561Y2952610I38100J54277D01*
G03X1377950Y2969589I-4061J66190D01*
G03X1460500Y2964523I44450J49211D01*
G03X1536700Y2964523I38100J54277D01*
G03X1612900Y2964523I38100J54277D01*
G03X1651000Y2952486I38100J54277D01*
G03X1689100Y2964523I0J66314D01*
G03X1768186Y2966668I38100J54277D01*
G01X1768186Y1008288D01*
G03X1740373Y1021540I-27813J-22562D01*
G01X1661431Y1021540D01*
G01X1661431Y1103716D01*
G03X1733695Y1110326I31076J58582D01*
G03X1756639Y1179169I-41188J51972D01*
G03X1764374Y1201400I-28079J22231D01*
G01X1764374Y1287800D01*
G03X1747471Y1318214I-35814J0D01*
G03X1754258Y1354254I-59235J29813D01*
G03X1764374Y1379200I-25697J24946D01*
G01X1764374Y1465600D01*
G03X1728560Y1501414I-35814J0D01*
G01X1661431Y1501414D01*
G01X1661431Y1535911D01*
G03X1737918Y1585346I12076J65205D01*
G03X1692921Y1664525I-64411J15771D01*
G01X1692921Y1804316D01*
G03X1679795Y1836004I-44814J0D01*
G01X1287015Y2228784D01*
G03X1255327Y2241910I-31688J-31688D01*
G01X1228007Y2241910D01*
G03X1150386Y2256858I-48880J-44814D01*
G03X1113604Y2186890I28741J-59762D01*
G01X816452Y2186890D01*
G03X806571Y2219771I-66284J-1994D01*
G01X875218Y2219771D01*
G03X906907Y2232897I0J44814D01*
G01X973943Y2299934D01*
G03X1039498Y2344535I2875J66252D01*
G03X1015445Y2420088I-62680J21650D01*
G03X1038448Y2436331I-25877J61057D01*
G01X1294367Y2436331D01*
G03X1326056Y2449457I0J44814D01*
G01X1367692Y2491093D01*
G03X1435773Y2545270I2875J66252D01*
G01X1471052Y2509990D01*
G03X1505357Y2495781I34305J34305D01*
G01X1573787Y2495781D01*
G03X1685311Y2544295I45210J48514D01*
G03X1573787Y2592809I-66314J0D01*
G01X1525452Y2592809D01*
G01X1412550Y2705711D01*
G03X1299386Y2750266I-66273J-2336D01*
G03X1343941Y2637102I46891J-46891D01*
G01X1358493Y2622550D01*
G03X1304316Y2554470I12075J-65205D01*
G01X1275805Y2525959D01*
G01X1038448Y2525959D01*
G03X939944Y2525134I-48880J-44814D01*
G03X950941Y2427242I49624J-43989D01*
G03X921213Y2402318I25877J-61057D01*
G03X871175Y2431166I-54834J-37293D01*
G03X817498Y2409839I-4796J-66140D01*
G01X335847Y2409839D01*
G03X312335Y2418638I-23512J-27015D01*
G01X231687Y2418638D01*
G03X196675Y2390358I0J-35814D01*
G03X161662Y2418638I-35013J-7534D01*
G01X81015Y2418638D01*
G03X45201Y2382824I0J-35814D01*
G01X45201Y2296423D01*
G03X81015Y2260609I35814J0D01*
G01X161662Y2260609D01*
G03X196675Y2288889I0J35814D01*
G03X231687Y2260609I35013J7534D01*
G01X312335Y2260609D01*
G03X348149Y2296423I0J35814D01*
G01X348149Y2320211D01*
G01X817498Y2320211D01*
G03X830277Y2309399I48880J44814D01*
G01X443419Y2309399D01*
G03X411731Y2296274I0J-44814D01*
G01X395494Y2280037D01*
G03X326464Y2218372I-2875J-66252D01*
G03X312335Y2221277I-14129J-32909D01*
G01X231687Y2221277D01*
G03X196675Y2192997I0J-35814D01*
G03X161662Y2221277I-35013J-7534D01*
G01X81015Y2221277D01*
G03X45201Y2185463I0J-35814D01*
G01X45201Y2099063D01*
G03X81015Y2063249I35814J0D01*
G01X161662Y2063249D01*
G03X196675Y2091529I0J35814D01*
G03X231687Y2063249I35013J7534D01*
G01X312335Y2063249D01*
G03X348113Y2097452I0J35814D01*
G01X642888Y2097452D01*
G03X617621Y2010590I33931J-56976D01*
G03X702514Y1979343I59198J29886D01*
G01X702514Y1860059D01*
G01X499423Y1656968D01*
G01X499423Y1755334D01*
G01X502534Y1758445D01*
G03X552300Y1871588I2875J66252D01*
G03X439157Y1821822I-46891J-46891D01*
G01X422921Y1805585D01*
G03X409795Y1773897I31688J-31688D01*
G01X409795Y808699D01*
G01X409853Y806413D01*
G01X347704Y806413D01*
G01X272523Y881594D01*
G01X272523Y982000D01*
G03X236709Y1017814I-35814J0D01*
G01X113709Y1017814D01*
G03X77895Y982000I0J-35814D01*
G01X77895Y796000D01*
G03X113709Y760186I35814J0D01*
G01X236709Y760186D01*
G03X252863Y764036I0J35814D01*
G01X293305Y723594D01*
G03X327609Y709385I34305J34305D01*
G01X740699Y709385D01*
G03X775003Y723594I0J48514D01*
G01X821690Y770281D01*
G01X872418Y770281D01*
G03X908232Y806095I0J35814D01*
G01X908232Y886742D01*
G03X879952Y921755I-35814J0D01*
G03X908232Y956767I-7534J35013D01*
G01X908232Y973984D01*
G01X933104Y973984D01*
G01X933104Y768498D01*
G03X947313Y734194I48514J0D01*
G01X1029495Y652013D01*
G01X549999Y652013D01*
G03X515694Y637803I0J-48514D01*
G01X414095Y536204D01*
G03X399885Y501899I34305J-34305D01*
G01X399885Y414764D01*
G03X154465Y145302I-95884J-159163D01*
G03X484381Y300208I149536J110298D01*
G01X490294Y294295D01*
G03X524599Y280085I34305J34305D01*
G01X570931Y280085D01*
G03X747076Y168155I108076J-24485D01*
G03X681789Y366380I-68069J87445D01*
G01X710035Y394627D01*
G03X904000Y405130I93965J60973D01*
G03X1082727Y375919I100000J50470D01*
G03X1055669Y554985I-78728J79681D01*
G01X1202342Y554985D01*
G03X1254012Y343586I51670J-99385D01*
G03X1305682Y554985I0J112014D01*
G01X1372342Y554985D01*
G03X1453537Y514577I62155J23114D01*
G03X1499119Y592985I-19040J63522D01*
G01X1680044Y592985D01*
G03X1768186Y604877I38525J47055D01*
G01X1768186Y546985D01*
G03X1690697Y565873I-49617J-35163D01*
G03X1661148Y491791I27871J-54051D01*
G03X1654261Y380017I32018J-58072D01*
G03X1658334Y375231I38906J28982D01*
G03X1704160Y324522I60235J8373D01*
G03X1768186Y348441I14409J59082D01*
G01X1768186Y263900D01*
G02X1554000Y49714I-214186J0D01*
G01X254000Y49714D01*
G02X39814Y263900I0J214186D01*
G01X800033Y2547397D02*
G03X750267Y2434254I-2875J-66252D01*
G03X863410Y2484020I46891J46891D01*
G01X938071Y2558681D01*
G01X1150028Y2558681D01*
G03X1265222Y2603495I48880J44814D01*
G03X1150028Y2648309I-66314J0D01*
G01X919508Y2648309D01*
G03X887820Y2635183I0J-44814D01*
G01X800033Y2547397D01*
G01X1018178Y255600D02*
G03X1239808Y255600I110815J0D01*
G03X1018178Y255600I-110815J0D01*
G01X1318185Y255600D02*
G03X1689812Y255600I185814J0D01*
G03X1318185Y255600I-185814J0D01*
G01X499423Y1097238D02*
G01X513281Y1083380D01*
G03X544969Y1070254I31688J31688D01*
G01X697369Y1070254D01*
G03X729057Y1083380I0J44814D01*
G01X1041113Y1395436D01*
G03X1073163Y1371600I54386J39664D01*
G03X1073163Y1244600I22336J-63500D01*
G03X1095499Y1113786I22336J-63500D01*
G01X1218999Y1113786D01*
G03X1241335Y1244600I0J67314D01*
G03X1278152Y1340226I-22336J63500D01*
G01X1324196Y1386269D01*
G03X1337321Y1417957I-31688J31688D01*
G01X1337321Y1450195D01*
G01X1351872Y1464745D01*
G03X1360943Y1454517I53885J38652D01*
G01X1360943Y1376397D01*
G03X1374069Y1344709I44814J0D01*
G01X1461426Y1257352D01*
G01X1461426Y1201400D01*
G03X1497240Y1165586I35814J0D01*
G01X1571803Y1165586D01*
G01X1571803Y979291D01*
G01X1437260Y1113834D01*
G03X1324096Y1158389I-66273J-2336D01*
G03X1368651Y1045225I46891J-46891D01*
G01X1512983Y900893D01*
G01X1512983Y877308D01*
G03X1497348Y815292I48514J-45210D01*
G01X1339205Y815292D01*
G01X1339205Y985726D01*
G03X1303391Y1021540I-35814J0D01*
G01X1180392Y1021540D01*
G03X1144578Y985726I0J-35814D01*
G01X1144578Y828528D01*
G01X1136832Y836273D01*
G01X1136832Y887004D01*
G03X1108552Y922016I-35814J0D01*
G03X1136832Y957029I-7534J35013D01*
G01X1136832Y1037677D01*
G03X1101018Y1073491I-35814J0D01*
G01X1014617Y1073491D01*
G03X986763Y1060189I0J-35814D01*
G03X956218Y1071012I-30545J-37691D01*
G01X884823Y1071012D01*
G03X872418Y1073229I-12405J-33597D01*
G01X786017Y1073229D01*
G03X750828Y1044076I0J-35814D01*
G03X677780Y1017579I-18200J-63768D01*
G03X673691Y1017814I-4089J-35580D01*
G01X550691Y1017814D01*
G03X514877Y982000I0J-35814D01*
G01X514877Y811807D01*
G01X499423Y827261D01*
G01X499423Y1097238D01*
G01X779017Y1809808D02*
G03X792142Y1841496I-31688J31688D01*
G01X792142Y2026133D01*
G01X816691Y2050682D01*
G01X1084365Y2050682D01*
G01X1112876Y2022171D01*
G03X1130093Y1974651I66252J-2875D01*
G01X1129349Y1973924D01*
G01X1078550Y1923124D01*
G03X1065424Y1891436I31688J-31688D01*
G01X1065424Y1833799D01*
G01X946779Y1715154D01*
G03X871138Y1740033I-54390J-37937D01*
G03X826137Y1674342I21250J-62817D01*
G01X753904Y1602108D01*
G03X729251Y1610531I-27435J-40012D01*
G03X682501Y1629414I-46750J-48431D01*
G01X598622Y1629414D01*
G01X779017Y1809808D01*
G01X752331Y554985D02*
G03X703037Y504113I51670J-99385D01*
G01X702399Y504113D01*
G03X668094Y489904I0J-48514D01*
G01X662330Y484140D01*
G03X605683Y554985I-108317J-28540D01*
G01X752331Y554985D01*
G01X709505Y918156D02*
G03X769332Y925078I23124J62152D01*
G03X778483Y921755I16685J31690D01*
G03X750203Y886742I7534J-35013D01*
G01X750203Y836012D01*
G01X720604Y806413D01*
G01X709505Y806413D01*
G01X709505Y918156D01*
G01X855670Y554985D02*
G01X952330Y554985D01*
G03X904000Y506069I51670J-99385D01*
G03X855670Y554985I-100000J-50470D01*
G54D11*
G01X121338Y2339623D02*
G01X55361Y2339623D01*
G01X121338Y2339623D02*
G01X121338Y2408478D01*
G01X121338Y2339623D02*
G01X121338Y2270769D01*
G01X121338Y2142263D02*
G01X55361Y2142263D01*
G01X121338Y2142263D02*
G01X121338Y2211117D01*
G01X121338Y2142263D02*
G01X121338Y2073409D01*
G01X612191Y889000D02*
G01X699345Y889000D01*
G01X612191Y889000D02*
G01X525037Y889000D01*
G01X612191Y889000D02*
G01X612191Y1007654D01*
G01X1241891Y892726D02*
G01X1154738Y892726D01*
G01X1241891Y892726D02*
G01X1329045Y892726D01*
G01X1241891Y892726D02*
G01X1241891Y1011380D01*
G01X1718569Y511822D02*
G01X1718569Y562476D01*
G01X1718569Y511822D02*
G01X1667915Y511822D01*
G01X1157249Y1181100D02*
G01X1157249Y1123946D01*
G01X1157249Y1181100D02*
G01X1276153Y1181100D01*
G01X1157249Y1181100D02*
G01X1038346Y1181100D01*
G01X304001Y255600D02*
G01X128347Y255600D01*
G01X304001Y255600D02*
G01X479655Y255600D01*
G01X304001Y255600D02*
G01X304001Y431254D01*
G01X304001Y255600D02*
G01X304001Y79947D01*
G01X1503999Y255600D02*
G01X1328345Y255600D01*
G01X1503999Y255600D02*
G01X1679652Y255600D01*
G01X1503999Y255600D02*
G01X1503999Y431254D01*
G01X1503999Y255600D02*
G01X1503999Y79947D01*
G04 Copper End*

G04 PolygonModel Start*
G01X708099Y2692705D02*
G01X315951Y2692705D01*
G01X315951Y2692705D01*

G04 Pad Start*
G54D12*
G01X1057818Y846680D03*
G01X1057818Y997353D03*
G01X829218Y846418D03*
G01X829218Y997091D03*
G54D13*
G01X1241891Y892726D03*
G01X1678873Y892726D03*
G01X612191Y889000D03*
G01X175209Y889000D03*
G54D14*
G01X1718569Y640040D03*
G01X1718569Y383604D03*
G01X1718569Y511822D03*
G54D15*
G01X554013Y455600D03*
G01X804000Y455600D03*
G01X1004000Y455600D03*
G01X1254012Y455600D03*
G54D17*
G01X304001Y255600D03*
G01X1503999Y255600D03*
G54D18*
G01X1537564Y1422400D03*
G01X1688236Y1422400D03*
G01X1537564Y1244600D03*
G01X1688236Y1244600D03*
G01X272011Y2142263D03*
G01X121338Y2142263D03*
G01X272011Y2339623D03*
G01X121338Y2339623D03*
G54D19*
G01X1157249Y1562100D03*
G01X1157249Y1435100D03*
G01X1157249Y1308100D03*
G01X1157249Y1181100D03*
G01X620751Y1562100D03*
G01X620751Y1435100D03*
G01X620751Y1308100D03*
G01X620751Y1181100D03*
G04 Pad End*

G04 Via Start*
G54D20*
G01X1259268Y1612897D03*
G01X1692507Y1162298D03*
G01X1688237Y1348027D03*
G01X828069Y1435097D03*
G01X892388Y1677217D03*
G01X1405757Y1503397D03*
G01X1521107Y1739896D03*
G01X1361387Y1757196D03*
G01X1493377Y1498597D03*
G01X750168Y2184896D03*
G01X866378Y2365025D03*
G01X1179127Y2019296D03*
G01X1179127Y2197096D03*
G01X1673507Y1601116D03*
G01X1179968Y1750067D03*
G01X1179968Y1880857D03*
G01X505409Y1824697D03*
G01X676819Y2040476D03*
G01X1618997Y2544295D03*
G01X1346277Y2703375D03*
G01X1693167Y433719D03*
G01X1370987Y1111498D03*
G01X1561497Y832098D03*
G01X1434497Y578099D03*
G01X797158Y2481145D03*
G01X1198908Y2603495D03*
G01X989568Y2481145D03*
G01X1370567Y2557345D03*
G01X1279287Y1257297D03*
G01X1495897Y888288D03*
G01X380999Y1326997D03*
G01X203199Y1352397D03*
G01X108820Y2241705D03*
G01X197540Y2635225D03*
G01X685799Y1961996D03*
G01X732628Y980308D03*
G01X888998Y1517797D03*
G01X1364237Y1840636D03*
G01X392619Y2213786D03*
G01X976818Y2366185D03*
G01X87171Y3034456D03*
G01X180618Y3034456D03*
G01X254000Y3035300D03*
G01X635000Y3022600D03*
G01X711200Y3022600D03*
G01X787400Y3022600D03*
G01X863600Y3022600D03*
G01X939800Y3022600D03*
G01X1028700Y3018800D03*
G01X1104900Y3018800D03*
G01X1181100Y3018800D03*
G01X1257300Y3018800D03*
G01X1333500Y3018800D03*
G01X1422400Y3018800D03*
G01X1498600Y3018800D03*
G01X1574800Y3018800D03*
G01X1651000Y3018800D03*
G01X1727200Y3018800D03*
G01X889000Y3090550D03*
G01X965200Y3090550D03*
G01X1041400Y3090550D03*
G01X1117600Y3090550D03*
G01X1193800Y3090550D03*
G01X1282700Y3086750D03*
G01X1358900Y3086750D03*
G01X1435100Y3086750D03*
G01X1511300Y3086750D03*
G01X1587500Y3086750D03*
G01X1663700Y3098800D03*
G01X660400Y3086100D03*
G01X736600Y3086100D03*
G01X812800Y3086100D03*
G01X76200Y3111500D03*
G01X152400Y3111500D03*
G01X228600Y3111500D03*
G01X1739900Y3098800D03*
G01X494436Y2815914D03*
G01X152400Y2819400D03*
G01X330200Y3035300D03*
G01X381000Y3098800D03*
G01X304800Y3111500D03*
G54D21*
G01X1026367Y1937180D03*
G01X1026367Y2037180D03*
G01X826393Y1937205D03*
G01X826393Y2037180D03*
G01X1026367Y1837180D03*
G01X826367Y1837180D03*
G01X926367Y1937180D03*
G01X926418Y1837231D03*
G01X926367Y2037180D03*
G04 Via End*

G04 Track Start*
G54D22*
G01X1157248Y1562097D02*
G01X1208468Y1562097D01*
G01X1259268Y1612897D01*
G54D11*
G01X1692507Y1162298D02*
G01X1692507Y1240327D01*
G01X1688237Y1244597D01*
G01X1688237Y1348027D02*
G01X1688237Y1422397D01*
G01X620749Y1562097D02*
G01X726469Y1562097D01*
G01X828069Y1460497D01*
G01X828069Y1435097D01*
G54D22*
G01X777269Y1511297D02*
G01X777269Y1562097D01*
G01X892388Y1677217D01*
G01X1405757Y1503397D02*
G01X1405757Y1376397D01*
G01X1537557Y1244597D01*
G01X1157248Y1435097D02*
G01X1216307Y1435097D01*
G01X1521107Y1739896D01*
G01X1157248Y1308097D02*
G01X1182648Y1308097D01*
G01X1292507Y1417957D01*
G01X1292507Y1468757D01*
G01X1495707Y1671957D01*
G01X1555547Y1671957D01*
G01X1580947Y1697357D01*
G01X1580947Y1773557D01*
G01X1555547Y1798957D01*
G01X1403147Y1798957D01*
G01X1361387Y1757196D01*
G01X1493377Y1498597D02*
G01X1493377Y1466577D01*
G01X1537557Y1422397D01*
G01X750168Y2184896D02*
G01X707539Y2142266D01*
G01X272020Y2142266D01*
G01X866378Y2365025D02*
G01X297420Y2365025D01*
G01X272020Y2339625D01*
G01X620749Y1435097D02*
G01X594928Y1435097D01*
G01X493329Y1536697D01*
G01X493329Y1587497D01*
G01X747328Y1841496D01*
G01X747328Y2044696D01*
G01X798128Y2095496D01*
G01X1102927Y2095496D01*
G01X1179127Y2019296D01*
G01X1179127Y2197096D02*
G01X1255327Y2197096D01*
G01X1648107Y1804316D01*
G01X1648107Y1626516D01*
G01X1673507Y1601116D01*
G01X620749Y1308097D02*
G01X585599Y1308097D01*
G01X494169Y1216668D01*
G01X494169Y1165868D01*
G01X544969Y1115068D01*
G01X697369Y1115068D01*
G01X1027568Y1445267D01*
G01X1027568Y1597667D01*
G01X1179968Y1750067D01*
G01X620749Y1181098D02*
G01X722769Y1181098D01*
G01X976768Y1435097D01*
G01X976768Y1626857D01*
G01X1179968Y1830057D01*
G01X1179968Y1880857D01*
G54D11*
G01X175210Y888998D02*
G01X196510Y888998D01*
G01X327609Y757899D01*
G01X740699Y757899D01*
G01X829218Y846418D01*
G54D22*
G01X505409Y757899D02*
G01X454609Y808699D01*
G01X454609Y1773897D01*
G01X505409Y1824697D01*
G54D11*
G01X1678877Y892728D02*
G01X1678877Y863229D01*
G01X1577277Y761629D01*
G01X1142867Y761629D01*
G01X1057818Y846678D01*
G54D22*
G01X1057818Y846678D02*
G01X1134018Y770479D01*
G01X1591217Y770479D01*
G01X1616617Y795879D01*
G01X1616617Y1786476D01*
G01X1261018Y2142076D01*
G01X803818Y2142076D01*
G01X702219Y2040476D01*
G01X676819Y2040476D01*
G54D11*
G01X1618997Y2544295D02*
G01X1505357Y2544295D01*
G01X1346277Y2703375D01*
G01X1693167Y433719D02*
G01X1693167Y408999D01*
G01X1718567Y383599D01*
G01X1370987Y1111498D02*
G01X1561497Y920988D01*
G01X1561497Y832098D01*
G01X1434497Y578099D02*
G01X1409097Y603499D01*
G01X549999Y603499D01*
G01X448399Y501899D01*
G01X448399Y404799D01*
G01X524599Y328599D01*
G01X575399Y328599D01*
G01X702399Y455599D01*
G01X803998Y455599D01*
G54D22*
G01X797158Y2481145D02*
G01X919508Y2603495D01*
G01X1198908Y2603495D01*
G01X989568Y2481145D02*
G01X1294367Y2481145D01*
G01X1370567Y2557345D01*
G54D11*
G01X1279287Y1257297D02*
G01X1203087Y1181098D01*
G01X1157248Y1181098D01*
G01X1203087Y1181098D02*
G01X1241897Y1142287D01*
G01X1241897Y964488D02*
G01X1419697Y964488D01*
G01X1495897Y888288D01*
G01X380999Y1326997D02*
G01X279399Y1326997D01*
G01X253999Y1352397D01*
G01X203199Y1352397D01*
G01X1157248Y1181098D02*
G01X827048Y1181098D01*
G01X623849Y977898D01*
G01X623849Y900658D01*
G01X612189Y888998D01*
G01X554009Y455599D02*
G01X661029Y562619D01*
G01X1296027Y562619D01*
G01X1346827Y511819D01*
G01X1499227Y511819D02*
G01X1499227Y260370D01*
G01X1503997Y255599D01*
G01X203199Y1352397D02*
G01X203199Y1752397D01*
G01X127000Y1828596D01*
G01X127000Y2136606D02*
G01X121340Y2142266D01*
G01X121340Y2287505D02*
G01X108820Y2300025D01*
G01X121340Y2559025D02*
G01X197540Y2635225D01*
G01X127000Y1936596D02*
G01X660399Y1936596D01*
G01X685799Y1961996D01*
G01X732628Y980308D02*
G01X812428Y980308D01*
G01X829218Y997098D01*
G01X854618Y1022498D01*
G01X956218Y1022498D01*
G01X981618Y997098D01*
G01X1057558Y997098D01*
G54D22*
G01X888998Y1517797D02*
G01X888998Y1593997D01*
G01X1110238Y1815236D01*
G01X1110238Y1891436D01*
G01X1161038Y1942236D01*
G01X1262638Y1942236D01*
G01X1364237Y1840636D01*
G01X392619Y2213786D02*
G01X443419Y2264586D01*
G01X875218Y2264586D01*
G01X976818Y2366185D01*
G54D11*
G01X981618Y997098D02*
G01X981618Y768499D01*
G01X1108618Y641499D01*
G01X1717107Y641499D01*
G01X1718567Y640039D01*
G01X1241897Y1142287D02*
G01X1241897Y964488D01*
G01X1241897Y892728D01*
G01X1346827Y511819D02*
G01X1499227Y511819D01*
G01X1718567Y511819D01*
G01X127000Y1828596D02*
G01X127000Y1936596D01*
G01X127000Y2136606D01*
G01X108820Y2300025D02*
G01X108820Y2241705D01*
G01X121340Y2339625D02*
G01X121340Y2559025D01*
G01X494436Y2815914D02*
G01X490951Y2819400D01*
G01X152400Y2819400D01*
G01X121340Y2142266D02*
G01X121340Y2287505D01*
G04 Track End*

M02*

