G04 Layer: DrillDrawingLayer*
G04 EasyEDA Pro v3.2.121, 2026-05-20 00:31:31*
G04 Gerber Generator version 0.3*
G04 Scale: 100 percent, Rotated: No, Reflected: No*
G04 Dimensions in millimeters*
G04 Leading zeros omitted, absolute positions, 4 integers and 5 decimals*
G04 Generated by one-click*
%FSLAX45Y45*%
%MOMM*%
%AMIconRect*4,1,4,0.28,-0.28,-0.28,-0.28,-0.28,0.28,0.28,0.28,0.28,-0.28,0*4,0,4,0.233333,-0.233333,0.233333,0.233333,-0.233333,0.233333,-0.233333,-0.233333,0.233333,-0.233333,0*%
%AMIconTriangle*4,1,3,-0.339593,0.240473,0.339593,0.240473,0,-0.37884,-0.339593,0.240473,0*4,0,3,-0.265673,0.19404,0,-0.27342,0.266233,0.19404,-0.265673,0.19404,0*%
%AMIconStar6*4,1,12,0.12068,0.20888,0.298527,0.172713,0.241313,0,0.298527,-0.17206,0.12068,-0.208227,0,-0.344073,-0.120073,-0.208227,-0.298573,-0.17206,-0.240707,0,-0.298573,0.17206,-0.120073,0.20888,0,0.344073,0.12068,0.20888,0*4,0,12,-0.000467,0.273467,-0.090067,0.171733,-0.237533,0.136733,-0.193667,-0.007467,-0.237533,-0.1372,-0.090067,-0.171733,-0.000467,-0.273933,0.090067,-0.171733,0.237533,-0.1372,0.194133,0.007,0.237533,0.1372,0.090067,0.171267,-0.000467,0.273467,0*%
%AMIconStar4*4,1,8,-0.311733,0.311733,0,0.202533,0.311733,0.311733,0.202533,0,0.311733,-0.311733,0,-0.202533,-0.304407,-0.311733,-0.202533,0,-0.311733,0.311733,0*4,0,8,0.233333,-0.233333,0.1512,0,0.233333,0.233333,0,0.1512,-0.233333,0.233333,-0.1512,0,-0.233333,-0.233333,0,-0.1512,0.233333,-0.233333,0*%
%ADD10IconRect*%
%ADD11C,0.616X0.522667*%
%ADD12IconTriangle*%
%ADD13IconStar6*%
%ADD14IconStar4*%
%ADD15C,0.2032*%
%ADD16C,0.254*%
G75*


G04 Drill Drawing Start*
G54D10*
G01X1600200Y3314700D03*
G54D11*
G01X304001Y255600D03*
G01X1503999Y255600D03*
G54D12*
G01X679007Y255600D03*
G01X1128993Y255600D03*
G54D13*
G01X553996Y455600D03*
G01X803995Y455600D03*
G01X1003995Y455600D03*
G01X1253994Y455600D03*
G54D14*
G01X76200Y3111500D03*
G01X87171Y3034456D03*
G01X108820Y2241705D03*
G01X152400Y2819400D03*
G01X152400Y3111500D03*
G01X180618Y3034456D03*
G01X197540Y2635225D03*
G01X203199Y1352397D03*
G01X228600Y3111500D03*
G01X254000Y3035300D03*
G01X304800Y3111500D03*
G01X330200Y3035300D03*
G01X380999Y1326997D03*
G01X381000Y3098800D03*
G01X392619Y2213786D03*
G01X494436Y2815914D03*
G01X505409Y1824697D03*
G01X635000Y3022600D03*
G01X660400Y3086100D03*
G01X676819Y2040476D03*
G01X685799Y1961996D03*
G01X711200Y3022600D03*
G01X732628Y980308D03*
G01X736600Y3086100D03*
G01X750168Y2184896D03*
G01X787400Y3022600D03*
G01X797158Y2481145D03*
G01X812800Y3086100D03*
G01X826367Y1837180D03*
G01X826393Y1937205D03*
G01X826393Y2037180D03*
G01X828069Y1435097D03*
G01X863600Y3022600D03*
G01X866378Y2365025D03*
G01X888998Y1517797D03*
G01X889000Y3090550D03*
G01X892388Y1677217D03*
G01X926367Y1937180D03*
G01X926367Y2037180D03*
G01X926418Y1837231D03*
G01X939800Y3022600D03*
G01X965200Y3090550D03*
G01X976818Y2366185D03*
G01X989568Y2481145D03*
G01X1026367Y1837180D03*
G01X1026367Y1937180D03*
G01X1026367Y2037180D03*
G01X1028700Y3018800D03*
G01X1041400Y3090550D03*
G01X1104900Y3018800D03*
G01X1117600Y3090550D03*
G01X1179127Y2019296D03*
G01X1179127Y2197096D03*
G01X1179968Y1750067D03*
G01X1179968Y1880857D03*
G01X1181100Y3018800D03*
G01X1193800Y3090550D03*
G01X1198908Y2603495D03*
G01X1257300Y3018800D03*
G01X1259268Y1612897D03*
G01X1279287Y1257297D03*
G01X1282700Y3086750D03*
G01X1333500Y3018800D03*
G01X1346277Y2703375D03*
G01X1358900Y3086750D03*
G01X1361387Y1757196D03*
G01X1364237Y1840636D03*
G01X1370567Y2557345D03*
G01X1370987Y1111498D03*
G01X1405757Y1503397D03*
G01X1422400Y3018800D03*
G01X1434497Y578099D03*
G01X1435100Y3086750D03*
G01X1493377Y1498597D03*
G01X1495897Y888288D03*
G01X1498600Y3018800D03*
G01X1511300Y3086750D03*
G01X1521107Y1739896D03*
G01X1561497Y832098D03*
G01X1574800Y3018800D03*
G01X1587500Y3086750D03*
G01X1618997Y2544295D03*
G01X1651000Y3018800D03*
G01X1663700Y3098800D03*
G01X1673507Y1601116D03*
G01X1688237Y1348027D03*
G01X1692507Y1162298D03*
G01X1693167Y433719D03*
G01X1727200Y3018800D03*
G01X1739900Y3098800D03*
G04 Drill Drawing End*

G04 Text Start*
G54D15*
G01X4104446Y3292194D02*
G01X4104446Y3172052D01*
G01X4104446Y3292194D02*
G01X4150166Y3172052D01*
G01X4195886Y3292194D02*
G01X4150166Y3172052D01*
G01X4195886Y3292194D02*
G01X4195886Y3172052D01*
G01X4312218Y3252062D02*
G01X4312218Y3172052D01*
G01X4312218Y3235044D02*
G01X4300788Y3246474D01*
G01X4289358Y3252062D01*
G01X4272340Y3252062D01*
G01X4260910Y3246474D01*
G01X4249480Y3235044D01*
G01X4243638Y3217772D01*
G01X4243638Y3206342D01*
G01X4249480Y3189324D01*
G01X4260910Y3177894D01*
G01X4272340Y3172052D01*
G01X4289358Y3172052D01*
G01X4300788Y3177894D01*
G01X4312218Y3189324D01*
G01X4359970Y3252062D02*
G01X4359970Y3172052D01*
G01X4359970Y3217772D02*
G01X4365812Y3235044D01*
G01X4377242Y3246474D01*
G01X4388672Y3252062D01*
G01X4405690Y3252062D01*
G01X4453442Y3292194D02*
G01X4453442Y3172052D01*
G01X4510592Y3252062D02*
G01X4453442Y3194912D01*
G01X4476302Y3217772D02*
G01X4516434Y3172052D01*
G01X5641726Y3263492D02*
G01X5635884Y3274922D01*
G01X5624454Y3286352D01*
G01X5613024Y3292194D01*
G01X5590164Y3292194D01*
G01X5578734Y3286352D01*
G01X5567304Y3274922D01*
G01X5561716Y3263492D01*
G01X5555874Y3246474D01*
G01X5555874Y3217772D01*
G01X5561716Y3200754D01*
G01X5567304Y3189324D01*
G01X5578734Y3177894D01*
G01X5590164Y3172052D01*
G01X5613024Y3172052D01*
G01X5624454Y3177894D01*
G01X5635884Y3189324D01*
G01X5641726Y3200754D01*
G01X5718180Y3252062D02*
G01X5706750Y3246474D01*
G01X5695320Y3235044D01*
G01X5689478Y3217772D01*
G01X5689478Y3206342D01*
G01X5695320Y3189324D01*
G01X5706750Y3177894D01*
G01X5718180Y3172052D01*
G01X5735198Y3172052D01*
G01X5746628Y3177894D01*
G01X5758058Y3189324D01*
G01X5763900Y3206342D01*
G01X5763900Y3217772D01*
G01X5758058Y3235044D01*
G01X5746628Y3246474D01*
G01X5735198Y3252062D01*
G01X5718180Y3252062D01*
G01X5811652Y3252062D02*
G01X5811652Y3194912D01*
G01X5817494Y3177894D01*
G01X5828924Y3172052D01*
G01X5845942Y3172052D01*
G01X5857372Y3177894D01*
G01X5874644Y3194912D01*
G01X5874644Y3252062D02*
G01X5874644Y3172052D01*
G01X5922396Y3252062D02*
G01X5922396Y3172052D01*
G01X5922396Y3229202D02*
G01X5939668Y3246474D01*
G01X5951098Y3252062D01*
G01X5968116Y3252062D01*
G01X5979546Y3246474D01*
G01X5985388Y3229202D01*
G01X5985388Y3172052D01*
G01X6050412Y3292194D02*
G01X6050412Y3194912D01*
G01X6056000Y3177894D01*
G01X6067430Y3172052D01*
G01X6078860Y3172052D01*
G01X6033140Y3252062D02*
G01X6073272Y3252062D01*
G01X7050047Y3274922D02*
G01X7038617Y3286352D01*
G01X7021599Y3292194D01*
G01X6998739Y3292194D01*
G01X6981467Y3286352D01*
G01X6970037Y3274922D01*
G01X6970037Y3263492D01*
G01X6975879Y3252062D01*
G01X6981467Y3246474D01*
G01X6992897Y3240632D01*
G01X7027187Y3229202D01*
G01X7038617Y3223614D01*
G01X7044459Y3217772D01*
G01X7050047Y3206342D01*
G01X7050047Y3189324D01*
G01X7038617Y3177894D01*
G01X7021599Y3172052D01*
G01X6998739Y3172052D01*
G01X6981467Y3177894D01*
G01X6970037Y3189324D01*
G01X7097799Y3292194D02*
G01X7103641Y3286352D01*
G01X7109229Y3292194D01*
G01X7103641Y3297782D01*
G01X7097799Y3292194D01*
G01X7103641Y3252062D02*
G01X7103641Y3172052D01*
G01X7219973Y3252062D02*
G01X7156981Y3172052D01*
G01X7156981Y3252062D02*
G01X7219973Y3252062D01*
G01X7156981Y3172052D02*
G01X7219973Y3172052D01*
G01X7267725Y3217772D02*
G01X7336305Y3217772D01*
G01X7336305Y3229202D01*
G01X7330717Y3240632D01*
G01X7324875Y3246474D01*
G01X7313445Y3252062D01*
G01X7296427Y3252062D01*
G01X7284997Y3246474D01*
G01X7273567Y3235044D01*
G01X7267725Y3217772D01*
G01X7267725Y3206342D01*
G01X7273567Y3189324D01*
G01X7284997Y3177894D01*
G01X7296427Y3172052D01*
G01X7313445Y3172052D01*
G01X7324875Y3177894D01*
G01X7336305Y3189324D01*
G01X10841143Y3292194D02*
G01X10841143Y3172052D01*
G01X10841143Y3292194D02*
G01X10892705Y3292194D01*
G01X10909723Y3286352D01*
G01X10915565Y3280764D01*
G01X10921153Y3269334D01*
G01X10921153Y3252062D01*
G01X10915565Y3240632D01*
G01X10909723Y3235044D01*
G01X10892705Y3229202D01*
G01X10841143Y3229202D01*
G01X10968905Y3292194D02*
G01X10968905Y3172052D01*
G01X11085237Y3252062D02*
G01X11085237Y3172052D01*
G01X11085237Y3235044D02*
G01X11073807Y3246474D01*
G01X11062377Y3252062D01*
G01X11045359Y3252062D01*
G01X11033929Y3246474D01*
G01X11022499Y3235044D01*
G01X11016657Y3217772D01*
G01X11016657Y3206342D01*
G01X11022499Y3189324D01*
G01X11033929Y3177894D01*
G01X11045359Y3172052D01*
G01X11062377Y3172052D01*
G01X11073807Y3177894D01*
G01X11085237Y3189324D01*
G01X11150261Y3292194D02*
G01X11150261Y3194912D01*
G01X11155849Y3177894D01*
G01X11167279Y3172052D01*
G01X11178709Y3172052D01*
G01X11132989Y3252062D02*
G01X11173121Y3252062D01*
G01X11226461Y3217772D02*
G01X11295041Y3217772D01*
G01X11295041Y3229202D01*
G01X11289453Y3240632D01*
G01X11283611Y3246474D01*
G01X11272181Y3252062D01*
G01X11255163Y3252062D01*
G01X11243733Y3246474D01*
G01X11232303Y3235044D01*
G01X11226461Y3217772D01*
G01X11226461Y3206342D01*
G01X11232303Y3189324D01*
G01X11243733Y3177894D01*
G01X11255163Y3172052D01*
G01X11272181Y3172052D01*
G01X11283611Y3177894D01*
G01X11295041Y3189324D01*
G01X11411373Y3292194D02*
G01X11411373Y3172052D01*
G01X11411373Y3235044D02*
G01X11399943Y3246474D01*
G01X11388513Y3252062D01*
G01X11371495Y3252062D01*
G01X11360065Y3246474D01*
G01X11348635Y3235044D01*
G01X11342793Y3217772D01*
G01X11342793Y3206342D01*
G01X11348635Y3189324D01*
G01X11360065Y3177894D01*
G01X11371495Y3172052D01*
G01X11388513Y3172052D01*
G01X11399943Y3177894D01*
G01X11411373Y3189324D01*
G01X12382560Y3274922D02*
G01X12371130Y3286352D01*
G01X12354112Y3292194D01*
G01X12331252Y3292194D01*
G01X12313980Y3286352D01*
G01X12302550Y3274922D01*
G01X12302550Y3263492D01*
G01X12308392Y3252062D01*
G01X12313980Y3246474D01*
G01X12325410Y3240632D01*
G01X12359700Y3229202D01*
G01X12371130Y3223614D01*
G01X12376972Y3217772D01*
G01X12382560Y3206342D01*
G01X12382560Y3189324D01*
G01X12371130Y3177894D01*
G01X12354112Y3172052D01*
G01X12331252Y3172052D01*
G01X12313980Y3177894D01*
G01X12302550Y3189324D01*
G01X12430312Y3292194D02*
G01X12430312Y3172052D01*
G01X12430312Y3229202D02*
G01X12447584Y3246474D01*
G01X12459014Y3252062D01*
G01X12476032Y3252062D01*
G01X12487462Y3246474D01*
G01X12493304Y3229202D01*
G01X12493304Y3172052D01*
G01X12609636Y3252062D02*
G01X12609636Y3172052D01*
G01X12609636Y3235044D02*
G01X12598206Y3246474D01*
G01X12586776Y3252062D01*
G01X12569758Y3252062D01*
G01X12558328Y3246474D01*
G01X12546898Y3235044D01*
G01X12541056Y3217772D01*
G01X12541056Y3206342D01*
G01X12546898Y3189324D01*
G01X12558328Y3177894D01*
G01X12569758Y3172052D01*
G01X12586776Y3172052D01*
G01X12598206Y3177894D01*
G01X12609636Y3189324D01*
G01X12657388Y3252062D02*
G01X12657388Y3132174D01*
G01X12657388Y3235044D02*
G01X12668818Y3246474D01*
G01X12680248Y3252062D01*
G01X12697520Y3252062D01*
G01X12708950Y3246474D01*
G01X12720380Y3235044D01*
G01X12725968Y3217772D01*
G01X12725968Y3206342D01*
G01X12720380Y3189324D01*
G01X12708950Y3177894D01*
G01X12697520Y3172052D01*
G01X12680248Y3172052D01*
G01X12668818Y3177894D01*
G01X12657388Y3189324D01*
G01X12773720Y3217772D02*
G01X12842300Y3217772D01*
G01X12842300Y3229202D01*
G01X12836712Y3240632D01*
G01X12830870Y3246474D01*
G01X12819440Y3252062D01*
G01X12802422Y3252062D01*
G01X12790992Y3246474D01*
G01X12779562Y3235044D01*
G01X12773720Y3217772D01*
G01X12773720Y3206342D01*
G01X12779562Y3189324D01*
G01X12790992Y3177894D01*
G01X12802422Y3172052D01*
G01X12819440Y3172052D01*
G01X12830870Y3177894D01*
G01X12842300Y3189324D01*
G01X13733731Y3292194D02*
G01X13779451Y3172052D01*
G01X13825171Y3292194D02*
G01X13779451Y3172052D01*
G01X13872923Y3292194D02*
G01X13878765Y3286352D01*
G01X13884353Y3292194D01*
G01X13878765Y3297782D01*
G01X13872923Y3292194D01*
G01X13878765Y3252062D02*
G01X13878765Y3172052D01*
G01X14000685Y3252062D02*
G01X14000685Y3172052D01*
G01X14000685Y3235044D02*
G01X13989255Y3246474D01*
G01X13977825Y3252062D01*
G01X13960807Y3252062D01*
G01X13949377Y3246474D01*
G01X13937947Y3235044D01*
G01X13932105Y3217772D01*
G01X13932105Y3206342D01*
G01X13937947Y3189324D01*
G01X13949377Y3177894D01*
G01X13960807Y3172052D01*
G01X13977825Y3172052D01*
G01X13989255Y3177894D01*
G01X14000685Y3189324D01*
G01X14151307Y3315054D02*
G01X14048437Y3132174D01*
G01X14199059Y3292194D02*
G01X14199059Y3172052D01*
G01X14199059Y3292194D02*
G01X14250621Y3292194D01*
G01X14267639Y3286352D01*
G01X14273481Y3280764D01*
G01X14279069Y3269334D01*
G01X14279069Y3252062D01*
G01X14273481Y3240632D01*
G01X14267639Y3235044D01*
G01X14250621Y3229202D01*
G01X14199059Y3229202D01*
G01X14395401Y3252062D02*
G01X14395401Y3172052D01*
G01X14395401Y3235044D02*
G01X14383971Y3246474D01*
G01X14372541Y3252062D01*
G01X14355523Y3252062D01*
G01X14344093Y3246474D01*
G01X14332663Y3235044D01*
G01X14326821Y3217772D01*
G01X14326821Y3206342D01*
G01X14332663Y3189324D01*
G01X14344093Y3177894D01*
G01X14355523Y3172052D01*
G01X14372541Y3172052D01*
G01X14383971Y3177894D01*
G01X14395401Y3189324D01*
G01X14511733Y3292194D02*
G01X14511733Y3172052D01*
G01X14511733Y3235044D02*
G01X14500303Y3246474D01*
G01X14488873Y3252062D01*
G01X14471855Y3252062D01*
G01X14460425Y3246474D01*
G01X14448995Y3235044D01*
G01X14443153Y3217772D01*
G01X14443153Y3206342D01*
G01X14448995Y3189324D01*
G01X14460425Y3177894D01*
G01X14471855Y3172052D01*
G01X14488873Y3172052D01*
G01X14500303Y3177894D01*
G01X14511733Y3189324D01*
G01X15402910Y3292194D02*
G01X15402910Y3172052D01*
G01X15402910Y3292194D02*
G01X15454472Y3292194D01*
G01X15471490Y3286352D01*
G01X15477332Y3280764D01*
G01X15482920Y3269334D01*
G01X15482920Y3252062D01*
G01X15477332Y3240632D01*
G01X15471490Y3235044D01*
G01X15454472Y3229202D01*
G01X15402910Y3229202D01*
G01X15599252Y3252062D02*
G01X15599252Y3172052D01*
G01X15599252Y3235044D02*
G01X15587822Y3246474D01*
G01X15576392Y3252062D01*
G01X15559374Y3252062D01*
G01X15547944Y3246474D01*
G01X15536514Y3235044D01*
G01X15530672Y3217772D01*
G01X15530672Y3206342D01*
G01X15536514Y3189324D01*
G01X15547944Y3177894D01*
G01X15559374Y3172052D01*
G01X15576392Y3172052D01*
G01X15587822Y3177894D01*
G01X15599252Y3189324D01*
G01X15715584Y3292194D02*
G01X15715584Y3172052D01*
G01X15715584Y3235044D02*
G01X15704154Y3246474D01*
G01X15692724Y3252062D01*
G01X15675706Y3252062D01*
G01X15664276Y3246474D01*
G01X15652846Y3235044D01*
G01X15647004Y3217772D01*
G01X15647004Y3206342D01*
G01X15652846Y3189324D01*
G01X15664276Y3177894D01*
G01X15675706Y3172052D01*
G01X15692724Y3172052D01*
G01X15704154Y3177894D01*
G01X15715584Y3189324D01*
G01X15971362Y3274922D02*
G01X15959932Y3286352D01*
G01X15942914Y3292194D01*
G01X15920054Y3292194D01*
G01X15902782Y3286352D01*
G01X15891352Y3274922D01*
G01X15891352Y3263492D01*
G01X15897194Y3252062D01*
G01X15902782Y3246474D01*
G01X15914212Y3240632D01*
G01X15948502Y3229202D01*
G01X15959932Y3223614D01*
G01X15965774Y3217772D01*
G01X15971362Y3206342D01*
G01X15971362Y3189324D01*
G01X15959932Y3177894D01*
G01X15942914Y3172052D01*
G01X15920054Y3172052D01*
G01X15902782Y3177894D01*
G01X15891352Y3189324D01*
G01X16019114Y3292194D02*
G01X16019114Y3172052D01*
G01X16019114Y3229202D02*
G01X16036386Y3246474D01*
G01X16047816Y3252062D01*
G01X16064834Y3252062D01*
G01X16076264Y3246474D01*
G01X16082106Y3229202D01*
G01X16082106Y3172052D01*
G01X16198438Y3252062D02*
G01X16198438Y3172052D01*
G01X16198438Y3235044D02*
G01X16187008Y3246474D01*
G01X16175578Y3252062D01*
G01X16158560Y3252062D01*
G01X16147130Y3246474D01*
G01X16135700Y3235044D01*
G01X16129858Y3217772D01*
G01X16129858Y3206342D01*
G01X16135700Y3189324D01*
G01X16147130Y3177894D01*
G01X16158560Y3172052D01*
G01X16175578Y3172052D01*
G01X16187008Y3177894D01*
G01X16198438Y3189324D01*
G01X16246190Y3252062D02*
G01X16246190Y3132174D01*
G01X16246190Y3235044D02*
G01X16257620Y3246474D01*
G01X16269050Y3252062D01*
G01X16286322Y3252062D01*
G01X16297752Y3246474D01*
G01X16309182Y3235044D01*
G01X16314770Y3217772D01*
G01X16314770Y3206342D01*
G01X16309182Y3189324D01*
G01X16297752Y3177894D01*
G01X16286322Y3172052D01*
G01X16269050Y3172052D01*
G01X16257620Y3177894D01*
G01X16246190Y3189324D01*
G01X16362522Y3217772D02*
G01X16431102Y3217772D01*
G01X16431102Y3229202D01*
G01X16425514Y3240632D01*
G01X16419672Y3246474D01*
G01X16408242Y3252062D01*
G01X16391224Y3252062D01*
G01X16379794Y3246474D01*
G01X16368364Y3235044D01*
G01X16362522Y3217772D01*
G01X16362522Y3206342D01*
G01X16368364Y3189324D01*
G01X16379794Y3177894D01*
G01X16391224Y3172052D01*
G01X16408242Y3172052D01*
G01X16419672Y3177894D01*
G01X16431102Y3189324D01*
G01X17322279Y3292194D02*
G01X17322279Y3172052D01*
G01X17322279Y3172052D02*
G01X17390859Y3172052D01*
G01X17507191Y3252062D02*
G01X17507191Y3172052D01*
G01X17507191Y3235044D02*
G01X17495761Y3246474D01*
G01X17484331Y3252062D01*
G01X17467313Y3252062D01*
G01X17455883Y3246474D01*
G01X17444453Y3235044D01*
G01X17438611Y3217772D01*
G01X17438611Y3206342D01*
G01X17444453Y3189324D01*
G01X17455883Y3177894D01*
G01X17467313Y3172052D01*
G01X17484331Y3172052D01*
G01X17495761Y3177894D01*
G01X17507191Y3189324D01*
G01X17560785Y3252062D02*
G01X17595075Y3172052D01*
G01X17629365Y3252062D02*
G01X17595075Y3172052D01*
G01X17583645Y3149192D01*
G01X17572215Y3137762D01*
G01X17560785Y3132174D01*
G01X17554943Y3132174D01*
G01X17677117Y3217772D02*
G01X17745697Y3217772D01*
G01X17745697Y3229202D01*
G01X17740109Y3240632D01*
G01X17734267Y3246474D01*
G01X17722837Y3252062D01*
G01X17705819Y3252062D01*
G01X17694389Y3246474D01*
G01X17682959Y3235044D01*
G01X17677117Y3217772D01*
G01X17677117Y3206342D01*
G01X17682959Y3189324D01*
G01X17694389Y3177894D01*
G01X17705819Y3172052D01*
G01X17722837Y3172052D01*
G01X17734267Y3177894D01*
G01X17745697Y3189324D01*
G01X17793449Y3252062D02*
G01X17793449Y3172052D01*
G01X17793449Y3217772D02*
G01X17799291Y3235044D01*
G01X17810721Y3246474D01*
G01X17822151Y3252062D01*
G01X17839169Y3252062D01*
G01X18014937Y3292194D02*
G01X18014937Y3172052D01*
G01X18014937Y3292194D02*
G01X18066499Y3292194D01*
G01X18083517Y3286352D01*
G01X18089359Y3280764D01*
G01X18094947Y3269334D01*
G01X18094947Y3252062D01*
G01X18089359Y3240632D01*
G01X18083517Y3235044D01*
G01X18066499Y3229202D01*
G01X18014937Y3229202D01*
G01X18211279Y3252062D02*
G01X18211279Y3172052D01*
G01X18211279Y3235044D02*
G01X18199849Y3246474D01*
G01X18188419Y3252062D01*
G01X18171401Y3252062D01*
G01X18159971Y3246474D01*
G01X18148541Y3235044D01*
G01X18142699Y3217772D01*
G01X18142699Y3206342D01*
G01X18148541Y3189324D01*
G01X18159971Y3177894D01*
G01X18171401Y3172052D01*
G01X18188419Y3172052D01*
G01X18199849Y3177894D01*
G01X18211279Y3189324D01*
G01X18259031Y3292194D02*
G01X18264873Y3286352D01*
G01X18270461Y3292194D01*
G01X18264873Y3297782D01*
G01X18259031Y3292194D01*
G01X18264873Y3252062D02*
G01X18264873Y3172052D01*
G01X18318213Y3252062D02*
G01X18318213Y3172052D01*
G01X18318213Y3217772D02*
G01X18324055Y3235044D01*
G01X18335485Y3246474D01*
G01X18346915Y3252062D01*
G01X18363933Y3252062D01*
G01X5555874Y2688763D02*
G01X5567304Y2694351D01*
G01X5584576Y2711623D01*
G01X5584576Y2591481D01*
G01X7050047Y2711623D02*
G01X6992897Y2591481D01*
G01X6970037Y2711623D02*
G01X7050047Y2711623D01*
G01X7126501Y2711623D02*
G01X7109229Y2705781D01*
G01X7103641Y2694351D01*
G01X7103641Y2682921D01*
G01X7109229Y2671491D01*
G01X7120659Y2665903D01*
G01X7143519Y2660061D01*
G01X7160791Y2654473D01*
G01X7172221Y2643043D01*
G01X7177809Y2631613D01*
G01X7177809Y2614341D01*
G01X7172221Y2602911D01*
G01X7166379Y2597323D01*
G01X7149361Y2591481D01*
G01X7126501Y2591481D01*
G01X7109229Y2597323D01*
G01X7103641Y2602911D01*
G01X7097799Y2614341D01*
G01X7097799Y2631613D01*
G01X7103641Y2643043D01*
G01X7115071Y2654473D01*
G01X7132089Y2660061D01*
G01X7154949Y2665903D01*
G01X7166379Y2671491D01*
G01X7172221Y2682921D01*
G01X7172221Y2694351D01*
G01X7166379Y2705781D01*
G01X7149361Y2711623D01*
G01X7126501Y2711623D01*
G01X7231403Y2620183D02*
G01X7225561Y2614341D01*
G01X7231403Y2608753D01*
G01X7236991Y2614341D01*
G01X7231403Y2620183D01*
G01X7364753Y2711623D02*
G01X7307603Y2591481D01*
G01X7284743Y2711623D02*
G01X7364753Y2711623D01*
G01X7412505Y2671491D02*
G01X7412505Y2591481D01*
G01X7412505Y2648631D02*
G01X7429777Y2665903D01*
G01X7441207Y2671491D01*
G01X7458225Y2671491D01*
G01X7469655Y2665903D01*
G01X7475497Y2648631D01*
G01X7475497Y2591481D01*
G01X7475497Y2648631D02*
G01X7492515Y2665903D01*
G01X7503945Y2671491D01*
G01X7521217Y2671491D01*
G01X7532647Y2665903D01*
G01X7538235Y2648631D01*
G01X7538235Y2591481D01*
G01X7585987Y2711623D02*
G01X7591829Y2705781D01*
G01X7597417Y2711623D01*
G01X7591829Y2717211D01*
G01X7585987Y2711623D01*
G01X7591829Y2671491D02*
G01X7591829Y2591481D01*
G01X7645169Y2711623D02*
G01X7645169Y2591481D01*
G01X7733053Y2734483D02*
G01X7721623Y2723053D01*
G01X7710193Y2705781D01*
G01X7698763Y2682921D01*
G01X7692921Y2654473D01*
G01X7692921Y2631613D01*
G01X7698763Y2602911D01*
G01X7710193Y2580051D01*
G01X7721623Y2563033D01*
G01X7733053Y2551603D01*
G01X7786647Y2682921D02*
G01X7786647Y2688763D01*
G01X7792235Y2700193D01*
G01X7798077Y2705781D01*
G01X7809507Y2711623D01*
G01X7832367Y2711623D01*
G01X7843797Y2705781D01*
G01X7849385Y2700193D01*
G01X7855227Y2688763D01*
G01X7855227Y2677333D01*
G01X7849385Y2665903D01*
G01X7837955Y2648631D01*
G01X7780805Y2591481D01*
G01X7860815Y2591481D01*
G01X7914409Y2620183D02*
G01X7908567Y2614341D01*
G01X7914409Y2608753D01*
G01X7919997Y2614341D01*
G01X7914409Y2620183D01*
G01X8002039Y2711623D02*
G01X7985021Y2705781D01*
G01X7973591Y2688763D01*
G01X7967749Y2660061D01*
G01X7967749Y2643043D01*
G01X7973591Y2614341D01*
G01X7985021Y2597323D01*
G01X8002039Y2591481D01*
G01X8013469Y2591481D01*
G01X8030741Y2597323D01*
G01X8042171Y2614341D01*
G01X8047759Y2643043D01*
G01X8047759Y2660061D01*
G01X8042171Y2688763D01*
G01X8030741Y2705781D01*
G01X8013469Y2711623D01*
G01X8002039Y2711623D01*
G01X8129801Y2711623D02*
G01X8112783Y2705781D01*
G01X8101353Y2688763D01*
G01X8095511Y2660061D01*
G01X8095511Y2643043D01*
G01X8101353Y2614341D01*
G01X8112783Y2597323D01*
G01X8129801Y2591481D01*
G01X8141231Y2591481D01*
G01X8158503Y2597323D01*
G01X8169933Y2614341D01*
G01X8175521Y2643043D01*
G01X8175521Y2660061D01*
G01X8169933Y2688763D01*
G01X8158503Y2705781D01*
G01X8141231Y2711623D01*
G01X8129801Y2711623D01*
G01X8257563Y2711623D02*
G01X8240545Y2705781D01*
G01X8229115Y2688763D01*
G01X8223273Y2660061D01*
G01X8223273Y2643043D01*
G01X8229115Y2614341D01*
G01X8240545Y2597323D01*
G01X8257563Y2591481D01*
G01X8268993Y2591481D01*
G01X8286265Y2597323D01*
G01X8297695Y2614341D01*
G01X8303283Y2643043D01*
G01X8303283Y2660061D01*
G01X8297695Y2688763D01*
G01X8286265Y2705781D01*
G01X8268993Y2711623D01*
G01X8257563Y2711623D01*
G01X8351035Y2671491D02*
G01X8351035Y2591481D01*
G01X8351035Y2648631D02*
G01X8368307Y2665903D01*
G01X8379737Y2671491D01*
G01X8396755Y2671491D01*
G01X8408185Y2665903D01*
G01X8414027Y2648631D01*
G01X8414027Y2591481D01*
G01X8414027Y2648631D02*
G01X8431045Y2665903D01*
G01X8442475Y2671491D01*
G01X8459747Y2671491D01*
G01X8471177Y2665903D01*
G01X8476765Y2648631D01*
G01X8476765Y2591481D01*
G01X8524517Y2671491D02*
G01X8524517Y2591481D01*
G01X8524517Y2648631D02*
G01X8541789Y2665903D01*
G01X8553219Y2671491D01*
G01X8570237Y2671491D01*
G01X8581667Y2665903D01*
G01X8587509Y2648631D01*
G01X8587509Y2591481D01*
G01X8587509Y2648631D02*
G01X8604527Y2665903D01*
G01X8615957Y2671491D01*
G01X8633229Y2671491D01*
G01X8644659Y2665903D01*
G01X8650247Y2648631D01*
G01X8650247Y2591481D01*
G01X8697999Y2734483D02*
G01X8709429Y2723053D01*
G01X8720859Y2705781D01*
G01X8732289Y2682921D01*
G01X8738131Y2654473D01*
G01X8738131Y2631613D01*
G01X8732289Y2602911D01*
G01X8720859Y2580051D01*
G01X8709429Y2563033D01*
G01X8697999Y2551603D01*
G01X10841143Y2711623D02*
G01X10841143Y2591481D01*
G01X10841143Y2711623D02*
G01X10921153Y2591481D01*
G01X10921153Y2711623D02*
G01X10921153Y2591481D01*
G01X10968905Y2711623D02*
G01X10968905Y2591481D01*
G01X10968905Y2711623D02*
G01X11020467Y2711623D01*
G01X11037485Y2705781D01*
G01X11043327Y2700193D01*
G01X11048915Y2688763D01*
G01X11048915Y2671491D01*
G01X11043327Y2660061D01*
G01X11037485Y2654473D01*
G01X11020467Y2648631D01*
G01X10968905Y2648631D01*
G01X11136799Y2711623D02*
G01X11136799Y2591481D01*
G01X11096667Y2711623D02*
G01X11176677Y2711623D01*
G01X11224429Y2711623D02*
G01X11224429Y2591481D01*
G01X11304439Y2711623D02*
G01X11304439Y2591481D01*
G01X11224429Y2654473D02*
G01X11304439Y2654473D01*
G01X12302550Y2711623D02*
G01X12302550Y2591481D01*
G01X12302550Y2711623D02*
G01X12354112Y2711623D01*
G01X12371130Y2705781D01*
G01X12376972Y2700193D01*
G01X12382560Y2688763D01*
G01X12382560Y2677333D01*
G01X12376972Y2665903D01*
G01X12371130Y2660061D01*
G01X12354112Y2654473D01*
G01X12302550Y2654473D01*
G01X12342682Y2654473D02*
G01X12382560Y2591481D01*
G01X12459014Y2671491D02*
G01X12447584Y2665903D01*
G01X12436154Y2654473D01*
G01X12430312Y2637201D01*
G01X12430312Y2625771D01*
G01X12436154Y2608753D01*
G01X12447584Y2597323D01*
G01X12459014Y2591481D01*
G01X12476032Y2591481D01*
G01X12487462Y2597323D01*
G01X12498892Y2608753D01*
G01X12504734Y2625771D01*
G01X12504734Y2637201D01*
G01X12498892Y2654473D01*
G01X12487462Y2665903D01*
G01X12476032Y2671491D01*
G01X12459014Y2671491D01*
G01X12552486Y2671491D02*
G01X12552486Y2614341D01*
G01X12558328Y2597323D01*
G01X12569758Y2591481D01*
G01X12586776Y2591481D01*
G01X12598206Y2597323D01*
G01X12615478Y2614341D01*
G01X12615478Y2671491D02*
G01X12615478Y2591481D01*
G01X12663230Y2671491D02*
G01X12663230Y2591481D01*
G01X12663230Y2648631D02*
G01X12680502Y2665903D01*
G01X12691932Y2671491D01*
G01X12708950Y2671491D01*
G01X12720380Y2665903D01*
G01X12726222Y2648631D01*
G01X12726222Y2591481D01*
G01X12842554Y2711623D02*
G01X12842554Y2591481D01*
G01X12842554Y2654473D02*
G01X12831124Y2665903D01*
G01X12819694Y2671491D01*
G01X12802676Y2671491D01*
G01X12791246Y2665903D01*
G01X12779816Y2654473D01*
G01X12773974Y2637201D01*
G01X12773974Y2625771D01*
G01X12779816Y2608753D01*
G01X12791246Y2597323D01*
G01X12802676Y2591481D01*
G01X12819694Y2591481D01*
G01X12831124Y2597323D01*
G01X12842554Y2608753D01*
G01X13733731Y2711623D02*
G01X13779451Y2591481D01*
G01X13825171Y2711623D02*
G01X13779451Y2591481D01*
G01X13872923Y2711623D02*
G01X13878765Y2705781D01*
G01X13884353Y2711623D01*
G01X13878765Y2717211D01*
G01X13872923Y2711623D01*
G01X13878765Y2671491D02*
G01X13878765Y2591481D01*
G01X14000685Y2671491D02*
G01X14000685Y2591481D01*
G01X14000685Y2654473D02*
G01X13989255Y2665903D01*
G01X13977825Y2671491D01*
G01X13960807Y2671491D01*
G01X13949377Y2665903D01*
G01X13937947Y2654473D01*
G01X13932105Y2637201D01*
G01X13932105Y2625771D01*
G01X13937947Y2608753D01*
G01X13949377Y2597323D01*
G01X13960807Y2591481D01*
G01X13977825Y2591481D01*
G01X13989255Y2597323D01*
G01X14000685Y2608753D01*
G01X17362411Y2711623D02*
G01X17362411Y2591481D01*
G01X17322279Y2711623D02*
G01X17402289Y2711623D01*
G01X17478743Y2671491D02*
G01X17467313Y2665903D01*
G01X17455883Y2654473D01*
G01X17450041Y2637201D01*
G01X17450041Y2625771D01*
G01X17455883Y2608753D01*
G01X17467313Y2597323D01*
G01X17478743Y2591481D01*
G01X17495761Y2591481D01*
G01X17507191Y2597323D01*
G01X17518621Y2608753D01*
G01X17524463Y2625771D01*
G01X17524463Y2637201D01*
G01X17518621Y2654473D01*
G01X17507191Y2665903D01*
G01X17495761Y2671491D01*
G01X17478743Y2671491D01*
G01X17572215Y2671491D02*
G01X17572215Y2551603D01*
G01X17572215Y2654473D02*
G01X17583645Y2665903D01*
G01X17595075Y2671491D01*
G01X17612347Y2671491D01*
G01X17623777Y2665903D01*
G01X17635207Y2654473D01*
G01X17640795Y2637201D01*
G01X17640795Y2625771D01*
G01X17635207Y2608753D01*
G01X17623777Y2597323D01*
G01X17612347Y2591481D01*
G01X17595075Y2591481D01*
G01X17583645Y2597323D01*
G01X17572215Y2608753D01*
G01X17816563Y2711623D02*
G01X17816563Y2591481D01*
G01X17816563Y2591481D02*
G01X17885143Y2591481D01*
G01X18001475Y2671491D02*
G01X18001475Y2591481D01*
G01X18001475Y2654473D02*
G01X17990045Y2665903D01*
G01X17978615Y2671491D01*
G01X17961597Y2671491D01*
G01X17950167Y2665903D01*
G01X17938737Y2654473D01*
G01X17932895Y2637201D01*
G01X17932895Y2625771D01*
G01X17938737Y2608753D01*
G01X17950167Y2597323D01*
G01X17961597Y2591481D01*
G01X17978615Y2591481D01*
G01X17990045Y2597323D01*
G01X18001475Y2608753D01*
G01X18055069Y2671491D02*
G01X18089359Y2591481D01*
G01X18123649Y2671491D02*
G01X18089359Y2591481D01*
G01X18077929Y2568621D01*
G01X18066499Y2557191D01*
G01X18055069Y2551603D01*
G01X18049227Y2551603D01*
G01X18171401Y2637201D02*
G01X18239981Y2637201D01*
G01X18239981Y2648631D01*
G01X18234393Y2660061D01*
G01X18228551Y2665903D01*
G01X18217121Y2671491D01*
G01X18200103Y2671491D01*
G01X18188673Y2665903D01*
G01X18177243Y2654473D01*
G01X18171401Y2637201D01*
G01X18171401Y2625771D01*
G01X18177243Y2608753D01*
G01X18188673Y2597323D01*
G01X18200103Y2591481D01*
G01X18217121Y2591481D01*
G01X18228551Y2597323D01*
G01X18239981Y2608753D01*
G01X18287733Y2671491D02*
G01X18287733Y2591481D01*
G01X18287733Y2637201D02*
G01X18293575Y2654473D01*
G01X18305005Y2665903D01*
G01X18316435Y2671491D01*
G01X18333453Y2671491D01*
G01X18381205Y2643043D02*
G01X18484075Y2643043D01*
G01X18531827Y2711623D02*
G01X18531827Y2591481D01*
G01X18531827Y2711623D02*
G01X18583389Y2711623D01*
G01X18600407Y2705781D01*
G01X18606249Y2700193D01*
G01X18611837Y2688763D01*
G01X18611837Y2677333D01*
G01X18606249Y2665903D01*
G01X18600407Y2660061D01*
G01X18583389Y2654473D01*
G01X18531827Y2654473D02*
G01X18583389Y2654473D01*
G01X18600407Y2648631D01*
G01X18606249Y2643043D01*
G01X18611837Y2631613D01*
G01X18611837Y2614341D01*
G01X18606249Y2602911D01*
G01X18600407Y2597323D01*
G01X18583389Y2591481D01*
G01X18531827Y2591481D01*
G01X18688291Y2671491D02*
G01X18676861Y2665903D01*
G01X18665431Y2654473D01*
G01X18659589Y2637201D01*
G01X18659589Y2625771D01*
G01X18665431Y2608753D01*
G01X18676861Y2597323D01*
G01X18688291Y2591481D01*
G01X18705309Y2591481D01*
G01X18716739Y2597323D01*
G01X18728169Y2608753D01*
G01X18734011Y2625771D01*
G01X18734011Y2637201D01*
G01X18728169Y2654473D01*
G01X18716739Y2665903D01*
G01X18705309Y2671491D01*
G01X18688291Y2671491D01*
G01X18799035Y2711623D02*
G01X18799035Y2614341D01*
G01X18804623Y2597323D01*
G01X18816053Y2591481D01*
G01X18827483Y2591481D01*
G01X18781763Y2671491D02*
G01X18821895Y2671491D01*
G01X18892507Y2711623D02*
G01X18892507Y2614341D01*
G01X18898095Y2597323D01*
G01X18909525Y2591481D01*
G01X18920955Y2591481D01*
G01X18875235Y2671491D02*
G01X18915367Y2671491D01*
G01X18997409Y2671491D02*
G01X18985979Y2665903D01*
G01X18974549Y2654473D01*
G01X18968707Y2637201D01*
G01X18968707Y2625771D01*
G01X18974549Y2608753D01*
G01X18985979Y2597323D01*
G01X18997409Y2591481D01*
G01X19014427Y2591481D01*
G01X19025857Y2597323D01*
G01X19037287Y2608753D01*
G01X19043129Y2625771D01*
G01X19043129Y2637201D01*
G01X19037287Y2654473D01*
G01X19025857Y2665903D01*
G01X19014427Y2671491D01*
G01X18997409Y2671491D01*
G01X19090881Y2671491D02*
G01X19090881Y2591481D01*
G01X19090881Y2648631D02*
G01X19108153Y2665903D01*
G01X19119583Y2671491D01*
G01X19136601Y2671491D01*
G01X19148031Y2665903D01*
G01X19153873Y2648631D01*
G01X19153873Y2591481D01*
G01X19153873Y2648631D02*
G01X19170891Y2665903D01*
G01X19182321Y2671491D01*
G01X19199593Y2671491D01*
G01X19211023Y2665903D01*
G01X19216611Y2648631D01*
G01X19216611Y2591481D01*
G01X19392379Y2711623D02*
G01X19392379Y2591481D01*
G01X19392379Y2591481D02*
G01X19460959Y2591481D01*
G01X19577291Y2671491D02*
G01X19577291Y2591481D01*
G01X19577291Y2654473D02*
G01X19565861Y2665903D01*
G01X19554431Y2671491D01*
G01X19537413Y2671491D01*
G01X19525983Y2665903D01*
G01X19514553Y2654473D01*
G01X19508711Y2637201D01*
G01X19508711Y2625771D01*
G01X19514553Y2608753D01*
G01X19525983Y2597323D01*
G01X19537413Y2591481D01*
G01X19554431Y2591481D01*
G01X19565861Y2597323D01*
G01X19577291Y2608753D01*
G01X19630885Y2671491D02*
G01X19665175Y2591481D01*
G01X19699465Y2671491D02*
G01X19665175Y2591481D01*
G01X19653745Y2568621D01*
G01X19642315Y2557191D01*
G01X19630885Y2551603D01*
G01X19625043Y2551603D01*
G01X19747217Y2637201D02*
G01X19815797Y2637201D01*
G01X19815797Y2648631D01*
G01X19810209Y2660061D01*
G01X19804367Y2665903D01*
G01X19792937Y2671491D01*
G01X19775919Y2671491D01*
G01X19764489Y2665903D01*
G01X19753059Y2654473D01*
G01X19747217Y2637201D01*
G01X19747217Y2625771D01*
G01X19753059Y2608753D01*
G01X19764489Y2597323D01*
G01X19775919Y2591481D01*
G01X19792937Y2591481D01*
G01X19804367Y2597323D01*
G01X19815797Y2608753D01*
G01X19863549Y2671491D02*
G01X19863549Y2591481D01*
G01X19863549Y2637201D02*
G01X19869391Y2654473D01*
G01X19880821Y2665903D01*
G01X19892251Y2671491D01*
G01X19909269Y2671491D01*
G01X5561716Y2102349D02*
G01X5561716Y2108191D01*
G01X5567304Y2119621D01*
G01X5573146Y2125209D01*
G01X5584576Y2131051D01*
G01X5607436Y2131051D01*
G01X5618866Y2125209D01*
G01X5624454Y2119621D01*
G01X5630296Y2108191D01*
G01X5630296Y2096761D01*
G01X5624454Y2085331D01*
G01X5613024Y2068059D01*
G01X5555874Y2010909D01*
G01X5635884Y2010909D01*
G01X7044459Y2090919D02*
G01X7038617Y2073901D01*
G01X7027187Y2062471D01*
G01X7010169Y2056629D01*
G01X7004327Y2056629D01*
G01X6987309Y2062471D01*
G01X6975879Y2073901D01*
G01X6970037Y2090919D01*
G01X6970037Y2096761D01*
G01X6975879Y2113779D01*
G01X6987309Y2125209D01*
G01X7004327Y2131051D01*
G01X7010169Y2131051D01*
G01X7027187Y2125209D01*
G01X7038617Y2113779D01*
G01X7044459Y2090919D01*
G01X7044459Y2062471D01*
G01X7038617Y2033769D01*
G01X7027187Y2016751D01*
G01X7010169Y2010909D01*
G01X6998739Y2010909D01*
G01X6981467Y2016751D01*
G01X6975879Y2028181D01*
G01X7126501Y2131051D02*
G01X7109483Y2125209D01*
G01X7098053Y2108191D01*
G01X7092211Y2079489D01*
G01X7092211Y2062471D01*
G01X7098053Y2033769D01*
G01X7109483Y2016751D01*
G01X7126501Y2010909D01*
G01X7137931Y2010909D01*
G01X7155203Y2016751D01*
G01X7166633Y2033769D01*
G01X7172221Y2062471D01*
G01X7172221Y2079489D01*
G01X7166633Y2108191D01*
G01X7155203Y2125209D01*
G01X7137931Y2131051D01*
G01X7126501Y2131051D01*
G01X7225815Y2039611D02*
G01X7219973Y2033769D01*
G01X7225815Y2028181D01*
G01X7231403Y2033769D01*
G01X7225815Y2039611D01*
G01X7347735Y2113779D02*
G01X7342147Y2125209D01*
G01X7324875Y2131051D01*
G01X7313445Y2131051D01*
G01X7296427Y2125209D01*
G01X7284997Y2108191D01*
G01X7279155Y2079489D01*
G01X7279155Y2051041D01*
G01X7284997Y2028181D01*
G01X7296427Y2016751D01*
G01X7313445Y2010909D01*
G01X7319287Y2010909D01*
G01X7336305Y2016751D01*
G01X7347735Y2028181D01*
G01X7353577Y2045199D01*
G01X7353577Y2051041D01*
G01X7347735Y2068059D01*
G01X7336305Y2079489D01*
G01X7319287Y2085331D01*
G01X7313445Y2085331D01*
G01X7296427Y2079489D01*
G01X7284997Y2068059D01*
G01X7279155Y2051041D01*
G01X7401329Y2090919D02*
G01X7464321Y2010909D01*
G01X7464321Y2090919D02*
G01X7401329Y2010909D01*
G01X7586495Y2090919D02*
G01X7580653Y2073901D01*
G01X7569223Y2062471D01*
G01X7552205Y2056629D01*
G01X7546363Y2056629D01*
G01X7529345Y2062471D01*
G01X7517915Y2073901D01*
G01X7512073Y2090919D01*
G01X7512073Y2096761D01*
G01X7517915Y2113779D01*
G01X7529345Y2125209D01*
G01X7546363Y2131051D01*
G01X7552205Y2131051D01*
G01X7569223Y2125209D01*
G01X7580653Y2113779D01*
G01X7586495Y2090919D01*
G01X7586495Y2062471D01*
G01X7580653Y2033769D01*
G01X7569223Y2016751D01*
G01X7552205Y2010909D01*
G01X7540775Y2010909D01*
G01X7523503Y2016751D01*
G01X7517915Y2028181D01*
G01X7668537Y2131051D02*
G01X7651519Y2125209D01*
G01X7640089Y2108191D01*
G01X7634247Y2079489D01*
G01X7634247Y2062471D01*
G01X7640089Y2033769D01*
G01X7651519Y2016751D01*
G01X7668537Y2010909D01*
G01X7679967Y2010909D01*
G01X7697239Y2016751D01*
G01X7708669Y2033769D01*
G01X7714257Y2062471D01*
G01X7714257Y2079489D01*
G01X7708669Y2108191D01*
G01X7697239Y2125209D01*
G01X7679967Y2131051D01*
G01X7668537Y2131051D01*
G01X7767851Y2039611D02*
G01X7762009Y2033769D01*
G01X7767851Y2028181D01*
G01X7773439Y2033769D01*
G01X7767851Y2039611D01*
G01X7889771Y2113779D02*
G01X7884183Y2125209D01*
G01X7866911Y2131051D01*
G01X7855481Y2131051D01*
G01X7838463Y2125209D01*
G01X7827033Y2108191D01*
G01X7821191Y2079489D01*
G01X7821191Y2051041D01*
G01X7827033Y2028181D01*
G01X7838463Y2016751D01*
G01X7855481Y2010909D01*
G01X7861323Y2010909D01*
G01X7878341Y2016751D01*
G01X7889771Y2028181D01*
G01X7895613Y2045199D01*
G01X7895613Y2051041D01*
G01X7889771Y2068059D01*
G01X7878341Y2079489D01*
G01X7861323Y2085331D01*
G01X7855481Y2085331D01*
G01X7838463Y2079489D01*
G01X7827033Y2068059D01*
G01X7821191Y2051041D01*
G01X7943365Y2090919D02*
G01X7943365Y2010909D01*
G01X7943365Y2068059D02*
G01X7960637Y2085331D01*
G01X7972067Y2090919D01*
G01X7989085Y2090919D01*
G01X8000515Y2085331D01*
G01X8006357Y2068059D01*
G01X8006357Y2010909D01*
G01X8006357Y2068059D02*
G01X8023375Y2085331D01*
G01X8034805Y2090919D01*
G01X8052077Y2090919D01*
G01X8063507Y2085331D01*
G01X8069095Y2068059D01*
G01X8069095Y2010909D01*
G01X8116847Y2131051D02*
G01X8122689Y2125209D01*
G01X8128277Y2131051D01*
G01X8122689Y2136639D01*
G01X8116847Y2131051D01*
G01X8122689Y2090919D02*
G01X8122689Y2010909D01*
G01X8176029Y2131051D02*
G01X8176029Y2010909D01*
G01X8263913Y2153911D02*
G01X8252483Y2142481D01*
G01X8241053Y2125209D01*
G01X8229623Y2102349D01*
G01X8223781Y2073901D01*
G01X8223781Y2051041D01*
G01X8229623Y2022339D01*
G01X8241053Y1999479D01*
G01X8252483Y1982461D01*
G01X8263913Y1971031D01*
G01X8317507Y2102349D02*
G01X8317507Y2108191D01*
G01X8323095Y2119621D01*
G01X8328937Y2125209D01*
G01X8340367Y2131051D01*
G01X8363227Y2131051D01*
G01X8374657Y2125209D01*
G01X8380245Y2119621D01*
G01X8386087Y2108191D01*
G01X8386087Y2096761D01*
G01X8380245Y2085331D01*
G01X8368815Y2068059D01*
G01X8311665Y2010909D01*
G01X8391675Y2010909D01*
G01X8445269Y2039611D02*
G01X8439427Y2033769D01*
G01X8445269Y2028181D01*
G01X8450857Y2033769D01*
G01X8445269Y2039611D01*
G01X8510039Y2131051D02*
G01X8573031Y2131051D01*
G01X8538741Y2085331D01*
G01X8555759Y2085331D01*
G01X8567189Y2079489D01*
G01X8573031Y2073901D01*
G01X8578619Y2056629D01*
G01X8578619Y2045199D01*
G01X8573031Y2028181D01*
G01X8561601Y2016751D01*
G01X8544329Y2010909D01*
G01X8527311Y2010909D01*
G01X8510039Y2016751D01*
G01X8504451Y2022339D01*
G01X8498609Y2033769D01*
G01X8660661Y2131051D02*
G01X8643643Y2125209D01*
G01X8632213Y2108191D01*
G01X8626371Y2079489D01*
G01X8626371Y2062471D01*
G01X8632213Y2033769D01*
G01X8643643Y2016751D01*
G01X8660661Y2010909D01*
G01X8672091Y2010909D01*
G01X8689363Y2016751D01*
G01X8700793Y2033769D01*
G01X8706381Y2062471D01*
G01X8706381Y2079489D01*
G01X8700793Y2108191D01*
G01X8689363Y2125209D01*
G01X8672091Y2131051D01*
G01X8660661Y2131051D01*
G01X8788423Y2131051D02*
G01X8771405Y2125209D01*
G01X8759975Y2108191D01*
G01X8754133Y2079489D01*
G01X8754133Y2062471D01*
G01X8759975Y2033769D01*
G01X8771405Y2016751D01*
G01X8788423Y2010909D01*
G01X8799853Y2010909D01*
G01X8817125Y2016751D01*
G01X8828555Y2033769D01*
G01X8834143Y2062471D01*
G01X8834143Y2079489D01*
G01X8828555Y2108191D01*
G01X8817125Y2125209D01*
G01X8799853Y2131051D01*
G01X8788423Y2131051D01*
G01X8881895Y2090919D02*
G01X8944887Y2010909D01*
G01X8944887Y2090919D02*
G01X8881895Y2010909D01*
G01X8998481Y2102349D02*
G01X8998481Y2108191D01*
G01X9004069Y2119621D01*
G01X9009911Y2125209D01*
G01X9021341Y2131051D01*
G01X9044201Y2131051D01*
G01X9055631Y2125209D01*
G01X9061219Y2119621D01*
G01X9067061Y2108191D01*
G01X9067061Y2096761D01*
G01X9061219Y2085331D01*
G01X9049789Y2068059D01*
G01X8992639Y2010909D01*
G01X9072649Y2010909D01*
G01X9126243Y2039611D02*
G01X9120401Y2033769D01*
G01X9126243Y2028181D01*
G01X9131831Y2033769D01*
G01X9126243Y2039611D01*
G01X9191013Y2131051D02*
G01X9254005Y2131051D01*
G01X9219715Y2085331D01*
G01X9236733Y2085331D01*
G01X9248163Y2079489D01*
G01X9254005Y2073901D01*
G01X9259593Y2056629D01*
G01X9259593Y2045199D01*
G01X9254005Y2028181D01*
G01X9242575Y2016751D01*
G01X9225303Y2010909D01*
G01X9208285Y2010909D01*
G01X9191013Y2016751D01*
G01X9185425Y2022339D01*
G01X9179583Y2033769D01*
G01X9341635Y2131051D02*
G01X9324617Y2125209D01*
G01X9313187Y2108191D01*
G01X9307345Y2079489D01*
G01X9307345Y2062471D01*
G01X9313187Y2033769D01*
G01X9324617Y2016751D01*
G01X9341635Y2010909D01*
G01X9353065Y2010909D01*
G01X9370337Y2016751D01*
G01X9381767Y2033769D01*
G01X9387355Y2062471D01*
G01X9387355Y2079489D01*
G01X9381767Y2108191D01*
G01X9370337Y2125209D01*
G01X9353065Y2131051D01*
G01X9341635Y2131051D01*
G01X9469397Y2131051D02*
G01X9452379Y2125209D01*
G01X9440949Y2108191D01*
G01X9435107Y2079489D01*
G01X9435107Y2062471D01*
G01X9440949Y2033769D01*
G01X9452379Y2016751D01*
G01X9469397Y2010909D01*
G01X9480827Y2010909D01*
G01X9498099Y2016751D01*
G01X9509529Y2033769D01*
G01X9515117Y2062471D01*
G01X9515117Y2079489D01*
G01X9509529Y2108191D01*
G01X9498099Y2125209D01*
G01X9480827Y2131051D01*
G01X9469397Y2131051D01*
G01X9562869Y2090919D02*
G01X9562869Y2010909D01*
G01X9562869Y2068059D02*
G01X9580141Y2085331D01*
G01X9591571Y2090919D01*
G01X9608589Y2090919D01*
G01X9620019Y2085331D01*
G01X9625861Y2068059D01*
G01X9625861Y2010909D01*
G01X9625861Y2068059D02*
G01X9642879Y2085331D01*
G01X9654309Y2090919D01*
G01X9671581Y2090919D01*
G01X9683011Y2085331D01*
G01X9688599Y2068059D01*
G01X9688599Y2010909D01*
G01X9736351Y2090919D02*
G01X9736351Y2010909D01*
G01X9736351Y2068059D02*
G01X9753623Y2085331D01*
G01X9765053Y2090919D01*
G01X9782071Y2090919D01*
G01X9793501Y2085331D01*
G01X9799343Y2068059D01*
G01X9799343Y2010909D01*
G01X9799343Y2068059D02*
G01X9816361Y2085331D01*
G01X9827791Y2090919D01*
G01X9845063Y2090919D01*
G01X9856493Y2085331D01*
G01X9862081Y2068059D01*
G01X9862081Y2010909D01*
G01X9909833Y2153911D02*
G01X9921263Y2142481D01*
G01X9932693Y2125209D01*
G01X9944123Y2102349D01*
G01X9949965Y2073901D01*
G01X9949965Y2051041D01*
G01X9944123Y2022339D01*
G01X9932693Y1999479D01*
G01X9921263Y1982461D01*
G01X9909833Y1971031D01*
G01X10841143Y2131051D02*
G01X10841143Y2010909D01*
G01X10841143Y2131051D02*
G01X10892705Y2131051D01*
G01X10909723Y2125209D01*
G01X10915565Y2119621D01*
G01X10921153Y2108191D01*
G01X10921153Y2090919D01*
G01X10915565Y2079489D01*
G01X10909723Y2073901D01*
G01X10892705Y2068059D01*
G01X10841143Y2068059D01*
G01X11009037Y2131051D02*
G01X11009037Y2010909D01*
G01X10968905Y2131051D02*
G01X11048915Y2131051D01*
G01X11096667Y2131051D02*
G01X11096667Y2010909D01*
G01X11176677Y2131051D02*
G01X11176677Y2010909D01*
G01X11096667Y2073901D02*
G01X11176677Y2073901D01*
G01X12302550Y2131051D02*
G01X12302550Y2010909D01*
G01X12302550Y2131051D02*
G01X12354112Y2131051D01*
G01X12371130Y2125209D01*
G01X12376972Y2119621D01*
G01X12382560Y2108191D01*
G01X12382560Y2096761D01*
G01X12376972Y2085331D01*
G01X12371130Y2079489D01*
G01X12354112Y2073901D01*
G01X12302550Y2073901D01*
G01X12342682Y2073901D02*
G01X12382560Y2010909D01*
G01X12459014Y2090919D02*
G01X12447584Y2085331D01*
G01X12436154Y2073901D01*
G01X12430312Y2056629D01*
G01X12430312Y2045199D01*
G01X12436154Y2028181D01*
G01X12447584Y2016751D01*
G01X12459014Y2010909D01*
G01X12476032Y2010909D01*
G01X12487462Y2016751D01*
G01X12498892Y2028181D01*
G01X12504734Y2045199D01*
G01X12504734Y2056629D01*
G01X12498892Y2073901D01*
G01X12487462Y2085331D01*
G01X12476032Y2090919D01*
G01X12459014Y2090919D01*
G01X12552486Y2090919D02*
G01X12552486Y2033769D01*
G01X12558328Y2016751D01*
G01X12569758Y2010909D01*
G01X12586776Y2010909D01*
G01X12598206Y2016751D01*
G01X12615478Y2033769D01*
G01X12615478Y2090919D02*
G01X12615478Y2010909D01*
G01X12663230Y2090919D02*
G01X12663230Y2010909D01*
G01X12663230Y2068059D02*
G01X12680502Y2085331D01*
G01X12691932Y2090919D01*
G01X12708950Y2090919D01*
G01X12720380Y2085331D01*
G01X12726222Y2068059D01*
G01X12726222Y2010909D01*
G01X12842554Y2131051D02*
G01X12842554Y2010909D01*
G01X12842554Y2073901D02*
G01X12831124Y2085331D01*
G01X12819694Y2090919D01*
G01X12802676Y2090919D01*
G01X12791246Y2085331D01*
G01X12779816Y2073901D01*
G01X12773974Y2056629D01*
G01X12773974Y2045199D01*
G01X12779816Y2028181D01*
G01X12791246Y2016751D01*
G01X12802676Y2010909D01*
G01X12819694Y2010909D01*
G01X12831124Y2016751D01*
G01X12842554Y2028181D01*
G01X13733731Y2131051D02*
G01X13733731Y2010909D01*
G01X13733731Y2131051D02*
G01X13785293Y2131051D01*
G01X13802311Y2125209D01*
G01X13808153Y2119621D01*
G01X13813741Y2108191D01*
G01X13813741Y2090919D01*
G01X13808153Y2079489D01*
G01X13802311Y2073901D01*
G01X13785293Y2068059D01*
G01X13733731Y2068059D01*
G01X13930073Y2090919D02*
G01X13930073Y2010909D01*
G01X13930073Y2073901D02*
G01X13918643Y2085331D01*
G01X13907213Y2090919D01*
G01X13890195Y2090919D01*
G01X13878765Y2085331D01*
G01X13867335Y2073901D01*
G01X13861493Y2056629D01*
G01X13861493Y2045199D01*
G01X13867335Y2028181D01*
G01X13878765Y2016751D01*
G01X13890195Y2010909D01*
G01X13907213Y2010909D01*
G01X13918643Y2016751D01*
G01X13930073Y2028181D01*
G01X14046405Y2131051D02*
G01X14046405Y2010909D01*
G01X14046405Y2073901D02*
G01X14034975Y2085331D01*
G01X14023545Y2090919D01*
G01X14006527Y2090919D01*
G01X13995097Y2085331D01*
G01X13983667Y2073901D01*
G01X13977825Y2056629D01*
G01X13977825Y2045199D01*
G01X13983667Y2028181D01*
G01X13995097Y2016751D01*
G01X14006527Y2010909D01*
G01X14023545Y2010909D01*
G01X14034975Y2016751D01*
G01X14046405Y2028181D01*
G01X15402910Y2131051D02*
G01X15402910Y2010909D01*
G01X15402910Y2131051D02*
G01X15454472Y2131051D01*
G01X15471490Y2125209D01*
G01X15477332Y2119621D01*
G01X15482920Y2108191D01*
G01X15482920Y2096761D01*
G01X15477332Y2085331D01*
G01X15471490Y2079489D01*
G01X15454472Y2073901D01*
G01X15402910Y2073901D01*
G01X15443042Y2073901D02*
G01X15482920Y2010909D01*
G01X15559374Y2090919D02*
G01X15547944Y2085331D01*
G01X15536514Y2073901D01*
G01X15530672Y2056629D01*
G01X15530672Y2045199D01*
G01X15536514Y2028181D01*
G01X15547944Y2016751D01*
G01X15559374Y2010909D01*
G01X15576392Y2010909D01*
G01X15587822Y2016751D01*
G01X15599252Y2028181D01*
G01X15605094Y2045199D01*
G01X15605094Y2056629D01*
G01X15599252Y2073901D01*
G01X15587822Y2085331D01*
G01X15576392Y2090919D01*
G01X15559374Y2090919D01*
G01X15652846Y2090919D02*
G01X15652846Y2033769D01*
G01X15658688Y2016751D01*
G01X15670118Y2010909D01*
G01X15687136Y2010909D01*
G01X15698566Y2016751D01*
G01X15715838Y2033769D01*
G01X15715838Y2090919D02*
G01X15715838Y2010909D01*
G01X15763590Y2090919D02*
G01X15763590Y2010909D01*
G01X15763590Y2068059D02*
G01X15780862Y2085331D01*
G01X15792292Y2090919D01*
G01X15809310Y2090919D01*
G01X15820740Y2085331D01*
G01X15826582Y2068059D01*
G01X15826582Y2010909D01*
G01X15942914Y2131051D02*
G01X15942914Y2010909D01*
G01X15942914Y2073901D02*
G01X15931484Y2085331D01*
G01X15920054Y2090919D01*
G01X15903036Y2090919D01*
G01X15891606Y2085331D01*
G01X15880176Y2073901D01*
G01X15874334Y2056629D01*
G01X15874334Y2045199D01*
G01X15880176Y2028181D01*
G01X15891606Y2016751D01*
G01X15903036Y2010909D01*
G01X15920054Y2010909D01*
G01X15931484Y2016751D01*
G01X15942914Y2028181D01*
G01X17362411Y2131051D02*
G01X17362411Y2010909D01*
G01X17322279Y2131051D02*
G01X17402289Y2131051D01*
G01X17478743Y2090919D02*
G01X17467313Y2085331D01*
G01X17455883Y2073901D01*
G01X17450041Y2056629D01*
G01X17450041Y2045199D01*
G01X17455883Y2028181D01*
G01X17467313Y2016751D01*
G01X17478743Y2010909D01*
G01X17495761Y2010909D01*
G01X17507191Y2016751D01*
G01X17518621Y2028181D01*
G01X17524463Y2045199D01*
G01X17524463Y2056629D01*
G01X17518621Y2073901D01*
G01X17507191Y2085331D01*
G01X17495761Y2090919D01*
G01X17478743Y2090919D01*
G01X17572215Y2090919D02*
G01X17572215Y1971031D01*
G01X17572215Y2073901D02*
G01X17583645Y2085331D01*
G01X17595075Y2090919D01*
G01X17612347Y2090919D01*
G01X17623777Y2085331D01*
G01X17635207Y2073901D01*
G01X17640795Y2056629D01*
G01X17640795Y2045199D01*
G01X17635207Y2028181D01*
G01X17623777Y2016751D01*
G01X17612347Y2010909D01*
G01X17595075Y2010909D01*
G01X17583645Y2016751D01*
G01X17572215Y2028181D01*
G01X17816563Y2131051D02*
G01X17816563Y2010909D01*
G01X17816563Y2010909D02*
G01X17885143Y2010909D01*
G01X18001475Y2090919D02*
G01X18001475Y2010909D01*
G01X18001475Y2073901D02*
G01X17990045Y2085331D01*
G01X17978615Y2090919D01*
G01X17961597Y2090919D01*
G01X17950167Y2085331D01*
G01X17938737Y2073901D01*
G01X17932895Y2056629D01*
G01X17932895Y2045199D01*
G01X17938737Y2028181D01*
G01X17950167Y2016751D01*
G01X17961597Y2010909D01*
G01X17978615Y2010909D01*
G01X17990045Y2016751D01*
G01X18001475Y2028181D01*
G01X18055069Y2090919D02*
G01X18089359Y2010909D01*
G01X18123649Y2090919D02*
G01X18089359Y2010909D01*
G01X18077929Y1988049D01*
G01X18066499Y1976619D01*
G01X18055069Y1971031D01*
G01X18049227Y1971031D01*
G01X18171401Y2056629D02*
G01X18239981Y2056629D01*
G01X18239981Y2068059D01*
G01X18234393Y2079489D01*
G01X18228551Y2085331D01*
G01X18217121Y2090919D01*
G01X18200103Y2090919D01*
G01X18188673Y2085331D01*
G01X18177243Y2073901D01*
G01X18171401Y2056629D01*
G01X18171401Y2045199D01*
G01X18177243Y2028181D01*
G01X18188673Y2016751D01*
G01X18200103Y2010909D01*
G01X18217121Y2010909D01*
G01X18228551Y2016751D01*
G01X18239981Y2028181D01*
G01X18287733Y2090919D02*
G01X18287733Y2010909D01*
G01X18287733Y2056629D02*
G01X18293575Y2073901D01*
G01X18305005Y2085331D01*
G01X18316435Y2090919D01*
G01X18333453Y2090919D01*
G01X18381205Y2062471D02*
G01X18484075Y2062471D01*
G01X18531827Y2131051D02*
G01X18531827Y2010909D01*
G01X18531827Y2131051D02*
G01X18583389Y2131051D01*
G01X18600407Y2125209D01*
G01X18606249Y2119621D01*
G01X18611837Y2108191D01*
G01X18611837Y2096761D01*
G01X18606249Y2085331D01*
G01X18600407Y2079489D01*
G01X18583389Y2073901D01*
G01X18531827Y2073901D02*
G01X18583389Y2073901D01*
G01X18600407Y2068059D01*
G01X18606249Y2062471D01*
G01X18611837Y2051041D01*
G01X18611837Y2033769D01*
G01X18606249Y2022339D01*
G01X18600407Y2016751D01*
G01X18583389Y2010909D01*
G01X18531827Y2010909D01*
G01X18688291Y2090919D02*
G01X18676861Y2085331D01*
G01X18665431Y2073901D01*
G01X18659589Y2056629D01*
G01X18659589Y2045199D01*
G01X18665431Y2028181D01*
G01X18676861Y2016751D01*
G01X18688291Y2010909D01*
G01X18705309Y2010909D01*
G01X18716739Y2016751D01*
G01X18728169Y2028181D01*
G01X18734011Y2045199D01*
G01X18734011Y2056629D01*
G01X18728169Y2073901D01*
G01X18716739Y2085331D01*
G01X18705309Y2090919D01*
G01X18688291Y2090919D01*
G01X18799035Y2131051D02*
G01X18799035Y2033769D01*
G01X18804623Y2016751D01*
G01X18816053Y2010909D01*
G01X18827483Y2010909D01*
G01X18781763Y2090919D02*
G01X18821895Y2090919D01*
G01X18892507Y2131051D02*
G01X18892507Y2033769D01*
G01X18898095Y2016751D01*
G01X18909525Y2010909D01*
G01X18920955Y2010909D01*
G01X18875235Y2090919D02*
G01X18915367Y2090919D01*
G01X18997409Y2090919D02*
G01X18985979Y2085331D01*
G01X18974549Y2073901D01*
G01X18968707Y2056629D01*
G01X18968707Y2045199D01*
G01X18974549Y2028181D01*
G01X18985979Y2016751D01*
G01X18997409Y2010909D01*
G01X19014427Y2010909D01*
G01X19025857Y2016751D01*
G01X19037287Y2028181D01*
G01X19043129Y2045199D01*
G01X19043129Y2056629D01*
G01X19037287Y2073901D01*
G01X19025857Y2085331D01*
G01X19014427Y2090919D01*
G01X18997409Y2090919D01*
G01X19090881Y2090919D02*
G01X19090881Y2010909D01*
G01X19090881Y2068059D02*
G01X19108153Y2085331D01*
G01X19119583Y2090919D01*
G01X19136601Y2090919D01*
G01X19148031Y2085331D01*
G01X19153873Y2068059D01*
G01X19153873Y2010909D01*
G01X19153873Y2068059D02*
G01X19170891Y2085331D01*
G01X19182321Y2090919D01*
G01X19199593Y2090919D01*
G01X19211023Y2085331D01*
G01X19216611Y2068059D01*
G01X19216611Y2010909D01*
G01X19392379Y2131051D02*
G01X19392379Y2010909D01*
G01X19392379Y2010909D02*
G01X19460959Y2010909D01*
G01X19577291Y2090919D02*
G01X19577291Y2010909D01*
G01X19577291Y2073901D02*
G01X19565861Y2085331D01*
G01X19554431Y2090919D01*
G01X19537413Y2090919D01*
G01X19525983Y2085331D01*
G01X19514553Y2073901D01*
G01X19508711Y2056629D01*
G01X19508711Y2045199D01*
G01X19514553Y2028181D01*
G01X19525983Y2016751D01*
G01X19537413Y2010909D01*
G01X19554431Y2010909D01*
G01X19565861Y2016751D01*
G01X19577291Y2028181D01*
G01X19630885Y2090919D02*
G01X19665175Y2010909D01*
G01X19699465Y2090919D02*
G01X19665175Y2010909D01*
G01X19653745Y1988049D01*
G01X19642315Y1976619D01*
G01X19630885Y1971031D01*
G01X19625043Y1971031D01*
G01X19747217Y2056629D02*
G01X19815797Y2056629D01*
G01X19815797Y2068059D01*
G01X19810209Y2079489D01*
G01X19804367Y2085331D01*
G01X19792937Y2090919D01*
G01X19775919Y2090919D01*
G01X19764489Y2085331D01*
G01X19753059Y2073901D01*
G01X19747217Y2056629D01*
G01X19747217Y2045199D01*
G01X19753059Y2028181D01*
G01X19764489Y2016751D01*
G01X19775919Y2010909D01*
G01X19792937Y2010909D01*
G01X19804367Y2016751D01*
G01X19815797Y2028181D01*
G01X19863549Y2090919D02*
G01X19863549Y2010909D01*
G01X19863549Y2056629D02*
G01X19869391Y2073901D01*
G01X19880821Y2085331D01*
G01X19892251Y2090919D01*
G01X19909269Y2090919D01*
G01X5561716Y1521778D02*
G01X5561716Y1527620D01*
G01X5567304Y1539050D01*
G01X5573146Y1544638D01*
G01X5584576Y1550480D01*
G01X5607436Y1550480D01*
G01X5618866Y1544638D01*
G01X5624454Y1539050D01*
G01X5630296Y1527620D01*
G01X5630296Y1516190D01*
G01X5624454Y1504760D01*
G01X5613024Y1487488D01*
G01X5555874Y1430338D01*
G01X5635884Y1430338D01*
G01X7038617Y1550480D02*
G01X6981467Y1550480D01*
G01X6975879Y1498918D01*
G01X6981467Y1504760D01*
G01X6998739Y1510348D01*
G01X7015757Y1510348D01*
G01X7033029Y1504760D01*
G01X7044459Y1493330D01*
G01X7050047Y1476058D01*
G01X7050047Y1464628D01*
G01X7044459Y1447610D01*
G01X7033029Y1436180D01*
G01X7015757Y1430338D01*
G01X6998739Y1430338D01*
G01X6981467Y1436180D01*
G01X6975879Y1441768D01*
G01X6970037Y1453198D01*
G01X7172221Y1510348D02*
G01X7166379Y1493330D01*
G01X7154949Y1481900D01*
G01X7137931Y1476058D01*
G01X7132089Y1476058D01*
G01X7115071Y1481900D01*
G01X7103641Y1493330D01*
G01X7097799Y1510348D01*
G01X7097799Y1516190D01*
G01X7103641Y1533208D01*
G01X7115071Y1544638D01*
G01X7132089Y1550480D01*
G01X7137931Y1550480D01*
G01X7154949Y1544638D01*
G01X7166379Y1533208D01*
G01X7172221Y1510348D01*
G01X7172221Y1481900D01*
G01X7166379Y1453198D01*
G01X7154949Y1436180D01*
G01X7137931Y1430338D01*
G01X7126501Y1430338D01*
G01X7109229Y1436180D01*
G01X7103641Y1447610D01*
G01X7225815Y1459040D02*
G01X7219973Y1453198D01*
G01X7225815Y1447610D01*
G01X7231403Y1453198D01*
G01X7225815Y1459040D01*
G01X7279155Y1527620D02*
G01X7290585Y1533208D01*
G01X7307857Y1550480D01*
G01X7307857Y1430338D01*
G01X7355609Y1510348D02*
G01X7355609Y1430338D01*
G01X7355609Y1487488D02*
G01X7372881Y1504760D01*
G01X7384311Y1510348D01*
G01X7401329Y1510348D01*
G01X7412759Y1504760D01*
G01X7418601Y1487488D01*
G01X7418601Y1430338D01*
G01X7418601Y1487488D02*
G01X7435619Y1504760D01*
G01X7447049Y1510348D01*
G01X7464321Y1510348D01*
G01X7475751Y1504760D01*
G01X7481339Y1487488D01*
G01X7481339Y1430338D01*
G01X7529091Y1550480D02*
G01X7534933Y1544638D01*
G01X7540521Y1550480D01*
G01X7534933Y1556068D01*
G01X7529091Y1550480D01*
G01X7534933Y1510348D02*
G01X7534933Y1430338D01*
G01X7588273Y1550480D02*
G01X7588273Y1430338D01*
G01X7676157Y1573340D02*
G01X7664727Y1561910D01*
G01X7653297Y1544638D01*
G01X7641867Y1521778D01*
G01X7636025Y1493330D01*
G01X7636025Y1470470D01*
G01X7641867Y1441768D01*
G01X7653297Y1418908D01*
G01X7664727Y1401890D01*
G01X7676157Y1390460D01*
G01X7723909Y1527620D02*
G01X7735339Y1533208D01*
G01X7752611Y1550480D01*
G01X7752611Y1430338D01*
G01X7806205Y1459040D02*
G01X7800363Y1453198D01*
G01X7806205Y1447610D01*
G01X7811793Y1453198D01*
G01X7806205Y1459040D01*
G01X7928125Y1550480D02*
G01X7870975Y1550480D01*
G01X7865387Y1498918D01*
G01X7870975Y1504760D01*
G01X7888247Y1510348D01*
G01X7905265Y1510348D01*
G01X7922537Y1504760D01*
G01X7933967Y1493330D01*
G01X7939555Y1476058D01*
G01X7939555Y1464628D01*
G01X7933967Y1447610D01*
G01X7922537Y1436180D01*
G01X7905265Y1430338D01*
G01X7888247Y1430338D01*
G01X7870975Y1436180D01*
G01X7865387Y1441768D01*
G01X7859545Y1453198D01*
G01X8021597Y1550480D02*
G01X8004579Y1544638D01*
G01X7993149Y1527620D01*
G01X7987307Y1498918D01*
G01X7987307Y1481900D01*
G01X7993149Y1453198D01*
G01X8004579Y1436180D01*
G01X8021597Y1430338D01*
G01X8033027Y1430338D01*
G01X8050299Y1436180D01*
G01X8061729Y1453198D01*
G01X8067317Y1481900D01*
G01X8067317Y1498918D01*
G01X8061729Y1527620D01*
G01X8050299Y1544638D01*
G01X8033027Y1550480D01*
G01X8021597Y1550480D01*
G01X8149359Y1550480D02*
G01X8132341Y1544638D01*
G01X8120911Y1527620D01*
G01X8115069Y1498918D01*
G01X8115069Y1481900D01*
G01X8120911Y1453198D01*
G01X8132341Y1436180D01*
G01X8149359Y1430338D01*
G01X8160789Y1430338D01*
G01X8178061Y1436180D01*
G01X8189491Y1453198D01*
G01X8195079Y1481900D01*
G01X8195079Y1498918D01*
G01X8189491Y1527620D01*
G01X8178061Y1544638D01*
G01X8160789Y1550480D01*
G01X8149359Y1550480D01*
G01X8242831Y1510348D02*
G01X8242831Y1430338D01*
G01X8242831Y1487488D02*
G01X8260103Y1504760D01*
G01X8271533Y1510348D01*
G01X8288551Y1510348D01*
G01X8299981Y1504760D01*
G01X8305823Y1487488D01*
G01X8305823Y1430338D01*
G01X8305823Y1487488D02*
G01X8322841Y1504760D01*
G01X8334271Y1510348D01*
G01X8351543Y1510348D01*
G01X8362973Y1504760D01*
G01X8368561Y1487488D01*
G01X8368561Y1430338D01*
G01X8416313Y1510348D02*
G01X8416313Y1430338D01*
G01X8416313Y1487488D02*
G01X8433585Y1504760D01*
G01X8445015Y1510348D01*
G01X8462033Y1510348D01*
G01X8473463Y1504760D01*
G01X8479305Y1487488D01*
G01X8479305Y1430338D01*
G01X8479305Y1487488D02*
G01X8496323Y1504760D01*
G01X8507753Y1510348D01*
G01X8525025Y1510348D01*
G01X8536455Y1504760D01*
G01X8542043Y1487488D01*
G01X8542043Y1430338D01*
G01X8589795Y1573340D02*
G01X8601225Y1561910D01*
G01X8612655Y1544638D01*
G01X8624085Y1521778D01*
G01X8629927Y1493330D01*
G01X8629927Y1470470D01*
G01X8624085Y1441768D01*
G01X8612655Y1418908D01*
G01X8601225Y1401890D01*
G01X8589795Y1390460D01*
G01X10841143Y1550480D02*
G01X10841143Y1430338D01*
G01X10841143Y1550480D02*
G01X10921153Y1430338D01*
G01X10921153Y1550480D02*
G01X10921153Y1430338D01*
G01X10968905Y1550480D02*
G01X10968905Y1430338D01*
G01X10968905Y1550480D02*
G01X11020467Y1550480D01*
G01X11037485Y1544638D01*
G01X11043327Y1539050D01*
G01X11048915Y1527620D01*
G01X11048915Y1510348D01*
G01X11043327Y1498918D01*
G01X11037485Y1493330D01*
G01X11020467Y1487488D01*
G01X10968905Y1487488D01*
G01X11136799Y1550480D02*
G01X11136799Y1430338D01*
G01X11096667Y1550480D02*
G01X11176677Y1550480D01*
G01X11224429Y1550480D02*
G01X11224429Y1430338D01*
G01X11304439Y1550480D02*
G01X11304439Y1430338D01*
G01X11224429Y1493330D02*
G01X11304439Y1493330D01*
G01X12302550Y1550480D02*
G01X12302550Y1430338D01*
G01X12302550Y1550480D02*
G01X12354112Y1550480D01*
G01X12371130Y1544638D01*
G01X12376972Y1539050D01*
G01X12382560Y1527620D01*
G01X12382560Y1516190D01*
G01X12376972Y1504760D01*
G01X12371130Y1498918D01*
G01X12354112Y1493330D01*
G01X12302550Y1493330D01*
G01X12342682Y1493330D02*
G01X12382560Y1430338D01*
G01X12459014Y1510348D02*
G01X12447584Y1504760D01*
G01X12436154Y1493330D01*
G01X12430312Y1476058D01*
G01X12430312Y1464628D01*
G01X12436154Y1447610D01*
G01X12447584Y1436180D01*
G01X12459014Y1430338D01*
G01X12476032Y1430338D01*
G01X12487462Y1436180D01*
G01X12498892Y1447610D01*
G01X12504734Y1464628D01*
G01X12504734Y1476058D01*
G01X12498892Y1493330D01*
G01X12487462Y1504760D01*
G01X12476032Y1510348D01*
G01X12459014Y1510348D01*
G01X12552486Y1510348D02*
G01X12552486Y1453198D01*
G01X12558328Y1436180D01*
G01X12569758Y1430338D01*
G01X12586776Y1430338D01*
G01X12598206Y1436180D01*
G01X12615478Y1453198D01*
G01X12615478Y1510348D02*
G01X12615478Y1430338D01*
G01X12663230Y1510348D02*
G01X12663230Y1430338D01*
G01X12663230Y1487488D02*
G01X12680502Y1504760D01*
G01X12691932Y1510348D01*
G01X12708950Y1510348D01*
G01X12720380Y1504760D01*
G01X12726222Y1487488D01*
G01X12726222Y1430338D01*
G01X12842554Y1550480D02*
G01X12842554Y1430338D01*
G01X12842554Y1493330D02*
G01X12831124Y1504760D01*
G01X12819694Y1510348D01*
G01X12802676Y1510348D01*
G01X12791246Y1504760D01*
G01X12779816Y1493330D01*
G01X12773974Y1476058D01*
G01X12773974Y1464628D01*
G01X12779816Y1447610D01*
G01X12791246Y1436180D01*
G01X12802676Y1430338D01*
G01X12819694Y1430338D01*
G01X12831124Y1436180D01*
G01X12842554Y1447610D01*
G01X13733731Y1550480D02*
G01X13779451Y1430338D01*
G01X13825171Y1550480D02*
G01X13779451Y1430338D01*
G01X13872923Y1550480D02*
G01X13878765Y1544638D01*
G01X13884353Y1550480D01*
G01X13878765Y1556068D01*
G01X13872923Y1550480D01*
G01X13878765Y1510348D02*
G01X13878765Y1430338D01*
G01X14000685Y1510348D02*
G01X14000685Y1430338D01*
G01X14000685Y1493330D02*
G01X13989255Y1504760D01*
G01X13977825Y1510348D01*
G01X13960807Y1510348D01*
G01X13949377Y1504760D01*
G01X13937947Y1493330D01*
G01X13932105Y1476058D01*
G01X13932105Y1464628D01*
G01X13937947Y1447610D01*
G01X13949377Y1436180D01*
G01X13960807Y1430338D01*
G01X13977825Y1430338D01*
G01X13989255Y1436180D01*
G01X14000685Y1447610D01*
G01X17362411Y1550480D02*
G01X17362411Y1430338D01*
G01X17322279Y1550480D02*
G01X17402289Y1550480D01*
G01X17478743Y1510348D02*
G01X17467313Y1504760D01*
G01X17455883Y1493330D01*
G01X17450041Y1476058D01*
G01X17450041Y1464628D01*
G01X17455883Y1447610D01*
G01X17467313Y1436180D01*
G01X17478743Y1430338D01*
G01X17495761Y1430338D01*
G01X17507191Y1436180D01*
G01X17518621Y1447610D01*
G01X17524463Y1464628D01*
G01X17524463Y1476058D01*
G01X17518621Y1493330D01*
G01X17507191Y1504760D01*
G01X17495761Y1510348D01*
G01X17478743Y1510348D01*
G01X17572215Y1510348D02*
G01X17572215Y1390460D01*
G01X17572215Y1493330D02*
G01X17583645Y1504760D01*
G01X17595075Y1510348D01*
G01X17612347Y1510348D01*
G01X17623777Y1504760D01*
G01X17635207Y1493330D01*
G01X17640795Y1476058D01*
G01X17640795Y1464628D01*
G01X17635207Y1447610D01*
G01X17623777Y1436180D01*
G01X17612347Y1430338D01*
G01X17595075Y1430338D01*
G01X17583645Y1436180D01*
G01X17572215Y1447610D01*
G01X17816563Y1550480D02*
G01X17816563Y1430338D01*
G01X17816563Y1430338D02*
G01X17885143Y1430338D01*
G01X18001475Y1510348D02*
G01X18001475Y1430338D01*
G01X18001475Y1493330D02*
G01X17990045Y1504760D01*
G01X17978615Y1510348D01*
G01X17961597Y1510348D01*
G01X17950167Y1504760D01*
G01X17938737Y1493330D01*
G01X17932895Y1476058D01*
G01X17932895Y1464628D01*
G01X17938737Y1447610D01*
G01X17950167Y1436180D01*
G01X17961597Y1430338D01*
G01X17978615Y1430338D01*
G01X17990045Y1436180D01*
G01X18001475Y1447610D01*
G01X18055069Y1510348D02*
G01X18089359Y1430338D01*
G01X18123649Y1510348D02*
G01X18089359Y1430338D01*
G01X18077929Y1407478D01*
G01X18066499Y1396048D01*
G01X18055069Y1390460D01*
G01X18049227Y1390460D01*
G01X18171401Y1476058D02*
G01X18239981Y1476058D01*
G01X18239981Y1487488D01*
G01X18234393Y1498918D01*
G01X18228551Y1504760D01*
G01X18217121Y1510348D01*
G01X18200103Y1510348D01*
G01X18188673Y1504760D01*
G01X18177243Y1493330D01*
G01X18171401Y1476058D01*
G01X18171401Y1464628D01*
G01X18177243Y1447610D01*
G01X18188673Y1436180D01*
G01X18200103Y1430338D01*
G01X18217121Y1430338D01*
G01X18228551Y1436180D01*
G01X18239981Y1447610D01*
G01X18287733Y1510348D02*
G01X18287733Y1430338D01*
G01X18287733Y1476058D02*
G01X18293575Y1493330D01*
G01X18305005Y1504760D01*
G01X18316435Y1510348D01*
G01X18333453Y1510348D01*
G01X18381205Y1481900D02*
G01X18484075Y1481900D01*
G01X18531827Y1550480D02*
G01X18531827Y1430338D01*
G01X18531827Y1550480D02*
G01X18583389Y1550480D01*
G01X18600407Y1544638D01*
G01X18606249Y1539050D01*
G01X18611837Y1527620D01*
G01X18611837Y1516190D01*
G01X18606249Y1504760D01*
G01X18600407Y1498918D01*
G01X18583389Y1493330D01*
G01X18531827Y1493330D02*
G01X18583389Y1493330D01*
G01X18600407Y1487488D01*
G01X18606249Y1481900D01*
G01X18611837Y1470470D01*
G01X18611837Y1453198D01*
G01X18606249Y1441768D01*
G01X18600407Y1436180D01*
G01X18583389Y1430338D01*
G01X18531827Y1430338D01*
G01X18688291Y1510348D02*
G01X18676861Y1504760D01*
G01X18665431Y1493330D01*
G01X18659589Y1476058D01*
G01X18659589Y1464628D01*
G01X18665431Y1447610D01*
G01X18676861Y1436180D01*
G01X18688291Y1430338D01*
G01X18705309Y1430338D01*
G01X18716739Y1436180D01*
G01X18728169Y1447610D01*
G01X18734011Y1464628D01*
G01X18734011Y1476058D01*
G01X18728169Y1493330D01*
G01X18716739Y1504760D01*
G01X18705309Y1510348D01*
G01X18688291Y1510348D01*
G01X18799035Y1550480D02*
G01X18799035Y1453198D01*
G01X18804623Y1436180D01*
G01X18816053Y1430338D01*
G01X18827483Y1430338D01*
G01X18781763Y1510348D02*
G01X18821895Y1510348D01*
G01X18892507Y1550480D02*
G01X18892507Y1453198D01*
G01X18898095Y1436180D01*
G01X18909525Y1430338D01*
G01X18920955Y1430338D01*
G01X18875235Y1510348D02*
G01X18915367Y1510348D01*
G01X18997409Y1510348D02*
G01X18985979Y1504760D01*
G01X18974549Y1493330D01*
G01X18968707Y1476058D01*
G01X18968707Y1464628D01*
G01X18974549Y1447610D01*
G01X18985979Y1436180D01*
G01X18997409Y1430338D01*
G01X19014427Y1430338D01*
G01X19025857Y1436180D01*
G01X19037287Y1447610D01*
G01X19043129Y1464628D01*
G01X19043129Y1476058D01*
G01X19037287Y1493330D01*
G01X19025857Y1504760D01*
G01X19014427Y1510348D01*
G01X18997409Y1510348D01*
G01X19090881Y1510348D02*
G01X19090881Y1430338D01*
G01X19090881Y1487488D02*
G01X19108153Y1504760D01*
G01X19119583Y1510348D01*
G01X19136601Y1510348D01*
G01X19148031Y1504760D01*
G01X19153873Y1487488D01*
G01X19153873Y1430338D01*
G01X19153873Y1487488D02*
G01X19170891Y1504760D01*
G01X19182321Y1510348D01*
G01X19199593Y1510348D01*
G01X19211023Y1504760D01*
G01X19216611Y1487488D01*
G01X19216611Y1430338D01*
G01X19392379Y1550480D02*
G01X19392379Y1430338D01*
G01X19392379Y1430338D02*
G01X19460959Y1430338D01*
G01X19577291Y1510348D02*
G01X19577291Y1430338D01*
G01X19577291Y1493330D02*
G01X19565861Y1504760D01*
G01X19554431Y1510348D01*
G01X19537413Y1510348D01*
G01X19525983Y1504760D01*
G01X19514553Y1493330D01*
G01X19508711Y1476058D01*
G01X19508711Y1464628D01*
G01X19514553Y1447610D01*
G01X19525983Y1436180D01*
G01X19537413Y1430338D01*
G01X19554431Y1430338D01*
G01X19565861Y1436180D01*
G01X19577291Y1447610D01*
G01X19630885Y1510348D02*
G01X19665175Y1430338D01*
G01X19699465Y1510348D02*
G01X19665175Y1430338D01*
G01X19653745Y1407478D01*
G01X19642315Y1396048D01*
G01X19630885Y1390460D01*
G01X19625043Y1390460D01*
G01X19747217Y1476058D02*
G01X19815797Y1476058D01*
G01X19815797Y1487488D01*
G01X19810209Y1498918D01*
G01X19804367Y1504760D01*
G01X19792937Y1510348D01*
G01X19775919Y1510348D01*
G01X19764489Y1504760D01*
G01X19753059Y1493330D01*
G01X19747217Y1476058D01*
G01X19747217Y1464628D01*
G01X19753059Y1447610D01*
G01X19764489Y1436180D01*
G01X19775919Y1430338D01*
G01X19792937Y1430338D01*
G01X19804367Y1436180D01*
G01X19815797Y1447610D01*
G01X19863549Y1510348D02*
G01X19863549Y1430338D01*
G01X19863549Y1476058D02*
G01X19869391Y1493330D01*
G01X19880821Y1504760D01*
G01X19892251Y1510348D01*
G01X19909269Y1510348D01*
G01X5613024Y969909D02*
G01X5555874Y889899D01*
G01X5641726Y889899D01*
G01X5613024Y969909D02*
G01X5613024Y849767D01*
G01X6981467Y969909D02*
G01X7044459Y969909D01*
G01X7010169Y924189D01*
G01X7027187Y924189D01*
G01X7038617Y918347D01*
G01X7044459Y912759D01*
G01X7050047Y895487D01*
G01X7050047Y884057D01*
G01X7044459Y867039D01*
G01X7033029Y855609D01*
G01X7015757Y849767D01*
G01X6998739Y849767D01*
G01X6981467Y855609D01*
G01X6975879Y861197D01*
G01X6970037Y872627D01*
G01X7166379Y952637D02*
G01X7160791Y964067D01*
G01X7143519Y969909D01*
G01X7132089Y969909D01*
G01X7115071Y964067D01*
G01X7103641Y947049D01*
G01X7097799Y918347D01*
G01X7097799Y889899D01*
G01X7103641Y867039D01*
G01X7115071Y855609D01*
G01X7132089Y849767D01*
G01X7137931Y849767D01*
G01X7154949Y855609D01*
G01X7166379Y867039D01*
G01X7172221Y884057D01*
G01X7172221Y889899D01*
G01X7166379Y906917D01*
G01X7154949Y918347D01*
G01X7137931Y924189D01*
G01X7132089Y924189D01*
G01X7115071Y918347D01*
G01X7103641Y906917D01*
G01X7097799Y889899D01*
G01X7225815Y878469D02*
G01X7219973Y872627D01*
G01X7225815Y867039D01*
G01X7231403Y872627D01*
G01X7225815Y878469D01*
G01X7313445Y969909D02*
G01X7296427Y964067D01*
G01X7284997Y947049D01*
G01X7279155Y918347D01*
G01X7279155Y901329D01*
G01X7284997Y872627D01*
G01X7296427Y855609D01*
G01X7313445Y849767D01*
G01X7324875Y849767D01*
G01X7342147Y855609D01*
G01X7353577Y872627D01*
G01X7359165Y901329D01*
G01X7359165Y918347D01*
G01X7353577Y947049D01*
G01X7342147Y964067D01*
G01X7324875Y969909D01*
G01X7313445Y969909D01*
G01X7406917Y929777D02*
G01X7469909Y849767D01*
G01X7469909Y929777D02*
G01X7406917Y849767D01*
G01X7529091Y969909D02*
G01X7592083Y969909D01*
G01X7557793Y924189D01*
G01X7574811Y924189D01*
G01X7586241Y918347D01*
G01X7592083Y912759D01*
G01X7597671Y895487D01*
G01X7597671Y884057D01*
G01X7592083Y867039D01*
G01X7580653Y855609D01*
G01X7563381Y849767D01*
G01X7546363Y849767D01*
G01X7529091Y855609D01*
G01X7523503Y861197D01*
G01X7517661Y872627D01*
G01X7714003Y952637D02*
G01X7708415Y964067D01*
G01X7691143Y969909D01*
G01X7679713Y969909D01*
G01X7662695Y964067D01*
G01X7651265Y947049D01*
G01X7645423Y918347D01*
G01X7645423Y889899D01*
G01X7651265Y867039D01*
G01X7662695Y855609D01*
G01X7679713Y849767D01*
G01X7685555Y849767D01*
G01X7702573Y855609D01*
G01X7714003Y867039D01*
G01X7719845Y884057D01*
G01X7719845Y889899D01*
G01X7714003Y906917D01*
G01X7702573Y918347D01*
G01X7685555Y924189D01*
G01X7679713Y924189D01*
G01X7662695Y918347D01*
G01X7651265Y906917D01*
G01X7645423Y889899D01*
G01X7773439Y878469D02*
G01X7767597Y872627D01*
G01X7773439Y867039D01*
G01X7779027Y872627D01*
G01X7773439Y878469D01*
G01X7861069Y969909D02*
G01X7844051Y964067D01*
G01X7832621Y947049D01*
G01X7826779Y918347D01*
G01X7826779Y901329D01*
G01X7832621Y872627D01*
G01X7844051Y855609D01*
G01X7861069Y849767D01*
G01X7872499Y849767D01*
G01X7889771Y855609D01*
G01X7901201Y872627D01*
G01X7906789Y901329D01*
G01X7906789Y918347D01*
G01X7901201Y947049D01*
G01X7889771Y964067D01*
G01X7872499Y969909D01*
G01X7861069Y969909D01*
G01X7954541Y929777D02*
G01X7954541Y849767D01*
G01X7954541Y906917D02*
G01X7971813Y924189D01*
G01X7983243Y929777D01*
G01X8000261Y929777D01*
G01X8011691Y924189D01*
G01X8017533Y906917D01*
G01X8017533Y849767D01*
G01X8017533Y906917D02*
G01X8034551Y924189D01*
G01X8045981Y929777D01*
G01X8063253Y929777D01*
G01X8074683Y924189D01*
G01X8080271Y906917D01*
G01X8080271Y849767D01*
G01X8128023Y969909D02*
G01X8133865Y964067D01*
G01X8139453Y969909D01*
G01X8133865Y975497D01*
G01X8128023Y969909D01*
G01X8133865Y929777D02*
G01X8133865Y849767D01*
G01X8187205Y969909D02*
G01X8187205Y849767D01*
G01X8275089Y992769D02*
G01X8263659Y981339D01*
G01X8252229Y964067D01*
G01X8240799Y941207D01*
G01X8234957Y912759D01*
G01X8234957Y889899D01*
G01X8240799Y861197D01*
G01X8252229Y838337D01*
G01X8263659Y821319D01*
G01X8275089Y809889D01*
G01X8357131Y969909D02*
G01X8340113Y964067D01*
G01X8328683Y947049D01*
G01X8322841Y918347D01*
G01X8322841Y901329D01*
G01X8328683Y872627D01*
G01X8340113Y855609D01*
G01X8357131Y849767D01*
G01X8368561Y849767D01*
G01X8385833Y855609D01*
G01X8397263Y872627D01*
G01X8402851Y901329D01*
G01X8402851Y918347D01*
G01X8397263Y947049D01*
G01X8385833Y964067D01*
G01X8368561Y969909D01*
G01X8357131Y969909D01*
G01X8456445Y878469D02*
G01X8450603Y872627D01*
G01X8456445Y867039D01*
G01X8462033Y872627D01*
G01X8456445Y878469D01*
G01X8584207Y929777D02*
G01X8578365Y912759D01*
G01X8566935Y901329D01*
G01X8549917Y895487D01*
G01X8544075Y895487D01*
G01X8527057Y901329D01*
G01X8515627Y912759D01*
G01X8509785Y929777D01*
G01X8509785Y935619D01*
G01X8515627Y952637D01*
G01X8527057Y964067D01*
G01X8544075Y969909D01*
G01X8549917Y969909D01*
G01X8566935Y964067D01*
G01X8578365Y952637D01*
G01X8584207Y929777D01*
G01X8584207Y901329D01*
G01X8578365Y872627D01*
G01X8566935Y855609D01*
G01X8549917Y849767D01*
G01X8538487Y849767D01*
G01X8521215Y855609D01*
G01X8515627Y867039D01*
G01X8631959Y947049D02*
G01X8643389Y952637D01*
G01X8660661Y969909D01*
G01X8660661Y849767D01*
G01X8765563Y969909D02*
G01X8708413Y889899D01*
G01X8794265Y889899D01*
G01X8765563Y969909D02*
G01X8765563Y849767D01*
G01X8842017Y929777D02*
G01X8905009Y849767D01*
G01X8905009Y929777D02*
G01X8842017Y849767D01*
G01X8987051Y969909D02*
G01X8970033Y964067D01*
G01X8958603Y947049D01*
G01X8952761Y918347D01*
G01X8952761Y901329D01*
G01X8958603Y872627D01*
G01X8970033Y855609D01*
G01X8987051Y849767D01*
G01X8998481Y849767D01*
G01X9015753Y855609D01*
G01X9027183Y872627D01*
G01X9032771Y901329D01*
G01X9032771Y918347D01*
G01X9027183Y947049D01*
G01X9015753Y964067D01*
G01X8998481Y969909D01*
G01X8987051Y969909D01*
G01X9086365Y878469D02*
G01X9080523Y872627D01*
G01X9086365Y867039D01*
G01X9091953Y872627D01*
G01X9086365Y878469D01*
G01X9214127Y929777D02*
G01X9208285Y912759D01*
G01X9196855Y901329D01*
G01X9179837Y895487D01*
G01X9173995Y895487D01*
G01X9156977Y901329D01*
G01X9145547Y912759D01*
G01X9139705Y929777D01*
G01X9139705Y935619D01*
G01X9145547Y952637D01*
G01X9156977Y964067D01*
G01X9173995Y969909D01*
G01X9179837Y969909D01*
G01X9196855Y964067D01*
G01X9208285Y952637D01*
G01X9214127Y929777D01*
G01X9214127Y901329D01*
G01X9208285Y872627D01*
G01X9196855Y855609D01*
G01X9179837Y849767D01*
G01X9168407Y849767D01*
G01X9151135Y855609D01*
G01X9145547Y867039D01*
G01X9261879Y947049D02*
G01X9273309Y952637D01*
G01X9290581Y969909D01*
G01X9290581Y849767D01*
G01X9395483Y969909D02*
G01X9338333Y889899D01*
G01X9424185Y889899D01*
G01X9395483Y969909D02*
G01X9395483Y849767D01*
G01X9471937Y929777D02*
G01X9471937Y849767D01*
G01X9471937Y906917D02*
G01X9489209Y924189D01*
G01X9500639Y929777D01*
G01X9517657Y929777D01*
G01X9529087Y924189D01*
G01X9534929Y906917D01*
G01X9534929Y849767D01*
G01X9534929Y906917D02*
G01X9551947Y924189D01*
G01X9563377Y929777D01*
G01X9580649Y929777D01*
G01X9592079Y924189D01*
G01X9597667Y906917D01*
G01X9597667Y849767D01*
G01X9645419Y929777D02*
G01X9645419Y849767D01*
G01X9645419Y906917D02*
G01X9662691Y924189D01*
G01X9674121Y929777D01*
G01X9691139Y929777D01*
G01X9702569Y924189D01*
G01X9708411Y906917D01*
G01X9708411Y849767D01*
G01X9708411Y906917D02*
G01X9725429Y924189D01*
G01X9736859Y929777D01*
G01X9754131Y929777D01*
G01X9765561Y924189D01*
G01X9771149Y906917D01*
G01X9771149Y849767D01*
G01X9818901Y992769D02*
G01X9830331Y981339D01*
G01X9841761Y964067D01*
G01X9853191Y941207D01*
G01X9859033Y912759D01*
G01X9859033Y889899D01*
G01X9853191Y861197D01*
G01X9841761Y838337D01*
G01X9830331Y821319D01*
G01X9818901Y809889D01*
G01X10841143Y969909D02*
G01X10841143Y849767D01*
G01X10841143Y969909D02*
G01X10892705Y969909D01*
G01X10909723Y964067D01*
G01X10915565Y958479D01*
G01X10921153Y947049D01*
G01X10921153Y929777D01*
G01X10915565Y918347D01*
G01X10909723Y912759D01*
G01X10892705Y906917D01*
G01X10841143Y906917D01*
G01X11009037Y969909D02*
G01X11009037Y849767D01*
G01X10968905Y969909D02*
G01X11048915Y969909D01*
G01X11096667Y969909D02*
G01X11096667Y849767D01*
G01X11176677Y969909D02*
G01X11176677Y849767D01*
G01X11096667Y912759D02*
G01X11176677Y912759D01*
G01X12302550Y969909D02*
G01X12302550Y849767D01*
G01X12302550Y969909D02*
G01X12354112Y969909D01*
G01X12371130Y964067D01*
G01X12376972Y958479D01*
G01X12382560Y947049D01*
G01X12382560Y935619D01*
G01X12376972Y924189D01*
G01X12371130Y918347D01*
G01X12354112Y912759D01*
G01X12302550Y912759D01*
G01X12342682Y912759D02*
G01X12382560Y849767D01*
G01X12459014Y929777D02*
G01X12447584Y924189D01*
G01X12436154Y912759D01*
G01X12430312Y895487D01*
G01X12430312Y884057D01*
G01X12436154Y867039D01*
G01X12447584Y855609D01*
G01X12459014Y849767D01*
G01X12476032Y849767D01*
G01X12487462Y855609D01*
G01X12498892Y867039D01*
G01X12504734Y884057D01*
G01X12504734Y895487D01*
G01X12498892Y912759D01*
G01X12487462Y924189D01*
G01X12476032Y929777D01*
G01X12459014Y929777D01*
G01X12552486Y929777D02*
G01X12552486Y872627D01*
G01X12558328Y855609D01*
G01X12569758Y849767D01*
G01X12586776Y849767D01*
G01X12598206Y855609D01*
G01X12615478Y872627D01*
G01X12615478Y929777D02*
G01X12615478Y849767D01*
G01X12663230Y929777D02*
G01X12663230Y849767D01*
G01X12663230Y906917D02*
G01X12680502Y924189D01*
G01X12691932Y929777D01*
G01X12708950Y929777D01*
G01X12720380Y924189D01*
G01X12726222Y906917D01*
G01X12726222Y849767D01*
G01X12842554Y969909D02*
G01X12842554Y849767D01*
G01X12842554Y912759D02*
G01X12831124Y924189D01*
G01X12819694Y929777D01*
G01X12802676Y929777D01*
G01X12791246Y924189D01*
G01X12779816Y912759D01*
G01X12773974Y895487D01*
G01X12773974Y884057D01*
G01X12779816Y867039D01*
G01X12791246Y855609D01*
G01X12802676Y849767D01*
G01X12819694Y849767D01*
G01X12831124Y855609D01*
G01X12842554Y867039D01*
G01X13733731Y969909D02*
G01X13733731Y849767D01*
G01X13733731Y969909D02*
G01X13785293Y969909D01*
G01X13802311Y964067D01*
G01X13808153Y958479D01*
G01X13813741Y947049D01*
G01X13813741Y929777D01*
G01X13808153Y918347D01*
G01X13802311Y912759D01*
G01X13785293Y906917D01*
G01X13733731Y906917D01*
G01X13930073Y929777D02*
G01X13930073Y849767D01*
G01X13930073Y912759D02*
G01X13918643Y924189D01*
G01X13907213Y929777D01*
G01X13890195Y929777D01*
G01X13878765Y924189D01*
G01X13867335Y912759D01*
G01X13861493Y895487D01*
G01X13861493Y884057D01*
G01X13867335Y867039D01*
G01X13878765Y855609D01*
G01X13890195Y849767D01*
G01X13907213Y849767D01*
G01X13918643Y855609D01*
G01X13930073Y867039D01*
G01X14046405Y969909D02*
G01X14046405Y849767D01*
G01X14046405Y912759D02*
G01X14034975Y924189D01*
G01X14023545Y929777D01*
G01X14006527Y929777D01*
G01X13995097Y924189D01*
G01X13983667Y912759D01*
G01X13977825Y895487D01*
G01X13977825Y884057D01*
G01X13983667Y867039D01*
G01X13995097Y855609D01*
G01X14006527Y849767D01*
G01X14023545Y849767D01*
G01X14034975Y855609D01*
G01X14046405Y867039D01*
G01X15402910Y969909D02*
G01X15402910Y849767D01*
G01X15402910Y969909D02*
G01X15454472Y969909D01*
G01X15471490Y964067D01*
G01X15477332Y958479D01*
G01X15482920Y947049D01*
G01X15482920Y935619D01*
G01X15477332Y924189D01*
G01X15471490Y918347D01*
G01X15454472Y912759D01*
G01X15402910Y912759D01*
G01X15443042Y912759D02*
G01X15482920Y849767D01*
G01X15559374Y929777D02*
G01X15547944Y924189D01*
G01X15536514Y912759D01*
G01X15530672Y895487D01*
G01X15530672Y884057D01*
G01X15536514Y867039D01*
G01X15547944Y855609D01*
G01X15559374Y849767D01*
G01X15576392Y849767D01*
G01X15587822Y855609D01*
G01X15599252Y867039D01*
G01X15605094Y884057D01*
G01X15605094Y895487D01*
G01X15599252Y912759D01*
G01X15587822Y924189D01*
G01X15576392Y929777D01*
G01X15559374Y929777D01*
G01X15652846Y929777D02*
G01X15652846Y872627D01*
G01X15658688Y855609D01*
G01X15670118Y849767D01*
G01X15687136Y849767D01*
G01X15698566Y855609D01*
G01X15715838Y872627D01*
G01X15715838Y929777D02*
G01X15715838Y849767D01*
G01X15763590Y929777D02*
G01X15763590Y849767D01*
G01X15763590Y906917D02*
G01X15780862Y924189D01*
G01X15792292Y929777D01*
G01X15809310Y929777D01*
G01X15820740Y924189D01*
G01X15826582Y906917D01*
G01X15826582Y849767D01*
G01X15942914Y969909D02*
G01X15942914Y849767D01*
G01X15942914Y912759D02*
G01X15931484Y924189D01*
G01X15920054Y929777D01*
G01X15903036Y929777D01*
G01X15891606Y924189D01*
G01X15880176Y912759D01*
G01X15874334Y895487D01*
G01X15874334Y884057D01*
G01X15880176Y867039D01*
G01X15891606Y855609D01*
G01X15903036Y849767D01*
G01X15920054Y849767D01*
G01X15931484Y855609D01*
G01X15942914Y867039D01*
G01X17362411Y969909D02*
G01X17362411Y849767D01*
G01X17322279Y969909D02*
G01X17402289Y969909D01*
G01X17478743Y929777D02*
G01X17467313Y924189D01*
G01X17455883Y912759D01*
G01X17450041Y895487D01*
G01X17450041Y884057D01*
G01X17455883Y867039D01*
G01X17467313Y855609D01*
G01X17478743Y849767D01*
G01X17495761Y849767D01*
G01X17507191Y855609D01*
G01X17518621Y867039D01*
G01X17524463Y884057D01*
G01X17524463Y895487D01*
G01X17518621Y912759D01*
G01X17507191Y924189D01*
G01X17495761Y929777D01*
G01X17478743Y929777D01*
G01X17572215Y929777D02*
G01X17572215Y809889D01*
G01X17572215Y912759D02*
G01X17583645Y924189D01*
G01X17595075Y929777D01*
G01X17612347Y929777D01*
G01X17623777Y924189D01*
G01X17635207Y912759D01*
G01X17640795Y895487D01*
G01X17640795Y884057D01*
G01X17635207Y867039D01*
G01X17623777Y855609D01*
G01X17612347Y849767D01*
G01X17595075Y849767D01*
G01X17583645Y855609D01*
G01X17572215Y867039D01*
G01X17816563Y969909D02*
G01X17816563Y849767D01*
G01X17816563Y849767D02*
G01X17885143Y849767D01*
G01X18001475Y929777D02*
G01X18001475Y849767D01*
G01X18001475Y912759D02*
G01X17990045Y924189D01*
G01X17978615Y929777D01*
G01X17961597Y929777D01*
G01X17950167Y924189D01*
G01X17938737Y912759D01*
G01X17932895Y895487D01*
G01X17932895Y884057D01*
G01X17938737Y867039D01*
G01X17950167Y855609D01*
G01X17961597Y849767D01*
G01X17978615Y849767D01*
G01X17990045Y855609D01*
G01X18001475Y867039D01*
G01X18055069Y929777D02*
G01X18089359Y849767D01*
G01X18123649Y929777D02*
G01X18089359Y849767D01*
G01X18077929Y826907D01*
G01X18066499Y815477D01*
G01X18055069Y809889D01*
G01X18049227Y809889D01*
G01X18171401Y895487D02*
G01X18239981Y895487D01*
G01X18239981Y906917D01*
G01X18234393Y918347D01*
G01X18228551Y924189D01*
G01X18217121Y929777D01*
G01X18200103Y929777D01*
G01X18188673Y924189D01*
G01X18177243Y912759D01*
G01X18171401Y895487D01*
G01X18171401Y884057D01*
G01X18177243Y867039D01*
G01X18188673Y855609D01*
G01X18200103Y849767D01*
G01X18217121Y849767D01*
G01X18228551Y855609D01*
G01X18239981Y867039D01*
G01X18287733Y929777D02*
G01X18287733Y849767D01*
G01X18287733Y895487D02*
G01X18293575Y912759D01*
G01X18305005Y924189D01*
G01X18316435Y929777D01*
G01X18333453Y929777D01*
G01X18381205Y901329D02*
G01X18484075Y901329D01*
G01X18531827Y969909D02*
G01X18531827Y849767D01*
G01X18531827Y969909D02*
G01X18583389Y969909D01*
G01X18600407Y964067D01*
G01X18606249Y958479D01*
G01X18611837Y947049D01*
G01X18611837Y935619D01*
G01X18606249Y924189D01*
G01X18600407Y918347D01*
G01X18583389Y912759D01*
G01X18531827Y912759D02*
G01X18583389Y912759D01*
G01X18600407Y906917D01*
G01X18606249Y901329D01*
G01X18611837Y889899D01*
G01X18611837Y872627D01*
G01X18606249Y861197D01*
G01X18600407Y855609D01*
G01X18583389Y849767D01*
G01X18531827Y849767D01*
G01X18688291Y929777D02*
G01X18676861Y924189D01*
G01X18665431Y912759D01*
G01X18659589Y895487D01*
G01X18659589Y884057D01*
G01X18665431Y867039D01*
G01X18676861Y855609D01*
G01X18688291Y849767D01*
G01X18705309Y849767D01*
G01X18716739Y855609D01*
G01X18728169Y867039D01*
G01X18734011Y884057D01*
G01X18734011Y895487D01*
G01X18728169Y912759D01*
G01X18716739Y924189D01*
G01X18705309Y929777D01*
G01X18688291Y929777D01*
G01X18799035Y969909D02*
G01X18799035Y872627D01*
G01X18804623Y855609D01*
G01X18816053Y849767D01*
G01X18827483Y849767D01*
G01X18781763Y929777D02*
G01X18821895Y929777D01*
G01X18892507Y969909D02*
G01X18892507Y872627D01*
G01X18898095Y855609D01*
G01X18909525Y849767D01*
G01X18920955Y849767D01*
G01X18875235Y929777D02*
G01X18915367Y929777D01*
G01X18997409Y929777D02*
G01X18985979Y924189D01*
G01X18974549Y912759D01*
G01X18968707Y895487D01*
G01X18968707Y884057D01*
G01X18974549Y867039D01*
G01X18985979Y855609D01*
G01X18997409Y849767D01*
G01X19014427Y849767D01*
G01X19025857Y855609D01*
G01X19037287Y867039D01*
G01X19043129Y884057D01*
G01X19043129Y895487D01*
G01X19037287Y912759D01*
G01X19025857Y924189D01*
G01X19014427Y929777D01*
G01X18997409Y929777D01*
G01X19090881Y929777D02*
G01X19090881Y849767D01*
G01X19090881Y906917D02*
G01X19108153Y924189D01*
G01X19119583Y929777D01*
G01X19136601Y929777D01*
G01X19148031Y924189D01*
G01X19153873Y906917D01*
G01X19153873Y849767D01*
G01X19153873Y906917D02*
G01X19170891Y924189D01*
G01X19182321Y929777D01*
G01X19199593Y929777D01*
G01X19211023Y924189D01*
G01X19216611Y906917D01*
G01X19216611Y849767D01*
G01X19392379Y969909D02*
G01X19392379Y849767D01*
G01X19392379Y849767D02*
G01X19460959Y849767D01*
G01X19577291Y929777D02*
G01X19577291Y849767D01*
G01X19577291Y912759D02*
G01X19565861Y924189D01*
G01X19554431Y929777D01*
G01X19537413Y929777D01*
G01X19525983Y924189D01*
G01X19514553Y912759D01*
G01X19508711Y895487D01*
G01X19508711Y884057D01*
G01X19514553Y867039D01*
G01X19525983Y855609D01*
G01X19537413Y849767D01*
G01X19554431Y849767D01*
G01X19565861Y855609D01*
G01X19577291Y867039D01*
G01X19630885Y929777D02*
G01X19665175Y849767D01*
G01X19699465Y929777D02*
G01X19665175Y849767D01*
G01X19653745Y826907D01*
G01X19642315Y815477D01*
G01X19630885Y809889D01*
G01X19625043Y809889D01*
G01X19747217Y895487D02*
G01X19815797Y895487D01*
G01X19815797Y906917D01*
G01X19810209Y918347D01*
G01X19804367Y924189D01*
G01X19792937Y929777D01*
G01X19775919Y929777D01*
G01X19764489Y924189D01*
G01X19753059Y912759D01*
G01X19747217Y895487D01*
G01X19747217Y884057D01*
G01X19753059Y867039D01*
G01X19764489Y855609D01*
G01X19775919Y849767D01*
G01X19792937Y849767D01*
G01X19804367Y855609D01*
G01X19815797Y867039D01*
G01X19863549Y929777D02*
G01X19863549Y849767D01*
G01X19863549Y895487D02*
G01X19869391Y912759D01*
G01X19880821Y924189D01*
G01X19892251Y929777D01*
G01X19909269Y929777D01*
G01X5630296Y349205D02*
G01X5624454Y332187D01*
G01X5613024Y320757D01*
G01X5596006Y314915D01*
G01X5590164Y314915D01*
G01X5573146Y320757D01*
G01X5561716Y332187D01*
G01X5555874Y349205D01*
G01X5555874Y355047D01*
G01X5561716Y372065D01*
G01X5573146Y383495D01*
G01X5590164Y389337D01*
G01X5596006Y389337D01*
G01X5613024Y383495D01*
G01X5624454Y372065D01*
G01X5630296Y349205D01*
G01X5630296Y320757D01*
G01X5624454Y292055D01*
G01X5613024Y275037D01*
G01X5596006Y269195D01*
G01X5584576Y269195D01*
G01X5567304Y275037D01*
G01X5561716Y286467D01*
G01X5712338Y389337D02*
G01X5695320Y383495D01*
G01X5683890Y366477D01*
G01X5678048Y337775D01*
G01X5678048Y320757D01*
G01X5683890Y292055D01*
G01X5695320Y275037D01*
G01X5712338Y269195D01*
G01X5723768Y269195D01*
G01X5741040Y275037D01*
G01X5752470Y292055D01*
G01X5758058Y320757D01*
G01X5758058Y337775D01*
G01X5752470Y366477D01*
G01X5741040Y383495D01*
G01X5723768Y389337D01*
G01X5712338Y389337D01*
G01X6970037Y366477D02*
G01X6981467Y372065D01*
G01X6998739Y389337D01*
G01X6998739Y269195D01*
G01X7052333Y360635D02*
G01X7052333Y366477D01*
G01X7057921Y377907D01*
G01X7063763Y383495D01*
G01X7075193Y389337D01*
G01X7098053Y389337D01*
G01X7109483Y383495D01*
G01X7115071Y377907D01*
G01X7120913Y366477D01*
G01X7120913Y355047D01*
G01X7115071Y343617D01*
G01X7103641Y326345D01*
G01X7046491Y269195D01*
G01X7126501Y269195D01*
G01X7180095Y297897D02*
G01X7174253Y292055D01*
G01X7180095Y286467D01*
G01X7185683Y292055D01*
G01X7180095Y297897D01*
G01X7267725Y389337D02*
G01X7250707Y383495D01*
G01X7239277Y366477D01*
G01X7233435Y337775D01*
G01X7233435Y320757D01*
G01X7239277Y292055D01*
G01X7250707Y275037D01*
G01X7267725Y269195D01*
G01X7279155Y269195D01*
G01X7296427Y275037D01*
G01X7307857Y292055D01*
G01X7313445Y320757D01*
G01X7313445Y337775D01*
G01X7307857Y366477D01*
G01X7296427Y383495D01*
G01X7279155Y389337D01*
G01X7267725Y389337D01*
G01X7361197Y349205D02*
G01X7361197Y269195D01*
G01X7361197Y326345D02*
G01X7378469Y343617D01*
G01X7389899Y349205D01*
G01X7406917Y349205D01*
G01X7418347Y343617D01*
G01X7424189Y326345D01*
G01X7424189Y269195D01*
G01X7424189Y326345D02*
G01X7441207Y343617D01*
G01X7452637Y349205D01*
G01X7469909Y349205D01*
G01X7481339Y343617D01*
G01X7486927Y326345D01*
G01X7486927Y269195D01*
G01X7534679Y389337D02*
G01X7540521Y383495D01*
G01X7546109Y389337D01*
G01X7540521Y394925D01*
G01X7534679Y389337D01*
G01X7540521Y349205D02*
G01X7540521Y269195D01*
G01X7593861Y389337D02*
G01X7593861Y269195D01*
G01X7681745Y412197D02*
G01X7670315Y400767D01*
G01X7658885Y383495D01*
G01X7647455Y360635D01*
G01X7641613Y332187D01*
G01X7641613Y309327D01*
G01X7647455Y280625D01*
G01X7658885Y257765D01*
G01X7670315Y240747D01*
G01X7681745Y229317D01*
G01X7763787Y389337D02*
G01X7746769Y383495D01*
G01X7735339Y366477D01*
G01X7729497Y337775D01*
G01X7729497Y320757D01*
G01X7735339Y292055D01*
G01X7746769Y275037D01*
G01X7763787Y269195D01*
G01X7775217Y269195D01*
G01X7792489Y275037D01*
G01X7803919Y292055D01*
G01X7809507Y320757D01*
G01X7809507Y337775D01*
G01X7803919Y366477D01*
G01X7792489Y383495D01*
G01X7775217Y389337D01*
G01X7763787Y389337D01*
G01X7863101Y297897D02*
G01X7857259Y292055D01*
G01X7863101Y286467D01*
G01X7868689Y292055D01*
G01X7863101Y297897D01*
G01X7927871Y389337D02*
G01X7990863Y389337D01*
G01X7956573Y343617D01*
G01X7973591Y343617D01*
G01X7985021Y337775D01*
G01X7990863Y332187D01*
G01X7996451Y314915D01*
G01X7996451Y303485D01*
G01X7990863Y286467D01*
G01X7979433Y275037D01*
G01X7962161Y269195D01*
G01X7945143Y269195D01*
G01X7927871Y275037D01*
G01X7922283Y280625D01*
G01X7916441Y292055D01*
G01X8078493Y389337D02*
G01X8061475Y383495D01*
G01X8050045Y366477D01*
G01X8044203Y337775D01*
G01X8044203Y320757D01*
G01X8050045Y292055D01*
G01X8061475Y275037D01*
G01X8078493Y269195D01*
G01X8089923Y269195D01*
G01X8107195Y275037D01*
G01X8118625Y292055D01*
G01X8124213Y320757D01*
G01X8124213Y337775D01*
G01X8118625Y366477D01*
G01X8107195Y383495D01*
G01X8089923Y389337D01*
G01X8078493Y389337D01*
G01X8240545Y389337D02*
G01X8183395Y389337D01*
G01X8177807Y337775D01*
G01X8183395Y343617D01*
G01X8200667Y349205D01*
G01X8217685Y349205D01*
G01X8234957Y343617D01*
G01X8246387Y332187D01*
G01X8251975Y314915D01*
G01X8251975Y303485D01*
G01X8246387Y286467D01*
G01X8234957Y275037D01*
G01X8217685Y269195D01*
G01X8200667Y269195D01*
G01X8183395Y275037D01*
G01X8177807Y280625D01*
G01X8171965Y292055D01*
G01X8299727Y349205D02*
G01X8299727Y269195D01*
G01X8299727Y326345D02*
G01X8316999Y343617D01*
G01X8328429Y349205D01*
G01X8345447Y349205D01*
G01X8356877Y343617D01*
G01X8362719Y326345D01*
G01X8362719Y269195D01*
G01X8362719Y326345D02*
G01X8379737Y343617D01*
G01X8391167Y349205D01*
G01X8408439Y349205D01*
G01X8419869Y343617D01*
G01X8425457Y326345D01*
G01X8425457Y269195D01*
G01X8473209Y349205D02*
G01X8473209Y269195D01*
G01X8473209Y326345D02*
G01X8490481Y343617D01*
G01X8501911Y349205D01*
G01X8518929Y349205D01*
G01X8530359Y343617D01*
G01X8536201Y326345D01*
G01X8536201Y269195D01*
G01X8536201Y326345D02*
G01X8553219Y343617D01*
G01X8564649Y349205D01*
G01X8581921Y349205D01*
G01X8593351Y343617D01*
G01X8598939Y326345D01*
G01X8598939Y269195D01*
G01X8646691Y412197D02*
G01X8658121Y400767D01*
G01X8669551Y383495D01*
G01X8680981Y360635D01*
G01X8686823Y332187D01*
G01X8686823Y309327D01*
G01X8680981Y280625D01*
G01X8669551Y257765D01*
G01X8658121Y240747D01*
G01X8646691Y229317D01*
G01X10841143Y389337D02*
G01X10841143Y269195D01*
G01X10841143Y389337D02*
G01X10892705Y389337D01*
G01X10909723Y383495D01*
G01X10915565Y377907D01*
G01X10921153Y366477D01*
G01X10921153Y349205D01*
G01X10915565Y337775D01*
G01X10909723Y332187D01*
G01X10892705Y326345D01*
G01X10841143Y326345D01*
G01X11009037Y389337D02*
G01X11009037Y269195D01*
G01X10968905Y389337D02*
G01X11048915Y389337D01*
G01X11096667Y389337D02*
G01X11096667Y269195D01*
G01X11176677Y389337D02*
G01X11176677Y269195D01*
G01X11096667Y332187D02*
G01X11176677Y332187D01*
G01X12302550Y389337D02*
G01X12302550Y269195D01*
G01X12302550Y389337D02*
G01X12354112Y389337D01*
G01X12371130Y383495D01*
G01X12376972Y377907D01*
G01X12382560Y366477D01*
G01X12382560Y355047D01*
G01X12376972Y343617D01*
G01X12371130Y337775D01*
G01X12354112Y332187D01*
G01X12302550Y332187D01*
G01X12342682Y332187D02*
G01X12382560Y269195D01*
G01X12459014Y349205D02*
G01X12447584Y343617D01*
G01X12436154Y332187D01*
G01X12430312Y314915D01*
G01X12430312Y303485D01*
G01X12436154Y286467D01*
G01X12447584Y275037D01*
G01X12459014Y269195D01*
G01X12476032Y269195D01*
G01X12487462Y275037D01*
G01X12498892Y286467D01*
G01X12504734Y303485D01*
G01X12504734Y314915D01*
G01X12498892Y332187D01*
G01X12487462Y343617D01*
G01X12476032Y349205D01*
G01X12459014Y349205D01*
G01X12552486Y349205D02*
G01X12552486Y292055D01*
G01X12558328Y275037D01*
G01X12569758Y269195D01*
G01X12586776Y269195D01*
G01X12598206Y275037D01*
G01X12615478Y292055D01*
G01X12615478Y349205D02*
G01X12615478Y269195D01*
G01X12663230Y349205D02*
G01X12663230Y269195D01*
G01X12663230Y326345D02*
G01X12680502Y343617D01*
G01X12691932Y349205D01*
G01X12708950Y349205D01*
G01X12720380Y343617D01*
G01X12726222Y326345D01*
G01X12726222Y269195D01*
G01X12842554Y389337D02*
G01X12842554Y269195D01*
G01X12842554Y332187D02*
G01X12831124Y343617D01*
G01X12819694Y349205D01*
G01X12802676Y349205D01*
G01X12791246Y343617D01*
G01X12779816Y332187D01*
G01X12773974Y314915D01*
G01X12773974Y303485D01*
G01X12779816Y286467D01*
G01X12791246Y275037D01*
G01X12802676Y269195D01*
G01X12819694Y269195D01*
G01X12831124Y275037D01*
G01X12842554Y286467D01*
G01X13733731Y389337D02*
G01X13779451Y269195D01*
G01X13825171Y389337D02*
G01X13779451Y269195D01*
G01X13872923Y389337D02*
G01X13878765Y383495D01*
G01X13884353Y389337D01*
G01X13878765Y394925D01*
G01X13872923Y389337D01*
G01X13878765Y349205D02*
G01X13878765Y269195D01*
G01X14000685Y349205D02*
G01X14000685Y269195D01*
G01X14000685Y332187D02*
G01X13989255Y343617D01*
G01X13977825Y349205D01*
G01X13960807Y349205D01*
G01X13949377Y343617D01*
G01X13937947Y332187D01*
G01X13932105Y314915D01*
G01X13932105Y303485D01*
G01X13937947Y286467D01*
G01X13949377Y275037D01*
G01X13960807Y269195D01*
G01X13977825Y269195D01*
G01X13989255Y275037D01*
G01X14000685Y286467D01*
G01X17362411Y389337D02*
G01X17362411Y269195D01*
G01X17322279Y389337D02*
G01X17402289Y389337D01*
G01X17478743Y349205D02*
G01X17467313Y343617D01*
G01X17455883Y332187D01*
G01X17450041Y314915D01*
G01X17450041Y303485D01*
G01X17455883Y286467D01*
G01X17467313Y275037D01*
G01X17478743Y269195D01*
G01X17495761Y269195D01*
G01X17507191Y275037D01*
G01X17518621Y286467D01*
G01X17524463Y303485D01*
G01X17524463Y314915D01*
G01X17518621Y332187D01*
G01X17507191Y343617D01*
G01X17495761Y349205D01*
G01X17478743Y349205D01*
G01X17572215Y349205D02*
G01X17572215Y229317D01*
G01X17572215Y332187D02*
G01X17583645Y343617D01*
G01X17595075Y349205D01*
G01X17612347Y349205D01*
G01X17623777Y343617D01*
G01X17635207Y332187D01*
G01X17640795Y314915D01*
G01X17640795Y303485D01*
G01X17635207Y286467D01*
G01X17623777Y275037D01*
G01X17612347Y269195D01*
G01X17595075Y269195D01*
G01X17583645Y275037D01*
G01X17572215Y286467D01*
G01X17816563Y389337D02*
G01X17816563Y269195D01*
G01X17816563Y269195D02*
G01X17885143Y269195D01*
G01X18001475Y349205D02*
G01X18001475Y269195D01*
G01X18001475Y332187D02*
G01X17990045Y343617D01*
G01X17978615Y349205D01*
G01X17961597Y349205D01*
G01X17950167Y343617D01*
G01X17938737Y332187D01*
G01X17932895Y314915D01*
G01X17932895Y303485D01*
G01X17938737Y286467D01*
G01X17950167Y275037D01*
G01X17961597Y269195D01*
G01X17978615Y269195D01*
G01X17990045Y275037D01*
G01X18001475Y286467D01*
G01X18055069Y349205D02*
G01X18089359Y269195D01*
G01X18123649Y349205D02*
G01X18089359Y269195D01*
G01X18077929Y246335D01*
G01X18066499Y234905D01*
G01X18055069Y229317D01*
G01X18049227Y229317D01*
G01X18171401Y314915D02*
G01X18239981Y314915D01*
G01X18239981Y326345D01*
G01X18234393Y337775D01*
G01X18228551Y343617D01*
G01X18217121Y349205D01*
G01X18200103Y349205D01*
G01X18188673Y343617D01*
G01X18177243Y332187D01*
G01X18171401Y314915D01*
G01X18171401Y303485D01*
G01X18177243Y286467D01*
G01X18188673Y275037D01*
G01X18200103Y269195D01*
G01X18217121Y269195D01*
G01X18228551Y275037D01*
G01X18239981Y286467D01*
G01X18287733Y349205D02*
G01X18287733Y269195D01*
G01X18287733Y314915D02*
G01X18293575Y332187D01*
G01X18305005Y343617D01*
G01X18316435Y349205D01*
G01X18333453Y349205D01*
G01X18381205Y320757D02*
G01X18484075Y320757D01*
G01X18531827Y389337D02*
G01X18531827Y269195D01*
G01X18531827Y389337D02*
G01X18583389Y389337D01*
G01X18600407Y383495D01*
G01X18606249Y377907D01*
G01X18611837Y366477D01*
G01X18611837Y355047D01*
G01X18606249Y343617D01*
G01X18600407Y337775D01*
G01X18583389Y332187D01*
G01X18531827Y332187D02*
G01X18583389Y332187D01*
G01X18600407Y326345D01*
G01X18606249Y320757D01*
G01X18611837Y309327D01*
G01X18611837Y292055D01*
G01X18606249Y280625D01*
G01X18600407Y275037D01*
G01X18583389Y269195D01*
G01X18531827Y269195D01*
G01X18688291Y349205D02*
G01X18676861Y343617D01*
G01X18665431Y332187D01*
G01X18659589Y314915D01*
G01X18659589Y303485D01*
G01X18665431Y286467D01*
G01X18676861Y275037D01*
G01X18688291Y269195D01*
G01X18705309Y269195D01*
G01X18716739Y275037D01*
G01X18728169Y286467D01*
G01X18734011Y303485D01*
G01X18734011Y314915D01*
G01X18728169Y332187D01*
G01X18716739Y343617D01*
G01X18705309Y349205D01*
G01X18688291Y349205D01*
G01X18799035Y389337D02*
G01X18799035Y292055D01*
G01X18804623Y275037D01*
G01X18816053Y269195D01*
G01X18827483Y269195D01*
G01X18781763Y349205D02*
G01X18821895Y349205D01*
G01X18892507Y389337D02*
G01X18892507Y292055D01*
G01X18898095Y275037D01*
G01X18909525Y269195D01*
G01X18920955Y269195D01*
G01X18875235Y349205D02*
G01X18915367Y349205D01*
G01X18997409Y349205D02*
G01X18985979Y343617D01*
G01X18974549Y332187D01*
G01X18968707Y314915D01*
G01X18968707Y303485D01*
G01X18974549Y286467D01*
G01X18985979Y275037D01*
G01X18997409Y269195D01*
G01X19014427Y269195D01*
G01X19025857Y275037D01*
G01X19037287Y286467D01*
G01X19043129Y303485D01*
G01X19043129Y314915D01*
G01X19037287Y332187D01*
G01X19025857Y343617D01*
G01X19014427Y349205D01*
G01X18997409Y349205D01*
G01X19090881Y349205D02*
G01X19090881Y269195D01*
G01X19090881Y326345D02*
G01X19108153Y343617D01*
G01X19119583Y349205D01*
G01X19136601Y349205D01*
G01X19148031Y343617D01*
G01X19153873Y326345D01*
G01X19153873Y269195D01*
G01X19153873Y326345D02*
G01X19170891Y343617D01*
G01X19182321Y349205D01*
G01X19199593Y349205D01*
G01X19211023Y343617D01*
G01X19216611Y326345D01*
G01X19216611Y269195D01*
G01X19392379Y389337D02*
G01X19392379Y269195D01*
G01X19392379Y269195D02*
G01X19460959Y269195D01*
G01X19577291Y349205D02*
G01X19577291Y269195D01*
G01X19577291Y332187D02*
G01X19565861Y343617D01*
G01X19554431Y349205D01*
G01X19537413Y349205D01*
G01X19525983Y343617D01*
G01X19514553Y332187D01*
G01X19508711Y314915D01*
G01X19508711Y303485D01*
G01X19514553Y286467D01*
G01X19525983Y275037D01*
G01X19537413Y269195D01*
G01X19554431Y269195D01*
G01X19565861Y275037D01*
G01X19577291Y286467D01*
G01X19630885Y349205D02*
G01X19665175Y269195D01*
G01X19699465Y349205D02*
G01X19665175Y269195D01*
G01X19653745Y246335D01*
G01X19642315Y234905D01*
G01X19630885Y229317D01*
G01X19625043Y229317D01*
G01X19747217Y314915D02*
G01X19815797Y314915D01*
G01X19815797Y326345D01*
G01X19810209Y337775D01*
G01X19804367Y343617D01*
G01X19792937Y349205D01*
G01X19775919Y349205D01*
G01X19764489Y343617D01*
G01X19753059Y332187D01*
G01X19747217Y314915D01*
G01X19747217Y303485D01*
G01X19753059Y286467D01*
G01X19764489Y275037D01*
G01X19775919Y269195D01*
G01X19792937Y269195D01*
G01X19804367Y275037D01*
G01X19815797Y286467D01*
G01X19863549Y349205D02*
G01X19863549Y269195D01*
G01X19863549Y314915D02*
G01X19869391Y332187D01*
G01X19880821Y343617D01*
G01X19892251Y349205D01*
G01X19909269Y349205D01*

G04 Image Start*
G36*
G01X4391262Y789296D02*
G01X4285649Y800777D01*
G01X4242774Y703571D01*
G01X4199899Y800777D01*
G01X4094286Y789296D01*
G01X4157049Y875021D01*
G01X4117327Y929276D01*
G01X4148819Y929276D01*
G01X4188520Y875021D01*
G01X4148819Y820767D01*
G01X4215647Y828031D01*
G01X4215647Y828031D01*
G01X4242774Y766538D01*
G01X4269901Y828031D01*
G01X4336729Y820767D01*
G01X4297028Y875021D01*
G01X4336703Y929250D01*
G01X4269876Y921986D01*
G01X4242774Y983505D01*
G01X4215647Y922011D01*
G01X4148819Y929276D01*
G01X4117327Y929276D01*
G01X4094286Y960746D01*
G01X4199924Y949266D01*
G01X4242774Y1046471D01*
G01X4285649Y949266D01*
G01X4391262Y960746D01*
G01X4328499Y875021D01*
G01X4391262Y789296D01*
G37*
G36*
G01X4262269Y1903601D02*
G01X4254529Y1903013D01*
G01X4246686Y1902814D01*
G01X4238843Y1903013D01*
G01X4231102Y1903601D01*
G01X4223475Y1904570D01*
G01X4215970Y1905910D01*
G01X4201364Y1909665D01*
G01X4187362Y1914790D01*
G01X4174039Y1921207D01*
G01X4161474Y1928840D01*
G01X4149742Y1937613D01*
G01X4138920Y1947448D01*
G01X4129084Y1958271D01*
G01X4120311Y1970003D01*
G01X4112678Y1982568D01*
G01X4106261Y1995890D01*
G01X4101137Y2009892D01*
G01X4097382Y2024498D01*
G01X4096041Y2032004D01*
G01X4095072Y2039631D01*
G01X4094484Y2047371D01*
G01X4094286Y2055214D01*
G01X4119686Y2055214D01*
G01X4120343Y2042248D01*
G01X4122270Y2029652D01*
G01X4125405Y2017490D01*
G01X4129682Y2005828D01*
G01X4135036Y1994728D01*
G01X4141405Y1984257D01*
G01X4148723Y1974477D01*
G01X4156925Y1965454D01*
G01X4165949Y1957251D01*
G01X4175728Y1949934D01*
G01X4186200Y1943565D01*
G01X4197299Y1938210D01*
G01X4208961Y1933934D01*
G01X4221123Y1930799D01*
G01X4221123Y1930799D01*
G01X4233719Y1928871D01*
G01X4246686Y1928214D01*
G01X4259652Y1928871D01*
G01X4272248Y1930799D01*
G01X4284410Y1933934D01*
G01X4296072Y1938210D01*
G01X4307172Y1943565D01*
G01X4317643Y1949934D01*
G01X4327423Y1957251D01*
G01X4336446Y1965454D01*
G01X4344649Y1974477D01*
G01X4351966Y1984257D01*
G01X4358335Y1994728D01*
G01X4363690Y2005828D01*
G01X4367966Y2017490D01*
G01X4371101Y2029652D01*
G01X4373029Y2042248D01*
G01X4373686Y2055214D01*
G01X4373029Y2068181D01*
G01X4371101Y2080777D01*
G01X4367966Y2092938D01*
G01X4363690Y2104601D01*
G01X4358335Y2115700D01*
G01X4351966Y2126172D01*
G01X4344649Y2135951D01*
G01X4336446Y2144975D01*
G01X4327423Y2153177D01*
G01X4317643Y2160495D01*
G01X4307172Y2166863D01*
G01X4296072Y2172218D01*
G01X4284410Y2176495D01*
G01X4272248Y2179629D01*
G01X4259652Y2181557D01*
G01X4246686Y2182214D01*
G01X4233719Y2181557D01*
G01X4221123Y2179629D01*
G01X4208961Y2176495D01*
G01X4197299Y2172218D01*
G01X4186200Y2166863D01*
G01X4175728Y2160495D01*
G01X4165949Y2153177D01*
G01X4156925Y2144975D01*
G01X4148723Y2135951D01*
G01X4141405Y2126172D01*
G01X4135036Y2115700D01*
G01X4129682Y2104601D01*
G01X4125405Y2092938D01*
G01X4122270Y2080777D01*
G01X4120343Y2068181D01*
G01X4119686Y2055214D01*
G01X4094286Y2055214D01*
G01X4094484Y2063057D01*
G01X4095072Y2070798D01*
G01X4096041Y2078425D01*
G01X4097382Y2085930D01*
G01X4101137Y2100536D01*
G01X4106261Y2114538D01*
G01X4112678Y2127860D01*
G01X4120311Y2140426D01*
G01X4129084Y2152158D01*
G01X4138920Y2162980D01*
G01X4149742Y2172816D01*
G01X4161474Y2181589D01*
G01X4174039Y2189222D01*
G01X4187362Y2195639D01*
G01X4201364Y2200763D01*
G01X4215970Y2204518D01*
G01X4223475Y2205858D01*
G01X4231102Y2206828D01*
G01X4238843Y2207416D01*
G01X4246686Y2207614D01*
G01X4254529Y2207416D01*
G01X4262269Y2206828D01*
G01X4269896Y2205858D01*
G01X4277402Y2204518D01*
G01X4292007Y2200763D01*
G01X4306010Y2195639D01*
G01X4319332Y2189222D01*
G01X4331897Y2181589D01*
G01X4343629Y2172816D01*
G01X4354452Y2162980D01*
G01X4364287Y2152158D01*
G01X4373060Y2140426D01*
G01X4380693Y2127860D01*
G01X4387110Y2114538D01*
G01X4392235Y2100536D01*
G01X4395990Y2085930D01*
G01X4397330Y2078425D01*
G01X4398299Y2070798D01*
G01X4398887Y2063057D01*
G01X4399086Y2055214D01*
G01X4398887Y2047371D01*
G01X4398299Y2039631D01*
G01X4397330Y2032004D01*
G01X4395990Y2024498D01*
G01X4392235Y2009892D01*
G01X4387110Y1995890D01*
G01X4380693Y1982568D01*
G01X4373060Y1970003D01*
G01X4364287Y1958271D01*
G01X4354452Y1947448D01*
G01X4343629Y1937613D01*
G01X4331897Y1928840D01*
G01X4319332Y1921207D01*
G01X4306010Y1914790D01*
G01X4292007Y1909665D01*
G01X4277402Y1905910D01*
G01X4269896Y1904570D01*
G01X4262269Y1903601D01*
G37*
G36*
G01X4399086Y465900D02*
G01X4329058Y313500D01*
G01X4399086Y161100D01*
G01X4246686Y231128D01*
G01X4094286Y161100D01*
G01X4118048Y212814D01*
G01X4146000Y212814D01*
G01X4236068Y254216D01*
G01X4246686Y259093D01*
G01X4257303Y254216D01*
G01X4347371Y212814D01*
G01X4305969Y302883D01*
G01X4301092Y313500D01*
G01X4305969Y324117D01*
G01X4347371Y414186D01*
G01X4257303Y372784D01*
G01X4246686Y367907D01*
G01X4236068Y372784D01*
G01X4146000Y414186D01*
G01X4187402Y324117D01*
G01X4192279Y313500D01*
G01X4187402Y302883D01*
G01X4187402Y302883D01*
G01X4146000Y212814D01*
G01X4118048Y212814D01*
G01X4164313Y313500D01*
G01X4094286Y465900D01*
G01X4246686Y395872D01*
G01X4399086Y465900D01*
G37*
G36*
G01X4094286Y1627043D02*
G01X4399086Y1627043D01*
G01X4246686Y1363086D01*
G01X4108951Y1601643D01*
G01X4138278Y1601643D01*
G01X4246686Y1413886D01*
G01X4355093Y1601643D01*
G01X4355093Y1601643D01*
G01X4138278Y1601643D01*
G01X4108951Y1601643D01*
G01X4094286Y1627043D01*
G37*
G36*
G01X4094286Y2788186D02*
G01X4373686Y2788186D01*
G01X4373686Y2508786D01*
G01X4094286Y2508786D01*
G01X4094286Y2762786D01*
G01X4119686Y2762786D01*
G01X4119686Y2534186D01*
G01X4348286Y2534186D01*
G01X4348286Y2762786D01*
G01X4348286Y2762786D01*
G01X4119686Y2762786D01*
G01X4094286Y2762786D01*
G01X4094286Y2788186D01*
G37*

G04 PolygonModel Start*
G54D16*
G01X3804000Y30471D02*
G01X20500001Y30471D01*
G01X3804000Y611043D02*
G01X20500001Y611043D01*
G01X3804000Y1191614D02*
G01X20500001Y1191614D01*
G01X3804000Y1772186D02*
G01X20500001Y1772186D01*
G01X3804000Y2352757D02*
G01X20500001Y2352757D01*
G01X3804000Y2933329D02*
G01X20500001Y2933329D01*
G01X3804000Y3513900D02*
G01X20500001Y3513900D01*
G01X3804000Y3513900D02*
G01X3804000Y55871D01*
G01X5255429Y3513900D02*
G01X5255429Y55871D01*
G01X6669592Y3513900D02*
G01X6669592Y55871D01*
G01X10540697Y3513900D02*
G01X10540697Y55871D01*
G01X12002104Y3513900D02*
G01X12002104Y55871D01*
G01X13433285Y3513900D02*
G01X13433285Y55871D01*
G01X15102464Y3513900D02*
G01X15102464Y55871D01*
G01X17021833Y3513900D02*
G01X17021833Y55871D01*
G01X20500001Y3513900D02*
G01X20500001Y55871D01*

M02*

